<svg width="55" height="59" viewBox="0 0 55 59" fill="none" xmlns="http://www.w3.org/2000/svg">
<path fill-rule="evenodd" clip-rule="evenodd" d="M26.6157 20.2694L25.5492 0L24.4826 20.2694C24.3957 21.9212 24.078 23.5317 23.5525 25.0604C22.0659 24.3378 20.6708 23.3961 19.416 22.2485L4.70006 8.79035L17.9195 23.772C19.4093 25.4604 20.5459 27.3982 21.2991 29.471C20.0564 31.2357 18.4839 32.7788 16.6374 34.0026L0.0195312 45.0172L17.4704 35.9908C19.0207 35.189 20.6604 34.6324 22.335 34.3212C22.4545 35.9682 22.3489 37.6424 22.0055 39.2964L17.9151 59L24.0497 39.854C24.7311 37.7273 25.7904 35.7818 27.1485 34.098C29.3803 34.3017 31.5821 34.9326 33.6279 35.9908L51.0788 45.0172L34.461 34.0026C33.0647 33.0772 31.8251 31.9692 30.7663 30.7209C32.1207 29.776 33.6146 29.0201 35.2127 28.4894L54.0191 22.244L34.665 26.4083C32.4849 26.8774 30.2691 26.9107 28.1301 26.5389C27.2541 24.5853 26.7312 22.4638 26.6157 20.2694Z" fill="#FAFAFA"/>
</svg>
