<svg width="54" height="59" viewBox="0 0 54 59" fill="none" xmlns="http://www.w3.org/2000/svg">
<path fill-rule="evenodd" clip-rule="evenodd" d="M26.5941 20.27L25.5276 0L24.4612 20.27C24.3743 21.921 24.0567 23.5309 23.5317 25.059C22.0462 24.3367 20.6523 23.3955 19.3984 22.2487L4.68337 8.79075L17.902 23.7722C19.3909 25.4596 20.527 27.3963 21.2803 29.4678C20.0373 31.2339 18.4641 32.7782 16.6165 34.0029L0 45.0174L17.4484 35.9916C19 35.189 20.6413 34.6321 22.3173 34.321C22.437 35.9682 22.3313 37.6426 21.9879 39.2968L17.8977 59.0001L24.032 39.8545C24.7133 37.7279 25.7724 35.7826 27.1303 34.0988C29.3612 34.3028 31.5619 34.9338 33.6069 35.9916L51.0553 45.0174L34.4388 34.0029C33.0433 33.0778 31.8043 31.9705 30.7459 30.723C32.1009 29.7771 33.5957 29.0207 35.1948 28.4896L54 22.2443L34.6471 26.4085C32.4655 26.8779 30.2483 26.911 28.1079 26.5384C27.2323 24.5851 26.7095 22.4639 26.5941 20.27Z" fill="#FAFAFA"/>
</svg>
