<svg width="180" height="77" viewBox="0 0 180 77" fill="none" xmlns="http://www.w3.org/2000/svg">
<path d="M26.3548 38.2844C23.2446 37.8928 21.6847 35.5484 21.6709 32.4938C21.6602 30.2297 21.6575 27.965 21.6629 25.6998C21.6629 25.673 21.6761 25.6597 21.7025 25.6597H26.43C26.4516 25.6597 26.4724 25.6683 26.4877 25.6836C26.503 25.699 26.5116 25.7198 26.5116 25.7416C26.5111 27.648 26.51 29.5593 26.5084 31.4756C26.5068 32.452 26.7654 33.4661 27.897 33.6136C29.1441 33.775 29.5636 32.8387 29.6477 31.7361C29.7226 30.7553 29.7237 29.774 29.6509 28.7921C29.541 27.3061 28.8354 26.1167 27.9592 24.9691C26.8433 23.5078 25.7219 22.0505 24.5952 20.5973C23.0296 18.5765 22.0726 16.4106 21.9571 13.827C21.814 10.6234 21.738 6.76435 25.3647 5.51678C25.9601 5.31199 26.6113 5.19103 27.3183 5.1539C28.5156 5.09055 29.5394 5.11895 30.3897 5.23909C33.3164 5.65358 34.3873 7.71128 34.4051 10.5062C34.417 12.3657 34.4175 14.2257 34.4067 16.0863C34.4067 16.113 34.3935 16.1264 34.3671 16.1264L29.7843 16.1411C29.7626 16.1411 29.7419 16.1324 29.7265 16.1169C29.7112 16.1014 29.7026 16.0804 29.7026 16.0584C29.7032 14.5785 29.7045 13.0893 29.7067 11.5908C29.7083 10.7307 29.6259 9.67314 28.5525 9.54372C27.2722 9.38972 26.9295 10.2547 26.9012 11.3811C26.885 12.0107 26.9001 12.6401 26.9465 13.2692C27.0499 14.6642 27.6876 15.7783 28.5048 16.8628C29.7199 18.476 30.9398 20.0853 32.1646 21.6909C33.5104 23.4561 34.5118 25.2263 34.7753 27.4806C34.9377 28.8715 34.9321 30.4091 34.8424 31.8696C34.6395 35.179 33.0682 37.9657 29.52 38.3073C28.3927 38.416 27.3377 38.4083 26.3548 38.2844Z" fill="#3A00B6"/>
<path d="M20.2307 34.3411C20.2571 35.5529 20.2614 36.7437 20.2436 37.9134C20.242 37.9904 20.2035 38.0289 20.1281 38.0289H15.4409C15.4195 38.0289 15.3989 38.0203 15.3838 38.0049C15.3686 37.9896 15.3601 37.9687 15.3601 37.947V23.7962C15.3601 23.7745 15.3516 23.7536 15.3364 23.7383C15.3213 23.7229 15.3007 23.7143 15.2793 23.7143H12.1069C12.0852 23.7143 12.0644 23.7229 12.0491 23.7383C12.0338 23.7536 12.0252 23.7745 12.0252 23.7962L12.0268 37.9265C12.0268 37.9948 11.9932 38.0289 11.9258 38.0289L7.20636 38.0273C7.17295 38.0273 7.15625 38.0103 7.15625 37.9765V5.48822C7.15625 5.46092 7.16972 5.44727 7.19666 5.44727H11.9953C12.0032 5.44727 12.0109 5.45046 12.0165 5.45614C12.0221 5.46183 12.0252 5.46954 12.0252 5.47757L12.0293 18.4226C12.0293 18.4317 12.0311 18.4408 12.0346 18.4492C12.038 18.4577 12.0432 18.4654 12.0496 18.4718C12.0561 18.4783 12.0637 18.4834 12.0722 18.4869C12.0806 18.4904 12.0896 18.4922 12.0988 18.4922H15.2793C15.3007 18.4922 15.3213 18.4836 15.3364 18.4682C15.3516 18.4529 15.3601 18.432 15.3601 18.4103V5.49887C15.3601 5.46447 15.3768 5.44727 15.4102 5.44727H20.1879C20.2044 5.44727 20.2202 5.45391 20.2319 5.46574C20.2435 5.47757 20.2501 5.49361 20.2501 5.51034C20.2501 15.0796 20.2501 24.6563 20.2501 34.2404C20.2501 34.2545 20.2474 34.2677 20.242 34.2797C20.2339 34.2993 20.2302 34.3198 20.2307 34.3411Z" fill="#3A00B6"/>
<path d="M41.204 18.697L45.9865 18.6995C45.9982 18.6995 46.0096 18.7042 46.0179 18.7127C46.0262 18.7211 46.0309 18.7326 46.0309 18.7445L46.0285 23.6283C46.0285 23.6402 46.0238 23.6517 46.0155 23.6601C46.0071 23.6686 45.9958 23.6733 45.984 23.6733H41.204C41.1922 23.6733 41.1809 23.6781 41.1725 23.6865C41.1642 23.695 41.1595 23.7064 41.1595 23.7184L41.1587 33.0075C41.1587 33.0195 41.1634 33.0309 41.1717 33.0394C41.1801 33.0478 41.1914 33.0526 41.2032 33.0526H47.5812C47.593 33.0526 47.6043 33.0573 47.6126 33.0658C47.6209 33.0742 47.6256 33.0857 47.6256 33.0976V37.9839C47.6256 37.9958 47.6209 38.0073 47.6126 38.0157C47.6043 38.0242 47.593 38.0289 47.5812 38.0289H36.314C36.3022 38.0289 36.2909 38.0242 36.2826 38.0157C36.2742 38.0073 36.2695 37.9958 36.2695 37.9839V5.49232C36.2695 5.48037 36.2742 5.46891 36.2826 5.46046C36.2909 5.45201 36.3022 5.44727 36.314 5.44727H47.3387C47.3505 5.44727 47.3618 5.45201 47.3701 5.46046C47.3785 5.46891 47.3831 5.48037 47.3831 5.49232V10.1328C47.3831 10.1447 47.3785 10.1562 47.3701 10.1647C47.3618 10.1731 47.3505 10.1779 47.3387 10.1779H41.204C41.1922 10.1779 41.1809 10.1826 41.1725 10.191C41.1642 10.1995 41.1595 10.211 41.1595 10.2229V18.6519C41.1595 18.6579 41.1607 18.6637 41.1629 18.6692C41.1651 18.6747 41.1684 18.6796 41.1725 18.6838C41.1767 18.688 41.1816 18.6913 41.187 18.6936C41.1924 18.6958 41.1981 18.697 41.204 18.697Z" fill="#3A00B6"/>
<path d="M57.2539 31.9656L56.6186 37.9691C56.6168 37.9856 56.609 38.0009 56.5968 38.0119C56.5846 38.023 56.5687 38.029 56.5523 38.0289H52.309C52.2995 38.029 52.2902 38.027 52.2816 38.0231C52.273 38.0193 52.2653 38.0136 52.259 38.0064C52.2527 37.9993 52.248 37.9909 52.2452 37.9818C52.2424 37.9727 52.2415 37.963 52.2427 37.9536L56.1611 5.50625C56.1631 5.48989 56.171 5.47484 56.1832 5.46396C56.1954 5.45309 56.2112 5.44714 56.2274 5.44727H61.9119C61.9279 5.44732 61.9434 5.45324 61.9554 5.46393C61.9674 5.47462 61.9752 5.48936 61.9774 5.50543L66.1513 37.9527C66.1525 37.9622 66.1518 37.9719 66.1491 37.981C66.1464 37.9902 66.1418 37.9986 66.1356 38.0059C66.1294 38.0131 66.1217 38.0189 66.1131 38.0228C66.1045 38.0268 66.0952 38.0289 66.0858 38.0289H61.4989C61.4825 38.029 61.4667 38.023 61.4544 38.0119C61.4422 38.0009 61.4344 37.9856 61.4326 37.9691L60.7973 31.9639C60.7955 31.9474 60.7878 31.9322 60.7755 31.9211C60.7633 31.9101 60.7474 31.904 60.731 31.9041L57.3202 31.9058C57.3038 31.9057 57.288 31.9117 57.2757 31.9228C57.2635 31.9338 57.2557 31.9491 57.2539 31.9656ZM57.7453 26.9827C57.745 26.9863 57.7454 26.99 57.7466 26.9935C57.7477 26.9969 57.7496 27.0001 57.752 27.0028C57.7544 27.0055 57.7574 27.0077 57.7607 27.0092C57.764 27.0106 57.7676 27.0114 57.7712 27.0114L60.238 27.013C60.2416 27.013 60.2452 27.0123 60.2485 27.0108C60.2518 27.0093 60.2548 27.0072 60.2572 27.0045C60.2596 27.0018 60.2615 26.9986 60.2626 26.9951C60.2638 26.9916 60.2642 26.988 60.2639 26.9843L59.007 15.2795C59.006 15.2735 59.0028 15.268 58.9982 15.264C58.9935 15.2601 58.9876 15.2579 58.9816 15.2579C58.9755 15.2579 58.9696 15.2601 58.965 15.264C58.9603 15.268 58.9572 15.2735 58.9561 15.2795L57.7453 26.9827Z" fill="#3A00B6"/>
<path d="M71.8667 23.4999C71.8327 23.5016 71.8158 23.5196 71.8158 23.554V37.9366C71.8158 37.961 71.8062 37.9843 71.7893 38.0015C71.7723 38.0187 71.7493 38.0284 71.7252 38.0284L67.0066 38.03C66.9852 38.03 66.9646 38.0213 66.9495 38.0058C66.9343 37.9903 66.9258 37.9692 66.9258 37.9473V5.52782C66.9258 5.50652 66.9341 5.48611 66.949 5.47105C66.9638 5.456 66.984 5.44754 67.005 5.44754C69.7035 5.44699 72.4117 5.44727 75.1296 5.44836C78.5882 5.45 79.761 7.53473 79.7295 10.7425C79.7109 12.6634 79.7319 14.5843 79.7085 16.5052C79.6882 18.1222 79.1411 19.6483 77.666 20.3978C77.6625 20.3997 77.6595 20.4025 77.6574 20.4059C77.6554 20.4093 77.6543 20.4132 77.6543 20.4171C77.6543 20.4211 77.6554 20.4249 77.6574 20.4281C77.6595 20.4314 77.6625 20.4339 77.666 20.4355C78.9446 21.0226 79.6198 22.0397 79.6915 23.4868C79.7066 23.7883 79.7149 24.0911 79.7165 24.3953C79.7316 27.2896 79.7378 30.1839 79.7351 33.0783C79.7335 34.6633 79.5339 36.3278 80.2128 37.8178C80.2231 37.8405 80.2276 37.8655 80.2259 37.8904C80.2242 37.9153 80.2163 37.9394 80.2031 37.9604C80.1898 37.9815 80.1715 37.9988 80.1499 38.0108C80.1283 38.0228 80.1041 38.0291 80.0794 38.0292H75.4497C75.4139 38.0291 75.3788 38.0186 75.3488 37.9988C75.3188 37.979 75.2952 37.9509 75.2808 37.9178C75.0394 37.3646 74.9152 36.7685 74.9082 36.1296C74.8688 32.4827 74.8567 28.8359 74.8718 25.189C74.8758 24.1397 74.4774 23.5917 73.4412 23.5163C72.9104 23.4781 72.3856 23.4726 71.8667 23.4999ZM73.5115 18.7956C74.7902 18.6457 74.9163 17.1859 74.888 16.1841C74.8476 14.7531 74.867 13.3196 74.8678 11.8877C74.8678 10.8998 74.6665 9.98399 73.5374 9.90535C72.9807 9.86603 72.4303 9.85674 71.8861 9.8775C71.8672 9.87813 71.8493 9.88618 71.8362 9.89994C71.8231 9.9137 71.8158 9.93209 71.8158 9.95122V18.7587C71.8157 18.7708 71.8182 18.7828 71.8229 18.7939C71.8276 18.8051 71.8346 18.8151 71.8433 18.8234C71.852 18.8317 71.8623 18.8381 71.8736 18.8422C71.8848 18.8463 71.8968 18.848 71.9087 18.8472C72.4543 18.8095 72.9894 18.857 73.5115 18.7956Z" fill="#3A00B6"/>
<path d="M89.5013 38.0289H84.8021C84.7922 38.0289 84.7825 38.0269 84.7733 38.0231C84.7642 38.0193 84.7559 38.0137 84.7489 38.0066C84.742 37.9995 84.7364 37.9911 84.7327 37.9819C84.7289 37.9726 84.7269 37.9627 84.7269 37.9527V10.254C84.7269 10.2338 84.719 10.2145 84.7049 10.2002C84.6908 10.1859 84.6717 10.1779 84.6518 10.1779H80.7002C80.6802 10.1779 80.6611 10.1698 80.647 10.1555C80.6329 10.1413 80.625 10.1219 80.625 10.1017V5.52345C80.625 5.51344 80.6269 5.50354 80.6307 5.49429C80.6345 5.48505 80.64 5.47665 80.647 5.46958C80.654 5.4625 80.6623 5.45689 80.6714 5.45306C80.6805 5.44924 80.6903 5.44727 80.7002 5.44727H93.6033C93.6131 5.44727 93.6229 5.44924 93.632 5.45306C93.6412 5.45689 93.6494 5.4625 93.6564 5.46958C93.6634 5.47665 93.6689 5.48505 93.6727 5.49429C93.6765 5.50354 93.6784 5.51344 93.6784 5.52345V10.1017C93.6784 10.1219 93.6705 10.1413 93.6564 10.1555C93.6423 10.1698 93.6232 10.1779 93.6033 10.1779H89.6517C89.6418 10.1779 89.632 10.1798 89.6229 10.1837C89.6138 10.1875 89.6055 10.1931 89.5985 10.2002C89.5915 10.2072 89.586 10.2156 89.5822 10.2249C89.5785 10.2341 89.5765 10.244 89.5765 10.254V37.9527C89.5765 37.9729 89.5686 37.9923 89.5545 38.0066C89.5404 38.0209 89.5213 38.0289 89.5013 38.0289Z" fill="#3A00B6"/>
<path d="M106.749 31.9033L103.312 31.905C103.299 31.9051 103.287 31.91 103.277 31.9187C103.268 31.9275 103.262 31.9395 103.26 31.9525L102.622 37.9814C102.621 37.9944 102.615 38.0064 102.605 38.0151C102.596 38.0239 102.584 38.0288 102.571 38.0289H98.2982C98.2908 38.0289 98.2835 38.0272 98.2768 38.0241C98.27 38.021 98.264 38.0164 98.2591 38.0108C98.2542 38.0051 98.2506 37.9985 98.2484 37.9913C98.2462 37.9841 98.2456 37.9766 98.2465 37.9691L102.167 5.49396C102.169 5.481 102.175 5.46909 102.185 5.46048C102.195 5.45187 102.207 5.44717 102.22 5.44727H107.93C107.943 5.44737 107.955 5.45216 107.965 5.46075C107.974 5.46934 107.98 5.48114 107.982 5.49396L112.159 37.9699C112.16 37.9774 112.159 37.985 112.157 37.9921C112.155 37.9993 112.151 38.0059 112.146 38.0116C112.142 38.0172 112.136 38.0218 112.129 38.0249C112.122 38.028 112.115 38.0297 112.107 38.0297L107.491 38.0265C107.478 38.0263 107.465 38.0214 107.456 38.0127C107.446 38.0039 107.44 37.9919 107.439 37.9789L106.801 31.9508C106.8 31.9379 106.794 31.9259 106.784 31.9171C106.775 31.9084 106.762 31.9034 106.749 31.9033ZM106.231 27.0114C106.236 27.0114 106.241 27.0103 106.246 27.008C106.251 27.0058 106.256 27.0025 106.259 26.9984C106.263 26.9943 106.266 26.9895 106.268 26.9843C106.269 26.979 106.27 26.9734 106.269 26.9679L105.019 15.3369C104.998 15.1413 104.977 15.1416 104.957 15.3377L103.748 26.986C103.748 26.9895 103.748 26.993 103.749 26.9964C103.75 26.9997 103.752 27.0028 103.754 27.0055C103.757 27.0081 103.76 27.0102 103.763 27.0117C103.766 27.0131 103.77 27.0138 103.773 27.0138L106.231 27.0114Z" fill="#3A00B6"/>
<path d="M117.373 19.4793C117.353 19.6704 117.343 19.8413 117.343 19.9921C117.342 25.9915 117.342 31.9899 117.343 37.9871C117.343 37.9986 117.338 38.0097 117.33 38.0178C117.322 38.026 117.312 38.0305 117.3 38.0305L113.055 38.0256C112.977 38.0256 112.938 37.986 112.938 37.9069V5.48822C112.938 5.47736 112.942 5.46694 112.949 5.45926C112.957 5.45158 112.967 5.44727 112.978 5.44727H117.334C117.348 5.44727 117.357 5.45437 117.36 5.46856L121.475 22.6207C121.51 22.7654 121.527 22.7633 121.527 22.6142L121.524 5.48085C121.524 5.47194 121.528 5.4634 121.534 5.4571C121.54 5.4508 121.549 5.44727 121.558 5.44727H125.951C125.961 5.44727 125.972 5.45158 125.979 5.45926C125.987 5.46694 125.991 5.47736 125.991 5.48822V37.9232C125.991 37.9369 125.988 37.9504 125.983 37.9631C125.978 37.9757 125.97 37.9871 125.961 37.9968C125.951 38.0065 125.94 38.0141 125.928 38.0194C125.915 38.0246 125.902 38.0273 125.888 38.0273L122.071 38.0297C122.053 38.0297 122.035 38.0236 122.021 38.0123C122.007 38.001 121.997 37.9852 121.992 37.9675L117.389 19.4776C117.382 19.4482 117.376 19.4487 117.373 19.4793Z" fill="#3A00B6"/>
<path d="M127.933 38.0216C127.894 38.0211 127.856 38.005 127.828 37.9766C127.801 37.9482 127.785 37.9099 127.785 37.87V5.53002C127.785 5.50873 127.793 5.48831 127.808 5.47325C127.823 5.4582 127.843 5.44974 127.864 5.44974C130.394 5.44865 132.934 5.44701 135.484 5.44483C138.233 5.44319 140.016 6.71942 140.567 9.45538C140.693 10.0807 140.756 10.6718 140.756 11.2288C140.758 18.1425 140.754 25.0558 140.742 31.9689C140.736 35.61 139.08 38.0093 135.287 38.0298C132.869 38.0429 130.418 38.0401 127.933 38.0216ZM135.73 12.2937C135.727 11.2673 135.602 9.95998 134.271 9.89362C133.753 9.86796 133.24 9.8625 132.731 9.87724C132.721 9.87746 132.712 9.88143 132.706 9.88832C132.699 9.89521 132.695 9.90447 132.695 9.9141V33.2197C132.695 33.2508 132.711 33.2672 132.741 33.2689C133.192 33.294 133.643 33.2934 134.094 33.2672C135.618 33.1796 135.741 31.8648 135.742 30.6582C135.746 24.537 135.742 18.4155 135.73 12.2937Z" fill="#3A00B6"/>
<path d="M35.2217 69.5775C34.3787 68.4594 34.0732 67.0087 34.0699 65.6325C34.0645 63.3995 34.0653 61.1665 34.0723 58.9335C34.0723 58.9095 34.0839 58.8975 34.1071 58.8975L38.8581 58.8983C38.885 58.8983 38.8985 58.9122 38.8985 58.9401C38.8979 60.5461 38.8987 62.1509 38.9009 63.7542C38.9017 64.9018 38.7692 66.7736 40.3986 66.8489C41.4841 66.8989 41.9432 66.1666 42.0281 65.164C42.1243 64.0335 42.1477 62.6598 42.0135 61.6646C41.8333 60.3351 41.181 59.2931 40.3606 58.2135C39.2328 56.7303 38.1005 55.2506 36.9635 53.7745C35.4844 51.8528 34.5969 49.904 34.3924 47.4548C34.0465 43.3181 34.3148 38.7456 39.571 38.4007C43.6276 38.1345 46.7516 38.8054 46.8041 43.7317C46.824 45.5579 46.8275 47.4198 46.8146 49.3175C46.8146 49.3275 46.8107 49.3371 46.8037 49.3442C46.7967 49.3512 46.7873 49.3552 46.7774 49.3552H42.1323C42.1214 49.3552 42.1109 49.3508 42.1032 49.343C42.0955 49.3351 42.0911 49.3245 42.0911 49.3134C42.0911 47.7428 42.0906 46.1663 42.0895 44.5837C42.0887 43.5638 41.8034 42.675 40.5918 42.7627C39.9085 42.8129 39.509 43.1701 39.3931 43.8341C39.2404 44.7065 39.2549 45.8116 39.3446 46.6348C39.5006 48.0683 40.2313 49.2159 41.0824 50.3431C42.5173 52.2435 43.5048 53.5411 44.0447 54.2357C45.2635 55.8044 46.3676 57.3452 46.8995 59.2677C47.323 60.7971 47.3093 62.4214 47.2729 64.0794C47.2535 64.9826 47.2031 65.6909 47.1217 66.2043C46.6513 69.1712 44.9152 71.251 41.8559 71.5484C39.5435 71.7728 36.7736 71.6377 35.2217 69.5775Z" fill="#3A00B6"/>
<path d="M64.666 68.1167C64.6652 68.1129 64.6632 68.1095 64.6603 68.107C64.6574 68.1045 64.6537 68.103 64.6498 68.1028C64.6459 68.1027 64.642 68.1038 64.6387 68.1059C64.6353 68.1081 64.6328 68.1113 64.6313 68.1151C63.9354 69.8639 62.428 71.4441 60.5188 71.6571C57.4644 71.9978 55.6838 69.6616 55.2975 66.8814C55.2506 66.5456 55.2272 66.0363 55.2272 65.3537C55.225 58.6137 55.2288 51.8738 55.2385 45.1338C55.2425 42.5945 56.0726 39.8298 58.6453 38.8108C59.9628 38.289 61.4435 38.3087 62.879 38.3865C66.8314 38.6011 67.9468 41.2699 67.9945 44.8119C68.0122 46.1302 68.0211 47.4993 68.0211 48.9191C68.0211 48.9413 68.0124 48.9625 67.997 48.9782C67.9815 48.9939 67.9606 49.0027 67.9387 49.0027L63.3267 49.0076C63.3055 49.0076 63.2852 48.999 63.2702 48.9838C63.2552 48.9686 63.2467 48.948 63.2467 48.9265C63.2494 47.5651 63.2483 46.2001 63.2435 44.8316C63.2395 43.7372 62.5872 42.9156 61.4273 43.1286C60.2861 43.3383 60.198 44.6055 60.198 45.5418C60.1953 51.8154 60.1931 58.0892 60.1915 64.3634C60.1907 65.4217 60.5487 66.675 61.8121 66.6668C63.254 66.6586 63.5902 65.5962 63.5902 64.3781C63.5892 61.7514 63.5908 59.1306 63.5951 56.5159C63.5951 56.5073 63.5934 56.4989 63.5902 56.4909C63.5869 56.483 63.5821 56.4759 63.5761 56.4699C63.5701 56.4638 63.563 56.4591 63.5551 56.4559C63.5473 56.4527 63.5389 56.4511 63.5304 56.4512L61.4718 56.4618C61.4609 56.4619 61.4501 56.4599 61.44 56.4557C61.4299 56.4516 61.4207 56.4454 61.413 56.4377C61.4052 56.4299 61.3991 56.4206 61.3949 56.4105C61.3907 56.4003 61.3885 56.3893 61.3885 56.3783V51.5232C61.3885 51.5015 61.397 51.4806 61.4122 51.4653C61.4274 51.4499 61.4479 51.4413 61.4694 51.4413H68.1674C68.1863 51.4413 68.2044 51.4488 68.2177 51.4622C68.2311 51.4755 68.2386 51.4936 68.2386 51.5125V71.2032C68.2386 71.2306 68.2251 71.2442 68.1981 71.2442H65.5123C65.4999 71.2441 65.4879 71.24 65.4781 71.2325C65.4683 71.2249 65.4613 71.2144 65.4581 71.2024L64.666 68.1167Z" fill="#3A00B6"/>
<path d="M101.954 61.33C102.304 65.7272 101.861 71.4342 96.0553 71.5841C95.0393 71.6103 94.0055 71.6259 93.0041 71.426C89.7896 70.7871 88.7971 68.2027 88.789 65.2112C88.7842 63.1196 88.7839 61.028 88.7882 58.9365C88.7887 58.9097 88.8022 58.8963 88.8286 58.8963H93.5949C93.6059 58.8963 93.6163 58.9007 93.6241 58.9086C93.6318 58.9164 93.6362 58.927 93.6362 58.9381C93.6362 60.891 93.6362 62.8498 93.6362 64.8147C93.6362 66.0336 94.1421 66.942 95.4725 66.8208C96.4618 66.7299 96.7156 65.8091 96.7779 64.9523C96.8485 63.9781 96.849 63.0033 96.7795 62.0279C96.6744 60.5658 95.9995 59.3968 95.1306 58.2607C93.9549 56.7229 92.7764 55.1872 91.5953 53.6538C89.9715 51.5469 89.1066 49.2549 89.0662 46.5722C89.0412 44.9208 88.9701 43.6708 89.3225 42.2668C90.2811 38.4528 93.9029 38.1366 97.1117 38.4168C100.462 38.7092 101.526 40.8849 101.534 44.0296C101.539 45.7908 101.539 47.5519 101.535 49.3131C101.535 49.3238 101.531 49.334 101.524 49.3415C101.516 49.349 101.506 49.3532 101.496 49.3532H96.87C96.8589 49.3532 96.8482 49.3488 96.8403 49.3408C96.8324 49.3328 96.828 49.3219 96.828 49.3107C96.8291 47.8154 96.8301 46.3142 96.8312 44.807C96.832 43.9567 96.7536 42.9074 95.6916 42.773C94.5285 42.6256 94.1179 43.2956 94.0524 44.3417C94.0142 44.9468 94.0061 45.5527 94.0282 46.1594C94.0864 47.7395 94.7887 48.9838 95.7126 50.2011C97.0268 51.9327 98.3408 53.665 99.6545 55.3977C101.008 57.1827 101.771 59.0307 101.954 61.33Z" fill="#3A00B6"/>
<path d="M109.114 71.6332C106.435 71.6225 104.286 70.3348 103.601 67.5981C103.324 66.493 103.257 65.601 103.257 64.3395C103.253 57.8496 103.253 51.3598 103.256 44.87C103.257 41.4803 104.749 38.6797 108.425 38.4085C111.14 38.2078 114.319 38.32 115.58 41.2657C116.097 42.4739 116.181 43.8853 116.184 45.2034C116.188 47.1136 116.188 49.0233 116.185 50.9325C116.185 50.9431 116.181 50.9533 116.173 50.9609C116.166 50.9684 116.156 50.9726 116.145 50.9726H111.418C111.409 50.9726 111.401 50.9695 111.393 50.9639C111.386 50.9582 111.381 50.9504 111.379 50.9415C111.331 50.7474 111.375 50.518 111.376 50.3796C111.379 48.6932 111.379 47.0068 111.374 45.3205C111.37 43.9017 110.873 42.7557 109.196 43.1743C108.476 43.3537 108.247 44.1376 108.246 44.793C108.244 51.4537 108.244 58.1145 108.244 64.7753C108.244 65.7099 108.539 66.679 109.612 66.8035C110.848 66.9468 111.39 65.8828 111.37 64.8113C111.323 62.2638 111.381 59.6941 111.376 57.0958C111.376 57.0849 111.381 57.0745 111.388 57.0668C111.396 57.0591 111.406 57.0548 111.417 57.0548H116.146C116.157 57.0548 116.167 57.0592 116.175 57.067C116.183 57.0749 116.187 57.0855 116.187 57.0966C116.187 59.6228 116.185 62.1551 116.182 64.6934C116.179 68.4549 114.716 71.6152 110.469 71.6332C110.017 71.6354 109.565 71.6354 109.114 71.6332Z" fill="#3A00B6"/>
<path d="M136.156 71.1962C132.962 70.042 132.5 66.5025 132.497 63.5609C132.491 54.2466 132.491 48.2958 132.495 45.7084C132.501 42.7513 133.344 39.6 136.496 38.6653C137.702 38.3074 139.08 38.3082 140.34 38.3893C145.013 38.6924 145.867 42.354 145.87 46.29C145.873 52.1169 145.873 57.9437 145.871 63.7706C145.869 67.7074 144.811 71.4657 140.108 71.6254C138.784 71.6705 137.453 71.6656 136.156 71.1962ZM137.484 63.7247C137.486 64.892 137.449 66.7572 139.122 66.8179C140.563 66.8695 140.882 65.5859 140.882 64.4259C140.883 58.0655 140.879 51.7051 140.872 45.3447C140.871 44.4911 140.613 43.418 139.691 43.1698C139.12 43.0158 138.62 43.0956 138.19 43.409C137.422 43.9685 137.488 45.2308 137.486 46.0614C137.47 51.9495 137.47 57.8372 137.484 63.7247Z" fill="#3A00B6"/>
<path d="M149.463 70.2262C147.682 68.6199 147.409 66.0207 147.408 63.7713C147.406 57.6681 147.406 51.5652 147.407 45.4625C147.408 41.9926 148.783 38.8086 152.621 38.4309C154.114 38.2835 155.702 38.2786 157.099 38.752C160.23 39.8137 160.761 43.0812 160.761 45.9728C160.764 52.0487 160.764 58.1246 160.762 64.2005C160.761 68.2332 159.292 71.6138 154.721 71.6343C152.792 71.6425 150.994 71.6089 149.463 70.2262ZM153.48 66.6858C154.262 67.0069 155.23 66.7325 155.546 65.8782C155.701 65.4615 155.778 65.0115 155.778 64.5282C155.775 58.2093 155.773 51.8906 155.77 45.5723C155.77 44.9219 155.707 44.3116 155.428 43.8086C154.945 42.9395 153.535 42.865 152.898 43.5801C152.461 44.0724 152.38 44.917 152.38 45.5854C152.376 51.8775 152.38 58.1697 152.391 64.4619C152.393 65.3433 152.566 66.3115 153.48 66.6858Z" fill="#3A00B6"/>
<path d="M14.9068 71.2294C12.3312 71.2501 9.75791 71.2537 7.1871 71.24C7.17788 71.24 7.16904 71.2363 7.16252 71.2297C7.15601 71.2231 7.15234 71.2141 7.15234 71.2048V38.705C7.15234 38.6953 7.15618 38.6859 7.163 38.679C7.16982 38.6721 7.17907 38.6682 7.18872 38.6682C9.85921 38.654 12.5346 38.6586 15.2148 38.6821C15.703 38.6865 16.2143 38.7698 16.7488 38.9319C19.5891 39.7961 20.1015 42.3281 20.1023 44.9756C20.1056 51.7522 20.1061 58.529 20.1039 65.3061C20.1039 65.578 20.0732 65.9674 20.0118 66.4742C19.6537 69.4182 17.9055 71.2056 14.9068 71.2294ZM15.0846 45.5081C15.083 44.4178 14.923 43.1137 13.5158 43.1104C12.8142 43.1088 12.3333 43.1071 12.073 43.1055C12.0407 43.1055 12.0245 43.1219 12.0245 43.1547L12.0221 66.4316C12.0221 66.4638 12.038 66.4805 12.0698 66.4816C13.342 66.5323 14.7039 66.6855 14.9957 65.1406C15.0604 64.7966 15.0927 64.449 15.0927 64.0978C15.0943 57.9013 15.0916 51.7047 15.0846 45.5081Z" fill="#3A00B6"/>
<path d="M21.8203 71.1902V38.7167C21.8203 38.7023 21.8259 38.6886 21.8359 38.6784C21.8459 38.6683 21.8595 38.6626 21.8737 38.6626H32.8806C32.8947 38.6626 32.9083 38.6683 32.9183 38.6784C32.9283 38.6886 32.9339 38.7023 32.9339 38.7167V43.3391C32.9339 43.3535 32.9283 43.3672 32.9183 43.3773C32.9083 43.3875 32.8947 43.3932 32.8806 43.3932H26.7636C26.7566 43.3932 26.7497 43.3946 26.7432 43.3973C26.7368 43.4 26.7309 43.404 26.7259 43.409C26.721 43.414 26.717 43.42 26.7144 43.4266C26.7117 43.4331 26.7103 43.4401 26.7103 43.4472V51.8615C26.7103 51.8686 26.7117 51.8757 26.7144 51.8822C26.717 51.8888 26.721 51.8948 26.7259 51.8998C26.7309 51.9048 26.7368 51.9088 26.7432 51.9115C26.7497 51.9142 26.7566 51.9156 26.7636 51.9156L31.5469 51.9107C31.5611 51.9107 31.5747 51.9164 31.5847 51.9265C31.5947 51.9367 31.6003 51.9504 31.6003 51.9648V56.8346C31.6003 56.8489 31.5947 56.8627 31.5847 56.8728C31.5747 56.883 31.5611 56.8887 31.5469 56.8887H26.7636C26.7566 56.8887 26.7497 56.8901 26.7432 56.8928C26.7368 56.8955 26.7309 56.8995 26.7259 56.9045C26.721 56.9095 26.717 56.9155 26.7144 56.922C26.7117 56.9286 26.7103 56.9356 26.7103 56.9427V66.2343C26.7103 66.2487 26.7159 66.2624 26.7259 66.2726C26.7359 66.2827 26.7495 66.2884 26.7636 66.2884H33.1433C33.1574 66.2884 33.171 66.2941 33.181 66.3042C33.191 66.3144 33.1966 66.3281 33.1966 66.3425V71.1902C33.1966 71.2045 33.191 71.2183 33.181 71.2284C33.171 71.2386 33.1574 71.2442 33.1433 71.2442H21.8737C21.8595 71.2442 21.8459 71.2386 21.8359 71.2284C21.8259 71.2183 21.8203 71.2045 21.8203 71.1902Z" fill="#3A00B6"/>
<path d="M53.5002 38.665H48.7023C48.6769 38.665 48.6562 38.6859 48.6562 38.7117V71.1992C48.6562 71.225 48.6769 71.2459 48.7023 71.2459H53.5002C53.5256 71.2459 53.5462 71.225 53.5462 71.1992V38.7117C53.5462 38.6859 53.5256 38.665 53.5002 38.665Z" fill="#3A00B6"/>
<path d="M78.4979 55.8664V38.7052C78.4979 38.695 78.502 38.6852 78.5093 38.678C78.5166 38.6707 78.5264 38.6667 78.5367 38.6667L82.9038 38.6642C82.9196 38.6642 82.9349 38.6706 82.9461 38.682C82.9573 38.6934 82.9636 38.7088 82.9636 38.7249V71.2033C82.9636 71.2142 82.9593 71.2246 82.9518 71.2323C82.9442 71.2399 82.9339 71.2442 82.9232 71.2442H79.0217C79.0083 71.2442 78.9953 71.2396 78.9848 71.2312C78.9742 71.2227 78.9668 71.2109 78.9635 71.1976L74.3475 52.6553C74.3459 52.6489 74.3421 52.6433 74.3367 52.6396C74.3314 52.6359 74.3248 52.6343 74.3184 52.6351C74.3119 52.6359 74.306 52.639 74.3017 52.644C74.2974 52.6489 74.295 52.6553 74.295 52.6619C74.2955 52.6744 74.2969 52.6859 74.299 52.6963C74.3036 52.7145 74.3076 52.7315 74.3105 52.745C74.3134 52.7586 74.315 52.7681 74.3152 52.7724V71.2033C74.3152 71.2142 74.3109 71.2246 74.3034 71.2323C74.2958 71.2399 74.2855 71.2442 74.2748 71.2442H69.991C69.9695 71.2442 69.949 71.2356 69.9338 71.2203C69.9187 71.2049 69.9102 71.1841 69.9102 71.1623V38.7036C69.9102 38.6927 69.9144 38.6823 69.922 38.6746C69.9296 38.6669 69.9399 38.6626 69.9506 38.6626H74.2966C74.3042 38.6626 74.3116 38.6653 74.3177 38.6702C74.3237 38.6751 74.3279 38.6819 74.3297 38.6896L78.4511 55.8721C78.4514 55.8752 78.4524 55.8782 78.4539 55.881C78.4555 55.8837 78.4575 55.8861 78.4599 55.8881C78.4624 55.89 78.4652 55.8914 78.4681 55.8923C78.4711 55.8931 78.4743 55.8934 78.4773 55.893C78.4804 55.8926 78.4834 55.8916 78.4861 55.8901C78.4888 55.8885 78.4912 55.8865 78.4931 55.884C78.495 55.8815 78.4964 55.8787 78.4972 55.8757C78.4981 55.8726 78.4983 55.8695 78.4979 55.8664Z" fill="#3A00B6"/>
<path d="M122.616 56.9894L122.611 71.1845C122.611 71.1923 122.61 71.2001 122.607 71.2073C122.604 71.2146 122.599 71.2212 122.594 71.2267C122.588 71.2323 122.582 71.2367 122.575 71.2397C122.567 71.2427 122.56 71.2442 122.552 71.2442H117.782C117.766 71.2442 117.751 71.2379 117.74 71.2267C117.729 71.2155 117.723 71.2003 117.723 71.1845V38.724C117.723 38.7082 117.729 38.693 117.74 38.6818C117.751 38.6705 117.766 38.6642 117.782 38.6642L122.554 38.6683C122.57 38.6683 122.585 38.6746 122.596 38.6858C122.607 38.6971 122.613 38.7123 122.613 38.7281L122.612 51.6477C122.612 51.6636 122.618 51.6788 122.629 51.69C122.64 51.7012 122.655 51.7075 122.671 51.7075H125.868C125.883 51.7075 125.898 51.7012 125.909 51.69C125.92 51.6788 125.927 51.6636 125.927 51.6477V38.7224C125.927 38.7065 125.933 38.6913 125.944 38.6801C125.955 38.6689 125.97 38.6626 125.986 38.6626H130.778C130.793 38.6626 130.808 38.6689 130.819 38.6801C130.83 38.6913 130.837 38.7065 130.837 38.7224V71.1845C130.837 71.2003 130.83 71.2155 130.819 71.2267C130.808 71.2379 130.793 71.2442 130.778 71.2442H125.986C125.97 71.2442 125.955 71.2379 125.944 71.2267C125.933 71.2155 125.927 71.2003 125.927 71.1845V56.9894C125.927 56.9736 125.92 56.9583 125.909 56.9471C125.898 56.9359 125.883 56.9296 125.868 56.9296H122.675C122.659 56.9296 122.644 56.9359 122.633 56.9471C122.622 56.9583 122.616 56.9736 122.616 56.9894Z" fill="#3A00B6"/>
<path d="M167.385 66.2065H173.231C173.246 66.2065 173.261 66.2126 173.272 66.2235C173.282 66.2344 173.288 66.2492 173.288 66.2646V71.1861C173.288 71.2015 173.282 71.2163 173.272 71.2272C173.261 71.2381 173.246 71.2442 173.231 71.2442H162.495C162.48 71.2442 162.465 71.2381 162.454 71.2272C162.444 71.2163 162.438 71.2015 162.438 71.1861V38.7208C162.438 38.7053 162.444 38.6905 162.454 38.6796C162.465 38.6687 162.48 38.6626 162.495 38.6626H167.27C167.285 38.6626 167.3 38.6687 167.311 38.6796C167.321 38.6905 167.327 38.7053 167.327 38.7208V66.1483C167.327 66.1637 167.334 66.1785 167.344 66.1894C167.355 66.2004 167.37 66.2065 167.385 66.2065Z" fill="#3A00B6"/>
</svg>
