<svg width="102" height="103" viewBox="0 0 102 103" fill="none" xmlns="http://www.w3.org/2000/svg">
<path fill-rule="evenodd" clip-rule="evenodd" d="M51.96 35.0853L51 0.319336L50.04 35.0853C49.9588 38.0276 49.0713 40.7666 47.5903 43.0896C44.8996 42.4945 42.3343 41.1851 40.1956 39.1613L14.9335 15.2569L38.838 40.5189C40.8614 42.6573 42.1707 45.2221 42.7659 47.9124C40.4439 49.3917 37.7065 50.2782 34.766 50.3594L0 51.3193L34.766 52.2793C37.7065 52.3605 40.4439 53.2469 42.7659 54.7263C42.1707 57.4166 40.8614 59.9814 38.838 62.1197L14.9335 87.3818L40.1956 63.4773C42.3343 61.4536 44.8996 60.1442 47.5903 59.5491C49.0713 61.872 49.9588 64.611 50.04 67.5534L51 102.319L51.96 67.5534C52.0412 64.6117 52.9283 61.8732 54.4087 59.5507C57.0969 60.1464 59.6596 61.4553 61.7964 63.4773L87.0584 87.3818L63.154 62.1197C61.1317 59.9826 59.8227 57.4194 59.227 54.7308C61.5505 53.2487 64.2905 52.3606 67.234 52.2793L102 51.3193L67.234 50.3594C64.2906 50.2781 61.5505 49.3899 59.227 47.9079C59.8227 45.2193 61.1317 42.6561 63.154 40.5189L87.0584 15.2569L61.7964 39.1613C59.6596 41.1833 57.0969 42.4922 54.4087 43.088C52.9283 40.7654 52.0412 38.027 51.96 35.0853Z" fill="#FAFAFA"/>
</svg>
