<svg width="102" height="103" viewBox="0 0 102 103" fill="none" xmlns="http://www.w3.org/2000/svg">
<path fill-rule="evenodd" clip-rule="evenodd" d="M51.96 35.0852L51 0.319214L50.04 35.0852C49.9588 38.0276 49.0713 40.7666 47.5902 43.0896C44.8995 42.4945 42.3343 41.1851 40.1956 39.1614L14.9335 15.2569L38.838 40.5189C40.8614 42.6573 42.1707 45.222 42.7659 47.9123C40.4439 49.3916 37.7065 50.2781 34.766 50.3593L0 51.3192L34.766 52.2792C37.7065 52.3604 40.444 53.2468 42.766 54.7262C42.1708 57.4165 40.8615 59.9814 38.838 62.1198L14.9335 87.3818L40.1956 63.4773C42.3343 61.4536 44.8996 60.1441 47.5904 59.5491C49.0713 61.872 49.9588 64.611 50.04 67.5533L51 102.319L51.96 67.5533C52.0412 64.6116 52.9283 61.8732 54.4086 59.5506C57.0968 60.1464 59.6595 61.4553 61.7964 63.4773L87.0584 87.3818L63.154 62.1198C61.1316 59.9826 59.8226 57.4194 59.227 54.7307C61.5505 53.2486 64.2905 52.3604 67.234 52.2792L102 51.3192L67.234 50.3593C64.2906 50.278 61.5506 49.3898 59.2271 47.9078C59.8227 45.2192 61.1317 42.6561 63.154 40.5189L87.0584 15.2569L61.7964 39.1614C59.6596 41.1833 57.0969 42.4922 54.4088 43.088C52.9283 40.7654 52.0412 38.0269 51.96 35.0852Z" fill="#FAFAFA"/>
</svg>
