<svg width="103" height="102" viewBox="0 0 103 102" fill="none" xmlns="http://www.w3.org/2000/svg">
<path fill-rule="evenodd" clip-rule="evenodd" d="M52.8975 34.766L51.9375 0L50.9775 34.766C50.8963 37.7083 50.0088 40.4473 48.5278 42.7702C45.8371 42.1752 43.2718 40.8658 41.1331 38.842L15.871 14.9376L39.7755 40.1996C41.7989 42.3379 43.1082 44.9028 43.7034 47.593C41.3814 49.0724 38.644 49.9589 35.7035 50.04L0.9375 51L35.7035 51.96C38.644 52.0411 41.3814 52.9276 43.7034 54.407C43.1082 57.0972 41.7989 59.6621 39.7755 61.8004L15.871 87.0624L41.1331 63.158C43.2718 61.1342 45.8371 59.8248 48.5278 59.2298C50.0088 61.5527 50.8963 64.2917 50.9775 67.234L51.9375 102L52.8975 67.234C52.9787 64.2924 53.8658 61.5539 55.3462 59.2313C58.0344 59.8271 60.5971 61.136 62.7339 63.158L87.9959 87.0624L64.0915 61.8004C62.0692 59.6632 60.7602 57.1001 60.1645 54.4114C62.488 52.9294 65.228 52.0412 68.1715 51.96L102.938 51L68.1715 50.04C65.2281 49.9588 62.488 49.0706 60.1645 47.5886C60.7602 44.8999 62.0692 42.3368 64.0915 40.1996L87.9959 14.9376L62.7339 38.842C60.5971 40.864 58.0344 42.1729 55.3462 42.7687C53.8658 40.4461 52.9787 37.7076 52.8975 34.766Z" fill="#FAFAFA"/>
</svg>
