<svg width="102" height="103" viewBox="0 0 102 103" fill="none" xmlns="http://www.w3.org/2000/svg">
<path fill-rule="evenodd" clip-rule="evenodd" d="M51.96 34.8724L51 0.106445L50.04 34.8724C49.9588 37.8147 49.0713 40.5538 47.5903 42.8767C44.8996 42.2816 42.3343 40.9722 40.1956 38.9485L14.9335 15.044L38.838 40.306C40.8614 42.4444 42.1707 45.0092 42.7659 47.6995C40.4439 49.1788 37.7065 50.0653 34.766 50.1465L0 51.1064L34.766 52.0664C37.7065 52.1476 40.4439 53.0341 42.7659 54.5134C42.1707 57.2037 40.8614 59.7685 38.838 61.9069L14.9335 87.1689L40.1956 63.2644C42.3343 61.2407 44.8996 59.9313 47.5903 59.3362C49.0713 61.6591 49.9588 64.3981 50.04 67.3405L51 102.106L51.96 67.3405C52.0412 64.3988 52.9283 61.6604 54.4087 59.3378C57.0969 59.9336 59.6596 61.2424 61.7964 63.2644L87.0584 87.1689L63.154 61.9069C61.1317 59.7697 59.8227 57.2065 59.227 54.5179C61.5505 53.0358 64.2905 52.1477 67.234 52.0664L102 51.1064L67.234 50.1465C64.2906 50.0652 61.5505 49.1771 59.227 47.695C59.8227 45.0064 61.1317 42.4432 63.154 40.306L87.0584 15.044L61.7964 38.9485C59.6596 40.9704 57.0969 42.2793 54.4087 42.8751C52.9283 40.5525 52.0412 37.8141 51.96 34.8724Z" fill="#FAFAFA"/>
</svg>
