<svg width="385" height="333" viewBox="0 0 385 333" fill="none" xmlns="http://www.w3.org/2000/svg">
<rect width="16.6732" height="170.828" rx="2.70422" transform="matrix(-0.317896 -0.94841 0.947176 -0.319871 194.625 222.729)" stroke="#FAFAFA" stroke-width="1.04862"/>
<path d="M194.453 216.868L194.925 218.279C195.4 219.695 196.932 220.456 198.347 219.978L351.717 168.184C353.132 167.706 353.894 166.17 353.419 164.754L353.06 163.684M194.453 216.868L257.666 194.188M194.453 216.868L192.896 212.225M353.06 163.684L286.705 185.921M353.06 163.684L351.447 158.871M351.447 158.871L350.693 156.622C350.218 155.206 348.687 154.445 347.272 154.923L193.902 206.717C192.487 207.195 191.725 208.731 192.2 210.147L192.896 212.225M351.447 158.871L285.471 181.203M192.896 212.225L256.463 190.391" stroke="#FAFAFA" stroke-width="1.04862"/>
<path d="M285.831 185.401C286.125 185.086 286.617 185.069 286.93 185.361C287.243 185.653 287.261 186.145 286.966 186.461C286.672 186.777 286.18 186.793 285.867 186.501C285.555 186.21 285.537 185.717 285.831 185.401Z" stroke="#FAFAFA" stroke-width="1.04862"/>
<path d="M284.148 180.854C284.442 180.539 284.934 180.522 285.246 180.814C285.559 181.106 285.577 181.598 285.283 181.914C284.989 182.229 284.496 182.246 284.184 181.954C283.871 181.662 283.853 181.17 284.148 180.854Z" stroke="#FAFAFA" stroke-width="1.04862"/>
<path d="M256.819 189.827C257.114 189.512 257.606 189.495 257.918 189.787C258.231 190.079 258.249 190.571 257.955 190.887C257.66 191.202 257.168 191.219 256.856 190.927C256.543 190.635 256.525 190.143 256.819 189.827Z" stroke="#FAFAFA" stroke-width="1.04862"/>
<path d="M258.167 193.465C258.461 193.149 258.953 193.133 259.266 193.424C259.579 193.716 259.597 194.208 259.302 194.524C259.008 194.84 258.516 194.856 258.203 194.565C257.891 194.273 257.873 193.781 258.167 193.465Z" stroke="#FAFAFA" stroke-width="1.04862"/>
<rect width="16.6682" height="170.88" rx="2.70422" transform="matrix(-0.945094 -0.32705 0.324224 -0.945894 189.758 208.949)" stroke="#FAFAFA" stroke-width="1.04862"/>
<path d="M185.02 205.504L186.425 205.99C187.836 206.479 189.373 205.73 189.857 204.317L242.373 51.1058C242.858 49.6931 242.106 48.1519 240.694 47.6635L239.629 47.2949M185.02 205.504L205.61 141.544M185.02 205.504L180.395 203.904M239.629 47.2949L216.772 113.476M239.629 47.2949L234.834 45.6357M234.834 45.6357L232.595 44.8608C231.184 44.3724 229.647 45.1216 229.163 46.5343L176.647 199.745C176.163 201.158 176.914 202.699 178.326 203.188L180.395 203.904M234.834 45.6357L212.284 111.574M180.395 203.904L201.87 140.18" stroke="#FAFAFA" stroke-width="1.04862"/>
<path d="M215.829 113.853C215.758 113.426 216.046 113.026 216.467 112.956C216.888 112.887 217.289 113.173 217.359 113.599C217.43 114.026 217.143 114.426 216.722 114.495C216.301 114.565 215.9 114.279 215.829 113.853Z" stroke="#FAFAFA" stroke-width="1.04862"/>
<path d="M211.196 112.415C211.125 111.989 211.413 111.589 211.834 111.519C212.255 111.449 212.656 111.735 212.727 112.162C212.797 112.589 212.51 112.989 212.089 113.058C211.668 113.128 211.267 112.842 211.196 112.415Z" stroke="#FAFAFA" stroke-width="1.04862"/>
<path d="M201.641 139.557C201.571 139.13 201.858 138.73 202.279 138.66C202.7 138.591 203.101 138.877 203.172 139.303C203.243 139.73 202.955 140.13 202.534 140.199C202.113 140.269 201.712 139.983 201.641 139.557Z" stroke="#FAFAFA" stroke-width="1.04862"/>
<path d="M205.341 140.707C205.27 140.28 205.557 139.88 205.978 139.81C206.399 139.741 206.8 140.027 206.871 140.453C206.942 140.88 206.654 141.28 206.233 141.349C205.812 141.419 205.411 141.133 205.341 140.707Z" stroke="#FAFAFA" stroke-width="1.04862"/>
<rect width="16.6723" height="170.838" rx="2.70422" transform="matrix(-0.761367 0.647853 -0.649525 -0.760738 175.523 204.415)" stroke="#FAFAFA" stroke-width="1.04862"/>
<path d="M170.149 206.75L171.281 205.786C172.418 204.818 172.553 203.113 171.583 201.977L66.4039 78.7881C65.4338 77.6519 63.7256 77.5153 62.5885 78.4828L61.7298 79.2136M170.149 206.75L125.562 156.472M170.149 206.75L166.422 209.921M61.7298 79.2136L107.076 132.575M61.7298 79.2136L57.8661 82.5012M57.8661 82.5012L56.0613 84.0369C54.9242 85.0044 54.7888 86.7099 55.7589 87.846L160.938 211.035C161.908 212.171 163.617 212.308 164.754 211.34L166.422 209.921M57.8661 82.5012L103.16 135.475M166.422 209.921L122.488 159" stroke="#FAFAFA" stroke-width="1.04862"/>
<path d="M106.918 133.579C106.516 133.424 106.317 132.973 106.471 132.574C106.625 132.175 107.075 131.975 107.478 132.131C107.881 132.287 108.079 132.738 107.925 133.137C107.771 133.536 107.321 133.735 106.918 133.579Z" stroke="#FAFAFA" stroke-width="1.04862"/>
<path d="M103.332 136.838C102.93 136.682 102.731 136.231 102.885 135.832C103.04 135.434 103.49 135.234 103.892 135.39C104.295 135.546 104.493 135.997 104.339 136.396C104.185 136.794 103.735 136.994 103.332 136.838Z" stroke="#FAFAFA" stroke-width="1.04862"/>
<path d="M121.836 158.883C121.434 158.727 121.235 158.276 121.389 157.878C121.543 157.479 121.993 157.279 122.396 157.435C122.799 157.591 122.997 158.042 122.843 158.441C122.689 158.839 122.239 159.039 121.836 158.883Z" stroke="#FAFAFA" stroke-width="1.04862"/>
<path d="M124.707 156.275C124.305 156.119 124.106 155.668 124.26 155.27C124.415 154.871 124.865 154.671 125.267 154.827C125.67 154.983 125.868 155.434 125.714 155.833C125.56 156.231 125.11 156.431 124.707 156.275Z" stroke="#FAFAFA" stroke-width="1.04862"/>
</svg>
