<svg width="618" height="486" viewBox="0 0 618 486" fill="none" xmlns="http://www.w3.org/2000/svg">
<rect width="31.7601" height="325.472" rx="5.15767" transform="matrix(0.0267297 0.999643 -0.999581 0.0289531 338.445 133.807)" stroke="#FAFAFA" stroke-width="2"/>
<path d="M335.487 144.574L335.411 141.748C335.335 138.9 332.965 136.659 330.118 136.741L21.7516 145.673C18.9042 145.756 16.6578 148.131 16.7339 150.978L16.7912 153.12M335.487 144.574L207.644 150.682M335.487 144.574L335.736 153.895M16.7912 153.12L150.114 149.569M16.7912 153.12L17.0496 162.783M17.0496 162.783L17.1701 167.291C17.2462 170.139 19.6162 172.38 22.4635 172.298L330.83 163.366C333.677 163.283 335.924 160.908 335.847 158.061L335.736 153.895M17.0496 162.783L149.735 158.847M335.736 153.895L207.72 158.266" stroke="#FAFAFA" stroke-width="2"/>
<path d="M151.416 150.999C150.704 151.41 149.799 151.166 149.392 150.462C148.985 149.757 149.227 148.851 149.939 148.44C150.651 148.029 151.556 148.273 151.963 148.978C152.369 149.682 152.128 150.588 151.416 150.999Z" stroke="#FAFAFA" stroke-width="2"/>
<path d="M151.959 160.221C151.247 160.632 150.342 160.388 149.935 159.683C149.528 158.979 149.77 158.073 150.482 157.662C151.194 157.251 152.099 157.495 152.505 158.199C152.912 158.904 152.671 159.81 151.959 160.221Z" stroke="#FAFAFA" stroke-width="2"/>
<path d="M206.76 159.094C206.048 159.505 205.143 159.261 204.736 158.556C204.329 157.852 204.57 156.946 205.282 156.535C205.994 156.124 206.9 156.368 207.306 157.072C207.713 157.777 207.472 158.683 206.76 159.094Z" stroke="#FAFAFA" stroke-width="2"/>
<path d="M206.326 151.717C205.614 152.128 204.709 151.884 204.302 151.179C203.896 150.475 204.137 149.569 204.849 149.158C205.561 148.747 206.466 148.991 206.873 149.695C207.279 150.4 207.038 151.306 206.326 151.717Z" stroke="#FAFAFA" stroke-width="2"/>
<rect width="31.7601" height="325.472" rx="5.15767" transform="matrix(0.80832 0.588743 -0.586944 0.809628 339.641 161.607)" stroke="#FAFAFA" stroke-width="2"/>
<path d="M346.364 170.521L344.079 168.857C341.777 167.18 338.555 167.69 336.883 169.996L155.813 419.763C154.141 422.069 154.652 425.298 156.955 426.975L158.687 428.236M346.364 170.521L273.202 275.537M346.364 170.521L353.902 176.011M158.687 428.236L237.219 320.439M158.687 428.236L166.501 433.928M166.501 433.928L170.146 436.583C172.448 438.26 175.67 437.75 177.342 435.443L358.412 185.677C360.084 183.371 359.573 180.141 357.27 178.464L353.902 176.011M166.501 433.928L244.338 326.401M353.902 176.011L279.258 280.104" stroke="#FAFAFA" stroke-width="2"/>
<path d="M239.15 320.277C239.041 321.092 238.296 321.66 237.489 321.553C236.683 321.445 236.113 320.701 236.221 319.886C236.33 319.072 237.076 318.503 237.882 318.611C238.688 318.718 239.259 319.462 239.15 320.277Z" stroke="#FAFAFA" stroke-width="2"/>
<path d="M246.787 325.473C246.678 326.288 245.932 326.857 245.126 326.749C244.32 326.641 243.749 325.898 243.858 325.083C243.967 324.268 244.712 323.7 245.519 323.807C246.325 323.915 246.896 324.659 246.787 325.473Z" stroke="#FAFAFA" stroke-width="2"/>
<path d="M279.33 281.366C279.221 282.181 278.475 282.749 277.669 282.642C276.863 282.534 276.292 281.79 276.401 280.975C276.51 280.16 277.255 279.592 278.062 279.7C278.868 279.807 279.439 280.551 279.33 281.366Z" stroke="#FAFAFA" stroke-width="2"/>
<path d="M273.22 277.21C273.112 278.025 272.366 278.593 271.56 278.485C270.753 278.378 270.183 277.634 270.292 276.819C270.4 276.004 271.146 275.436 271.952 275.543C272.759 275.651 273.329 276.395 273.22 277.21Z" stroke="#FAFAFA" stroke-width="2"/>
<rect width="31.7601" height="325.472" rx="5.15767" transform="matrix(0.917899 -0.396814 0.398855 0.917014 363.059 177.797)" stroke="#FAFAFA" stroke-width="2"/>
<path d="M374.157 176.537L371.562 177.658C368.948 178.789 367.749 181.823 368.885 184.435L491.93 467.33C493.066 469.942 496.107 471.143 498.722 470.013L500.688 469.163M374.157 176.537L427.402 292.924M374.157 176.537L382.716 172.836M500.688 469.163L447.778 346.736M500.688 469.163L509.561 465.327M509.561 465.327L513.701 463.537C516.315 462.407 517.514 459.373 516.378 456.761L393.333 173.866C392.197 171.254 389.156 170.053 386.541 171.183L382.716 172.836M509.561 465.327L456.531 343.636M382.716 172.836L434.413 290.031" stroke="#FAFAFA" stroke-width="2"/>
<path d="M448.615 344.994C449.262 345.502 449.372 346.433 448.869 347.072C448.367 347.712 447.436 347.825 446.79 347.317C446.143 346.81 446.033 345.879 446.536 345.239C447.038 344.599 447.969 344.486 448.615 344.994Z" stroke="#FAFAFA" stroke-width="2"/>
<path d="M456.971 341.057C457.617 341.565 457.727 342.496 457.225 343.136C456.722 343.776 455.792 343.889 455.145 343.381C454.499 342.873 454.389 341.942 454.891 341.302C455.394 340.663 456.324 340.55 456.971 341.057Z" stroke="#FAFAFA" stroke-width="2"/>
<path d="M435.533 290.61C436.18 291.118 436.29 292.049 435.787 292.689C435.285 293.328 434.354 293.442 433.708 292.934C433.061 292.426 432.951 291.495 433.454 290.855C433.956 290.215 434.887 290.102 435.533 290.61Z" stroke="#FAFAFA" stroke-width="2"/>
<path d="M428.846 293.76C429.492 294.267 429.602 295.198 429.1 295.838C428.597 296.478 427.667 296.591 427.02 296.083C426.374 295.575 426.264 294.644 426.766 294.005C427.269 293.365 428.199 293.252 428.846 293.76Z" stroke="#FAFAFA" stroke-width="2"/>
</svg>
