<svg width="385" height="338" viewBox="0 0 385 338" fill="none" xmlns="http://www.w3.org/2000/svg">
<rect width="16.6307" height="170.575" rx="2.70422" transform="matrix(-0.317546 -0.947041 0.948541 -0.320214 194.723 227.99)" stroke="#FAFAFA" stroke-width="1.04862"/>
<path d="M194.555 222.151L195.024 223.549C195.498 224.964 197.031 225.723 198.448 225.244L351.804 173.474C353.221 172.995 353.985 171.461 353.511 170.047L353.156 168.987M194.555 222.151L257.767 199.484M194.555 222.151L193.005 217.527M353.156 168.987L286.803 191.216M353.156 168.987L351.548 164.194M351.548 164.194L350.8 161.961C350.325 160.546 348.792 159.787 347.376 160.266L194.019 212.036C192.603 212.515 191.839 214.049 192.313 215.463L193.005 217.527M351.548 164.194L285.575 186.517M193.005 217.527L256.569 195.702" stroke="#FAFAFA" stroke-width="1.04862"/>
<path d="M285.937 190.7C286.232 190.385 286.723 190.369 287.034 190.658C287.345 190.947 287.363 191.437 287.068 191.752C286.773 192.068 286.282 192.084 285.971 191.795C285.66 191.505 285.642 191.016 285.937 190.7Z" stroke="#FAFAFA" stroke-width="1.04862"/>
<path d="M284.257 186.171C284.552 185.856 285.043 185.84 285.354 186.129C285.665 186.418 285.683 186.908 285.388 187.224C285.093 187.539 284.602 187.555 284.291 187.266C283.98 186.977 283.962 186.487 284.257 186.171Z" stroke="#FAFAFA" stroke-width="1.04862"/>
<path d="M256.929 195.141C257.224 194.826 257.715 194.81 258.026 195.099C258.337 195.388 258.355 195.878 258.06 196.193C257.765 196.509 257.274 196.525 256.963 196.235C256.652 195.946 256.634 195.456 256.929 195.141Z" stroke="#FAFAFA" stroke-width="1.04862"/>
<path d="M258.273 198.764C258.567 198.449 259.059 198.433 259.37 198.722C259.681 199.011 259.699 199.501 259.404 199.816C259.109 200.132 258.618 200.148 258.307 199.859C257.996 199.569 257.978 199.08 258.273 198.764Z" stroke="#FAFAFA" stroke-width="1.04862"/>
<rect width="16.6517" height="170.36" rx="2.70422" transform="matrix(-0.945293 -0.325165 0.326108 -0.945697 189.863 214.266)" stroke="#FAFAFA" stroke-width="1.04862"/>
<path d="M185.125 210.838L186.526 211.32C187.938 211.806 189.477 211.055 189.964 209.642L242.619 56.9452C243.106 55.5328 242.356 53.9941 240.944 53.5085L239.883 53.1433M185.125 210.838L205.775 147.088M185.125 210.838L180.503 209.249M239.883 53.1433L216.963 119.109M239.883 53.1433L235.092 51.4952M235.092 51.4952L232.857 50.7265C231.445 50.2408 229.906 50.9921 229.419 52.4045L176.764 205.102C176.277 206.514 177.026 208.053 178.438 208.538L180.503 209.249M235.092 51.4952L212.48 117.219M180.503 209.249L202.038 145.732" stroke="#FAFAFA" stroke-width="1.04862"/>
<path d="M216.022 119.486C215.952 119.064 216.238 118.664 216.661 118.594C217.084 118.524 217.483 118.81 217.552 119.232C217.622 119.654 217.336 120.053 216.914 120.124C216.491 120.194 216.092 119.908 216.022 119.486Z" stroke="#FAFAFA" stroke-width="1.04862"/>
<path d="M211.393 118.059C211.324 117.637 211.609 117.237 212.032 117.167C212.455 117.097 212.854 117.383 212.923 117.805C212.993 118.227 212.707 118.626 212.285 118.697C211.862 118.767 211.463 118.481 211.393 118.059Z" stroke="#FAFAFA" stroke-width="1.04862"/>
<path d="M201.811 145.112C201.741 144.69 202.027 144.291 202.45 144.221C202.873 144.15 203.272 144.436 203.341 144.858C203.411 145.28 203.125 145.68 202.703 145.75C202.28 145.82 201.881 145.534 201.811 145.112Z" stroke="#FAFAFA" stroke-width="1.04862"/>
<path d="M205.514 146.253C205.445 145.831 205.73 145.432 206.153 145.362C206.576 145.292 206.975 145.577 207.045 145.999C207.114 146.422 206.828 146.821 206.406 146.891C205.983 146.961 205.584 146.676 205.514 146.253Z" stroke="#FAFAFA" stroke-width="1.04862"/>
<rect width="16.6344" height="170.536" rx="2.70422" transform="matrix(-0.763486 0.647799 -0.64958 -0.758618 175.613 209.762)" stroke="#FAFAFA" stroke-width="1.04862"/>
<path d="M170.241 212.095L171.369 211.138C172.509 210.17 172.647 208.468 171.677 207.335L66.6806 84.7135C65.7105 83.5805 63.9996 83.4463 62.8594 84.4138L62.0049 85.1388M170.241 212.095L125.727 162.048M170.241 212.095L166.512 215.259M62.0049 85.1388L107.274 138.258M62.0049 85.1388L58.1393 88.4187M58.1393 88.4187L56.3383 89.9468C55.198 90.9143 55.0601 92.6171 56.0302 93.7501L161.027 216.371C161.997 217.504 163.708 217.638 164.848 216.671L166.512 215.259M58.1393 88.4187L103.357 141.151M166.512 215.259L122.652 164.57" stroke="#FAFAFA" stroke-width="1.04862"/>
<path d="M107.121 139.257C106.719 139.102 106.521 138.653 106.676 138.257C106.83 137.861 107.279 137.661 107.681 137.816C108.083 137.971 108.281 138.419 108.127 138.816C107.973 139.212 107.523 139.412 107.121 139.257Z" stroke="#FAFAFA" stroke-width="1.04862"/>
<path d="M103.527 142.508C103.125 142.353 102.928 141.904 103.082 141.508C103.236 141.111 103.685 140.911 104.087 141.066C104.49 141.221 104.687 141.67 104.533 142.066C104.379 142.463 103.93 142.663 103.527 142.508Z" stroke="#FAFAFA" stroke-width="1.04862"/>
<path d="M122 164.453C121.598 164.298 121.4 163.849 121.554 163.452C121.709 163.056 122.158 162.856 122.56 163.011C122.962 163.166 123.16 163.615 123.006 164.011C122.851 164.408 122.402 164.607 122 164.453Z" stroke="#FAFAFA" stroke-width="1.04862"/>
<path d="M124.883 161.851C124.48 161.696 124.283 161.247 124.437 160.851C124.591 160.455 125.041 160.255 125.443 160.41C125.845 160.565 126.042 161.014 125.888 161.41C125.734 161.806 125.285 162.006 124.883 161.851Z" stroke="#FAFAFA" stroke-width="1.04862"/>
</svg>
