<svg width="576" height="616" viewBox="0 0 576 616" fill="none" xmlns="http://www.w3.org/2000/svg">
<g filter="url(#filter0_bf_172_149)">
<path d="M431.862 294.076C436.569 287.009 437.444 280.658 428.713 280.658C412.969 280.658 414.806 272.788 417.693 268.853C433.699 260.72 458.942 244.455 431.862 244.455C404.783 244.455 415.856 230.813 424.778 223.991C427.139 227.14 431.862 226.667 431.862 199.593C431.862 165.75 435.798 177.556 435.798 170.473C435.798 163.389 431.862 158.667 420.054 170.473C410.608 179.917 407.722 188.05 407.459 190.936C407.459 193.822 405.885 201.167 399.587 207.464C391.715 215.334 392.502 223.991 396.438 223.991C400.374 223.991 405.098 231.862 396.438 240.519C387.779 249.177 374.397 223.204 374.397 268.853C374.397 270.772 374.434 272.607 374.507 274.362M431.862 294.076C425.959 302.939 414.029 312.927 407.459 312.927C396.147 312.927 376.167 314.372 374.507 274.362M431.862 294.076C434.486 294.588 437.53 297.816 428.713 306.631C428.189 312.14 424.778 323.159 415.331 323.159C415.331 326.045 413.757 331.816 407.459 331.816C404.31 336.801 396.596 346.77 390.928 346.77C391.715 352.279 390.928 363.298 381.481 363.298C369.673 363.298 324.016 408.946 354.717 439.641C360.489 442.264 366.84 452.706 346.057 473.484C337.661 480.042 320.867 495.049 320.867 502.604C319.817 508.114 315.199 519.132 305.123 519.132L298.038 542.744C290.166 593.901 229.079 562.105 261.827 529.364C271.011 522.805 290.481 509.688 294.889 509.688C294.889 493.947 312.208 477.419 320.867 471.123C339.13 452.863 333.2 439.379 327.952 434.919C318.775 422.844 307.502 391.614 335.824 363.298C333.934 337.483 347.632 346.77 354.717 354.64L372.822 345.196C365.265 337.64 370.723 327.356 374.397 323.159C362.431 311.196 369.485 285.643 374.507 274.362M428.713 325.52C443.67 305.057 473.584 258.779 473.584 237.371C473.584 210.612 481.456 102 428.713 102C375.971 102 335.824 124.037 335.824 259.408C337.923 281.446 333.305 334.335 298.038 369.594C290.953 378.252 274.737 400.604 266.55 420.752C258.363 440.9 232.176 474.271 220.105 488.438C214.595 498.144 201.999 519.132 195.702 525.429C187.83 533.299 142.172 563.994 142.172 587.605C142.172 611.216 104.386 624.596 102.025 626.957C100.136 628.846 206.723 627.744 260.252 626.957C271.011 612.266 292.528 581.309 292.528 575.012C292.528 567.142 325.59 543.531 338.185 509.688C355.766 481.879 390.928 422.798 390.928 408.946C390.928 391.631 414.544 344.906 428.713 325.52Z" stroke="#FAFAFA" stroke-width="3.14817"/>
<path d="M223.253 551.839C219.683 549.082 215.341 547.465 210.658 547.465C206.719 547.465 203.021 548.609 199.82 550.614M223.253 551.839C231.65 546.446 248.444 534.243 248.444 528.576C248.444 521.493 250.018 481.354 236.636 494.734L205.148 515.197C202.815 517.529 196.117 524.282 194.166 532.512M223.253 551.839C225.561 553.62 227.547 555.879 229.093 558.484M199.82 550.614C193.131 554.803 188.617 562.75 188.617 571.864C188.617 575.829 189.471 579.573 190.987 582.883M199.82 550.614C193.724 544.519 192.825 538.167 194.166 532.512M232.136 566.354C232.505 568.125 232.7 569.969 232.7 571.864C232.7 585.339 222.832 596.262 210.658 596.262C205.975 596.262 201.633 594.646 198.063 591.889M232.136 566.354C237.214 570.024 243.733 578.456 240.961 589.179M232.136 566.354C231.542 563.508 230.499 560.853 229.093 558.484M198.063 591.889C198.063 594.805 199.649 599.797 202.653 604.066M198.063 591.889C195.084 589.589 192.642 586.494 190.987 582.883M202.653 604.066C208.118 611.829 218.278 617.2 232.136 603.345C237.13 598.352 239.826 593.573 240.961 589.179M202.653 604.066C202.653 621.468 155.98 619.17 174.727 596.262M190.987 582.883C190.987 582.883 182.06 589.703 177.596 593.114C176.506 594.203 175.553 595.253 174.727 596.262M174.727 596.262C161.776 591.278 139.338 577.846 153.193 563.994C170.511 546.679 183.183 532.512 194.166 532.512M240.961 589.179C255.127 578.947 272.586 558.484 229.093 558.484" stroke="#FAFAFA" stroke-width="3.14817"/>
<path d="M473.584 237.371C473.584 258.779 443.67 305.057 428.713 325.52C414.544 344.906 390.928 391.631 390.928 408.946C390.928 422.798 355.766 481.879 338.185 509.688C325.59 543.531 292.528 567.142 292.528 575.012C292.528 581.309 271.011 612.266 260.252 626.957C206.723 627.744 100.135 628.846 102.025 626.957C104.386 624.596 142.172 611.216 142.172 587.605C142.172 563.994 187.83 533.299 195.702 525.429C201.999 519.132 214.595 498.144 220.105 488.438C232.176 474.271 258.363 440.9 266.55 420.752C274.737 400.604 290.953 378.252 298.038 369.594C333.305 334.335 337.923 281.446 335.824 259.408C335.824 124.037 375.971 102 428.713 102C481.456 102 473.584 210.612 473.584 237.371Z" fill="url(#paint0_linear_172_149)"/>
<path d="M431.862 294.076C436.569 287.009 437.444 280.658 428.713 280.658C412.969 280.658 414.806 272.788 417.693 268.853C433.699 260.72 458.942 244.455 431.862 244.455C404.783 244.455 415.856 230.813 424.778 223.991C427.139 227.14 431.862 226.667 431.862 199.593C431.862 165.75 435.798 177.556 435.798 170.473C435.798 163.389 431.862 158.667 420.054 170.473C410.608 179.917 407.722 188.05 407.459 190.936C407.459 193.822 405.885 201.167 399.587 207.464C391.715 215.334 392.502 223.991 396.438 223.991C400.374 223.991 405.098 231.862 396.438 240.519C387.779 249.177 374.397 223.204 374.397 268.853C374.397 270.772 374.434 272.607 374.507 274.362M431.862 294.076C425.959 302.939 414.029 312.927 407.459 312.927C396.147 312.927 376.167 314.372 374.507 274.362M431.862 294.076C434.486 294.588 437.53 297.816 428.713 306.631C428.189 312.14 424.778 323.159 415.331 323.159C415.331 326.045 413.757 331.816 407.459 331.816C404.31 336.801 396.596 346.77 390.928 346.77C391.715 352.279 390.928 363.298 381.481 363.298C369.673 363.298 324.016 408.946 354.717 439.641C360.489 442.264 366.84 452.706 346.057 473.484C337.661 480.042 320.867 495.049 320.867 502.604C319.817 508.114 315.199 519.132 305.123 519.132L298.038 542.744C290.166 593.901 229.079 562.105 261.827 529.364C271.011 522.805 290.481 509.688 294.889 509.688C294.889 493.947 312.208 477.419 320.867 471.123C339.13 452.863 333.2 439.379 327.952 434.919C318.775 422.844 307.502 391.614 335.824 363.298C333.934 337.483 347.632 346.77 354.717 354.64L372.822 345.196C365.265 337.64 370.723 327.356 374.397 323.159C362.431 311.196 369.485 285.643 374.507 274.362M428.713 325.52C443.67 305.057 473.584 258.779 473.584 237.371C473.584 210.612 481.456 102 428.713 102C375.971 102 335.824 124.037 335.824 259.408C337.923 281.446 333.305 334.335 298.038 369.594C290.953 378.252 274.737 400.604 266.55 420.752C258.363 440.9 232.176 474.271 220.105 488.438C214.595 498.144 201.999 519.132 195.702 525.429C187.83 533.299 142.172 563.994 142.172 587.605C142.172 611.216 104.386 624.596 102.025 626.957C100.136 628.846 206.723 627.744 260.252 626.957C271.011 612.266 292.528 581.309 292.528 575.012C292.528 567.142 325.59 543.531 338.185 509.688C355.766 481.879 390.928 422.798 390.928 408.946C390.928 391.631 414.544 344.906 428.713 325.52Z" stroke="#FAFAFA" stroke-width="3"/>
<path d="M223.253 551.839C219.683 549.082 215.341 547.465 210.658 547.465C206.719 547.465 203.021 548.609 199.82 550.614M223.253 551.839C231.65 546.446 248.444 534.243 248.444 528.576C248.444 521.493 250.018 481.354 236.636 494.734L205.148 515.197C202.815 517.529 196.117 524.282 194.166 532.512M223.253 551.839C225.561 553.62 227.547 555.879 229.093 558.484M199.82 550.614C193.131 554.803 188.617 562.75 188.617 571.864C188.617 575.829 189.471 579.573 190.987 582.883M199.82 550.614C193.724 544.519 192.825 538.167 194.166 532.512M232.136 566.354C232.505 568.125 232.7 569.969 232.7 571.864C232.7 585.339 222.832 596.262 210.658 596.262C205.975 596.262 201.633 594.646 198.063 591.889M232.136 566.354C237.214 570.024 243.733 578.456 240.961 589.179M232.136 566.354C231.542 563.508 230.499 560.853 229.093 558.484M198.063 591.889C198.063 594.805 199.649 599.797 202.653 604.066M198.063 591.889C195.084 589.589 192.642 586.494 190.987 582.883M202.653 604.066C208.118 611.829 218.278 617.2 232.136 603.345C237.13 598.352 239.826 593.573 240.961 589.179M202.653 604.066C202.653 621.468 155.98 619.17 174.727 596.262M190.987 582.883C190.987 582.883 182.06 589.703 177.596 593.114C176.506 594.203 175.553 595.253 174.727 596.262M174.727 596.262C161.776 591.278 139.338 577.846 153.193 563.994C170.511 546.679 183.183 532.512 194.166 532.512M240.961 589.179C255.127 578.947 272.586 558.484 229.093 558.484" stroke="#FAFAFA" stroke-width="3"/>
<ellipse cx="16.4048" cy="24.0078" rx="16.4048" ry="24.0078" transform="matrix(-0.937808 -0.347153 0.347279 -0.937762 375.527 433.688)" stroke="#FAFAFA" stroke-width="3.14817"/>
</g>
<path d="M434.862 294.076C439.569 287.009 440.444 280.658 431.713 280.658C415.969 280.658 417.806 272.788 420.693 268.853C436.699 260.72 461.942 244.455 434.862 244.455C407.783 244.455 418.856 230.813 427.778 223.991C430.139 227.14 434.862 226.667 434.862 199.593C434.862 165.75 438.798 177.556 438.798 170.473C438.798 163.389 434.862 158.667 423.054 170.473C413.608 179.917 410.722 188.05 410.459 190.936C410.459 193.822 408.885 201.167 402.587 207.464C394.715 215.334 395.502 223.991 399.438 223.991C403.374 223.991 408.098 231.862 399.438 240.519C390.779 249.177 377.397 223.204 377.397 268.853C377.397 270.772 377.434 272.607 377.507 274.362M434.862 294.076C428.959 302.939 417.029 312.927 410.459 312.927C399.147 312.927 379.167 314.372 377.507 274.362M434.862 294.076C437.486 294.588 440.53 297.816 431.713 306.631C431.189 312.14 427.778 323.159 418.331 323.159C418.331 326.045 416.757 331.816 410.459 331.816C407.31 336.801 399.596 346.77 393.928 346.77C394.715 352.279 393.928 363.298 384.481 363.298C372.673 363.298 327.016 408.946 357.717 439.641C363.489 442.264 369.84 452.706 349.057 473.484C340.661 480.042 323.867 495.049 323.867 502.604C322.817 508.114 318.199 519.132 308.123 519.132L301.038 542.744C293.166 593.901 232.079 562.105 264.827 529.364C274.011 522.805 293.481 509.688 297.889 509.688C297.889 493.947 315.208 477.419 323.867 471.123C342.13 452.863 336.2 439.379 330.952 434.919C321.775 422.844 310.502 391.614 338.824 363.298C336.934 337.483 350.632 346.77 357.717 354.64L375.822 345.196C368.265 337.64 373.723 327.356 377.397 323.159C365.431 311.196 372.485 285.643 377.507 274.362M431.713 325.52C446.67 305.057 476.584 258.779 476.584 237.371C476.584 210.612 484.456 102 431.713 102C378.971 102 338.824 124.037 338.824 259.408C340.923 281.446 336.305 334.335 301.038 369.594C293.953 378.252 277.737 400.604 269.55 420.752C261.363 440.9 235.176 474.271 223.105 488.438C217.595 498.144 204.999 519.132 198.702 525.429C190.83 533.299 145.172 563.994 145.172 587.605C145.172 611.216 107.386 624.596 105.025 626.957C103.136 628.846 209.723 627.744 263.252 626.957C274.011 612.266 295.528 581.309 295.528 575.012C295.528 567.142 328.59 543.531 341.185 509.688C358.766 481.879 393.928 422.798 393.928 408.946C393.928 391.631 417.544 344.906 431.713 325.52Z" stroke="#FAFAFA" stroke-width="3.14817"/>
<path d="M226.253 551.839C222.683 549.082 218.341 547.465 213.658 547.465C209.719 547.465 206.021 548.609 202.82 550.614M226.253 551.839C234.65 546.446 251.444 534.243 251.444 528.576C251.444 521.493 253.018 481.354 239.636 494.734L208.148 515.197C205.815 517.529 199.117 524.282 197.166 532.512M226.253 551.839C228.561 553.62 230.547 555.879 232.093 558.484M202.82 550.614C196.131 554.803 191.617 562.75 191.617 571.864C191.617 575.829 192.471 579.573 193.987 582.883M202.82 550.614C196.724 544.519 195.825 538.167 197.166 532.512M235.136 566.354C235.505 568.125 235.7 569.969 235.7 571.864C235.7 585.339 225.832 596.262 213.658 596.262C208.975 596.262 204.633 594.646 201.063 591.889M235.136 566.354C240.214 570.024 246.733 578.456 243.961 589.179M235.136 566.354C234.542 563.508 233.499 560.853 232.093 558.484M201.063 591.889C201.063 594.805 202.649 599.797 205.653 604.066M201.063 591.889C198.084 589.589 195.642 586.494 193.987 582.883M205.653 604.066C211.118 611.829 221.278 617.2 235.136 603.345C240.13 598.352 242.826 593.573 243.961 589.179M205.653 604.066C205.653 621.468 158.98 619.17 177.727 596.262M193.987 582.883C193.987 582.883 185.06 589.703 180.596 593.114C179.506 594.203 178.553 595.253 177.727 596.262M177.727 596.262C164.776 591.278 142.338 577.846 156.193 563.994C173.511 546.679 186.183 532.512 197.166 532.512M243.961 589.179C258.127 578.947 275.586 558.484 232.093 558.484" stroke="#FAFAFA" stroke-width="3.14817"/>
<path d="M476.584 237.371C476.584 258.779 446.67 305.057 431.713 325.52C417.544 344.906 393.928 391.631 393.928 408.946C393.928 422.798 358.766 481.879 341.185 509.688C328.59 543.531 295.528 567.142 295.528 575.012C295.528 581.309 274.011 612.266 263.252 626.957C209.723 627.744 103.135 628.846 105.025 626.957C107.386 624.596 145.172 611.216 145.172 587.605C145.172 563.994 190.83 533.299 198.702 525.429C204.999 519.132 217.595 498.144 223.105 488.438C235.176 474.271 261.363 440.9 269.55 420.752C277.737 400.604 293.953 378.252 301.038 369.594C336.305 334.335 340.923 281.446 338.824 259.408C338.824 124.037 378.971 102 431.713 102C484.456 102 476.584 210.612 476.584 237.371Z" fill="url(#paint1_linear_172_149)"/>
<path d="M434.862 294.076C439.569 287.009 440.444 280.658 431.713 280.658C415.969 280.658 417.806 272.788 420.693 268.853C436.699 260.72 461.942 244.455 434.862 244.455C407.783 244.455 418.856 230.813 427.778 223.991C430.139 227.14 434.862 226.667 434.862 199.593C434.862 165.75 438.798 177.556 438.798 170.473C438.798 163.389 434.862 158.667 423.054 170.473C413.608 179.917 410.722 188.05 410.459 190.936C410.459 193.822 408.885 201.167 402.587 207.464C394.715 215.334 395.502 223.991 399.438 223.991C403.374 223.991 408.098 231.862 399.438 240.519C390.779 249.177 377.397 223.204 377.397 268.853C377.397 270.772 377.434 272.607 377.507 274.362M434.862 294.076C428.959 302.939 417.029 312.927 410.459 312.927C399.147 312.927 379.167 314.372 377.507 274.362M434.862 294.076C437.486 294.588 440.53 297.816 431.713 306.631C431.189 312.14 427.778 323.159 418.331 323.159C418.331 326.045 416.757 331.816 410.459 331.816C407.31 336.801 399.596 346.77 393.928 346.77C394.715 352.279 393.928 363.298 384.481 363.298C372.673 363.298 327.016 408.946 357.717 439.641C363.489 442.264 369.84 452.706 349.057 473.484C340.661 480.042 323.867 495.049 323.867 502.604C322.817 508.114 318.199 519.132 308.123 519.132L301.038 542.744C293.166 593.901 232.079 562.105 264.827 529.364C274.011 522.805 293.481 509.688 297.889 509.688C297.889 493.947 315.208 477.419 323.867 471.123C342.13 452.863 336.2 439.379 330.952 434.919C321.775 422.844 310.502 391.614 338.824 363.298C336.934 337.483 350.632 346.77 357.717 354.64L375.822 345.196C368.265 337.64 373.723 327.356 377.397 323.159C365.431 311.196 372.485 285.643 377.507 274.362M431.713 325.52C446.67 305.057 476.584 258.779 476.584 237.371C476.584 210.612 484.456 102 431.713 102C378.971 102 338.824 124.037 338.824 259.408C340.923 281.446 336.305 334.335 301.038 369.594C293.953 378.252 277.737 400.604 269.55 420.752C261.363 440.9 235.176 474.271 223.105 488.438C217.595 498.144 204.999 519.132 198.702 525.429C190.83 533.299 145.172 563.994 145.172 587.605C145.172 611.216 107.386 624.596 105.025 626.957C103.136 628.846 209.723 627.744 263.252 626.957C274.011 612.266 295.528 581.309 295.528 575.012C295.528 567.142 328.59 543.531 341.185 509.688C358.766 481.879 393.928 422.798 393.928 408.946C393.928 391.631 417.544 344.906 431.713 325.52Z" stroke="#FAFAFA" stroke-width="3"/>
<path d="M226.253 551.839C222.683 549.082 218.341 547.465 213.658 547.465C209.719 547.465 206.021 548.609 202.82 550.614M226.253 551.839C234.65 546.446 251.444 534.243 251.444 528.576C251.444 521.493 253.018 481.354 239.636 494.734L208.148 515.197C205.815 517.529 199.117 524.282 197.166 532.512M226.253 551.839C228.561 553.62 230.547 555.879 232.093 558.484M202.82 550.614C196.131 554.803 191.617 562.75 191.617 571.864C191.617 575.829 192.471 579.573 193.987 582.883M202.82 550.614C196.724 544.519 195.825 538.167 197.166 532.512M235.136 566.354C235.505 568.125 235.7 569.969 235.7 571.864C235.7 585.339 225.832 596.262 213.658 596.262C208.975 596.262 204.633 594.646 201.063 591.889M235.136 566.354C240.214 570.024 246.733 578.456 243.961 589.179M235.136 566.354C234.542 563.508 233.499 560.853 232.093 558.484M201.063 591.889C201.063 594.805 202.649 599.797 205.653 604.066M201.063 591.889C198.084 589.589 195.642 586.494 193.987 582.883M205.653 604.066C211.118 611.829 221.278 617.2 235.136 603.345C240.13 598.352 242.826 593.573 243.961 589.179M205.653 604.066C205.653 621.468 158.98 619.17 177.727 596.262M193.987 582.883C193.987 582.883 185.06 589.703 180.596 593.114C179.506 594.203 178.553 595.253 177.727 596.262M177.727 596.262C164.776 591.278 142.338 577.846 156.193 563.994C173.511 546.679 186.183 532.512 197.166 532.512M243.961 589.179C258.127 578.947 275.586 558.484 232.093 558.484" stroke="#FAFAFA" stroke-width="3"/>
<ellipse cx="16.4048" cy="24.0078" rx="16.4048" ry="24.0078" transform="matrix(-0.937808 -0.347154 0.347278 -0.937762 378.527 433.688)" fill="#D7FF00" stroke="#FAFAFA" stroke-width="3.14817"/>
<defs>
<filter id="filter0_bf_172_149" x="0.425781" y="0.425903" width="575.148" height="729.148" filterUnits="userSpaceOnUse" color-interpolation-filters="sRGB">
<feFlood flood-opacity="0" result="BackgroundImageFix"/>
<feGaussianBlur in="BackgroundImageFix" stdDeviation="50"/>
<feComposite in2="SourceAlpha" operator="in" result="effect1_backgroundBlur_172_149"/>
<feBlend mode="normal" in="SourceGraphic" in2="effect1_backgroundBlur_172_149" result="shape"/>
<feGaussianBlur stdDeviation="50" result="effect2_foregroundBlur_172_149"/>
</filter>
<linearGradient id="paint0_linear_172_149" x1="420.989" y1="102" x2="168.021" y2="628.04" gradientUnits="userSpaceOnUse">
<stop stop-color="#FAFAFA"/>
<stop offset="1" stop-color="#070707"/>
</linearGradient>
<linearGradient id="paint1_linear_172_149" x1="423.989" y1="102" x2="171.021" y2="628.04" gradientUnits="userSpaceOnUse">
<stop stop-color="#FAFAFA"/>
<stop offset="1" stop-color="#070707"/>
</linearGradient>
</defs>
</svg>
