<svg width="578" height="576" viewBox="0 0 578 576" fill="none" xmlns="http://www.w3.org/2000/svg">
<g filter="url(#filter0_bf_391_421)">
<path d="M294.076 431.862C287.009 436.569 280.658 437.444 280.658 428.713C280.658 412.969 272.788 414.806 268.853 417.693C260.72 433.699 244.455 458.942 244.455 431.862C244.455 404.783 230.813 415.856 223.991 424.778C227.14 427.139 226.667 431.862 199.593 431.862C165.75 431.862 177.556 435.798 170.473 435.798C163.389 435.798 158.667 431.862 170.473 420.054C179.917 410.608 188.05 407.722 190.936 407.459C193.822 407.459 201.167 405.885 207.464 399.587C215.334 391.715 223.991 392.502 223.991 396.438C223.991 400.374 231.862 405.098 240.519 396.438C249.177 387.779 223.204 374.397 268.853 374.397C270.772 374.397 272.607 374.434 274.362 374.507M294.076 431.862C302.939 425.959 312.927 414.029 312.927 407.459C312.927 396.147 314.372 376.167 274.362 374.507M294.076 431.862C294.588 434.486 297.816 437.53 306.631 428.713C312.14 428.189 323.159 424.778 323.159 415.331C326.045 415.331 331.816 413.757 331.816 407.459C336.801 404.31 346.77 396.596 346.77 390.928C352.279 391.715 363.298 390.928 363.298 381.481C363.298 369.673 408.946 324.016 439.641 354.717C442.264 360.489 452.706 366.84 473.484 346.057C480.042 337.661 495.049 320.867 502.604 320.867C508.114 319.817 519.132 315.199 519.132 305.123L542.744 298.038C593.901 290.166 562.105 229.079 529.364 261.827C522.805 271.011 509.688 290.481 509.688 294.889C493.947 294.889 477.419 312.208 471.123 320.867C452.863 339.13 439.379 333.2 434.919 327.952C422.844 318.775 391.614 307.502 363.298 335.824C337.483 333.934 346.77 347.632 354.64 354.717L345.196 372.822C337.64 365.265 327.356 370.723 323.159 374.397C311.196 362.431 285.643 369.485 274.362 374.507M325.52 428.713C305.057 443.67 258.779 473.584 237.371 473.584C210.612 473.584 102 481.456 102 428.713C102 375.971 124.037 335.824 259.408 335.824C281.446 337.923 334.335 333.305 369.594 298.038C378.252 290.953 400.604 274.737 420.752 266.55C440.9 258.363 474.271 232.176 488.438 220.105C498.144 214.595 519.132 201.999 525.429 195.702C533.299 187.83 563.994 142.172 587.605 142.172C611.216 142.172 624.596 104.386 626.957 102.025C628.846 100.136 627.744 206.723 626.957 260.252C612.266 271.011 581.309 292.528 575.012 292.528C567.142 292.528 543.531 325.59 509.688 338.185C481.879 355.766 422.798 390.928 408.946 390.928C391.631 390.928 344.906 414.544 325.52 428.713Z" stroke="#FAFAFA" stroke-width="3.14817"/>
<path d="M551.837 223.253C549.08 219.683 547.464 215.341 547.464 210.658C547.464 206.719 548.607 203.021 550.612 199.82M551.837 223.253C546.444 231.65 534.241 248.444 528.575 248.444C521.491 248.444 481.352 250.018 494.732 236.636L515.195 205.148C517.527 202.815 524.28 196.117 532.51 194.166M551.837 223.253C553.619 225.561 555.877 227.547 558.482 229.093M550.612 199.82C554.801 193.131 562.748 188.617 571.862 188.617C575.827 188.617 579.571 189.471 582.881 190.987M550.612 199.82C544.517 193.724 538.165 192.825 532.51 194.166M566.353 232.136C568.123 232.505 569.967 232.7 571.862 232.7C585.337 232.7 596.26 222.832 596.26 210.658C596.26 205.975 594.644 201.633 591.887 198.063M566.353 232.136C570.022 237.214 578.454 243.733 589.177 240.961M566.353 232.136C563.506 231.542 560.851 230.499 558.482 229.093M591.887 198.063C594.803 198.063 599.795 199.649 604.064 202.653M591.887 198.063C589.587 195.084 586.492 192.642 582.881 190.987M604.064 202.653C611.827 208.118 617.198 218.278 603.344 232.136C598.35 237.13 593.571 239.826 589.177 240.961M604.064 202.653C621.466 202.653 619.168 155.98 596.26 174.727M582.881 190.987C582.881 190.987 589.701 182.06 593.112 177.596C594.201 176.506 595.251 175.553 596.26 174.727M596.26 174.727C591.276 161.776 577.844 139.338 563.992 153.193C546.677 170.511 532.51 183.183 532.51 194.166M589.177 240.961C578.945 255.127 558.482 272.586 558.482 229.093" stroke="#FAFAFA" stroke-width="3.14817"/>
<path d="M237.371 473.584C258.779 473.584 305.057 443.67 325.52 428.713C344.906 414.544 391.631 390.928 408.946 390.928C422.798 390.928 481.879 355.766 509.688 338.185C543.531 325.59 567.142 292.528 575.012 292.528C581.309 292.528 612.266 271.011 626.957 260.252C627.744 206.723 628.846 100.135 626.957 102.025C624.596 104.386 611.216 142.172 587.605 142.172C563.994 142.172 533.299 187.83 525.429 195.702C519.132 201.999 498.144 214.595 488.438 220.105C474.271 232.176 440.9 258.363 420.752 266.55C400.604 274.737 378.252 290.953 369.594 298.038C334.335 333.305 281.446 337.923 259.408 335.824C124.037 335.824 102 375.971 102 428.713C102 481.456 210.612 473.584 237.371 473.584Z" fill="url(#paint0_linear_391_421)"/>
<path d="M294.076 431.862C287.009 436.569 280.658 437.444 280.658 428.713C280.658 412.969 272.788 414.806 268.853 417.693C260.72 433.699 244.455 458.942 244.455 431.862C244.455 404.783 230.813 415.856 223.991 424.778C227.14 427.139 226.667 431.862 199.593 431.862C165.75 431.862 177.556 435.798 170.473 435.798C163.389 435.798 158.667 431.862 170.473 420.054C179.917 410.608 188.05 407.722 190.936 407.459C193.822 407.459 201.167 405.885 207.464 399.587C215.334 391.715 223.991 392.502 223.991 396.438C223.991 400.374 231.862 405.098 240.519 396.438C249.177 387.779 223.204 374.397 268.853 374.397C270.772 374.397 272.607 374.434 274.362 374.507M294.076 431.862C302.939 425.959 312.927 414.029 312.927 407.459C312.927 396.147 314.372 376.167 274.362 374.507M294.076 431.862C294.588 434.486 297.816 437.53 306.631 428.713C312.14 428.189 323.159 424.778 323.159 415.331C326.045 415.331 331.816 413.757 331.816 407.459C336.801 404.31 346.77 396.596 346.77 390.928C352.279 391.715 363.298 390.928 363.298 381.481C363.298 369.673 408.946 324.016 439.641 354.717C442.264 360.489 452.706 366.84 473.484 346.057C480.042 337.661 495.049 320.867 502.604 320.867C508.114 319.817 519.132 315.199 519.132 305.123L542.744 298.038C593.901 290.166 562.105 229.079 529.364 261.827C522.805 271.011 509.688 290.481 509.688 294.889C493.947 294.889 477.419 312.208 471.123 320.867C452.863 339.13 439.379 333.2 434.919 327.952C422.844 318.775 391.614 307.502 363.298 335.824C337.483 333.934 346.77 347.632 354.64 354.717L345.196 372.822C337.64 365.265 327.356 370.723 323.159 374.397C311.196 362.431 285.643 369.485 274.362 374.507M325.52 428.713C305.057 443.67 258.779 473.584 237.371 473.584C210.612 473.584 102 481.456 102 428.713C102 375.971 124.037 335.824 259.408 335.824C281.446 337.923 334.335 333.305 369.594 298.038C378.252 290.953 400.604 274.737 420.752 266.55C440.9 258.363 474.271 232.176 488.438 220.105C498.144 214.595 519.132 201.999 525.429 195.702C533.299 187.83 563.994 142.172 587.605 142.172C611.216 142.172 624.596 104.386 626.957 102.025C628.846 100.136 627.744 206.723 626.957 260.252C612.266 271.011 581.309 292.528 575.012 292.528C567.142 292.528 543.531 325.59 509.688 338.185C481.879 355.766 422.798 390.928 408.946 390.928C391.631 390.928 344.906 414.544 325.52 428.713Z" stroke="#FAFAFA" stroke-width="3"/>
<path d="M551.837 223.253C549.08 219.683 547.464 215.341 547.464 210.658C547.464 206.719 548.607 203.021 550.612 199.82M551.837 223.253C546.444 231.65 534.241 248.444 528.575 248.444C521.491 248.444 481.352 250.018 494.732 236.636L515.195 205.148C517.527 202.815 524.28 196.117 532.51 194.166M551.837 223.253C553.619 225.561 555.877 227.547 558.482 229.093M550.612 199.82C554.801 193.131 562.748 188.617 571.862 188.617C575.827 188.617 579.571 189.471 582.881 190.987M550.612 199.82C544.517 193.724 538.165 192.825 532.51 194.166M566.353 232.136C568.123 232.505 569.967 232.7 571.862 232.7C585.337 232.7 596.26 222.832 596.26 210.658C596.26 205.975 594.644 201.633 591.887 198.063M566.353 232.136C570.022 237.214 578.454 243.733 589.177 240.961M566.353 232.136C563.506 231.542 560.851 230.499 558.482 229.093M591.887 198.063C594.803 198.063 599.795 199.649 604.064 202.653M591.887 198.063C589.587 195.084 586.492 192.642 582.881 190.987M604.064 202.653C611.827 208.118 617.198 218.278 603.344 232.136C598.35 237.13 593.571 239.826 589.177 240.961M604.064 202.653C621.466 202.653 619.168 155.98 596.26 174.727M582.881 190.987C582.881 190.987 589.701 182.06 593.112 177.596C594.201 176.506 595.251 175.553 596.26 174.727M596.26 174.727C591.276 161.776 577.844 139.338 563.992 153.193C546.677 170.511 532.51 183.183 532.51 194.166M589.177 240.961C578.945 255.127 558.482 272.586 558.482 229.093" stroke="#FAFAFA" stroke-width="3"/>
<ellipse cx="16.4048" cy="24.0078" rx="16.4048" ry="24.0078" transform="matrix(-0.347153 -0.937808 -0.937762 0.347279 433.688 375.527)" stroke="#FAFAFA" stroke-width="3.14817"/>
</g>
<path d="M294.076 434.862C287.009 439.569 280.658 440.444 280.658 431.713C280.658 415.969 272.788 417.806 268.853 420.693C260.72 436.699 244.455 461.942 244.455 434.862C244.455 407.783 230.813 418.856 223.991 427.778C227.14 430.139 226.667 434.862 199.593 434.862C165.75 434.862 177.556 438.798 170.473 438.798C163.389 438.798 158.667 434.862 170.473 423.054C179.917 413.608 188.05 410.722 190.936 410.459C193.822 410.459 201.167 408.885 207.464 402.587C215.334 394.715 223.991 395.502 223.991 399.438C223.991 403.374 231.862 408.098 240.519 399.438C249.177 390.779 223.204 377.397 268.853 377.397C270.772 377.397 272.607 377.434 274.362 377.507M294.076 434.862C302.939 428.959 312.927 417.029 312.927 410.459C312.927 399.147 314.372 379.167 274.362 377.507M294.076 434.862C294.588 437.486 297.816 440.53 306.631 431.713C312.14 431.189 323.159 427.778 323.159 418.331C326.045 418.331 331.816 416.757 331.816 410.459C336.801 407.31 346.77 399.596 346.77 393.928C352.279 394.715 363.298 393.928 363.298 384.481C363.298 372.673 408.946 327.016 439.641 357.717C442.264 363.489 452.706 369.84 473.484 349.057C480.042 340.661 495.049 323.867 502.604 323.867C508.114 322.817 519.132 318.199 519.132 308.123L542.744 301.038C593.901 293.166 562.105 232.079 529.364 264.827C522.805 274.011 509.688 293.481 509.688 297.889C493.947 297.889 477.419 315.208 471.123 323.867C452.863 342.13 439.379 336.2 434.919 330.952C422.844 321.775 391.614 310.502 363.298 338.824C337.483 336.934 346.77 350.632 354.64 357.717L345.196 375.822C337.64 368.265 327.356 373.723 323.159 377.397C311.196 365.431 285.643 372.485 274.362 377.507M325.52 431.713C305.057 446.67 258.779 476.584 237.371 476.584C210.612 476.584 102 484.456 102 431.713C102 378.971 124.037 338.824 259.408 338.824C281.446 340.923 334.335 336.305 369.594 301.038C378.252 293.953 400.604 277.737 420.752 269.55C440.9 261.363 474.271 235.176 488.438 223.105C498.144 217.595 519.132 204.999 525.429 198.702C533.299 190.83 563.994 145.172 587.605 145.172C611.216 145.172 624.596 107.386 626.957 105.025C628.846 103.136 627.744 209.723 626.957 263.252C612.266 274.011 581.309 295.528 575.012 295.528C567.142 295.528 543.531 328.59 509.688 341.185C481.879 358.766 422.798 393.928 408.946 393.928C391.631 393.928 344.906 417.544 325.52 431.713Z" stroke="#FAFAFA" stroke-width="3.14817"/>
<path d="M551.837 226.253C549.08 222.683 547.464 218.341 547.464 213.658C547.464 209.719 548.607 206.021 550.612 202.82M551.837 226.253C546.444 234.65 534.241 251.444 528.575 251.444C521.491 251.444 481.352 253.018 494.732 239.636L515.195 208.148C517.527 205.815 524.28 199.117 532.51 197.166M551.837 226.253C553.619 228.561 555.877 230.547 558.482 232.093M550.612 202.82C554.801 196.131 562.748 191.617 571.862 191.617C575.827 191.617 579.571 192.471 582.881 193.987M550.612 202.82C544.517 196.724 538.165 195.825 532.51 197.166M566.353 235.136C568.123 235.505 569.967 235.7 571.862 235.7C585.337 235.7 596.26 225.832 596.26 213.658C596.26 208.975 594.644 204.633 591.887 201.063M566.353 235.136C570.022 240.214 578.454 246.733 589.177 243.961M566.353 235.136C563.506 234.542 560.851 233.499 558.482 232.093M591.887 201.063C594.803 201.063 599.795 202.649 604.064 205.653M591.887 201.063C589.587 198.084 586.492 195.642 582.881 193.987M604.064 205.653C611.827 211.118 617.198 221.278 603.344 235.136C598.35 240.13 593.571 242.826 589.177 243.961M604.064 205.653C621.466 205.653 619.168 158.98 596.26 177.727M582.881 193.987C582.881 193.987 589.701 185.06 593.112 180.596C594.201 179.506 595.251 178.553 596.26 177.727M596.26 177.727C591.276 164.776 577.844 142.338 563.992 156.193C546.677 173.511 532.51 186.183 532.51 197.166M589.177 243.961C578.945 258.127 558.482 275.586 558.482 232.093" stroke="#FAFAFA" stroke-width="3.14817"/>
<path d="M237.371 476.584C258.779 476.584 305.057 446.67 325.52 431.713C344.906 417.544 391.631 393.928 408.946 393.928C422.798 393.928 481.879 358.766 509.688 341.185C543.531 328.59 567.142 295.528 575.012 295.528C581.309 295.528 612.266 274.011 626.957 263.252C627.744 209.723 628.846 103.135 626.957 105.025C624.596 107.386 611.216 145.172 587.605 145.172C563.994 145.172 533.299 190.83 525.429 198.702C519.132 204.999 498.144 217.595 488.438 223.105C474.271 235.176 440.9 261.363 420.752 269.55C400.604 277.737 378.252 293.953 369.594 301.038C334.335 336.305 281.446 340.923 259.408 338.824C124.037 338.824 102 378.971 102 431.713C102 484.456 210.612 476.584 237.371 476.584Z" fill="url(#paint1_linear_391_421)"/>
<path d="M294.076 434.862C287.009 439.569 280.658 440.444 280.658 431.713C280.658 415.969 272.788 417.806 268.853 420.693C260.72 436.699 244.455 461.942 244.455 434.862C244.455 407.783 230.813 418.856 223.991 427.778C227.14 430.139 226.667 434.862 199.593 434.862C165.75 434.862 177.556 438.798 170.473 438.798C163.389 438.798 158.667 434.862 170.473 423.054C179.917 413.608 188.05 410.722 190.936 410.459C193.822 410.459 201.167 408.885 207.464 402.587C215.334 394.715 223.991 395.502 223.991 399.438C223.991 403.374 231.862 408.098 240.519 399.438C249.177 390.779 223.204 377.397 268.853 377.397C270.772 377.397 272.607 377.434 274.362 377.507M294.076 434.862C302.939 428.959 312.927 417.029 312.927 410.459C312.927 399.147 314.372 379.167 274.362 377.507M294.076 434.862C294.588 437.486 297.816 440.53 306.631 431.713C312.14 431.189 323.159 427.778 323.159 418.331C326.045 418.331 331.816 416.757 331.816 410.459C336.801 407.31 346.77 399.596 346.77 393.928C352.279 394.715 363.298 393.928 363.298 384.481C363.298 372.673 408.946 327.016 439.641 357.717C442.264 363.489 452.706 369.84 473.484 349.057C480.042 340.661 495.049 323.867 502.604 323.867C508.114 322.817 519.132 318.199 519.132 308.123L542.744 301.038C593.901 293.166 562.105 232.079 529.364 264.827C522.805 274.011 509.688 293.481 509.688 297.889C493.947 297.889 477.419 315.208 471.123 323.867C452.863 342.13 439.379 336.2 434.919 330.952C422.844 321.775 391.614 310.502 363.298 338.824C337.483 336.934 346.77 350.632 354.64 357.717L345.196 375.822C337.64 368.265 327.356 373.723 323.159 377.397C311.196 365.431 285.643 372.485 274.362 377.507M325.52 431.713C305.057 446.67 258.779 476.584 237.371 476.584C210.612 476.584 102 484.456 102 431.713C102 378.971 124.037 338.824 259.408 338.824C281.446 340.923 334.335 336.305 369.594 301.038C378.252 293.953 400.604 277.737 420.752 269.55C440.9 261.363 474.271 235.176 488.438 223.105C498.144 217.595 519.132 204.999 525.429 198.702C533.299 190.83 563.994 145.172 587.605 145.172C611.216 145.172 624.596 107.386 626.957 105.025C628.846 103.136 627.744 209.723 626.957 263.252C612.266 274.011 581.309 295.528 575.012 295.528C567.142 295.528 543.531 328.59 509.688 341.185C481.879 358.766 422.798 393.928 408.946 393.928C391.631 393.928 344.906 417.544 325.52 431.713Z" stroke="#FAFAFA" stroke-width="3"/>
<path d="M551.837 226.253C549.08 222.683 547.464 218.341 547.464 213.658C547.464 209.719 548.607 206.021 550.612 202.82M551.837 226.253C546.444 234.65 534.241 251.444 528.575 251.444C521.491 251.444 481.352 253.018 494.732 239.636L515.195 208.148C517.527 205.815 524.28 199.117 532.51 197.166M551.837 226.253C553.619 228.561 555.877 230.547 558.482 232.093M550.612 202.82C554.801 196.131 562.748 191.617 571.862 191.617C575.827 191.617 579.571 192.471 582.881 193.987M550.612 202.82C544.517 196.724 538.165 195.825 532.51 197.166M566.353 235.136C568.123 235.505 569.967 235.7 571.862 235.7C585.337 235.7 596.26 225.832 596.26 213.658C596.26 208.975 594.644 204.633 591.887 201.063M566.353 235.136C570.022 240.214 578.454 246.733 589.177 243.961M566.353 235.136C563.506 234.542 560.851 233.499 558.482 232.093M591.887 201.063C594.803 201.063 599.795 202.649 604.064 205.653M591.887 201.063C589.587 198.084 586.492 195.642 582.881 193.987M604.064 205.653C611.827 211.118 617.198 221.278 603.344 235.136C598.35 240.13 593.571 242.826 589.177 243.961M604.064 205.653C621.466 205.653 619.168 158.98 596.26 177.727M582.881 193.987C582.881 193.987 589.701 185.06 593.112 180.596C594.201 179.506 595.251 178.553 596.26 177.727M596.26 177.727C591.276 164.776 577.844 142.338 563.992 156.193C546.677 173.511 532.51 186.183 532.51 197.166M589.177 243.961C578.945 258.127 558.482 275.586 558.482 232.093" stroke="#FAFAFA" stroke-width="3"/>
<ellipse cx="16.4048" cy="24.0078" rx="16.4048" ry="24.0078" transform="matrix(-0.347154 -0.937808 -0.937762 0.347278 433.688 378.527)" fill="#D7FF00" stroke="#FAFAFA" stroke-width="3.14817"/>
<defs>
<filter id="filter0_bf_391_421" x="0.425781" y="0.425659" width="729.148" height="575.149" filterUnits="userSpaceOnUse" color-interpolation-filters="sRGB">
<feFlood flood-opacity="0" result="BackgroundImageFix"/>
<feGaussianBlur in="BackgroundImageFix" stdDeviation="50"/>
<feComposite in2="SourceAlpha" operator="in" result="effect1_backgroundBlur_391_421"/>
<feBlend mode="normal" in="SourceGraphic" in2="effect1_backgroundBlur_391_421" result="shape"/>
<feGaussianBlur stdDeviation="50" result="effect2_foregroundBlur_391_421"/>
</filter>
<linearGradient id="paint0_linear_391_421" x1="102" y1="420.989" x2="628.04" y2="168.021" gradientUnits="userSpaceOnUse">
<stop stop-color="#FAFAFA"/>
<stop offset="1" stop-color="#070707"/>
</linearGradient>
<linearGradient id="paint1_linear_391_421" x1="102" y1="423.989" x2="628.04" y2="171.021" gradientUnits="userSpaceOnUse">
<stop stop-color="#FAFAFA"/>
<stop offset="1" stop-color="#070707"/>
</linearGradient>
</defs>
</svg>
