<svg width="975" height="689" viewBox="0 0 975 689" fill="none" xmlns="http://www.w3.org/2000/svg">
<g filter="url(#filter0_bf_172_716)">
<path d="M527.306 279.973C533.677 229.022 555.566 198.217 555.471 277.013C579.556 296.535 631.418 378.036 636.298 424.472C638.126 441.864 634.511 449.949 629.145 452.039C620.185 455.528 606.345 442.302 604.819 427.78C602.379 404.563 550.695 311.069 537.856 300.662C527.584 292.336 526.543 283.401 527.306 279.973Z" fill="url(#paint0_linear_172_716)"/>
<path fill-rule="evenodd" clip-rule="evenodd" d="M873.908 533.614C841.82 515.19 807.904 495.311 791.773 453.397L746.698 327.351C719.322 258.129 704.325 242.938 664.041 210.285L562.543 137.102C500.61 86.9003 401.912 85.1436 376.165 171.802C372.456 167.69 363.527 162.247 354.891 169.554C340.08 163.606 310.473 154.699 296.983 160.469C287.598 156.853 271.228 152.558 264.812 157.201C237.694 160.051 224.058 169.33 227.266 174.039C229.742 177.673 242.251 178.585 266.338 171.72C273.283 176.844 287.096 174.496 294.845 172.002C299.22 174.727 306.912 176.926 315.643 178.641C321.414 179.774 327.638 180.695 333.658 181.417C321.843 180.931 309.345 181.721 302.981 185.669C289.884 186.869 263.594 189.384 263.218 189.849C263.132 189.955 263.001 190.888 262.935 192.332C235.653 195.2 222.588 207.339 225.497 212.789C227.831 217.161 240.443 217.228 264.24 204.752C265.827 210.207 269.147 214.908 275.829 214.206C287.758 212.952 298.588 203.989 302.512 199.664C311.504 206.014 334.232 201.948 346.647 198.378C346.621 208.287 360.616 211.065 370.028 211.011C369.592 221.802 369.985 233.482 371.31 246.088L370.586 246.119C355.46 246.757 348.582 247.047 345.994 252.103C329.254 254.752 299.548 262.197 288.785 273.73L253.992 277.387C253.937 278.24 253.914 279.2 253.935 280.222L222.807 283.494C218.744 283.921 217.565 287.826 218.788 290.624C219.56 292.39 221.288 293.714 223.853 293.444L255.758 290.091C257.278 293.709 259.92 296.36 264.313 295.899C273.591 294.923 282.046 288.446 285.113 285.329C287.594 294.209 301.99 292.122 316.056 286.7C307.666 290.507 302.148 297.832 299.778 304.848C290.805 307.714 274.883 314.688 273.206 316.761C272.506 317.626 272.171 319.294 272.132 321.33C272.006 327.92 274.988 338.371 278.786 337.972C282.183 337.247 291.465 332.724 301.415 320.424C307.259 325.625 321.887 320.977 346.447 290.619C349.984 294.905 355.219 298.061 361.626 297.388C369.451 296.566 376.644 296.083 383.244 295.881C385.399 316.387 383.796 333.015 382.725 338.765L425.542 315.821C338.963 422.841 446.888 598.619 561.207 586.603C641.613 578.151 678.77 560.15 709.102 545.456C730.02 535.322 747.692 526.76 774.065 523.988C798.917 521.376 842.866 525.14 873.908 533.614ZM527.306 279.973C533.677 229.022 555.566 198.217 555.471 277.013C579.556 296.535 631.418 378.036 636.298 424.472C638.126 441.864 634.511 449.949 629.145 452.039C637.051 452.889 653.492 460.558 656.002 484.439C657.25 501.628 652.787 536.736 624.953 539.661C600.221 542.261 608.36 535.485 618.863 526.741C623.135 523.184 627.798 519.302 630.799 515.592C645.624 497.267 641.701 475.878 634.377 469.941C628.517 465.191 619.554 456.412 629.145 452.039C620.185 455.528 606.345 442.302 604.819 427.78C602.379 404.563 550.695 311.069 537.856 300.662C527.584 292.336 526.543 283.401 527.306 279.973Z" fill="url(#paint1_linear_172_716)"/>
<path d="M629.145 452.039C637.051 452.889 653.492 460.558 656.002 484.439C657.25 501.628 652.787 536.736 624.953 539.661C600.221 542.261 608.36 535.485 618.863 526.741C623.135 523.184 627.798 519.302 630.799 515.592C645.624 497.267 641.701 475.878 634.377 469.941C628.517 465.191 619.554 456.412 629.145 452.039Z" fill="url(#paint2_linear_172_716)"/>
<path d="M461.034 286.939C460.685 294.242 457.335 309.125 446.732 310.24M461.034 286.939C470.533 275.198 463.366 266.579 458.595 263.737M461.034 286.939C451.268 279.028 414.507 265.017 345.584 272.262M446.732 310.24C442.745 304.391 424.714 294.61 383.244 295.881M446.732 310.24C369.028 479.388 487.005 534.056 519.965 560.772C549.263 584.52 608.85 567.079 634.982 555.39C699.597 548.598 677.714 483.829 670.389 477.892C664.53 473.143 657.311 449.086 654.434 437.651C639.788 393.92 605.733 302.597 586.69 287.161C567.646 271.724 565.096 246.395 566.201 235.659C551.56 96.3537 408.811 156.629 458.595 263.737M383.244 295.881C376.644 296.083 369.451 296.566 361.626 297.388C355.219 298.061 349.984 294.905 346.447 290.619M383.244 295.881C385.399 316.387 383.796 333.015 382.725 338.765L425.542 315.821C338.963 422.841 446.888 598.619 561.207 586.603C641.613 578.151 678.77 560.15 709.102 545.456C730.02 535.322 747.692 526.76 774.065 523.988C798.917 521.376 842.866 525.14 873.908 533.614C841.82 515.19 807.904 495.311 791.773 453.397L746.698 327.351C719.322 258.129 704.325 242.938 664.041 210.285L562.543 137.102C500.61 86.9003 401.912 85.1436 376.165 171.802M371.31 246.088C385.89 244.556 436.127 257.151 458.595 263.737M371.31 246.088C369.985 233.482 369.592 221.802 370.028 211.011M371.31 246.088L370.586 246.119M371.31 246.088C371.067 246.098 370.825 246.109 370.586 246.119M345.584 272.262C345.397 270.48 345.231 268.825 345.095 267.287M345.584 272.262C339.34 272.918 340.471 283.379 346.447 290.619M629.145 452.039C620.185 455.528 606.345 442.302 604.819 427.78C602.379 404.563 550.695 311.069 537.856 300.662C527.584 292.336 526.543 283.401 527.306 279.973C533.677 229.022 555.566 198.217 555.471 277.013C579.556 296.535 631.418 378.036 636.298 424.472C638.126 441.864 634.511 449.949 629.145 452.039ZM629.145 452.039C637.051 452.889 653.492 460.558 656.002 484.439C657.25 501.628 652.787 536.736 624.953 539.661C600.221 542.261 608.36 535.485 618.863 526.741C623.135 523.184 627.798 519.302 630.799 515.592C645.624 497.267 641.701 475.878 634.377 469.941C628.517 465.191 619.554 456.412 629.145 452.039ZM345.994 252.103C344.452 255.114 344.431 259.815 345.095 267.287M345.994 252.103C329.254 254.752 299.548 262.197 288.785 273.73M345.994 252.103C348.582 247.047 355.46 246.757 370.586 246.119M345.095 267.287C345.507 271.21 332.54 279.914 318.521 285.714M318.521 285.714C317.702 286.053 316.88 286.382 316.056 286.7M318.521 285.714C317.674 286.009 316.852 286.339 316.056 286.7M346.447 290.619C321.887 320.977 307.259 325.625 301.415 320.424M288.785 273.73C285.949 276.769 284.428 280.091 284.806 283.685C284.867 284.27 284.971 284.817 285.113 285.329M288.785 273.73L253.992 277.387C253.937 278.24 253.914 279.2 253.935 280.222M285.113 285.329C282.046 288.446 273.591 294.923 264.313 295.899C259.92 296.36 257.278 293.709 255.758 290.091M285.113 285.329C287.594 294.209 301.99 292.122 316.056 286.7M253.935 280.222L222.807 283.494C218.744 283.921 217.565 287.826 218.788 290.624M253.935 280.222C254.001 283.349 254.485 287.059 255.758 290.091M255.758 290.091L223.853 293.444C221.288 293.714 219.56 292.39 218.788 290.624M218.788 290.624C207.106 291.852 179.346 290.745 161.768 276.496C144.189 262.247 113.926 256.933 100.991 256.057M299.778 304.848C290.805 307.714 274.883 314.688 273.206 316.761C272.506 317.626 272.171 319.294 272.132 321.33M299.778 304.848C297.606 311.282 298.08 317.456 301.415 320.424M299.778 304.848C302.148 297.832 307.666 290.507 316.056 286.7M301.415 320.424C291.465 332.724 282.183 337.247 278.786 337.972C274.988 338.371 272.006 327.92 272.132 321.33M272.132 321.33C258.741 321.811 232.239 325.427 233.355 336.04M233.355 336.04C234.47 346.654 260.524 338.774 273.412 333.507M233.355 336.04C198.94 337.981 125.663 347.36 107.873 369.35M376.165 171.802C374.491 177.436 373.126 183.444 372.099 189.837M376.165 171.802C372.456 167.69 363.527 162.247 354.891 169.554M372.099 189.837C366.254 189.382 357.923 187.803 353.117 184.551M372.099 189.837C371.032 196.476 370.331 203.53 370.028 211.011M353.117 184.551C352.427 184.084 351.81 183.583 351.284 183.046M353.117 184.551C348.516 190.238 346.656 194.779 346.647 198.378M370.028 211.011C360.616 211.065 346.621 208.287 346.647 198.378M354.891 169.554C353.877 170.412 352.866 171.446 351.869 172.679C348.309 177.079 348.763 180.475 351.284 183.046M354.891 169.554C340.08 163.606 310.473 154.699 296.983 160.469M351.284 183.046C346.351 182.327 340.107 181.682 333.658 181.417M351.284 183.046C346.153 182.717 340.019 182.179 333.658 181.417M346.647 198.378C334.232 201.948 311.504 206.014 302.512 199.664M296.983 160.469C295.074 161.285 293.488 162.395 292.312 163.848C289.79 166.966 291.108 169.675 294.845 172.002M296.983 160.469C287.598 156.853 271.228 152.558 264.812 157.201M294.845 172.002C299.22 174.727 306.912 176.926 315.643 178.641C321.414 179.774 327.638 180.695 333.658 181.417M294.845 172.002C287.096 174.496 273.283 176.844 266.338 171.72M302.981 185.669C300.041 187.494 298.41 189.992 298.763 193.351C299.054 196.12 300.407 198.177 302.512 199.664M302.981 185.669C289.884 186.869 263.594 189.384 263.218 189.849C263.132 189.955 263.001 190.888 262.935 192.332M302.981 185.669C309.345 181.721 321.843 180.931 333.658 181.417M302.512 199.664C298.588 203.989 287.758 212.952 275.829 214.206C269.147 214.908 265.827 210.207 264.24 204.752M264.812 157.201C262.873 158.604 261.843 160.824 262.19 164.126C262.556 167.61 264.086 170.058 266.338 171.72M264.812 157.201C237.694 160.051 224.058 169.33 227.266 174.039M266.338 171.72C242.251 178.585 229.742 177.673 227.266 174.039M227.266 174.039C206.423 185.731 152.285 199.022 102.479 158.651M262.935 192.332C262.801 195.251 262.932 200.258 264.24 204.752M262.935 192.332C235.653 195.2 222.588 207.339 225.497 212.789M264.24 204.752C240.443 217.228 227.831 217.161 225.497 212.789M225.497 212.789C221.899 215.962 207.411 223.074 178.252 226.139C141.802 229.97 145.489 217.234 102.412 221.762M704.323 274.796C644.684 185.492 546.947 227.638 607.357 276.605C620.785 287.489 648.234 314.897 650.604 337.451C655.066 379.906 672.031 397.882 677.806 405.014C686.147 415.315 708.76 428.588 732.48 399.267C756.201 369.946 723.592 304.07 704.323 274.796ZM575.78 454.307L550.756 423.403C541.483 425.495 520.009 427.305 508.29 417.806C504.627 425.457 496.848 436.446 495.035 419.199C488.06 416.579 481.695 403.834 503.756 406.545C499.251 400.871 494.392 384.391 510.996 363.866C518.409 354.704 501.232 334.712 486.407 353.037C484.256 353.822 478.855 354.502 474.461 350.94C471.728 356.816 465.984 365.915 464.868 355.301C460.654 352.391 455.87 346.187 470.45 344.654C467.049 338.864 463.214 323.617 475.074 308.957C477.778 286.876 494.873 258.271 499.403 301.37C503.151 321.096 508.68 319.509 526.258 333.758C548.231 351.569 564.451 346.511 575.78 454.307Z" stroke="url(#paint3_linear_172_716)" stroke-width="3"/>
</g>
<path d="M593.091 183.394C585.296 171.964 566.717 183.384 574.627 195.916C572.831 201.486 573.804 212.147 592.063 210.227C610.323 208.308 600.356 191.538 593.091 183.394Z" fill="#070707" fill-opacity="0.8"/>
<path d="M586.616 200.221L582.963 207.287M583.009 197.26L576.834 201.25M576.648 189.02L581.459 192.968M588.488 186.662L585.691 191.41M594.849 194.901L587.24 195.701M596.688 201.946L589.877 199.878M574.627 195.916C566.717 183.384 585.296 171.964 593.091 183.394C600.356 191.538 610.323 208.308 592.063 210.227C573.804 212.147 572.831 201.486 574.627 195.916Z" stroke="#FAFAFA" stroke-width="2"/>
<path d="M392.571 225.329C393.441 233.615 400.862 239.625 409.144 238.754C417.427 237.884 423.436 230.462 422.565 222.176C421.695 213.89 414.274 207.88 405.992 208.751C397.709 209.621 391.7 217.044 392.571 225.329Z" fill="#070707" fill-opacity="0.8" stroke="#FAFAFA" stroke-width="3"/>
<g filter="url(#filter1_b_172_716)">
<path d="M233.355 336.04C232.239 325.427 258.741 321.811 272.132 321.33C272.064 324.871 272.894 329.526 274.265 333.014L273.412 333.507C260.524 338.774 234.47 346.654 233.355 336.04Z" fill="url(#paint4_linear_172_716)" fill-opacity="0.8"/>
<path fill-rule="evenodd" clip-rule="evenodd" d="M873.908 533.614C841.82 515.19 807.904 495.311 791.773 453.397L746.698 327.351C719.322 258.129 704.325 242.938 664.041 210.285L562.543 137.102C500.61 86.9003 401.912 85.1436 376.165 171.802C372.456 167.69 363.527 162.247 354.891 169.554C340.08 163.606 310.473 154.699 296.983 160.469C287.598 156.853 271.228 152.558 264.812 157.201C237.694 160.051 224.058 169.33 227.266 174.039C229.742 177.673 242.251 178.585 266.338 171.72C273.283 176.844 287.096 174.496 294.845 172.002C299.22 174.727 306.912 176.926 315.643 178.641C321.414 179.774 327.638 180.695 333.658 181.417C321.843 180.931 309.345 181.721 302.981 185.669C289.884 186.869 263.594 189.384 263.218 189.849C263.132 189.955 263.001 190.888 262.935 192.332C235.653 195.2 222.588 207.339 225.497 212.789C227.831 217.161 240.443 217.228 264.24 204.752C265.827 210.207 269.147 214.908 275.829 214.206C287.758 212.952 298.588 203.989 302.512 199.664C311.504 206.014 334.232 201.948 346.647 198.378C346.621 208.287 360.616 211.065 370.028 211.011C369.592 221.802 369.985 233.482 371.31 246.088L370.586 246.119C355.46 246.757 348.582 247.047 345.994 252.103C329.254 254.752 299.548 262.197 288.785 273.73L253.992 277.387C253.937 278.24 253.914 279.2 253.935 280.222L222.807 283.494C218.744 283.921 217.565 287.826 218.788 290.624C219.56 292.39 221.288 293.714 223.853 293.444L255.758 290.091C257.278 293.709 259.92 296.36 264.313 295.899C273.591 294.923 282.046 288.446 285.113 285.329C287.594 294.209 301.99 292.122 316.056 286.7C307.666 290.507 302.148 297.832 299.778 304.848C290.805 307.714 274.883 314.688 273.206 316.761C272.506 317.626 272.171 319.294 272.132 321.33C272.064 324.871 272.894 329.526 274.265 333.014C275.446 336.018 277.029 338.157 278.786 337.972C282.183 337.247 291.465 332.724 301.415 320.424C307.259 325.625 321.887 320.977 346.447 290.619C349.984 294.905 355.219 298.061 361.626 297.388C369.451 296.566 376.644 296.083 383.244 295.881C385.399 316.387 383.796 333.015 382.725 338.765L425.542 315.821C338.963 422.841 446.888 598.619 561.207 586.603C641.613 578.151 678.77 560.15 709.102 545.456C730.02 535.322 747.692 526.76 774.065 523.988C798.917 521.376 842.866 525.14 873.908 533.614ZM461.034 286.939C460.685 294.242 457.335 309.125 446.732 310.24C377.731 460.442 463.032 520.373 506.085 550.622C511.515 554.437 516.273 557.78 519.965 560.772C549.263 584.52 608.85 567.079 634.982 555.39C698.143 548.751 674.913 489.442 670.652 478.565C670.554 478.315 670.466 478.09 670.389 477.892C667.954 471.611 665.473 465.927 663.175 460.665C659.453 452.141 656.213 444.721 654.434 437.651C652.086 430.64 649.653 422.912 647.078 414.732C633.592 371.898 616.21 316.689 586.69 287.161C569.255 269.721 566.202 258.154 566.201 235.659C566.198 96.5734 408.811 156.629 458.595 263.737C463.366 266.579 470.533 275.198 461.034 286.939Z" fill="url(#paint5_linear_172_716)" fill-opacity="0.8"/>
<path fill-rule="evenodd" clip-rule="evenodd" d="M446.732 310.24C457.335 309.125 460.685 294.242 461.034 286.939C470.533 275.198 463.366 266.579 458.595 263.737C408.811 156.629 566.198 96.5734 566.201 235.659C566.202 258.154 569.255 269.721 586.69 287.161C616.21 316.689 633.592 371.898 647.078 414.732C649.653 422.912 652.086 430.64 654.434 437.651C656.213 444.721 659.453 452.141 663.175 460.665C665.473 465.927 667.954 471.611 670.389 477.892C670.466 478.09 670.554 478.315 670.652 478.565C674.913 489.442 698.143 548.751 634.982 555.39C608.85 567.079 549.263 584.52 519.965 560.772C516.273 557.78 511.515 554.437 506.085 550.622C463.032 520.373 377.731 460.442 446.732 310.24ZM555.471 277.013C555.566 198.217 533.677 229.022 527.306 279.973C526.543 283.401 527.584 292.336 537.856 300.662C550.695 311.069 602.379 404.563 604.819 427.78C606.345 442.302 620.185 455.528 629.145 452.039C619.554 456.412 628.517 465.191 634.377 469.941C641.701 475.878 645.624 497.267 630.799 515.592C627.798 519.302 623.135 523.184 618.863 526.741C608.36 535.485 600.221 542.261 624.953 539.661C652.787 536.736 657.25 501.628 656.002 484.439C653.492 460.558 637.051 452.889 629.145 452.039C634.511 449.949 638.126 441.864 636.298 424.472C631.418 378.036 579.556 296.535 555.471 277.013ZM550.756 423.403L575.78 454.307C566.035 361.586 552.672 352.361 535.142 340.26L535.14 340.259L535.097 340.229L535.039 340.189L534.962 340.136C534.665 339.931 534.367 339.725 534.067 339.518C531.549 337.774 528.947 335.937 526.258 333.758C521.969 330.281 518.397 327.747 515.393 325.616C506.087 319.015 502.236 316.283 499.403 301.37C494.873 258.271 477.778 286.876 475.074 308.957C463.214 323.617 467.049 338.864 470.45 344.654C455.87 346.187 460.654 352.391 464.868 355.301C465.984 365.915 471.728 356.816 474.461 350.94C478.855 354.502 484.256 353.822 486.407 353.037C501.232 334.712 518.409 354.704 510.996 363.866C494.392 384.391 499.251 400.871 503.756 406.545C481.695 403.834 488.06 416.579 495.035 419.199C496.848 436.446 504.627 425.457 508.29 417.806C520.009 427.305 541.483 425.495 550.756 423.403Z" fill="url(#paint6_linear_172_716)" fill-opacity="0.8"/>
<path d="M527.306 279.973C533.677 229.022 555.566 198.217 555.471 277.013C579.556 296.535 631.418 378.036 636.298 424.472C638.126 441.864 634.511 449.949 629.145 452.039C620.185 455.528 606.345 442.302 604.819 427.78C602.379 404.563 550.695 311.069 537.856 300.662C527.584 292.336 526.543 283.401 527.306 279.973Z" fill="#D7FF00"/>
<path d="M629.145 452.039C637.051 452.889 653.492 460.558 656.002 484.439C657.25 501.628 652.787 536.736 624.953 539.661C600.221 542.261 608.36 535.485 618.863 526.741C623.135 523.184 627.798 519.302 630.799 515.592C645.624 497.267 641.701 475.878 634.377 469.941C628.517 465.191 619.554 456.412 629.145 452.039Z" fill="#D7FF00"/>
<path d="M575.78 454.307L550.756 423.403C541.483 425.495 520.009 427.305 508.29 417.806C504.627 425.457 496.848 436.446 495.035 419.199C488.06 416.579 481.695 403.834 503.756 406.545C499.251 400.871 494.392 384.391 510.996 363.866C518.409 354.704 501.232 334.712 486.407 353.037C484.256 353.822 478.855 354.502 474.461 350.94C471.728 356.816 465.984 365.915 464.868 355.301C460.654 352.391 455.87 346.187 470.45 344.654C467.049 338.864 463.214 323.617 475.074 308.957C477.778 286.876 494.873 258.271 499.403 301.37C502.236 316.283 506.087 319.015 515.393 325.616C518.397 327.747 521.969 330.281 526.258 333.758C528.947 335.937 531.549 337.774 534.067 339.518C534.367 339.725 534.665 339.931 534.962 340.136L535.039 340.189L535.097 340.229L535.14 340.259L535.142 340.26C552.672 352.361 566.035 361.586 575.78 454.307Z" fill="#D7FF00"/>
<path d="M791.773 453.397L790.373 453.936L790.366 453.919L790.36 453.902L791.773 453.397ZM873.908 533.614L874.655 532.313L873.513 535.061L873.908 533.614ZM425.542 315.821L424.833 314.498L426.708 316.764L425.542 315.821ZM382.725 338.765L383.434 340.087L380.678 341.564L381.251 338.49L382.725 338.765ZM383.244 295.881L383.198 294.382L383.244 295.881ZM371.31 246.088L371.467 247.58L371.42 247.585L371.373 247.587L371.31 246.088ZM562.543 137.102L561.666 138.319L561.632 138.294L561.599 138.267L562.543 137.102ZM664.041 210.285L664.918 209.068L664.952 209.093L664.985 209.12L664.041 210.285ZM746.698 327.351L748.093 326.799L748.102 326.822L748.111 326.845L746.698 327.351ZM704.323 274.796L705.57 273.963L705.576 273.971L704.323 274.796ZM607.357 276.605L608.301 275.439L607.357 276.605ZM677.806 405.014L678.972 404.07L677.806 405.014ZM566.201 235.659L564.701 235.659L566.201 235.659ZM586.69 287.161L587.751 286.1L587.751 286.1L586.69 287.161ZM654.434 437.651L655.857 437.175L655.875 437.23L655.889 437.285L654.434 437.651ZM670.389 477.892L671.788 477.35L671.788 477.35L670.389 477.892ZM634.982 555.39L634.369 554.02L634.587 553.923L634.825 553.898L634.982 555.39ZM519.965 560.772L520.91 559.607L520.91 559.607L519.965 560.772ZM555.471 277.013L554.527 278.178L553.971 277.727L553.971 277.011L555.471 277.013ZM527.306 279.973L528.794 280.159L528.785 280.23L528.77 280.299L527.306 279.973ZM537.856 300.662L538.8 299.497L538.8 299.497L537.856 300.662ZM575.78 454.307L577.272 454.15L577.801 459.186L574.614 455.251L575.78 454.307ZM550.756 423.403L550.425 421.939L551.335 421.734L551.921 422.459L550.756 423.403ZM508.29 417.806L506.937 417.158L507.758 415.444L509.234 416.641L508.29 417.806ZM495.035 419.199L495.563 417.795L496.43 418.121L496.527 419.042L495.035 419.199ZM503.756 406.545L504.931 405.613L507.208 408.481L503.573 408.034L503.756 406.545ZM510.996 363.866L509.83 362.923L510.996 363.866ZM486.407 353.037L487.573 353.981L487.311 354.304L486.921 354.446L486.407 353.037ZM474.461 350.94L473.1 350.307L473.911 348.563L475.405 349.774L474.461 350.94ZM464.868 355.301L465.721 354.067L466.288 354.459L466.36 355.144L464.868 355.301ZM470.45 344.654L471.743 343.895L472.922 345.903L470.607 346.146L470.45 344.654ZM475.074 308.957L476.562 309.139L476.51 309.566L476.24 309.901L475.074 308.957ZM499.403 301.37L497.929 301.65L497.917 301.589L497.911 301.527L499.403 301.37ZM526.258 333.758L527.203 332.593L527.203 332.593L526.258 333.758ZM629.145 452.039L628.601 450.641L629.145 452.039ZM656.002 484.439L657.493 484.282L657.496 484.306L657.498 484.33L656.002 484.439ZM634.377 469.941L635.321 468.775L634.377 469.941ZM630.799 515.592L629.633 514.649L629.633 514.649L630.799 515.592ZM318.521 285.714L319.095 287.1L318.521 285.714ZM346.447 290.619L347.604 289.664L346.447 290.619ZM288.785 273.73L289.882 274.754L288.785 273.73ZM253.992 277.387L252.495 277.29L252.577 276.028L253.835 275.895L253.992 277.387ZM285.113 285.329L286.558 284.925L286.558 284.925L285.113 285.329ZM299.778 304.848L301.2 305.328L301.2 305.328L299.778 304.848ZM273.206 316.761L274.372 317.705L274.372 317.705L273.206 316.761ZM278.786 337.972L279.098 339.439L279.021 339.456L278.942 339.464L278.786 337.972ZM273.412 333.507L274.161 334.806L274.073 334.857L273.979 334.895L273.412 333.507ZM109.039 370.294C108.518 370.938 107.573 371.038 106.929 370.517C106.285 369.996 106.185 369.051 106.706 368.407L109.039 370.294ZM376.165 171.802L377.603 172.229L376.165 171.802ZM351.869 172.679L353.035 173.622L351.869 172.679ZM370.028 211.011L371.527 211.072L371.527 211.072L370.028 211.011ZM292.312 163.848L293.479 164.792L293.479 164.792L292.312 163.848ZM315.643 178.641L315.933 177.169L315.933 177.169L315.643 178.641ZM294.845 172.002L295.637 170.729L294.845 172.002ZM263.218 189.849L264.384 190.792L263.218 189.849ZM302.512 199.664L303.377 198.439L302.512 199.664ZM264.812 157.201L265.691 158.416L264.812 157.201ZM227.266 174.039L228.506 173.194L228.506 173.194L227.266 174.039ZM709.102 545.456L708.448 544.106L708.448 544.106L709.102 545.456ZM618.863 526.741L619.822 527.894L619.822 527.894L618.863 526.741ZM506.085 550.622L505.223 551.849L505.223 551.849L506.085 550.622ZM515.393 325.616L514.525 326.84L514.525 326.84L515.393 325.616ZM535.14 340.259L534.313 341.51L534.3 341.502L534.288 341.493L535.14 340.259ZM534.067 339.518L533.213 340.751L533.213 340.751L534.067 339.518ZM274.265 333.014L275.661 332.466L274.265 333.014ZM535.039 340.189L534.187 341.424L535.039 340.189ZM670.652 478.565L669.255 479.112L669.255 479.112L670.652 478.565ZM663.175 460.665L661.8 461.265L661.8 461.265L663.175 460.665ZM647.078 414.732L645.647 415.183L645.647 415.183L647.078 414.732ZM793.173 452.858C809.09 494.217 842.531 513.868 874.655 532.313L873.161 534.915C841.109 516.511 806.717 496.405 790.373 453.936L793.173 452.858ZM773.908 522.496C798.969 519.862 843.105 523.651 874.303 532.167L873.513 535.061C842.626 526.63 798.865 522.89 774.222 525.48L773.908 522.496ZM561.364 588.095C503.378 594.19 447.334 552.689 416.721 496.569C386.081 440.399 380.588 369.003 424.376 314.877L426.708 316.764C383.917 369.658 389.097 439.662 419.355 495.132C449.64 550.652 504.718 591.032 561.051 585.111L561.364 588.095ZM426.25 317.143L383.434 340.087L382.017 337.443L424.833 314.498L426.25 317.143ZM462.532 287.011C462.351 290.796 461.399 296.545 459.09 301.539C456.792 306.509 452.965 311.093 446.888 311.732L446.575 308.748C451.102 308.272 454.251 304.857 456.366 300.281C458.47 295.729 459.367 290.384 459.535 286.868L462.532 287.011ZM445.492 311.085C443.792 308.59 438.695 304.813 428.618 301.829C418.617 298.867 403.908 296.748 383.29 297.38L383.198 294.382C404.05 293.743 419.091 295.879 429.47 298.952C439.773 302.003 445.685 306.041 447.971 309.395L445.492 311.085ZM383.29 297.38C376.729 297.581 369.573 298.061 361.782 298.88L361.469 295.896C369.328 295.07 376.559 294.585 383.198 294.382L383.29 297.38ZM381.251 338.49C382.294 332.89 383.893 316.409 381.752 296.038L384.735 295.724C386.905 316.366 385.299 333.139 384.2 339.04L381.251 338.49ZM563.421 135.885L664.918 209.068L663.163 211.502L561.666 138.319L563.421 135.885ZM664.985 209.12C685.132 225.45 699.086 237.514 711.417 254.214C723.741 270.904 734.391 292.152 748.093 326.799L745.304 327.902C731.63 293.328 721.093 272.369 709.003 255.996C696.92 239.631 683.233 227.773 663.096 211.45L664.985 209.12ZM748.111 326.845L793.185 452.892L790.36 453.902L745.286 327.856L748.111 326.845ZM703.075 275.629C673.515 231.364 634.746 219.986 611.152 225.312C599.319 227.983 591.575 234.738 590.115 243.356C588.649 252.01 593.371 263.337 608.301 275.439L606.412 277.77C591.138 265.389 585.424 253.085 587.157 242.855C588.896 232.59 597.987 225.209 610.491 222.386C635.573 216.723 675.492 228.924 705.57 273.963L703.075 275.629ZM608.301 275.439C615.086 280.939 625.384 290.586 634.298 301.714C643.17 312.79 650.863 325.566 652.096 337.294L649.112 337.608C647.974 326.781 640.758 314.577 631.956 303.59C623.196 292.654 613.056 283.155 606.412 277.77L608.301 275.439ZM705.576 273.971C715.262 288.687 728.303 312.599 735.952 336.558C739.776 348.537 742.274 360.597 742.297 371.562C742.32 382.527 739.866 392.523 733.647 400.211L731.314 398.324C736.955 391.351 739.319 382.117 739.297 371.569C739.275 361.021 736.865 349.284 733.094 337.47C725.551 313.842 712.653 290.179 703.07 275.621L705.576 273.971ZM733.647 400.211C721.554 415.159 709.514 419.493 699.231 418.492C689.061 417.501 680.985 411.324 676.64 405.958L678.972 404.07C682.968 409.005 690.37 414.615 699.522 415.506C708.561 416.386 719.687 412.696 731.314 398.324L733.647 400.211ZM676.64 405.958C673.781 402.426 667.985 396.023 662.38 385.167C656.772 374.306 651.362 359.017 649.112 337.608L652.096 337.294C654.308 358.34 659.612 373.267 665.045 383.791C670.482 394.319 676.057 400.47 678.972 404.07L676.64 405.958ZM564.701 235.659C564.7 201.145 554.938 179.308 541.397 167.435C527.877 155.582 510.335 153.433 494.201 158.799C461.958 169.523 435.427 210.334 459.955 263.105L457.235 264.369C431.979 210.032 459.25 167.262 493.254 155.952C510.244 150.302 528.938 152.523 543.374 165.18C557.788 177.817 567.7 200.63 567.701 235.659L564.701 235.659ZM635.594 556.759C622.425 562.65 600.854 569.982 578.855 572.857C556.934 575.723 534.17 574.218 519.021 561.937L520.91 559.607C535.057 571.075 556.737 572.723 578.466 569.883C600.118 567.052 621.406 559.819 634.369 554.02L635.594 556.759ZM459.363 262.448C461.98 264.007 465.266 267.142 466.602 271.567C467.969 276.099 467.206 281.694 462.2 287.883L459.868 285.996C464.36 280.442 464.763 275.858 463.73 272.434C462.664 268.904 459.981 266.308 457.828 265.025L459.363 262.448ZM458.173 265.176C446.97 261.892 428.827 257.106 411.672 253.333C403.094 251.447 394.782 249.818 387.717 248.756C380.605 247.688 374.902 247.219 371.467 247.58L371.153 244.596C375.008 244.191 381.052 244.722 388.162 245.79C395.32 246.865 403.704 248.509 412.317 250.403C429.542 254.191 447.752 258.995 459.017 262.297L458.173 265.176ZM460.09 288.105C455.484 284.374 444.133 278.957 425.215 275.391C406.35 271.836 380.077 270.145 345.741 273.754L345.427 270.77C380.014 267.135 406.583 268.827 425.771 272.443C444.906 276.05 456.818 281.593 461.978 285.774L460.09 288.105ZM553.971 277.011C553.995 257.337 552.642 244.667 550.565 237.485C549.514 233.849 548.35 231.89 547.326 231.045C546.856 230.657 546.458 230.538 546.11 230.537C545.742 230.537 545.261 230.67 544.652 231.081C543.39 231.932 541.916 233.744 540.358 236.59C538.822 239.395 537.286 243.053 535.83 247.41C532.921 256.121 530.377 267.5 528.794 280.159L525.817 279.787C527.42 266.971 530.001 255.393 532.985 246.46C534.476 241.995 536.078 238.16 537.726 235.149C539.352 232.18 541.108 229.853 542.974 228.594C543.929 227.95 544.987 227.535 546.114 227.537C547.262 227.539 548.316 227.972 549.236 228.731C550.991 230.18 552.36 232.891 553.447 236.652C555.648 244.263 556.995 257.291 556.971 277.015L553.971 277.011ZM528.77 280.299C528.149 283.087 528.9 291.472 538.8 299.497L536.911 301.827C526.269 293.201 524.936 283.714 525.842 279.647L528.77 280.299ZM538.8 299.497C540.57 300.931 542.88 303.672 545.527 307.271C548.203 310.907 551.305 315.536 554.66 320.849C561.372 331.476 569.13 344.895 576.558 358.707C583.986 372.518 591.095 386.742 596.504 398.98C601.881 411.144 605.672 421.549 606.311 427.624L603.327 427.937C602.746 422.403 599.162 412.414 593.76 400.193C588.391 388.046 581.319 373.893 573.916 360.128C566.513 346.363 558.79 333.006 552.124 322.451C548.79 317.172 545.729 312.607 543.111 309.049C540.465 305.452 538.352 302.995 536.911 301.827L538.8 299.497ZM634.806 424.628C632.401 401.744 618.357 369.992 601.789 341.402C593.522 327.138 584.661 313.719 576.374 302.659C568.07 291.575 560.401 282.94 554.527 278.178L556.416 275.848C562.584 280.847 570.43 289.721 578.775 300.86C587.139 312.023 596.064 325.542 604.384 339.898C620.988 368.548 635.315 400.764 637.79 424.315L634.806 424.628ZM574.614 455.251L549.59 424.347L551.921 422.459L576.946 453.363L574.614 455.251ZM551.086 424.866C546.33 425.939 538.501 426.931 530.351 426.449C522.236 425.968 513.563 424.011 507.345 418.971L509.234 416.641C514.735 421.1 522.659 422.988 530.529 423.454C538.364 423.918 545.909 422.959 550.425 421.939L551.086 424.866ZM509.643 418.454C508.702 420.419 507.49 422.613 506.161 424.531C504.862 426.406 503.337 428.186 501.73 429.132C500.908 429.616 499.94 429.955 498.904 429.847C497.825 429.734 496.913 429.162 496.194 428.282C494.851 426.637 493.999 423.693 493.544 419.356L496.527 419.042C496.978 423.329 497.778 425.478 498.518 426.385C498.841 426.78 499.077 426.849 499.216 426.863C499.397 426.882 499.715 426.837 500.208 426.547C501.23 425.945 502.45 424.62 503.695 422.822C504.912 421.067 506.046 419.019 506.937 417.158L509.643 418.454ZM494.508 420.603C492.486 419.844 490.568 418.383 489.187 416.68C487.829 415.004 486.815 412.868 487.013 410.734C487.227 408.427 488.8 406.596 491.602 405.597C494.321 404.628 498.333 404.368 503.939 405.057L503.573 408.034C498.149 407.368 494.683 407.684 492.609 408.423C490.618 409.133 490.081 410.144 490 411.011C489.904 412.052 490.411 413.425 491.518 414.791C492.603 416.129 494.097 417.244 495.563 417.795L494.508 420.603ZM502.581 407.478C497.584 401.183 492.843 383.921 509.83 362.923L512.163 364.81C495.942 384.861 500.918 400.558 504.931 405.613L502.581 407.478ZM509.83 362.923C511.306 361.098 511.625 358.666 510.921 356.134C510.215 353.593 508.502 351.086 506.15 349.351C503.814 347.627 500.905 346.703 497.777 347.192C494.651 347.681 491.106 349.614 487.573 353.981L485.241 352.094C489.12 347.298 493.282 344.858 497.314 344.228C501.344 343.598 505.047 344.808 507.931 346.937C510.8 349.054 512.918 352.118 513.811 355.33C514.707 358.551 514.393 362.053 512.163 364.81L509.83 362.923ZM486.921 354.446C484.469 355.341 478.459 356.111 473.516 352.105L475.405 349.774C479.251 352.892 484.042 352.303 485.893 351.628L486.921 354.446ZM475.821 351.572C475.118 353.083 474.218 354.809 473.24 356.384C472.277 357.934 471.175 359.442 470.047 360.431C469.487 360.923 468.817 361.38 468.063 361.583C467.238 361.805 466.342 361.709 465.56 361.128C464.852 360.603 464.392 359.794 464.076 358.906C463.752 357.997 463.523 356.85 463.377 355.458L466.36 355.144C466.493 356.406 466.687 357.296 466.902 357.899C467.123 358.521 467.317 358.697 467.347 358.719C467.35 358.721 467.323 358.703 467.279 358.696C467.24 358.69 467.235 358.699 467.283 358.686C467.407 358.653 467.67 358.526 468.069 358.177C468.858 357.484 469.774 356.279 470.692 354.801C471.594 353.349 472.437 351.734 473.1 350.307L475.821 351.572ZM464.016 356.535C462.88 355.751 461.671 354.723 460.742 353.563C459.84 352.438 459.037 350.983 459.113 349.39C459.195 347.66 460.274 346.249 462.113 345.24C463.905 344.257 466.57 343.554 470.293 343.162L470.607 346.146C467.04 346.521 464.835 347.168 463.556 347.87C462.322 348.547 462.127 349.156 462.11 349.532C462.085 350.046 462.358 350.783 463.083 351.687C463.78 352.557 464.749 353.396 465.721 354.067L464.016 356.535ZM469.156 345.414C465.515 339.214 461.568 323.267 473.907 308.014L476.24 309.901C464.859 323.968 468.583 338.514 471.743 343.895L469.156 345.414ZM473.585 308.775C474.278 303.118 475.888 297.063 477.987 291.836C480.066 286.659 482.706 282.091 485.567 279.591C487.004 278.335 488.671 277.452 490.475 277.509C492.338 277.568 493.951 278.613 495.269 280.366C496.572 282.098 497.684 284.634 498.614 288.019C499.549 291.422 500.323 295.775 500.894 301.213L497.911 301.527C497.35 296.19 496.599 292.009 495.721 288.813C494.839 285.6 493.852 283.472 492.872 282.169C491.909 280.888 491.057 280.529 490.38 280.507C489.643 280.484 488.692 280.844 487.541 281.85C485.224 283.875 482.799 287.904 480.771 292.954C478.763 297.954 477.222 303.756 476.562 309.139L473.585 308.775ZM606.311 427.624C607.032 434.49 610.686 441.116 615.245 445.593C619.897 450.163 624.979 452.052 628.601 450.641L629.689 453.437C624.351 455.516 618.033 452.536 613.143 447.734C608.161 442.84 604.132 435.592 603.327 427.937L606.311 427.624ZM628.601 450.641C630.721 449.815 632.723 447.732 633.983 443.56C635.249 439.37 635.71 433.223 634.806 424.628L637.79 424.315C638.715 433.113 638.282 439.705 636.855 444.428C635.423 449.169 632.934 452.173 629.689 453.437L628.601 450.641ZM629.305 450.548C637.81 451.462 654.899 459.599 657.493 484.282L654.51 484.596C652.084 461.517 636.293 454.316 628.985 453.53L629.305 450.548ZM629.767 453.404C627.612 454.387 626.797 455.474 626.538 456.412C626.266 457.398 626.49 458.638 627.291 460.144C628.909 463.185 632.392 466.401 635.321 468.775L633.432 471.106C630.501 468.73 626.574 465.183 624.643 461.553C623.67 459.725 623.084 457.653 623.646 455.615C624.221 453.529 625.882 451.878 628.523 450.674L629.767 453.404ZM635.321 468.775C639.473 472.141 642.349 479.502 642.394 488.113C642.439 496.824 639.605 507.092 631.965 516.536L629.633 514.649C636.818 505.767 639.435 496.178 639.394 488.129C639.352 479.979 636.605 473.678 633.432 471.106L635.321 468.775ZM657.498 484.33C658.133 493.074 657.324 506.388 652.779 517.948C648.222 529.54 639.785 539.611 625.11 541.153L624.796 538.17C637.956 536.786 645.667 527.84 649.987 516.85C654.32 505.827 655.119 492.992 654.506 484.548L657.498 484.33ZM347.329 252.786C346.697 254.02 346.326 255.705 346.215 258.091C346.105 260.472 346.258 263.433 346.589 267.154L343.601 267.42C343.267 263.669 343.099 260.543 343.219 257.953C343.338 255.368 343.748 253.196 344.658 251.419L347.329 252.786ZM346.589 267.154C346.724 268.681 346.889 270.327 347.076 272.105L344.092 272.419C343.905 270.633 343.738 268.969 343.601 267.42L346.589 267.154ZM317.948 284.328C324.875 281.462 331.527 277.884 336.371 274.56C338.799 272.894 340.723 271.326 341.997 269.976C342.635 269.3 343.071 268.72 343.331 268.246C343.599 267.757 343.61 267.509 343.603 267.444L346.586 267.13C346.683 268.046 346.378 268.928 345.962 269.688C345.536 270.465 344.917 271.253 344.179 272.035C342.699 273.602 340.583 275.308 338.068 277.034C333.027 280.493 326.186 284.166 319.095 287.1L317.948 284.328ZM345.741 273.754C344.662 273.867 343.987 274.364 343.546 275.134C343.066 275.973 342.817 277.24 342.929 278.868C343.154 282.117 344.787 286.252 347.604 289.664L345.29 291.574C342.131 287.746 340.21 283.031 339.937 279.075C339.8 277.101 340.065 275.177 340.942 273.644C341.859 272.042 343.384 270.985 345.427 270.77L345.741 273.754ZM347.604 289.664C350.92 293.682 355.699 296.503 361.469 295.896L361.782 298.88C354.738 299.62 349.048 296.128 345.29 291.574L347.604 289.664ZM346.228 253.584C337.922 254.899 326.394 257.405 315.624 261.007C304.78 264.635 294.985 269.285 289.882 274.754L287.688 272.707C293.348 266.642 303.787 261.803 314.672 258.162C325.63 254.497 337.325 251.956 345.759 250.621L346.228 253.584ZM289.882 274.754C287.23 277.595 285.98 280.507 286.298 283.528L283.314 283.842C282.876 279.676 284.668 275.943 287.688 272.707L289.882 274.754ZM288.942 275.222L254.149 278.879L253.835 275.895L288.628 272.238L288.942 275.222ZM286.298 283.528C286.351 284.036 286.44 284.501 286.558 284.925L283.669 285.732C283.502 285.134 283.384 284.504 283.314 283.842L286.298 283.528ZM264.156 294.407C268.514 293.949 272.741 292.187 276.287 290.121C279.831 288.056 282.606 285.738 284.044 284.276L286.183 286.381C284.554 288.036 281.567 290.516 277.797 292.713C274.03 294.908 269.39 296.873 264.47 297.39L264.156 294.407ZM255.489 277.484C255.437 278.293 255.414 279.21 255.435 280.191L252.435 280.254C252.413 279.19 252.437 278.187 252.495 277.29L255.489 277.484ZM254.092 281.714L222.964 284.986L222.65 282.002L253.778 278.73L254.092 281.714ZM255.435 280.191C255.498 283.221 255.97 286.721 257.141 289.51L254.375 290.672C253 287.397 252.503 283.477 252.435 280.254L255.435 280.191ZM257.141 289.51C257.838 291.169 258.743 292.482 259.862 293.328C260.946 294.146 262.322 294.6 264.156 294.407L264.47 297.39C261.911 297.659 259.769 297.018 258.054 295.721C256.374 294.453 255.198 292.63 254.375 290.672L257.141 289.51ZM255.915 291.583L224.009 294.936L223.696 291.953L255.602 288.599L255.915 291.583ZM222.964 284.986C221.452 285.145 220.598 285.906 220.172 286.809C219.717 287.775 219.714 288.998 220.162 290.023L217.414 291.225C216.639 289.453 216.614 287.324 217.458 285.531C218.332 283.675 220.099 282.27 222.65 282.002L222.964 284.986ZM220.162 290.023C220.693 291.238 221.832 292.149 223.696 291.953L224.009 294.936C220.744 295.279 218.426 293.541 217.414 291.225L220.162 290.023ZM218.945 292.116C212.968 292.744 202.965 292.77 192.224 290.84C181.492 288.912 169.883 285.005 160.823 277.661L162.712 275.331C171.231 282.236 182.291 286.007 192.754 287.887C203.207 289.766 212.926 289.732 218.631 289.132L218.945 292.116ZM160.823 277.661C152.262 270.722 140.524 265.9 129.23 262.705C117.954 259.515 107.257 257.985 100.89 257.553L101.092 254.56C107.659 255.005 118.562 256.57 130.046 259.818C141.511 263.062 153.695 268.022 162.712 275.331L160.823 277.661ZM300.235 306.277C295.817 307.688 289.646 310.125 284.365 312.472C281.727 313.645 279.333 314.785 277.506 315.753C276.591 316.238 275.837 316.67 275.273 317.033C274.991 317.214 274.771 317.369 274.609 317.497C274.528 317.56 274.469 317.611 274.427 317.651C274.383 317.691 274.369 317.709 274.372 317.705L272.04 315.818C272.416 315.352 273.036 314.905 273.65 314.51C274.313 314.084 275.148 313.608 276.101 313.103C278.012 312.09 280.474 310.919 283.147 309.731C288.489 307.356 294.767 304.874 299.322 303.419L300.235 306.277ZM301.2 305.328C300.167 308.387 299.785 311.324 300.025 313.791C300.265 316.267 301.113 318.148 302.413 319.304L300.418 321.545C298.382 319.733 297.326 317.043 297.039 314.081C296.75 311.11 297.218 307.743 298.357 304.368L301.2 305.328ZM302.413 319.304C304.575 321.228 308.859 321.775 316.163 317.557C323.388 313.385 333.048 304.797 345.281 289.676L347.613 291.562C335.286 306.8 325.353 315.714 317.663 320.155C310.052 324.55 304.1 324.821 300.418 321.545L302.413 319.304ZM278.473 336.505C281.429 335.874 290.437 331.61 300.249 319.481L302.582 321.368C292.494 333.837 282.937 338.62 279.098 339.439L278.473 336.505ZM274.372 317.705C274.227 317.884 274.036 318.265 273.884 318.937C273.737 319.588 273.65 320.407 273.632 321.359L270.632 321.301C270.653 320.217 270.753 319.184 270.958 318.276C271.158 317.389 271.485 316.504 272.04 315.818L274.372 317.705ZM272.186 322.829C265.556 323.067 255.713 324.083 247.709 326.33C243.694 327.457 240.266 328.861 237.94 330.546C235.626 332.224 234.647 333.981 234.847 335.884L231.863 336.197C231.505 332.793 233.42 330.118 236.18 328.117C238.928 326.125 242.754 324.605 246.898 323.441C255.215 321.107 265.317 320.074 272.078 319.831L272.186 322.829ZM234.847 335.884C234.95 336.869 235.325 337.568 235.893 338.099C236.488 338.656 237.381 339.107 238.622 339.404C241.131 340.006 244.66 339.889 248.735 339.247C256.838 337.971 266.454 334.73 272.844 332.118L273.979 334.895C267.482 337.55 257.627 340.883 249.202 342.211C245.014 342.87 241.014 343.063 237.922 342.321C236.362 341.947 234.936 341.313 233.843 340.29C232.722 339.242 232.038 337.865 231.863 336.197L234.847 335.884ZM233.439 337.538C216.288 338.505 189.445 341.327 164.694 346.643C152.318 349.301 140.506 352.574 130.707 356.532C120.863 360.508 113.241 365.1 109.039 370.294L106.706 368.407C111.4 362.606 119.608 357.779 129.583 353.75C139.602 349.704 151.596 346.388 164.064 343.71C189.003 338.354 216.006 335.516 233.27 334.543L233.439 337.538ZM374.727 171.374C387.783 127.432 419.421 105.822 455.612 101.639C491.702 97.4688 532.254 110.619 563.488 135.937L561.599 138.267C530.9 113.383 491.135 100.554 455.956 104.619C420.878 108.673 390.294 129.513 377.603 172.229L374.727 171.374ZM370.618 189.599C371.654 183.146 373.034 177.074 374.727 171.374L377.603 172.229C375.949 177.798 374.597 183.742 373.58 190.075L370.618 189.599ZM353.957 183.308C356.151 184.793 359.242 185.948 362.584 186.788C365.904 187.623 369.363 188.12 372.215 188.342L371.982 191.333C368.989 191.1 365.361 190.58 361.853 189.698C358.366 188.821 354.889 187.561 352.276 185.793L353.957 183.308ZM369.818 246.245C368.487 233.574 368.09 221.821 368.529 210.951L371.527 211.072C371.094 221.783 371.484 233.39 372.802 245.931L369.818 246.245ZM368.529 210.951C368.834 203.414 369.541 196.301 370.618 189.599L373.58 190.075C372.523 196.652 371.827 203.646 371.527 211.072L368.529 210.951ZM375.052 172.807C373.343 170.913 370.427 168.721 367.005 167.85C363.667 167 359.782 167.38 355.86 170.699L353.922 168.409C358.635 164.421 363.533 163.87 367.745 164.942C371.874 165.994 375.278 168.579 377.279 170.797L375.052 172.807ZM355.86 170.699C354.924 171.49 353.979 172.456 353.035 173.622L350.703 171.735C351.754 170.436 352.829 169.333 353.922 168.409L355.86 170.699ZM353.035 173.622C351.382 175.666 350.808 177.297 350.796 178.563C350.784 179.794 351.301 180.921 352.355 181.996L350.213 184.096C348.745 182.6 347.775 180.744 347.796 178.534C347.817 176.359 348.797 174.092 350.703 171.735L353.035 173.622ZM352.355 181.996C352.799 182.449 353.335 182.887 353.957 183.308L352.276 185.793C351.519 185.281 350.822 184.717 350.213 184.096L352.355 181.996ZM370.037 212.511C365.219 212.539 359.149 211.847 354.226 209.817C349.317 207.793 345.132 204.226 345.147 198.375L348.147 198.382C348.137 202.439 350.936 205.216 355.37 207.044C359.791 208.867 365.425 209.538 370.02 209.511L370.037 212.511ZM345.147 198.375C345.158 194.276 347.26 189.405 351.951 183.607L354.283 185.494C349.771 191.071 348.155 195.282 348.147 198.382L345.147 198.375ZM354.332 170.946C346.99 167.998 335.972 164.314 325.139 162.087C319.723 160.973 314.389 160.231 309.604 160.118C304.796 160.003 300.662 160.527 297.572 161.848L296.393 159.09C300.048 157.526 304.674 156.999 309.675 157.118C314.698 157.238 320.22 158.013 325.744 159.148C336.789 161.419 347.981 165.163 355.45 168.162L354.332 170.946ZM297.572 161.848C295.839 162.589 294.47 163.566 293.479 164.792L291.146 162.905C292.506 161.223 294.309 159.981 296.393 159.09L297.572 161.848ZM293.479 164.792C292.45 166.063 292.384 166.983 292.645 167.721C292.957 168.599 293.871 169.629 295.637 170.729L294.052 173.276C292.081 172.049 290.468 170.56 289.817 168.723C289.117 166.745 289.653 164.751 291.146 162.905L293.479 164.792ZM295.637 170.729C299.756 173.293 307.201 175.454 315.933 177.169L315.354 180.113C306.623 178.398 298.684 176.16 294.052 173.276L295.637 170.729ZM303.772 186.944C302.451 187.763 301.514 188.679 300.938 189.682C300.372 190.666 300.11 191.812 300.255 193.194L297.272 193.508C297.064 191.532 297.44 189.749 298.337 188.188C299.223 186.645 300.57 185.4 302.191 184.394L303.772 186.944ZM303.118 187.163C296.572 187.762 286.73 188.69 278.48 189.527C274.354 189.945 270.633 190.339 267.923 190.658C266.566 190.817 265.475 190.956 264.717 191.069C264.335 191.125 264.059 191.172 263.883 191.208C263.791 191.227 263.758 191.236 263.761 191.235C263.764 191.234 263.774 191.231 263.79 191.226C263.805 191.22 263.833 191.21 263.869 191.194C263.869 191.194 264.149 191.083 264.384 190.792L262.052 188.905C262.299 188.6 262.603 188.473 262.64 188.457C262.742 188.411 262.835 188.381 262.895 188.363C263.021 188.325 263.158 188.294 263.282 188.269C263.539 188.216 263.879 188.16 264.278 188.101C265.081 187.982 266.208 187.839 267.573 187.678C270.307 187.357 274.048 186.961 278.178 186.542C286.441 185.704 296.293 184.775 302.845 184.175L303.118 187.163ZM300.255 193.194C300.497 195.497 301.594 197.179 303.377 198.439L301.647 200.889C299.22 199.175 297.612 196.743 297.272 193.508L300.255 193.194ZM303.377 198.439C305.341 199.825 308.171 200.715 311.645 201.156C315.098 201.595 319.059 201.575 323.176 201.246C331.41 200.587 340.095 198.701 346.233 196.937L347.061 199.82C340.784 201.625 331.897 203.557 323.416 204.236C319.175 204.576 314.992 204.605 311.267 204.132C307.562 203.661 304.179 202.678 301.647 200.889L303.377 198.439ZM275.672 212.714C281.33 212.119 286.799 209.683 291.376 206.815C295.948 203.95 299.531 200.717 301.401 198.656L303.623 200.672C301.569 202.936 297.774 206.346 292.969 209.358C288.167 212.366 282.256 215.038 275.985 215.697L275.672 212.714ZM296.443 161.868C291.82 160.087 285.487 158.144 279.553 157.22C276.586 156.758 273.768 156.558 271.338 156.74C268.887 156.924 266.977 157.486 265.691 158.416L263.933 155.986C265.856 154.594 268.398 153.952 271.114 153.749C273.851 153.543 276.915 153.773 280.015 154.256C286.217 155.222 292.761 157.235 297.522 159.069L296.443 161.868ZM265.691 158.416C264.259 159.452 263.381 161.106 263.681 163.969L260.698 164.283C260.305 160.541 261.486 157.756 263.933 155.986L265.691 158.416ZM263.681 163.969C264.005 167.046 265.325 169.108 267.229 170.513L265.447 172.927C262.847 171.008 261.107 168.174 260.698 164.283L263.681 163.969ZM267.229 170.513C270.273 172.759 275.022 173.473 280.217 173.219C285.348 172.969 290.607 171.79 294.385 170.574L295.304 173.43C291.333 174.708 285.811 175.95 280.363 176.216C274.977 176.479 269.348 175.805 265.447 172.927L267.229 170.513ZM264.969 158.693C251.533 160.105 241.536 163.102 235.349 166.259C232.237 167.847 230.201 169.419 229.141 170.754C228.081 172.09 228.238 172.801 228.506 173.194L226.026 174.883C224.69 172.922 225.349 170.707 226.791 168.89C228.233 167.072 230.7 165.263 233.985 163.587C240.593 160.215 250.974 157.147 264.655 155.709L264.969 158.693ZM228.506 173.194C228.823 173.66 229.646 174.269 231.403 174.723C233.118 175.165 235.515 175.403 238.657 175.317C244.934 175.146 253.951 173.691 265.927 170.277L266.749 173.162C254.637 176.614 245.356 178.136 238.739 178.316C235.433 178.406 232.733 178.164 230.654 177.628C228.616 177.102 226.947 176.234 226.026 174.883L228.506 173.194ZM228 175.347C206.783 187.249 151.948 200.68 101.535 159.816L103.424 157.485C152.622 197.365 206.062 184.213 226.532 172.73L228 175.347ZM264.384 190.792C264.501 190.648 264.558 190.519 264.576 190.479C264.599 190.425 264.612 190.385 264.617 190.371C264.625 190.343 264.624 190.34 264.617 190.377C264.602 190.448 264.581 190.576 264.558 190.769C264.512 191.15 264.465 191.706 264.433 192.401L261.436 192.264C261.47 191.514 261.522 190.881 261.58 190.408C261.608 190.174 261.64 189.959 261.677 189.779C261.695 189.692 261.719 189.587 261.751 189.482C261.763 189.444 261.842 189.165 262.052 188.905L264.384 190.792ZM264.433 192.401C264.303 195.237 264.437 200.06 265.68 204.333L262.8 205.171C261.427 200.455 261.298 195.265 261.436 192.264L264.433 192.401ZM265.68 204.333C266.436 206.931 267.562 209.186 269.157 210.7C270.695 212.161 272.758 213.02 275.672 212.714L275.985 215.697C272.217 216.094 269.28 214.954 267.091 212.876C264.958 210.851 263.631 208.029 262.8 205.171L265.68 204.333ZM263.091 193.824C249.63 195.239 239.781 198.933 233.708 202.853C230.662 204.819 228.636 206.796 227.548 208.503C226.442 210.24 226.46 211.408 226.821 212.083L224.174 213.496C223.08 211.445 223.641 209.053 225.018 206.891C226.415 204.699 228.815 202.44 232.081 200.332C238.633 196.103 248.958 192.293 262.778 190.841L263.091 193.824ZM226.821 212.083C227.124 212.651 227.878 213.297 229.52 213.669C231.154 214.039 233.488 214.087 236.59 213.606C242.785 212.645 251.723 209.62 263.543 203.424L264.936 206.081C252.96 212.36 243.694 215.54 237.05 216.571C233.733 217.085 230.989 217.077 228.858 216.595C226.736 216.114 225.038 215.113 224.174 213.496L226.821 212.083ZM226.489 213.914C224.463 215.701 219.713 218.349 211.932 220.928C204.099 223.524 193.08 226.088 178.408 227.63L178.095 224.647C192.583 223.124 203.387 220.6 210.988 218.08C218.64 215.544 222.933 213.05 224.506 211.664L226.489 213.914ZM178.408 227.63C159.94 229.572 151.56 227.304 142.471 225.149C133.586 223.041 123.91 221.011 102.569 223.254L102.255 220.27C123.991 217.986 134.01 220.059 143.163 222.23C152.112 224.352 160.114 226.537 178.095 224.647L178.408 227.63ZM315.933 177.169C321.657 178.293 327.842 179.209 333.837 179.927L333.48 182.906C327.433 182.182 321.171 181.255 315.354 180.113L315.933 177.169ZM333.597 182.915C327.736 182.675 321.742 182.752 316.449 183.37C311.116 183.993 306.668 185.147 303.772 186.944L302.191 184.394C305.658 182.243 310.641 181.028 316.101 180.39C321.603 179.748 327.766 179.673 333.72 179.918L333.597 182.915ZM371.373 247.587L370.649 247.617L370.523 244.62L371.247 244.589L371.373 247.587ZM370.649 247.617C363.031 247.939 357.673 248.169 353.881 248.925C350.141 249.671 348.319 250.853 347.329 252.786L344.658 251.419C346.257 248.297 349.168 246.806 353.295 245.983C357.371 245.17 363.014 244.937 370.523 244.62L370.649 247.617ZM286.558 284.925C287.058 286.714 288.127 287.922 289.693 288.713C291.312 289.53 293.514 289.921 296.216 289.878C301.624 289.793 308.547 287.987 315.516 285.3L316.595 288.099C309.498 290.835 302.19 292.784 296.264 292.878C293.299 292.924 290.557 292.51 288.341 291.391C286.07 290.244 284.409 288.383 283.669 285.732L286.558 284.925ZM316.676 288.066C308.717 291.677 303.456 298.647 301.2 305.328L298.357 304.368C300.84 297.017 306.615 289.337 315.436 285.334L316.676 288.066ZM774.222 525.48C748.135 528.222 730.672 536.672 709.756 546.806L708.448 544.106C729.367 533.971 747.249 525.299 773.908 522.496L774.222 525.48ZM709.756 546.806C679.33 561.546 642.001 579.619 561.364 588.095L561.051 585.111C641.226 576.684 678.21 558.755 708.448 544.106L709.756 546.806ZM315.516 285.3C316.328 284.987 317.14 284.663 317.948 284.328L319.095 287.1C318.265 287.444 317.431 287.777 316.595 288.099L315.516 285.3ZM319.014 287.131C318.21 287.411 317.431 287.723 316.676 288.066L315.436 285.334C316.273 284.954 317.138 284.607 318.029 284.298L319.014 287.131ZM351.067 184.53C346.182 183.818 339.989 183.178 333.597 182.915L333.72 179.918C340.224 180.185 346.521 180.836 351.5 181.562L351.067 184.53ZM371.373 247.587C371.13 247.597 370.888 247.607 370.649 247.617L370.523 244.62C370.762 244.61 371.003 244.6 371.247 244.589L371.373 247.587ZM333.837 179.927C340.169 180.686 346.275 181.222 351.38 181.549L351.188 184.543C346.031 184.213 339.869 183.672 333.48 182.906L333.837 179.927ZM625.11 541.153C618.911 541.805 614.614 541.89 611.855 541.45C610.489 541.233 609.311 540.86 608.469 540.206C607.521 539.471 607.084 538.441 607.203 537.3C607.307 536.298 607.825 535.338 608.432 534.486C609.059 533.607 609.898 532.685 610.853 531.745C612.761 529.867 615.293 527.761 617.903 525.588L619.822 527.894C617.181 530.093 614.757 532.112 612.958 533.883C612.059 534.767 611.357 535.551 610.874 536.228C610.372 536.933 610.211 537.38 610.187 537.61C610.177 537.7 610.163 537.724 610.308 537.836C610.558 538.03 611.142 538.299 612.327 538.487C614.669 538.861 618.629 538.818 624.796 538.17L625.11 541.153ZM617.903 525.588C622.212 522.001 626.745 518.219 629.633 514.649L631.965 516.536C628.852 520.384 624.058 524.368 619.822 527.894L617.903 525.588ZM448.095 310.866C413.735 385.66 417.895 437.715 435.74 474.763C453.632 511.908 485.401 534.256 506.947 549.394L505.223 551.849C483.716 536.738 451.308 513.997 433.037 476.064C414.718 438.034 410.727 385.022 445.369 309.614L448.095 310.866ZM506.947 549.394C512.363 553.199 517.169 556.575 520.91 559.607L519.021 561.937C515.378 558.985 510.668 555.674 505.223 551.849L506.947 549.394ZM500.876 301.09C502.276 308.458 503.893 312.613 506.179 315.721C508.489 318.862 511.559 321.057 516.261 324.393L514.525 326.84C509.921 323.573 506.413 321.102 503.762 317.498C501.088 313.862 499.363 309.195 497.929 301.65L500.876 301.09ZM516.261 324.393C519.267 326.525 522.873 329.083 527.203 332.593L525.314 334.923C521.064 331.479 517.527 328.969 514.525 326.84L516.261 324.393ZM535.994 339.026C540.363 342.042 544.607 344.966 548.597 349.105C552.603 353.262 556.316 358.601 559.754 366.449C566.604 382.085 572.397 407.769 577.272 454.15L574.288 454.464C569.418 408.124 563.657 382.835 557.006 367.653C553.695 360.093 550.171 355.061 546.437 351.187C542.686 347.296 538.685 344.529 534.29 341.495L535.994 339.026ZM534.314 341.511L534.313 341.51L535.968 339.008L535.969 339.009L534.314 341.511ZM527.203 332.593C529.845 334.735 532.409 336.545 534.921 338.284L533.213 340.751C530.69 339.004 528.048 337.14 525.314 334.923L527.203 332.593ZM535.95 338.995L535.993 339.025L534.287 341.493L534.244 341.463L535.95 338.995ZM535.949 338.995C535.956 339 535.964 339.005 535.971 339.01C535.979 339.015 535.986 339.02 535.994 339.026L534.289 341.494C534.255 341.471 534.28 341.488 534.245 341.464L535.949 338.995ZM534.288 341.493C534.28 341.488 534.272 341.483 534.265 341.478C534.258 341.473 534.251 341.468 534.245 341.464L535.949 338.995C535.957 339 535.965 339.005 535.972 339.01C535.979 339.015 535.986 339.02 535.992 339.025L534.288 341.493ZM567.701 235.659C567.701 246.858 568.466 255.155 571.313 262.781C574.153 270.39 579.118 277.465 587.751 286.1L585.629 288.221C576.827 279.416 571.547 271.988 568.502 263.83C565.464 255.689 564.701 246.955 564.701 235.659L567.701 235.659ZM273.632 321.359C273.568 324.699 274.361 329.158 275.661 332.466L272.869 333.563C271.427 329.894 270.561 325.043 270.632 321.301L273.632 321.359ZM275.661 332.466C276.222 333.892 276.839 335.004 277.447 335.711C278.073 336.439 278.466 336.497 278.629 336.48L278.942 339.464C277.348 339.631 276.071 338.713 275.172 337.667C274.254 336.6 273.489 335.141 272.869 333.563L275.661 332.466ZM272.662 332.207L273.516 331.715L275.015 334.314L274.161 334.806L272.662 332.207ZM534.245 341.464L534.188 341.424L535.891 338.955L535.949 338.994L534.245 341.464ZM534.187 341.424L534.109 341.37L535.814 338.902L535.892 338.955L534.187 341.424ZM534.109 341.37C533.813 341.165 533.514 340.959 533.213 340.751L534.921 338.284C535.22 338.491 535.517 338.696 535.814 338.901L534.109 341.37ZM535.814 338.901C535.857 338.931 535.85 338.926 535.892 338.955L534.187 341.424C534.177 341.417 534.118 341.376 534.109 341.37L535.814 338.901ZM535.892 338.955C535.901 338.961 535.91 338.968 535.92 338.974C535.929 338.981 535.939 338.988 535.949 338.995L534.245 341.464C534.138 341.39 534.295 341.499 534.187 341.424L535.892 338.955ZM634.825 553.898C650.378 552.263 660.409 547.41 666.738 541.056C673.065 534.704 675.851 526.693 676.606 518.43C678.125 501.81 671.394 484.573 669.255 479.112L672.049 478.018C674.17 483.435 681.185 501.29 679.594 518.703C678.794 527.457 675.812 536.197 668.863 543.173C661.917 550.147 651.166 555.197 635.138 556.881L634.825 553.898ZM669.255 479.112C669.158 478.863 669.069 478.635 668.991 478.435L671.788 477.35C671.864 477.545 671.951 477.767 672.049 478.018L669.255 479.112ZM668.991 478.435C666.569 472.186 664.099 466.53 661.8 461.265L664.55 460.064C666.846 465.324 669.34 471.035 671.788 477.35L668.991 478.435ZM661.8 461.265C658.092 452.773 654.795 445.232 652.98 438.017L655.889 437.285C657.631 444.211 660.814 451.508 664.55 460.064L661.8 461.265ZM653.012 438.128C650.659 431.101 648.221 423.359 645.647 415.183L648.509 414.282C651.085 422.464 653.514 430.179 655.857 437.175L653.012 438.128ZM645.647 415.183C638.901 393.755 631.204 369.313 621.516 346.544C611.821 323.758 600.186 302.783 585.629 288.221L587.751 286.1C602.713 301.067 614.529 322.46 624.277 345.369C634.031 368.295 641.769 392.876 648.509 414.282L645.647 415.183Z" fill="url(#paint7_linear_172_716)"/>
</g>
<path d="M593.091 183.394C585.296 171.964 566.717 183.384 574.627 195.916C572.831 201.486 573.804 212.147 592.063 210.227C610.323 208.308 600.356 191.538 593.091 183.394Z" fill="#D7FF00"/>
<path d="M586.616 200.221L582.963 207.287M583.009 197.26L576.834 201.25M576.648 189.02L581.459 192.968M588.488 186.662L585.691 191.41M594.849 194.901L587.24 195.701M596.688 201.946L589.877 199.878M574.627 195.916C566.717 183.384 585.296 171.964 593.091 183.394C600.356 191.538 610.323 208.308 592.063 210.227C573.804 212.147 572.831 201.486 574.627 195.916Z" stroke="#FAFAFA" stroke-width="2"/>
<ellipse cx="16.5801" cy="16.5846" rx="16.5801" ry="16.5846" transform="matrix(-0.994519 0.104559 0.104498 0.994525 422.324 205.525)" fill="url(#paint8_linear_172_716)"/>
<ellipse cx="38.8426" cy="20.8436" rx="38.8426" ry="20.8436" transform="matrix(-0.114446 -0.99343 -0.993422 0.114512 724.156 401.201)" stroke="#FAFAFA" stroke-width="3"/>
<ellipse cx="30.3205" cy="20.8467" rx="30.3205" ry="20.8467" transform="matrix(-0.795161 -0.606399 -0.606174 0.795332 682.477 266.978)" stroke="#FAFAFA" stroke-width="3"/>
<defs>
<filter id="filter0_bf_172_716" x="0.890625" y="0.876953" width="973.766" height="687.812" filterUnits="userSpaceOnUse" color-interpolation-filters="sRGB">
<feFlood flood-opacity="0" result="BackgroundImageFix"/>
<feGaussianBlur in="BackgroundImageFix" stdDeviation="50"/>
<feComposite in2="SourceAlpha" operator="in" result="effect1_backgroundBlur_172_716"/>
<feBlend mode="normal" in="SourceGraphic" in2="effect1_backgroundBlur_172_716" result="shape"/>
<feGaussianBlur stdDeviation="50" result="effect2_foregroundBlur_172_716"/>
</filter>
<filter id="filter1_b_172_716" x="38.8906" y="38.877" width="897.766" height="611.812" filterUnits="userSpaceOnUse" color-interpolation-filters="sRGB">
<feFlood flood-opacity="0" result="BackgroundImageFix"/>
<feGaussianBlur in="BackgroundImageFix" stdDeviation="31"/>
<feComposite in2="SourceAlpha" operator="in" result="effect1_backgroundBlur_172_716"/>
<feBlend mode="normal" in="SourceGraphic" in2="effect1_backgroundBlur_172_716" result="shape"/>
</filter>
<linearGradient id="paint0_linear_172_716" x1="454.295" y1="103.28" x2="669.297" y2="413.05" gradientUnits="userSpaceOnUse">
<stop stop-color="#FAFAFA"/>
<stop offset="1" stop-color="#070707"/>
</linearGradient>
<linearGradient id="paint1_linear_172_716" x1="454.295" y1="103.28" x2="669.297" y2="413.05" gradientUnits="userSpaceOnUse">
<stop stop-color="#FAFAFA"/>
<stop offset="1" stop-color="#070707"/>
</linearGradient>
<linearGradient id="paint2_linear_172_716" x1="454.295" y1="103.28" x2="669.297" y2="413.05" gradientUnits="userSpaceOnUse">
<stop stop-color="#FAFAFA"/>
<stop offset="1" stop-color="#070707"/>
</linearGradient>
<linearGradient id="paint3_linear_172_716" x1="454.295" y1="103.28" x2="505.71" y2="592.436" gradientUnits="userSpaceOnUse">
<stop stop-color="#FAFAFA"/>
<stop offset="1" stop-color="#F8F8F8"/>
</linearGradient>
<linearGradient id="paint4_linear_172_716" x1="454.295" y1="103.28" x2="669.297" y2="413.05" gradientUnits="userSpaceOnUse">
<stop stop-color="#FAFAFA"/>
<stop offset="1" stop-color="#070707"/>
</linearGradient>
<linearGradient id="paint5_linear_172_716" x1="454.295" y1="103.28" x2="669.297" y2="413.05" gradientUnits="userSpaceOnUse">
<stop stop-color="#FAFAFA"/>
<stop offset="1" stop-color="#070707"/>
</linearGradient>
<linearGradient id="paint6_linear_172_716" x1="454.295" y1="103.28" x2="669.297" y2="413.05" gradientUnits="userSpaceOnUse">
<stop stop-color="#FAFAFA"/>
<stop offset="1" stop-color="#070707"/>
</linearGradient>
<linearGradient id="paint7_linear_172_716" x1="454.295" y1="103.28" x2="505.71" y2="592.436" gradientUnits="userSpaceOnUse">
<stop stop-color="#FAFAFA"/>
<stop offset="1" stop-color="#F8F8F8"/>
</linearGradient>
<linearGradient id="paint8_linear_172_716" x1="16.5801" y1="0" x2="16.5801" y2="33.1691" gradientUnits="userSpaceOnUse">
<stop stop-color="#3A3A3A"/>
<stop offset="1"/>
</linearGradient>
</defs>
</svg>
