<svg width="1016" height="598" viewBox="0 0 1016 598" fill="none" xmlns="http://www.w3.org/2000/svg">
<g filter="url(#filter0_bf_172_142)">
<path d="M778.925 196.982C781.723 194.189 785.745 191.502 790.691 188.934C792.168 188.167 793.728 187.411 795.362 186.666C794.267 183.463 792.938 180.173 791.339 176.822C789.144 177.985 787.086 179.176 785.182 180.397C781.94 182.475 779.148 184.636 776.901 186.88C772.377 182.364 761.381 185.52 751.508 191.294C755.815 198.615 758.62 205.495 760.29 211.835C765.787 208.631 772.03 203.865 778.925 196.982Z" fill="#D7FF00"/>
<path fill-rule="evenodd" clip-rule="evenodd" d="M702.017 145.655C669.311 133.217 638.738 151.051 625.109 164.657C625.109 154.554 584.631 158.595 584.631 166.676C584.631 148.493 511.771 150.111 511.771 164.657C500.977 157.249 474.936 146.878 457.126 164.657C445.657 155.228 415.028 144.048 384.265 174.758C364.701 174.758 325.573 182.839 325.573 215.166C316.799 215.166 300.896 219.971 295.248 237.39C282.419 239.41 256.761 247.492 256.761 263.655C238.545 265.675 202.115 276.181 202.115 302.042C181.201 313.491 139.374 348.107 139.374 394.98C139.098 401.336 140.138 409.278 143.81 414.761C146.25 418.404 149.852 420.962 155.002 421.246C160.991 421.575 169.072 418.831 179.853 411.144C195.372 396.067 226.511 367.282 231.919 367.766C232.101 367.848 232.286 367.925 232.474 367.997C233.694 368.464 235.04 368.715 236.522 368.715C261.483 367.368 315.453 364.675 331.644 364.675C351.883 364.675 398.433 362.654 398.433 330.328C399.108 342.45 405.314 371.544 424.744 390.94C449.03 415.184 465.221 431.347 479.389 431.347C480.954 431.51 482.822 431.245 485.46 429.924C487.851 428.727 490.874 426.663 494.878 423.266C496.854 421.589 499.069 419.587 501.565 417.205C502.865 415.964 504.241 414.62 505.699 413.164C518.652 400.233 504.35 370.062 495.579 356.593C500.089 361.095 528.043 359.578 542.129 347.242C539.894 368.236 541.362 406.623 560.344 419.175C564.275 421.774 568.956 423.266 574.512 423.266C577.987 423.266 581.362 422.676 584.631 421.583C611.526 412.588 631.232 369.515 640.401 340.43C650.145 348.511 675.302 359.017 697.969 336.389C728.732 367.099 790.394 361.307 817.379 354.573C826.26 354.573 832.196 350.423 835.594 344.551C837.026 342.076 838.007 339.295 838.567 336.389C839.588 331.092 839.211 325.383 837.618 320.363C835.073 312.342 829.425 306.083 821.427 306.083C803.616 306.083 778.925 284.532 768.805 273.757C791.473 296.385 826.824 264.328 841.666 245.471C879.396 245.471 909.842 196.652 913.608 158.595C914.053 154.098 914.125 149.752 913.793 145.655C913.016 136.064 910.024 127.835 904.406 122.226C881.739 99.598 840.991 100.458 823.45 103.716C798.108 97.4377 763.64 115.084 744.519 128.909C722.872 120.93 707.854 134.898 702.017 145.655ZM734.399 215.166C737.298 218.059 746.423 219.917 760.29 211.835C765.787 208.631 772.03 203.865 778.925 196.982C781.723 194.189 785.745 191.502 790.691 188.934C792.168 188.167 793.728 187.411 795.362 186.666C812.507 178.846 837.84 172.238 862.105 167.251C861.1 163.445 859.946 159.378 858.628 155.044C834.011 160.415 808.515 167.726 791.339 176.822C789.144 177.985 787.086 179.176 785.182 180.397C781.94 182.475 779.148 184.636 776.901 186.88C772.377 182.364 761.381 185.52 751.508 191.294C739.297 198.435 728.804 209.58 734.399 215.166Z" fill="url(#paint0_linear_172_142)"/>
<path d="M791.339 176.822C792.938 180.173 794.267 183.463 795.362 186.666C812.507 178.846 837.84 172.238 862.105 167.251C861.1 163.445 859.946 159.378 858.628 155.044C834.011 160.415 808.515 167.726 791.339 176.822Z" fill="#D7FF00"/>
<path d="M625.109 164.657H623.609V164.76L623.623 164.862L625.109 164.657ZM730.351 164.657L729.292 165.719L729.292 165.719L730.351 164.657ZM702.017 145.655L701.484 147.057L701.484 147.057L702.017 145.655ZM768.805 145.655L767.746 146.716L768.805 145.655ZM744.519 128.909L744 130.316L744.519 128.909ZM849.761 128.909L848.355 129.43L849.761 128.909ZM823.45 103.716L823.09 105.172L823.45 103.716ZM904.406 122.226L905.466 121.165L904.406 122.226ZM841.666 245.471V243.971H840.937L840.487 244.544L841.666 245.471ZM768.805 273.757L769.865 272.695L767.712 274.784L768.805 273.757ZM817.379 354.573V353.073H817.194L817.016 353.117L817.379 354.573ZM837.618 320.363L836.188 320.817L837.618 320.363ZM896.835 374.777C896.835 375.605 897.506 376.277 898.335 376.277C899.163 376.277 899.835 375.605 899.835 374.777H896.835ZM838.567 336.389L837.094 336.105L837.094 336.105L838.567 336.389ZM872.988 414.123C872.402 414.708 872.401 415.658 872.986 416.244C873.571 416.83 874.521 416.831 875.108 416.246L872.988 414.123ZM835.594 344.551L834.296 343.8L834.296 343.8L835.594 344.551ZM836.558 383.817C835.972 384.402 835.971 385.352 836.556 385.938C837.141 386.525 838.091 386.525 838.677 385.94L836.558 383.817ZM697.969 336.389L699.029 335.328L697.969 334.27L696.909 335.328L697.969 336.389ZM584.631 166.676H583.131V167.019L583.28 167.328L584.631 166.676ZM457.126 164.657L456.173 165.816L456.304 165.923L456.456 165.999L457.126 164.657ZM457.126 188.901L458.186 189.962L457.126 188.901ZM295.248 237.39L296.675 237.853L296.675 237.853L295.248 237.39ZM256.643 267.696L258.14 267.777L256.643 267.696ZM202.115 302.042L202.835 303.358L203.615 302.931V302.042H202.115ZM139.374 394.98L140.873 395.046L140.874 395.013V394.98H139.374ZM116.052 488.98C116.638 489.565 117.588 489.564 118.173 488.978C118.758 488.392 118.758 487.442 118.171 486.857L116.052 488.98ZM179.853 411.144L180.723 412.365L180.816 412.299L180.898 412.219L179.853 411.144ZM143.81 414.761L145.057 413.926L145.057 413.926L143.81 414.761ZM155.566 497.5C156.394 497.5 157.066 496.828 157.066 496C157.066 495.172 156.394 494.5 155.566 494.5V497.5ZM155.002 421.246L155.085 419.748L155.002 421.246ZM155.002 457.092C155.83 457.092 156.502 456.421 156.502 455.592C156.502 454.764 155.83 454.092 155.002 454.092V457.092ZM236.522 368.715V370.215H236.562L236.602 370.213L236.522 368.715ZM398.433 330.328L399.931 330.245L396.933 330.328H398.433ZM424.744 390.94L423.684 392.001L423.684 392.001L424.744 390.94ZM479.389 431.347L479.544 429.856L479.466 429.847H479.389V431.347ZM505.699 413.164L506.759 414.226L506.759 414.226L505.699 413.164ZM440.935 488.439C440.106 488.439 439.435 489.11 439.435 489.939C439.435 490.767 440.106 491.439 440.935 491.439V488.439ZM502.616 486.857C502.029 487.442 502.028 488.392 502.614 488.978C503.199 489.564 504.149 489.565 504.735 488.98L502.616 486.857ZM540.629 457.699C540.629 458.527 541.301 459.199 542.129 459.199C542.958 459.199 543.629 458.527 543.629 457.699H540.629ZM584.631 492.48C583.803 492.48 583.131 493.151 583.131 493.98C583.131 494.808 583.803 495.48 584.631 495.48V492.48ZM573.452 488.877C572.866 489.463 572.865 490.412 573.45 490.999C574.035 491.585 574.985 491.586 575.571 491L573.452 488.877ZM560.344 419.175L561.172 417.924L560.344 419.175ZM555.237 462.612C554.651 463.197 554.65 464.147 555.235 464.733C555.82 465.32 556.77 465.321 557.356 464.735L555.237 462.612ZM776.901 186.88L775.841 187.942L776.901 189L777.961 187.942L776.901 186.88ZM778.925 196.982L779.984 198.044L779.984 198.044L778.925 196.982ZM734.399 215.166L733.339 216.227L734.399 215.166ZM703.019 222.5L701.648 223.11L701.648 223.11L703.019 222.5ZM626.169 165.719C639.6 152.311 669.571 134.921 701.484 147.057L702.55 144.253C669.052 131.514 637.876 149.792 624.049 163.595L626.169 165.719ZM701.484 147.057C710.653 150.543 720.039 156.482 729.292 165.719L731.411 163.595C721.89 154.091 712.153 147.904 702.55 144.253L701.484 147.057ZM703.335 146.37C706.143 141.196 711.164 135.253 718.046 131.579C724.876 127.931 733.597 126.482 744 130.316L745.037 127.501C733.793 123.357 724.182 124.901 716.633 128.932C709.134 132.936 703.728 139.357 700.699 144.939L703.335 146.37ZM744 130.316C751.11 132.937 759.061 138.047 767.746 146.716L769.865 144.593C760.959 135.702 752.652 130.308 745.037 127.501L744 130.316ZM745.397 130.124C754.872 123.274 768.153 115.477 782.182 110.177C796.247 104.864 810.854 102.141 823.09 105.172L823.811 102.26C810.704 99.0129 795.407 101.974 781.122 107.371C766.8 112.781 753.287 120.719 743.64 127.693L745.397 130.124ZM823.09 105.172C833.898 107.85 843.02 115.055 848.355 129.43L851.167 128.387C845.506 113.132 835.635 105.189 823.811 102.26L823.09 105.172ZM823.724 105.191C832.35 103.589 846.756 102.568 861.79 104.748C876.839 106.931 892.332 112.292 903.346 123.288L905.466 121.165C893.813 109.532 877.598 104.009 862.221 101.779C846.83 99.547 832.092 100.585 823.177 102.241L823.724 105.191ZM840.487 244.544C833.136 253.884 820.731 266.449 807.44 273.861C800.798 277.565 794.037 279.924 787.639 280.036C781.297 280.147 775.234 278.055 769.865 272.695L767.746 274.819C773.711 280.773 780.567 283.16 787.692 283.035C794.761 282.911 802.016 280.32 808.901 276.481C822.662 268.808 835.353 255.916 842.844 246.399L840.487 244.544ZM767.712 274.784C772.83 280.233 781.61 288.387 791.374 295.192C801.068 301.947 812.025 307.583 821.427 307.583V304.583C813.018 304.583 802.724 299.444 793.09 292.73C783.525 286.065 774.9 278.056 769.899 272.73L767.712 274.784ZM821.427 307.583C828.493 307.583 833.741 313.105 836.188 320.817L839.047 319.909C836.404 311.58 830.357 304.583 821.427 304.583V307.583ZM837.621 321.863C847.531 321.841 862.406 324.489 874.753 332.448C887.018 340.355 896.835 353.517 896.835 374.777H899.835C899.835 352.396 889.412 338.328 876.378 329.927C863.427 321.578 847.944 318.84 837.614 318.863L837.621 321.863ZM836.188 320.817C837.707 325.603 838.067 331.059 837.094 336.105L840.04 336.673C841.11 331.125 840.714 325.162 839.047 319.909L836.188 320.817ZM838.017 337.785C851.578 343.128 869.455 353.401 879.319 366.777C884.228 373.434 887.088 380.768 886.563 388.604C886.038 396.434 882.117 405.009 872.988 414.123L875.108 416.246C884.598 406.772 888.97 397.551 889.556 388.805C890.142 380.065 886.931 372.044 881.733 364.997C871.383 350.962 852.9 340.425 839.117 334.994L838.017 337.785ZM837.094 336.105C836.562 338.868 835.633 341.488 834.296 343.8L836.892 345.303C838.419 342.664 839.453 339.721 840.04 336.673L837.094 336.105ZM834.296 343.8C831.157 349.223 825.707 353.073 817.379 353.073V356.073C826.812 356.073 833.235 351.622 836.892 345.303L834.296 343.8ZM834.487 345.563C837.725 349.106 841.712 355.314 843.13 362.325C844.531 369.257 843.431 376.956 836.558 383.817L838.677 385.94C846.376 378.255 847.637 369.48 846.07 361.731C844.52 354.06 840.209 347.378 836.701 343.539L834.487 345.563ZM817.016 353.117C803.651 356.453 781.647 359.563 759.193 358.026C736.703 356.487 714.034 350.306 699.029 335.328L696.909 337.451C712.668 353.182 736.21 359.46 758.988 361.019C781.802 362.58 804.122 359.427 817.742 356.028L817.016 353.117ZM623.623 164.862C626.33 184.479 632.316 215.806 641.484 246.093C650.627 276.298 663.023 305.78 678.694 321.425L680.814 319.301C665.722 304.236 653.495 275.418 644.355 245.224C635.24 215.112 629.285 183.941 626.595 164.452L623.623 164.862ZM626.609 164.657C626.609 162.81 625.655 161.363 624.277 160.317C622.937 159.299 621.13 158.597 619.136 158.116C615.132 157.149 609.9 156.967 604.758 157.352C599.608 157.737 594.408 158.703 590.451 160.118C588.48 160.823 586.732 161.669 585.447 162.672C584.186 163.657 583.131 164.991 583.131 166.676H586.131C586.131 166.341 586.341 165.781 587.294 165.037C588.222 164.312 589.636 163.596 591.461 162.943C595.094 161.643 600.013 160.715 604.982 160.343C609.959 159.971 614.847 160.167 618.433 161.032C620.233 161.466 621.589 162.043 622.463 162.706C623.299 163.341 623.609 163.978 623.609 164.657H626.609ZM583.28 167.328C587.643 176.374 594.197 191.472 599.657 207.321C605.133 223.216 609.442 239.68 609.442 251.533H612.442C612.442 239.142 607.98 222.27 602.494 206.343C596.991 190.37 590.389 175.162 585.982 166.025L583.28 167.328ZM609.442 251.533C609.442 258.847 607.613 265.087 605.282 270.859C604.112 273.756 602.825 276.511 601.573 279.25C600.328 281.972 599.118 284.676 598.145 287.394C596.192 292.854 595.16 298.473 596.677 304.732C598.187 310.965 602.178 317.638 609.882 325.328L612.002 323.205C604.526 315.743 600.928 309.536 599.592 304.025C598.263 298.54 599.128 293.552 600.97 288.405C601.895 285.82 603.056 283.22 604.301 280.497C605.539 277.79 606.862 274.958 608.063 271.983C610.475 266.012 612.442 259.372 612.442 251.533H609.442ZM586.131 166.676C586.131 163.835 584.688 161.484 582.463 159.622C580.262 157.78 577.211 156.334 573.702 155.215C566.673 152.973 557.398 151.918 548.205 151.893C539.007 151.868 529.754 152.873 522.751 154.835C519.26 155.812 516.23 157.054 514.039 158.595C511.861 160.126 510.271 162.137 510.271 164.657H513.271C513.271 163.541 513.958 162.319 515.765 161.049C517.559 159.787 520.221 158.659 523.56 157.723C530.218 155.858 539.18 154.868 548.197 154.893C557.219 154.918 566.159 155.959 572.791 158.073C576.113 159.132 578.754 160.43 580.538 161.922C582.298 163.396 583.131 164.972 583.131 166.676H586.131ZM510.341 165.111C514.707 178.856 520.247 200.48 522.678 220.649C523.894 230.737 524.325 240.399 523.466 248.502C522.602 256.659 520.46 262.964 516.783 266.634L518.903 268.757C523.321 264.346 525.564 257.182 526.45 248.818C527.341 240.401 526.886 230.49 525.657 220.29C523.197 199.883 517.605 178.07 513.201 164.203L510.341 165.111ZM516.783 266.634C508.013 275.389 509.316 288.325 513.912 300.307C518.547 312.387 526.753 324.151 532.896 331.305L535.172 329.351C529.172 322.362 521.187 310.892 516.713 299.232C512.202 287.474 511.481 276.166 518.903 268.757L516.783 266.634ZM512.62 163.42C507.07 159.611 497.639 155.057 487.271 153.724C476.863 152.386 465.387 154.291 456.066 163.595L458.186 165.719C466.675 157.244 477.125 155.444 486.888 156.699C496.691 157.96 505.678 162.295 510.922 165.894L512.62 163.42ZM456.456 165.999C458.906 167.222 461.734 169.748 462.545 173.276C463.333 176.7 462.33 181.586 456.066 187.839L458.186 189.962C464.875 183.284 466.571 177.396 465.469 172.604C464.391 167.916 460.743 164.786 457.796 163.315L456.456 165.999ZM456.066 187.839C453.786 190.115 451.988 193.737 450.619 198.239C449.24 202.774 448.254 208.351 447.694 214.686C446.575 227.36 447.153 243.206 449.825 260.101C455.164 293.855 468.909 332.088 494.519 357.655L496.639 355.531C471.652 330.588 458.075 293.057 452.789 259.632C450.148 242.939 449.588 227.342 450.683 214.95C451.23 208.753 452.188 203.392 453.49 199.111C454.801 194.798 456.418 191.727 458.186 189.962L456.066 187.839ZM458.079 163.498C452.105 158.588 441.256 153.294 427.947 153.155C414.579 153.016 398.851 158.078 383.205 173.696L385.325 175.819C400.442 160.728 415.41 156.025 427.915 156.155C440.478 156.286 450.678 161.298 456.173 165.816L458.079 163.498ZM383.205 173.696C367.276 189.598 365.535 216.367 369.474 242.813C373.431 269.377 383.2 296.188 391.003 312.783L393.718 311.506C386.005 295.101 376.345 268.574 372.442 242.371C368.521 216.052 370.491 190.627 385.325 175.819L383.205 173.696ZM384.265 173.258C374.331 173.258 359.412 175.301 346.916 181.495C334.376 187.712 324.073 198.241 324.073 215.166H327.073C327.073 199.764 336.334 190.089 348.248 184.183C360.208 178.255 374.635 176.258 384.265 176.258V173.258ZM324.073 215.166C324.073 225.204 323.318 236.264 322.464 247.536C321.612 258.788 320.659 270.256 320.279 281.028C319.898 291.795 320.084 301.952 321.532 310.593C322.976 319.209 325.706 326.52 330.584 331.389L332.704 329.266C328.474 325.044 325.893 318.465 324.49 310.097C323.092 301.754 322.898 291.834 323.277 281.134C323.655 270.439 324.6 259.051 325.455 247.763C326.309 236.496 327.073 225.331 327.073 215.166H324.073ZM291.69 251.533C291.69 269.638 291.183 285.406 291.946 297.841C292.328 304.074 293.032 309.559 294.306 314.155C295.579 318.75 297.447 322.555 300.226 325.328L302.345 323.205C300.064 320.928 298.39 317.661 297.197 313.354C296.004 309.048 295.317 303.799 294.94 297.657C294.185 285.343 294.69 269.795 294.69 251.533H291.69ZM325.572 213.666C316.412 213.666 299.74 218.672 293.821 236.927L296.675 237.853C302.052 221.27 317.187 216.666 325.573 216.666L325.572 213.666ZM293.821 236.927C292.466 241.105 291.69 245.946 291.69 251.533H294.69C294.69 246.225 295.427 241.701 296.675 237.853L293.821 236.927ZM295.015 235.908C288.489 236.936 278.694 239.501 270.485 243.897C262.365 248.245 255.261 254.69 255.261 263.655H258.261C258.261 256.457 263.985 250.78 271.901 246.541C279.729 242.35 289.178 239.864 295.481 238.872L295.015 235.908ZM255.261 263.655C255.261 264.937 255.219 266.258 255.145 267.614L258.14 267.777C258.217 266.378 258.261 265.002 258.261 263.655H255.261ZM255.145 267.614C254.878 272.508 254.201 277.768 253.585 283.278C252.973 288.758 252.428 294.448 252.459 300.07C252.519 311.324 254.887 322.495 263.796 331.389L265.916 329.266C257.796 321.16 255.517 310.915 255.459 300.054C255.429 294.618 255.957 289.075 256.567 283.611C257.174 278.178 257.868 272.783 258.14 267.777L255.145 267.614ZM256.595 262.164C247.359 263.189 233.499 266.359 221.898 272.587C210.328 278.798 200.615 288.285 200.615 302.042H203.615C203.615 289.939 212.117 281.243 223.317 275.23C234.485 269.235 247.947 266.142 256.926 265.146L256.595 262.164ZM201.395 300.727C190.786 306.534 174.946 318.169 161.742 334.276C148.535 350.386 137.874 371.084 137.874 394.98H140.874C140.874 372.003 151.127 351.957 164.062 336.178C177 320.397 192.53 308.999 202.835 303.358L201.395 300.727ZM138.493 393.767C127.232 401.942 112.538 416.481 105.159 433.582C101.461 442.154 99.5764 451.427 100.947 460.884C102.321 470.357 106.945 479.889 116.052 488.98L118.171 486.857C109.468 478.169 105.187 469.214 103.916 460.453C102.644 451.675 104.377 442.968 107.914 434.77C115.006 418.333 129.253 404.182 140.256 396.194L138.493 393.767ZM137.876 394.915C137.593 401.406 138.634 409.727 142.564 415.596L145.057 413.926C141.643 408.829 140.602 401.266 140.873 395.046L137.876 394.915ZM142.457 414.114C135.947 427.731 128.666 448.261 128.154 465.491C127.899 474.103 129.327 482.111 133.62 487.998C137.974 493.97 145.081 497.5 155.566 497.5V494.5C145.812 494.5 139.711 491.26 136.044 486.231C132.315 481.117 130.906 473.893 131.153 465.58C131.646 448.96 138.727 428.871 145.164 415.408L142.457 414.114ZM142.564 415.596C145.227 419.572 149.233 422.43 154.92 422.743L155.085 419.748C150.472 419.494 147.274 417.237 145.057 413.926L142.564 415.596ZM154.92 422.743C161.413 423.101 169.84 420.125 180.723 412.365L178.982 409.922C168.304 417.536 160.568 420.05 155.085 419.748L154.92 422.743ZM153.719 420.468C150.216 426.251 145.942 435.029 144.682 442.461C144.056 446.153 144.122 449.798 145.702 452.577C147.364 455.501 150.47 457.092 155.002 457.092V454.092C151.213 454.092 149.292 452.821 148.31 451.094C147.246 449.222 147.052 446.426 147.64 442.963C148.806 436.084 152.853 427.688 156.285 422.023L153.719 420.468ZM231.937 369.398C233.339 369.934 234.867 370.215 236.522 370.215V367.215C235.213 367.215 234.05 366.994 233.01 366.596L231.937 369.398ZM236.602 370.213C261.585 368.865 315.504 366.175 331.644 366.175V363.175C315.402 363.175 261.38 365.872 236.441 367.218L236.602 370.213ZM331.644 366.175C341.777 366.175 358.679 365.675 373.087 361.052C380.297 358.738 386.998 355.357 391.91 350.387C396.86 345.378 399.933 338.815 399.933 330.328H396.933C396.933 338.004 394.187 343.815 389.777 348.278C385.328 352.778 379.126 355.963 372.17 358.195C358.243 362.664 341.751 363.175 331.644 363.175V366.175ZM396.935 330.411C397.621 342.731 403.893 372.244 423.684 392.001L425.803 389.878C406.736 370.843 400.594 342.169 399.931 330.245L396.935 330.411ZM423.684 392.001C435.805 404.101 445.991 414.272 454.925 421.407C463.821 428.512 471.76 432.847 479.389 432.847V429.847C472.85 429.847 465.61 426.101 456.797 419.063C448.022 412.056 437.969 402.023 425.803 389.878L423.684 392.001ZM494.322 357.411C498.652 364.061 504.342 374.832 507.342 385.487C508.841 390.814 509.647 396.035 509.32 400.658C508.994 405.267 507.552 409.195 504.64 412.102L506.759 414.226C510.323 410.668 511.951 405.975 512.312 400.87C512.672 395.778 511.782 390.19 510.229 384.674C507.124 373.644 501.277 362.594 496.836 355.775L494.322 357.411ZM484.789 428.582C482.348 429.804 480.767 429.983 479.544 429.856L479.234 432.839C481.141 433.038 483.295 432.685 486.132 431.265L484.789 428.582ZM483.961 429.974C484.293 439.804 482.492 454.529 476.087 466.736C469.725 478.862 458.877 488.439 440.935 488.439V491.439C460.232 491.439 471.985 481.011 478.744 468.13C485.46 455.331 487.303 440.049 486.959 429.873L483.961 429.974ZM493.908 422.122C489.948 425.482 487.028 427.461 484.789 428.582L486.132 431.265C488.673 429.992 491.8 427.845 495.849 424.41L493.908 422.122ZM493.668 424.152C498.766 431.117 505.314 442.663 508.385 454.602C511.465 466.574 510.962 478.525 502.616 486.857L504.735 488.98C514.199 479.532 514.474 466.229 511.291 453.855C508.099 441.448 501.343 429.558 496.088 422.38L493.668 424.152ZM504.64 412.102C503.189 413.551 501.821 414.887 500.529 416.12L502.601 418.29C503.91 417.04 505.294 415.688 506.759 414.226L504.64 412.102ZM500.529 416.12C498.05 418.487 495.857 420.468 493.908 422.122L495.849 424.41C497.851 422.71 500.089 420.688 502.601 418.29L500.529 416.12ZM501.13 418.64C507.749 420.646 517.708 425.052 525.978 431.698C534.261 438.354 540.629 447.068 540.629 457.699H543.629C543.629 445.77 536.477 436.286 527.857 429.359C519.226 422.423 508.902 417.861 502 415.769L501.13 418.64ZM494.519 357.655C495.341 358.475 496.55 359.034 497.867 359.427C499.218 359.83 500.842 360.106 502.646 360.26C506.257 360.57 510.732 360.408 515.48 359.716C524.935 358.337 535.769 354.807 543.118 348.371L541.141 346.114C534.404 352.014 524.217 355.41 515.047 356.747C510.481 357.413 506.241 357.558 502.902 357.271C501.231 357.128 499.822 356.88 498.725 356.552C497.596 356.215 496.945 355.837 496.639 355.531L494.519 357.655ZM543.118 348.371C548.253 343.873 551.724 337.914 551.724 330.328H548.724C548.724 336.881 545.765 342.065 541.141 346.114L543.118 348.371ZM641.873 329.949C641.072 333.013 640.102 336.387 638.97 339.979L641.831 340.881C642.977 337.245 643.961 333.823 644.775 330.707L641.873 329.949ZM639.443 341.584C644.515 345.79 653.525 350.585 664.222 351.421C674.989 352.263 687.378 349.082 699.029 337.451L696.909 335.328C685.893 346.325 674.37 349.205 664.456 348.43C654.471 347.65 646.031 343.151 641.358 339.275L639.443 341.584ZM638.97 339.979C634.409 354.447 627.234 372.367 617.881 387.762C608.491 403.217 597.077 415.839 584.155 420.16L585.107 423.005C599.079 418.333 610.966 404.92 620.445 389.319C629.961 373.657 637.223 355.498 641.831 340.881L638.97 339.979ZM584.155 420.16C581.029 421.206 577.814 421.766 574.512 421.766V424.766C578.16 424.766 581.695 424.146 585.107 423.005L584.155 420.16ZM583.291 422.257C589.332 434.263 596.537 452.193 598.628 467.04C599.678 474.492 599.402 480.921 597.277 485.421C596.231 487.637 594.742 489.374 592.73 490.569C590.71 491.769 588.067 492.48 584.631 492.48V495.48C588.481 495.48 591.682 494.682 594.263 493.148C596.852 491.61 598.722 489.387 599.99 486.702C602.495 481.398 602.674 474.252 601.599 466.622C599.441 451.304 592.073 433.035 585.971 420.909L583.291 422.257ZM573.063 423.657C575.406 432.343 578.217 446.081 579.036 459.021C579.445 465.492 579.352 471.706 578.477 476.964C577.597 482.258 575.958 486.376 573.452 488.877L575.571 491C578.732 487.845 580.517 482.988 581.437 477.456C582.363 471.889 582.447 465.425 582.03 458.831C581.195 445.64 578.339 431.699 575.96 422.875L573.063 423.657ZM540.638 347.083C539.509 357.684 539.312 372.676 541.804 386.638C544.28 400.517 549.486 413.793 559.517 420.426L561.172 417.924C552.221 412.005 547.201 399.812 544.757 386.111C542.327 372.493 542.514 357.795 543.621 347.401L540.638 347.083ZM559.517 420.426C563.7 423.193 568.671 424.766 574.512 424.766V421.766C569.242 421.766 564.85 420.356 561.172 417.924L559.517 420.426ZM558.867 419.436C559.866 425.094 560.865 434.094 560.616 442.65C560.491 446.928 560.055 451.046 559.174 454.559C558.286 458.097 556.984 460.868 555.237 462.612L557.356 464.735C559.657 462.439 561.137 459.061 562.084 455.289C563.037 451.492 563.486 447.14 563.615 442.737C563.871 433.931 562.847 424.722 561.822 418.914L558.867 419.436ZM903.346 123.288C908.628 128.56 911.539 136.401 912.298 145.776L915.288 145.533C914.494 135.727 911.42 127.109 905.466 121.165L903.346 123.288ZM912.298 145.776C912.622 149.772 912.553 154.028 912.115 158.447L915.101 158.742C915.553 154.169 915.629 149.732 915.288 145.533L912.298 145.776ZM912.115 158.447C910.261 177.185 901.819 198.645 889.176 215.401C876.514 232.182 859.86 243.971 841.666 243.971V246.971C861.201 246.971 878.636 234.351 891.571 217.208C904.525 200.04 913.189 178.062 915.101 158.742L912.115 158.447ZM790 187.603C784.987 190.205 780.815 192.975 777.865 195.921L779.984 198.044C782.63 195.402 786.503 192.798 791.382 190.265L790 187.603ZM789.255 189.368C797.041 215.147 783.361 240.459 763.932 250.728C754.256 255.842 743.233 257.183 732.759 253.064C722.28 248.942 712.122 239.263 704.389 221.89L701.648 223.11C709.606 240.987 720.255 251.37 731.661 255.856C743.072 260.344 755.011 258.837 765.334 253.38C785.904 242.508 800.369 215.787 792.127 188.5L789.255 189.368ZM784.372 179.134C781.066 181.253 778.184 183.48 775.841 185.819L777.961 187.942C780.113 185.793 782.814 183.696 785.991 181.66L784.372 179.134ZM704.389 221.89C693.161 196.664 704.44 173.178 722.832 162.617C732.026 157.338 742.965 155.314 753.735 157.91C764.489 160.503 775.211 167.734 783.922 181.211L786.441 179.583C777.372 165.55 766.04 157.79 754.438 154.994C742.852 152.201 731.132 154.392 721.338 160.016C701.753 171.261 689.731 196.336 701.648 223.11L704.389 221.89ZM233.01 366.596C232.85 366.535 232.692 366.469 232.536 366.399L231.303 369.134C231.511 369.227 231.723 369.316 231.938 369.398L233.01 366.596ZM232.053 366.272C231.396 366.213 230.716 366.38 230.112 366.594C229.479 366.819 228.782 367.151 228.043 367.558C226.562 368.373 224.783 369.559 222.8 371.008C218.827 373.911 213.906 377.967 208.695 382.486C198.266 391.531 186.579 402.518 178.807 410.068L180.898 412.219C188.645 404.693 200.288 393.748 210.66 384.753C215.85 380.252 220.697 376.26 224.57 373.431C226.509 372.013 228.171 370.912 229.489 370.187C230.149 369.824 230.691 369.572 231.116 369.421C231.327 369.346 231.491 369.303 231.614 369.28C231.739 369.256 231.79 369.261 231.786 369.26L232.053 366.272ZM761.74 211.453C760.033 204.971 757.172 197.964 752.801 190.533L750.215 192.054C754.458 199.266 757.207 206.02 758.839 212.217L761.74 211.453ZM752.265 192.588C757.114 189.753 762.176 187.599 766.516 186.697C770.959 185.772 774.148 186.251 775.841 187.942L777.961 185.819C775.13 182.993 770.558 182.792 765.905 183.76C761.147 184.749 755.775 187.061 750.751 189.999L752.265 192.588ZM785.991 181.66C787.855 180.465 789.878 179.294 792.041 178.148L790.637 175.497C788.411 176.676 786.316 177.888 784.372 179.134L785.991 181.66ZM789.985 177.468C791.559 180.767 792.866 184.002 793.942 187.151L796.781 186.181C795.668 182.923 794.317 179.58 792.693 176.177L789.985 177.468ZM794.739 185.301C793.085 186.055 791.502 186.823 790 187.603L791.382 190.265C792.834 189.511 794.371 188.766 795.984 188.03L794.739 185.301ZM777.865 195.92C771.043 202.73 764.901 207.411 759.534 210.539L761.045 213.131C766.673 209.851 773.016 205 779.984 198.044L777.865 195.92ZM767.746 146.716C778.161 157.114 785.269 167.58 789.985 177.468L792.693 176.177C787.824 165.968 780.514 155.223 769.865 144.593L767.746 146.716ZM793.942 187.151C800.264 205.651 798.574 221.128 795.734 228.786L798.546 229.829C801.648 221.466 803.305 205.274 796.781 186.181L793.942 187.151ZM759.534 210.539C752.762 214.486 747.25 215.946 743.168 216.117C739.038 216.291 736.508 215.151 735.459 214.104L733.339 216.227C735.189 218.073 738.671 219.309 743.294 219.115C747.967 218.918 753.95 217.266 761.045 213.131L759.534 210.539ZM729.292 165.719C738.585 174.996 745.373 183.825 750.215 192.054L752.801 190.533C747.813 182.055 740.86 173.028 731.411 163.595L729.292 165.719ZM758.839 212.217C763.708 230.712 758.648 244.316 753.481 250.579L755.795 252.488C761.628 245.418 766.834 230.801 761.74 211.453L758.839 212.217ZM231.786 369.26C231.78 369.26 231.732 369.255 231.66 369.225C231.584 369.194 231.496 369.14 231.414 369.059L233.534 366.935C233.088 366.491 232.538 366.315 232.053 366.272L231.786 369.26ZM735.459 214.104C734.473 213.119 734.159 211.912 734.465 210.377C734.787 208.764 735.798 206.842 737.454 204.741C740.752 200.557 746.263 196.099 752.265 192.588L750.751 189.999C744.542 193.63 738.7 198.314 735.098 202.884C733.304 205.161 731.977 207.519 731.524 209.79C731.055 212.138 731.528 214.419 733.339 216.227L735.459 214.104ZM220.868 324.068C219.969 330.777 219.478 340.5 220.679 349.245C221.28 353.617 222.313 357.818 223.978 361.295C225.643 364.772 228 367.644 231.303 369.134L232.536 366.399C230.097 365.299 228.166 363.095 226.684 360C225.202 356.905 224.229 353.038 223.651 348.837C222.498 340.437 222.966 330.999 223.841 324.466L220.868 324.068ZM795.984 188.03C812.967 180.285 838.16 173.703 862.407 168.72L861.803 165.781C837.521 170.772 812.047 177.407 794.739 185.301L795.984 188.03ZM863.555 166.867C862.545 163.044 861.387 158.959 860.063 154.608L857.193 155.481C858.506 159.798 859.654 163.847 860.655 167.634L863.555 166.867ZM858.308 153.579C833.667 158.955 808.003 166.299 790.637 175.497L792.041 178.148C809.027 169.152 834.355 161.875 858.948 156.51L858.308 153.579ZM913.616 144.165C899.571 145.839 879.258 149.008 858.308 153.579L858.948 156.51C879.797 151.961 900.015 148.808 913.971 147.144L913.616 144.165ZM913.417 157.107C900.075 158.816 881.283 161.777 861.803 165.781L862.407 168.72C881.809 164.732 900.526 161.783 913.799 160.082L913.417 157.107ZM848.355 129.43C851.909 139.008 854.82 147.681 857.193 155.481L860.063 154.608C857.672 146.747 854.741 138.017 851.167 128.387L848.355 129.43ZM860.655 167.634C863.769 179.416 865.453 188.648 866.246 195.487C867.043 202.369 866.923 206.724 866.505 208.809L869.447 209.398C869.959 206.841 870.032 202.107 869.226 195.142C868.414 188.134 866.698 178.76 863.555 166.867L860.655 167.634Z" fill="#FAFAFA"/>
<ellipse cx="811.303" cy="148.493" rx="10.1195" ry="10.102" fill="url(#paint1_linear_172_142)"/>
</g>
<path fill-rule="evenodd" clip-rule="evenodd" d="M702.017 145.655C669.311 133.217 638.738 151.051 625.109 164.657C625.109 154.554 584.631 158.595 584.631 166.676C584.631 148.493 511.771 150.111 511.771 164.657C500.977 157.249 474.936 146.878 457.126 164.657C445.657 155.228 415.028 144.048 384.265 174.758C364.701 174.758 325.573 182.839 325.573 215.166C316.799 215.166 300.896 219.971 295.248 237.39C282.419 239.41 256.761 247.492 256.761 263.655C238.545 265.675 202.115 276.181 202.115 302.042C181.201 313.491 139.374 348.107 139.374 394.98C139.098 401.336 140.138 409.278 143.81 414.761C146.25 418.404 149.852 420.962 155.002 421.246C160.991 421.575 169.072 418.831 179.853 411.144C195.372 396.067 226.511 367.282 231.919 367.766C232.101 367.848 232.286 367.925 232.474 367.997C233.694 368.464 235.04 368.715 236.522 368.715C261.483 367.368 315.453 364.675 331.644 364.675C351.883 364.675 398.433 362.654 398.433 330.328C399.108 342.45 405.314 371.544 424.744 390.94C449.03 415.184 465.221 431.347 479.389 431.347C480.954 431.51 482.822 431.245 485.46 429.924C487.851 428.727 490.874 426.663 494.878 423.266C496.854 421.589 499.069 419.587 501.565 417.205C502.865 415.964 504.241 414.62 505.699 413.164C518.652 400.233 504.35 370.062 495.579 356.593C500.089 361.095 528.043 359.578 542.129 347.242C539.894 368.236 541.362 406.623 560.344 419.175C564.275 421.774 568.956 423.266 574.512 423.266C577.987 423.266 581.362 422.676 584.631 421.583C611.526 412.588 631.232 369.515 640.401 340.43C650.145 348.511 675.302 359.017 697.969 336.389C728.732 367.099 790.394 361.307 817.379 354.573C826.26 354.573 832.196 350.423 835.594 344.551C837.026 342.076 838.007 339.295 838.567 336.389C839.588 331.092 839.211 325.383 837.618 320.363C835.073 312.342 829.425 306.083 821.427 306.083C803.616 306.083 778.925 284.532 768.805 273.757C791.473 296.385 826.824 264.328 841.666 245.471C879.396 245.471 909.842 196.652 913.608 158.595C900.301 160.299 881.546 163.255 862.105 167.251C837.84 172.238 812.507 178.846 795.362 186.666C793.728 187.411 792.168 188.167 790.691 188.934C785.745 191.502 781.723 194.189 778.925 196.982C754.638 221.227 738.447 219.206 734.399 215.166C724.28 205.064 766.781 176.778 776.901 186.88C779.148 184.636 781.94 182.475 785.182 180.397C787.086 179.176 789.144 177.985 791.339 176.822C808.515 167.726 834.011 160.415 858.628 155.044C879.528 150.485 899.793 147.323 913.793 145.655C913.016 136.064 910.024 127.835 904.406 122.226C881.739 99.598 840.991 100.458 823.45 103.716C798.108 97.4377 763.64 115.084 744.519 128.909C722.872 120.93 707.854 134.898 702.017 145.655Z" fill="url(#paint2_linear_172_142)"/>
<path d="M791.339 176.822C792.938 180.173 794.267 183.463 795.362 186.666C812.507 178.846 837.84 172.238 862.105 167.251C861.1 163.445 859.946 159.378 858.628 155.044C834.011 160.415 808.515 167.726 791.339 176.822Z" fill="#D7FF00"/>
<path d="M913.608 158.595C914.053 154.098 914.125 149.752 913.793 145.655C899.793 147.323 879.528 150.485 858.628 155.044C859.946 159.378 861.1 163.445 862.105 167.251C881.546 163.255 900.301 160.299 913.608 158.595Z" fill="#D7FF00"/>
<path d="M734.399 215.166C738.447 219.206 754.638 221.227 778.925 196.982C781.723 194.189 785.745 191.502 790.691 188.934C792.168 188.167 793.728 187.411 795.362 186.666C794.267 183.463 792.938 180.173 791.339 176.822C789.144 177.985 787.086 179.176 785.182 180.397C781.94 182.475 779.148 184.636 776.901 186.88C766.781 176.778 724.28 205.064 734.399 215.166Z" fill="#D7FF00"/>
<path d="M625.109 164.657H623.609V164.76L623.623 164.862L625.109 164.657ZM702.017 145.655L701.484 147.057L701.58 147.093L701.681 147.117L702.017 145.655ZM768.805 145.655L767.746 146.716L768.805 145.655ZM744.519 128.909L744 130.316L744.519 128.909ZM849.761 128.909L848.355 129.43L849.761 128.909ZM823.45 103.716L823.09 105.172L823.45 103.716ZM904.406 122.226L905.466 121.165L904.406 122.226ZM841.666 245.471V243.971H840.937L840.487 244.544L841.666 245.471ZM768.805 273.757L769.865 272.695L767.712 274.784L768.805 273.757ZM817.379 354.573V353.073H817.194L817.016 353.117L817.379 354.573ZM837.618 320.363L836.188 320.817L837.618 320.363ZM896.835 374.777C896.835 375.605 897.506 376.277 898.335 376.277C899.163 376.277 899.835 375.605 899.835 374.777H896.835ZM838.567 336.389L837.094 336.105L837.094 336.105L838.567 336.389ZM872.988 414.123C872.402 414.708 872.401 415.658 872.986 416.244C873.571 416.83 874.521 416.831 875.108 416.246L872.988 414.123ZM835.594 344.551L834.296 343.8L834.296 343.8L835.594 344.551ZM836.558 383.817C835.972 384.402 835.971 385.352 836.556 385.938C837.141 386.525 838.091 386.525 838.677 385.94L836.558 383.817ZM697.969 336.389L699.029 335.328L697.969 334.27L696.909 335.328L697.969 336.389ZM584.631 166.676H583.131V167.019L583.28 167.328L584.631 166.676ZM457.126 164.657L456.173 165.816L456.304 165.923L456.456 165.999L457.126 164.657ZM457.126 188.901L458.186 189.962L457.126 188.901ZM295.248 237.39L296.675 237.853L296.675 237.853L295.248 237.39ZM256.643 267.696L258.14 267.777L256.643 267.696ZM202.115 302.042L202.835 303.358L203.615 302.931V302.042H202.115ZM139.374 394.98L140.873 395.046L140.874 395.013V394.98H139.374ZM116.052 488.98C116.638 489.565 117.588 489.564 118.173 488.978C118.758 488.392 118.758 487.442 118.171 486.857L116.052 488.98ZM179.853 411.144L180.723 412.365L180.816 412.299L180.898 412.219L179.853 411.144ZM143.81 414.761L145.057 413.926L145.057 413.926L143.81 414.761ZM155.566 497.5C156.394 497.5 157.066 496.828 157.066 496C157.066 495.172 156.394 494.5 155.566 494.5V497.5ZM155.002 421.246L155.085 419.748L155.002 421.246ZM155.002 457.092C155.83 457.092 156.502 456.421 156.502 455.592C156.502 454.764 155.83 454.092 155.002 454.092V457.092ZM236.522 368.715V370.215H236.562L236.602 370.213L236.522 368.715ZM398.433 330.328L399.931 330.245L396.933 330.328H398.433ZM424.744 390.94L423.684 392.001L423.684 392.001L424.744 390.94ZM479.389 431.347L479.544 429.856L479.466 429.847H479.389V431.347ZM505.699 413.164L506.759 414.226L506.759 414.226L505.699 413.164ZM440.935 488.439C440.106 488.439 439.435 489.11 439.435 489.939C439.435 490.767 440.106 491.439 440.935 491.439V488.439ZM502.616 486.857C502.029 487.442 502.028 488.392 502.614 488.978C503.199 489.564 504.149 489.565 504.735 488.98L502.616 486.857ZM540.629 457.699C540.629 458.527 541.301 459.199 542.129 459.199C542.958 459.199 543.629 458.527 543.629 457.699H540.629ZM584.631 492.48C583.803 492.48 583.131 493.151 583.131 493.98C583.131 494.808 583.803 495.48 584.631 495.48V492.48ZM573.452 488.877C572.866 489.463 572.865 490.412 573.45 490.999C574.035 491.585 574.985 491.586 575.571 491L573.452 488.877ZM560.344 419.175L561.172 417.924L560.344 419.175ZM555.237 462.612C554.651 463.197 554.65 464.147 555.235 464.733C555.82 465.32 556.77 465.321 557.356 464.735L555.237 462.612ZM776.901 186.88L775.841 187.942L776.901 189L777.961 187.942L776.901 186.88ZM778.925 196.982L779.984 198.044L778.925 196.982ZM734.399 215.166L735.459 214.104L734.399 215.166ZM703.019 222.5L701.648 223.11L701.648 223.11L703.019 222.5ZM712.498 154.062C713.084 154.647 714.034 154.646 714.619 154.06C715.205 153.473 715.204 152.524 714.617 151.938L712.498 154.062ZM626.169 165.719C639.6 152.311 669.571 134.921 701.484 147.057L702.55 144.253C669.052 131.514 637.876 149.792 624.049 163.595L626.169 165.719ZM703.335 146.37C706.143 141.196 711.164 135.253 718.046 131.579C724.876 127.931 733.597 126.482 744 130.316L745.037 127.501C733.793 123.357 724.182 124.901 716.633 128.932C709.134 132.936 703.728 139.357 700.699 144.939L703.335 146.37ZM744 130.316C751.11 132.937 759.061 138.047 767.746 146.716L769.865 144.593C760.959 135.702 752.652 130.308 745.037 127.501L744 130.316ZM745.397 130.124C754.872 123.274 768.153 115.477 782.182 110.177C796.247 104.864 810.854 102.141 823.09 105.172L823.811 102.26C810.704 99.0129 795.407 101.974 781.122 107.371C766.8 112.781 753.287 120.719 743.64 127.693L745.397 130.124ZM823.09 105.172C833.898 107.85 843.02 115.055 848.355 129.43L851.167 128.387C845.506 113.132 835.635 105.189 823.811 102.26L823.09 105.172ZM823.724 105.191C832.35 103.589 846.756 102.568 861.79 104.748C876.839 106.931 892.332 112.292 903.346 123.288L905.466 121.165C893.813 109.532 877.598 104.009 862.221 101.779C846.83 99.547 832.092 100.585 823.177 102.241L823.724 105.191ZM840.487 244.544C833.136 253.884 820.731 266.449 807.44 273.861C800.798 277.565 794.037 279.924 787.639 280.036C781.297 280.147 775.234 278.055 769.865 272.695L767.746 274.819C773.711 280.773 780.567 283.16 787.692 283.035C794.761 282.911 802.016 280.32 808.901 276.481C822.662 268.808 835.353 255.916 842.844 246.399L840.487 244.544ZM767.712 274.784C772.83 280.233 781.61 288.387 791.374 295.192C801.068 301.947 812.025 307.583 821.427 307.583V304.583C813.018 304.583 802.724 299.444 793.09 292.73C783.525 286.065 774.9 278.056 769.899 272.73L767.712 274.784ZM821.427 307.583C828.493 307.583 833.741 313.105 836.188 320.817L839.047 319.909C836.404 311.58 830.357 304.583 821.427 304.583V307.583ZM837.621 321.863C847.531 321.841 862.406 324.489 874.753 332.448C887.018 340.355 896.835 353.517 896.835 374.777H899.835C899.835 352.396 889.412 338.328 876.378 329.927C863.427 321.578 847.944 318.84 837.614 318.863L837.621 321.863ZM836.188 320.817C837.707 325.603 838.067 331.059 837.094 336.105L840.04 336.673C841.11 331.125 840.714 325.162 839.047 319.909L836.188 320.817ZM838.017 337.785C851.578 343.128 869.455 353.401 879.319 366.777C884.228 373.434 887.088 380.768 886.563 388.604C886.038 396.434 882.117 405.009 872.988 414.123L875.108 416.246C884.598 406.772 888.97 397.551 889.556 388.805C890.142 380.065 886.931 372.044 881.733 364.997C871.383 350.962 852.9 340.425 839.117 334.994L838.017 337.785ZM837.094 336.105C836.562 338.868 835.633 341.488 834.296 343.8L836.892 345.303C838.419 342.664 839.453 339.721 840.04 336.673L837.094 336.105ZM834.296 343.8C831.157 349.223 825.707 353.073 817.379 353.073V356.073C826.812 356.073 833.235 351.622 836.892 345.303L834.296 343.8ZM834.487 345.563C837.725 349.106 841.712 355.314 843.13 362.325C844.531 369.257 843.431 376.956 836.558 383.817L838.677 385.94C846.376 378.255 847.637 369.48 846.07 361.731C844.52 354.06 840.209 347.378 836.701 343.539L834.487 345.563ZM817.016 353.117C803.651 356.453 781.647 359.563 759.193 358.026C736.703 356.487 714.034 350.306 699.029 335.328L696.909 337.451C712.668 353.182 736.21 359.46 758.988 361.019C781.802 362.58 804.122 359.427 817.742 356.028L817.016 353.117ZM623.623 164.862C626.33 184.479 632.316 215.806 641.484 246.093C650.627 276.298 663.023 305.78 678.694 321.425L680.814 319.301C665.722 304.236 653.495 275.418 644.355 245.224C635.24 215.112 629.285 183.941 626.595 164.452L623.623 164.862ZM626.609 164.657C626.609 162.81 625.655 161.363 624.277 160.317C622.937 159.299 621.13 158.597 619.136 158.116C615.132 157.149 609.9 156.967 604.758 157.352C599.608 157.737 594.408 158.703 590.451 160.118C588.48 160.823 586.732 161.669 585.447 162.672C584.186 163.657 583.131 164.991 583.131 166.676H586.131C586.131 166.341 586.341 165.781 587.294 165.037C588.222 164.312 589.636 163.596 591.461 162.943C595.094 161.643 600.013 160.715 604.982 160.343C609.959 159.971 614.847 160.167 618.433 161.032C620.233 161.466 621.589 162.043 622.463 162.706C623.299 163.341 623.609 163.978 623.609 164.657H626.609ZM583.28 167.328C587.643 176.374 594.197 191.472 599.657 207.321C605.133 223.216 609.442 239.68 609.442 251.533H612.442C612.442 239.142 607.98 222.27 602.494 206.343C596.991 190.37 590.389 175.162 585.982 166.025L583.28 167.328ZM609.442 251.533C609.442 258.847 607.613 265.087 605.282 270.859C604.112 273.756 602.825 276.511 601.573 279.25C600.328 281.972 599.118 284.676 598.145 287.394C596.192 292.854 595.16 298.473 596.677 304.732C598.187 310.965 602.178 317.638 609.882 325.328L612.002 323.205C604.526 315.743 600.928 309.536 599.592 304.025C598.263 298.54 599.128 293.552 600.97 288.405C601.895 285.82 603.056 283.22 604.301 280.497C605.539 277.79 606.862 274.958 608.063 271.983C610.475 266.012 612.442 259.372 612.442 251.533H609.442ZM586.131 166.676C586.131 163.835 584.688 161.484 582.463 159.622C580.262 157.78 577.211 156.334 573.702 155.215C566.673 152.973 557.398 151.918 548.205 151.893C539.007 151.868 529.754 152.873 522.751 154.835C519.26 155.812 516.23 157.054 514.039 158.595C511.861 160.126 510.271 162.137 510.271 164.657H513.271C513.271 163.541 513.958 162.319 515.765 161.049C517.559 159.787 520.221 158.659 523.56 157.723C530.218 155.858 539.18 154.868 548.197 154.893C557.219 154.918 566.159 155.959 572.791 158.073C576.113 159.132 578.754 160.43 580.538 161.922C582.298 163.396 583.131 164.972 583.131 166.676H586.131ZM510.341 165.111C514.707 178.856 520.247 200.48 522.678 220.649C523.894 230.737 524.325 240.399 523.466 248.502C522.602 256.659 520.46 262.964 516.783 266.634L518.903 268.757C523.321 264.346 525.564 257.182 526.45 248.818C527.341 240.401 526.886 230.49 525.657 220.29C523.197 199.883 517.605 178.07 513.201 164.203L510.341 165.111ZM516.783 266.634C508.013 275.389 509.316 288.325 513.912 300.307C518.547 312.387 526.753 324.151 532.896 331.305L535.172 329.351C529.172 322.362 521.187 310.892 516.713 299.232C512.202 287.474 511.481 276.166 518.903 268.757L516.783 266.634ZM512.62 163.42C507.07 159.611 497.639 155.057 487.271 153.724C476.863 152.386 465.387 154.291 456.066 163.595L458.186 165.719C466.675 157.244 477.125 155.444 486.888 156.699C496.691 157.96 505.678 162.295 510.922 165.894L512.62 163.42ZM456.456 165.999C458.906 167.222 461.734 169.748 462.545 173.276C463.333 176.7 462.33 181.586 456.066 187.839L458.186 189.962C464.875 183.284 466.571 177.396 465.469 172.604C464.391 167.916 460.743 164.786 457.796 163.315L456.456 165.999ZM456.066 187.839C453.786 190.115 451.988 193.737 450.619 198.239C449.24 202.774 448.254 208.351 447.694 214.686C446.575 227.36 447.153 243.206 449.825 260.101C455.164 293.855 468.909 332.088 494.519 357.655L496.639 355.531C471.652 330.588 458.075 293.057 452.789 259.632C450.148 242.939 449.588 227.342 450.683 214.95C451.23 208.753 452.188 203.392 453.49 199.111C454.801 194.798 456.418 191.727 458.186 189.962L456.066 187.839ZM458.079 163.498C452.105 158.588 441.256 153.294 427.947 153.155C414.579 153.016 398.851 158.078 383.205 173.696L385.325 175.819C400.442 160.728 415.41 156.025 427.915 156.155C440.478 156.286 450.678 161.298 456.173 165.816L458.079 163.498ZM383.205 173.696C367.276 189.598 365.535 216.367 369.474 242.813C373.431 269.377 383.2 296.188 391.003 312.783L393.718 311.506C386.005 295.101 376.345 268.574 372.442 242.371C368.521 216.052 370.491 190.627 385.325 175.819L383.205 173.696ZM384.265 173.258C374.331 173.258 359.412 175.301 346.916 181.495C334.376 187.712 324.073 198.241 324.073 215.166H327.073C327.073 199.764 336.334 190.089 348.248 184.183C360.208 178.255 374.635 176.258 384.265 176.258V173.258ZM324.073 215.166C324.073 225.204 323.318 236.264 322.464 247.536C321.612 258.788 320.659 270.256 320.279 281.028C319.898 291.795 320.084 301.952 321.532 310.593C322.976 319.209 325.706 326.52 330.584 331.389L332.704 329.266C328.474 325.044 325.893 318.465 324.49 310.097C323.092 301.754 322.898 291.834 323.277 281.134C323.655 270.439 324.6 259.051 325.455 247.763C326.309 236.496 327.073 225.331 327.073 215.166H324.073ZM291.69 251.533C291.69 269.638 291.183 285.406 291.946 297.841C292.328 304.074 293.032 309.559 294.306 314.155C295.579 318.75 297.447 322.555 300.226 325.328L302.345 323.205C300.064 320.928 298.39 317.661 297.197 313.354C296.004 309.048 295.317 303.799 294.94 297.657C294.185 285.343 294.69 269.795 294.69 251.533H291.69ZM325.572 213.666C316.412 213.666 299.74 218.672 293.821 236.927L296.675 237.853C302.052 221.27 317.187 216.666 325.573 216.666L325.572 213.666ZM293.821 236.927C292.466 241.105 291.69 245.946 291.69 251.533H294.69C294.69 246.225 295.427 241.701 296.675 237.853L293.821 236.927ZM295.015 235.908C288.489 236.936 278.694 239.501 270.485 243.897C262.365 248.245 255.261 254.69 255.261 263.655H258.261C258.261 256.457 263.985 250.78 271.901 246.541C279.729 242.35 289.178 239.864 295.481 238.872L295.015 235.908ZM255.261 263.655C255.261 264.937 255.219 266.258 255.145 267.614L258.14 267.777C258.217 266.378 258.261 265.002 258.261 263.655H255.261ZM255.145 267.614C254.878 272.508 254.201 277.768 253.585 283.278C252.973 288.758 252.428 294.448 252.459 300.07C252.519 311.324 254.887 322.495 263.796 331.389L265.916 329.266C257.796 321.16 255.517 310.915 255.459 300.054C255.429 294.618 255.957 289.075 256.567 283.611C257.174 278.178 257.868 272.783 258.14 267.777L255.145 267.614ZM256.595 262.164C247.359 263.189 233.499 266.359 221.898 272.587C210.328 278.798 200.615 288.285 200.615 302.042H203.615C203.615 289.939 212.117 281.243 223.317 275.23C234.485 269.235 247.947 266.142 256.926 265.146L256.595 262.164ZM201.395 300.727C190.786 306.534 174.946 318.169 161.742 334.276C148.535 350.386 137.874 371.084 137.874 394.98H140.874C140.874 372.003 151.127 351.957 164.062 336.178C177 320.397 192.53 308.999 202.835 303.358L201.395 300.727ZM138.493 393.767C127.232 401.942 112.538 416.481 105.159 433.582C101.461 442.154 99.5764 451.427 100.947 460.884C102.321 470.357 106.945 479.889 116.052 488.98L118.171 486.857C109.468 478.169 105.187 469.214 103.916 460.453C102.644 451.675 104.377 442.968 107.914 434.77C115.006 418.333 129.253 404.182 140.256 396.194L138.493 393.767ZM137.876 394.915C137.593 401.406 138.634 409.727 142.564 415.596L145.057 413.926C141.643 408.829 140.602 401.266 140.873 395.046L137.876 394.915ZM142.457 414.114C135.947 427.731 128.666 448.261 128.154 465.491C127.899 474.103 129.327 482.111 133.62 487.998C137.974 493.97 145.081 497.5 155.566 497.5V494.5C145.812 494.5 139.711 491.26 136.044 486.231C132.315 481.117 130.906 473.893 131.153 465.58C131.646 448.96 138.727 428.871 145.164 415.408L142.457 414.114ZM142.564 415.596C145.227 419.572 149.233 422.43 154.92 422.743L155.085 419.748C150.472 419.494 147.274 417.237 145.057 413.926L142.564 415.596ZM154.92 422.743C161.413 423.101 169.84 420.125 180.723 412.365L178.982 409.922C168.304 417.536 160.568 420.05 155.085 419.748L154.92 422.743ZM153.719 420.468C150.216 426.251 145.942 435.029 144.682 442.461C144.056 446.153 144.122 449.798 145.702 452.577C147.364 455.501 150.47 457.092 155.002 457.092V454.092C151.213 454.092 149.292 452.821 148.31 451.094C147.246 449.222 147.052 446.426 147.64 442.963C148.806 436.084 152.853 427.688 156.285 422.023L153.719 420.468ZM231.937 369.398C233.339 369.934 234.867 370.215 236.522 370.215V367.215C235.213 367.215 234.05 366.994 233.01 366.596L231.937 369.398ZM236.602 370.213C261.585 368.865 315.504 366.175 331.644 366.175V363.175C315.402 363.175 261.38 365.872 236.441 367.218L236.602 370.213ZM331.644 366.175C341.777 366.175 358.679 365.675 373.087 361.052C380.297 358.738 386.998 355.357 391.91 350.387C396.86 345.378 399.933 338.815 399.933 330.328H396.933C396.933 338.004 394.187 343.815 389.777 348.278C385.328 352.778 379.126 355.963 372.17 358.195C358.243 362.664 341.751 363.175 331.644 363.175V366.175ZM396.935 330.411C397.621 342.731 403.893 372.244 423.684 392.001L425.803 389.878C406.736 370.843 400.594 342.169 399.931 330.245L396.935 330.411ZM423.684 392.001C435.805 404.101 445.991 414.272 454.925 421.407C463.821 428.512 471.76 432.847 479.389 432.847V429.847C472.85 429.847 465.61 426.101 456.797 419.063C448.022 412.056 437.969 402.023 425.803 389.878L423.684 392.001ZM494.322 357.411C498.652 364.061 504.342 374.832 507.342 385.487C508.841 390.814 509.647 396.035 509.32 400.658C508.994 405.267 507.552 409.195 504.64 412.102L506.759 414.226C510.323 410.668 511.951 405.975 512.312 400.87C512.672 395.778 511.782 390.19 510.229 384.674C507.124 373.644 501.277 362.594 496.836 355.775L494.322 357.411ZM484.789 428.582C482.348 429.804 480.767 429.983 479.544 429.856L479.234 432.839C481.141 433.038 483.295 432.685 486.132 431.265L484.789 428.582ZM483.961 429.974C484.293 439.804 482.492 454.529 476.087 466.736C469.725 478.862 458.877 488.439 440.935 488.439V491.439C460.232 491.439 471.985 481.011 478.744 468.13C485.46 455.331 487.303 440.049 486.959 429.873L483.961 429.974ZM493.908 422.122C489.948 425.482 487.028 427.461 484.789 428.582L486.132 431.265C488.673 429.992 491.8 427.845 495.849 424.41L493.908 422.122ZM493.668 424.152C498.766 431.117 505.314 442.663 508.385 454.602C511.465 466.574 510.962 478.525 502.616 486.857L504.735 488.98C514.199 479.532 514.474 466.229 511.291 453.855C508.099 441.448 501.343 429.558 496.088 422.38L493.668 424.152ZM504.64 412.102C503.189 413.551 501.821 414.887 500.529 416.12L502.601 418.29C503.91 417.04 505.294 415.688 506.759 414.226L504.64 412.102ZM500.529 416.12C498.05 418.487 495.857 420.468 493.908 422.122L495.849 424.41C497.851 422.71 500.089 420.688 502.601 418.29L500.529 416.12ZM501.13 418.64C507.749 420.646 517.708 425.052 525.978 431.698C534.261 438.354 540.629 447.068 540.629 457.699H543.629C543.629 445.77 536.477 436.286 527.857 429.359C519.226 422.423 508.902 417.861 502 415.769L501.13 418.64ZM494.519 357.655C495.341 358.475 496.55 359.034 497.867 359.427C499.218 359.83 500.842 360.106 502.646 360.26C506.257 360.57 510.732 360.408 515.48 359.716C524.935 358.337 535.769 354.807 543.118 348.371L541.141 346.114C534.404 352.014 524.217 355.41 515.047 356.747C510.481 357.413 506.241 357.558 502.902 357.271C501.231 357.128 499.822 356.88 498.725 356.552C497.596 356.215 496.945 355.837 496.639 355.531L494.519 357.655ZM543.118 348.371C548.253 343.873 551.724 337.914 551.724 330.328H548.724C548.724 336.881 545.765 342.065 541.141 346.114L543.118 348.371ZM641.873 329.949C641.072 333.013 640.102 336.387 638.97 339.979L641.831 340.881C642.977 337.245 643.961 333.823 644.775 330.707L641.873 329.949ZM639.443 341.584C644.515 345.79 653.525 350.585 664.222 351.421C674.989 352.263 687.378 349.082 699.029 337.451L696.909 335.328C685.893 346.325 674.37 349.205 664.456 348.43C654.471 347.65 646.031 343.151 641.358 339.275L639.443 341.584ZM638.97 339.979C634.409 354.447 627.234 372.367 617.881 387.762C608.491 403.217 597.077 415.839 584.155 420.16L585.107 423.005C599.079 418.333 610.966 404.92 620.445 389.319C629.961 373.657 637.223 355.498 641.831 340.881L638.97 339.979ZM584.155 420.16C581.029 421.206 577.814 421.766 574.512 421.766V424.766C578.16 424.766 581.695 424.146 585.107 423.005L584.155 420.16ZM583.291 422.257C589.332 434.263 596.537 452.193 598.628 467.04C599.678 474.492 599.402 480.921 597.277 485.421C596.231 487.637 594.742 489.374 592.73 490.569C590.71 491.769 588.067 492.48 584.631 492.48V495.48C588.481 495.48 591.682 494.682 594.263 493.148C596.852 491.61 598.722 489.387 599.99 486.702C602.495 481.398 602.674 474.252 601.599 466.622C599.441 451.304 592.073 433.035 585.971 420.909L583.291 422.257ZM573.063 423.657C575.406 432.343 578.217 446.081 579.036 459.021C579.445 465.492 579.352 471.706 578.477 476.964C577.597 482.258 575.958 486.376 573.452 488.877L575.571 491C578.732 487.845 580.517 482.988 581.437 477.456C582.363 471.889 582.447 465.425 582.03 458.831C581.195 445.64 578.339 431.699 575.96 422.875L573.063 423.657ZM540.638 347.083C539.509 357.684 539.312 372.676 541.804 386.638C544.28 400.517 549.486 413.793 559.517 420.426L561.172 417.924C552.221 412.005 547.201 399.812 544.757 386.111C542.327 372.493 542.514 357.795 543.621 347.401L540.638 347.083ZM559.517 420.426C563.7 423.193 568.671 424.766 574.512 424.766V421.766C569.242 421.766 564.85 420.356 561.172 417.924L559.517 420.426ZM558.867 419.436C559.866 425.094 560.865 434.094 560.616 442.65C560.491 446.928 560.055 451.046 559.174 454.559C558.286 458.097 556.984 460.868 555.237 462.612L557.356 464.735C559.657 462.439 561.137 459.061 562.084 455.289C563.037 451.492 563.486 447.14 563.615 442.737C563.871 433.931 562.847 424.722 561.822 418.914L558.867 419.436ZM903.346 123.288C908.628 128.56 911.539 136.401 912.298 145.776L915.288 145.533C914.494 135.727 911.42 127.109 905.466 121.165L903.346 123.288ZM912.298 145.776C912.622 149.772 912.553 154.028 912.115 158.447L915.101 158.742C915.553 154.169 915.629 149.732 915.288 145.533L912.298 145.776ZM912.115 158.447C910.261 177.185 901.819 198.645 889.176 215.401C876.514 232.182 859.86 243.971 841.666 243.971V246.971C861.201 246.971 878.636 234.351 891.571 217.208C904.525 200.04 913.189 178.062 915.101 158.742L912.115 158.447ZM777.865 195.921C765.843 207.921 755.945 213.299 748.686 215.231C741.346 217.185 736.942 215.585 735.459 214.104L733.339 216.227C735.903 218.787 741.62 220.217 749.458 218.13C757.379 216.022 767.719 210.287 779.984 198.044L777.865 195.921ZM735.459 214.104C734.557 213.203 734.231 212.133 734.393 210.82C734.565 209.436 735.291 207.775 736.58 205.919C739.151 202.218 743.664 198.174 748.891 194.695C754.109 191.223 759.903 188.403 764.951 187.067C767.477 186.399 769.747 186.121 771.631 186.276C773.51 186.43 774.902 187.004 775.841 187.942L777.961 185.819C776.37 184.231 774.22 183.479 771.877 183.286C769.539 183.094 766.908 183.446 764.184 184.167C758.733 185.61 752.638 188.598 747.229 192.198C741.831 195.79 736.983 200.08 734.116 204.208C732.685 206.267 731.671 208.394 731.416 210.451C731.152 212.579 731.712 214.602 733.339 216.227L735.459 214.104ZM790 187.603C784.987 190.205 780.815 192.975 777.865 195.921L779.984 198.044C782.63 195.402 786.503 192.798 791.382 190.265L790 187.603ZM789.255 189.368C797.041 215.147 783.361 240.459 763.932 250.728C754.256 255.842 743.233 257.183 732.759 253.064C722.28 248.942 712.122 239.263 704.389 221.89L701.648 223.11C709.606 240.987 720.255 251.37 731.661 255.856C743.072 260.344 755.011 258.837 765.334 253.38C785.904 242.508 800.369 215.787 792.127 188.5L789.255 189.368ZM784.372 179.134C781.066 181.253 778.184 183.48 775.841 185.819L777.961 187.942C780.113 185.793 782.814 183.696 785.991 181.66L784.372 179.134ZM704.389 221.89C693.161 196.664 704.44 173.178 722.832 162.617C732.026 157.338 742.965 155.314 753.735 157.91C764.489 160.503 775.211 167.734 783.922 181.211L786.441 179.583C777.372 165.55 766.04 157.79 754.438 154.994C742.852 152.201 731.132 154.392 721.338 160.016C701.753 171.261 689.731 196.336 701.648 223.11L704.389 221.89ZM701.681 147.117C702.742 147.36 704.734 148.363 706.931 149.771C709.081 151.149 711.2 152.765 712.498 154.062L714.617 151.938C713.111 150.435 710.799 148.686 708.549 147.245C706.347 145.834 703.97 144.564 702.353 144.193L701.681 147.117ZM233.01 366.596C232.85 366.535 232.692 366.469 232.536 366.399L231.303 369.134C231.511 369.227 231.723 369.316 231.938 369.398L233.01 366.596ZM232.053 366.272C231.396 366.213 230.716 366.38 230.112 366.594C229.479 366.819 228.782 367.151 228.043 367.558C226.562 368.373 224.783 369.559 222.8 371.008C218.827 373.911 213.906 377.967 208.695 382.486C198.266 391.531 186.579 402.518 178.807 410.068L180.898 412.219C188.645 404.693 200.288 393.748 210.66 384.753C215.85 380.252 220.697 376.26 224.57 373.431C226.509 372.013 228.171 370.912 229.489 370.187C230.149 369.824 230.691 369.572 231.116 369.421C231.327 369.346 231.491 369.303 231.614 369.28C231.739 369.256 231.79 369.261 231.786 369.26L232.053 366.272ZM789.985 177.468C791.559 180.767 792.866 184.002 793.942 187.151L796.781 186.181C795.668 182.923 794.317 179.58 792.693 176.177L789.985 177.468ZM794.739 185.301C793.085 186.055 791.502 186.823 790 187.603L791.382 190.265C792.834 189.511 794.371 188.766 795.984 188.03L794.739 185.301ZM785.991 181.66C787.855 180.465 789.878 179.294 792.041 178.148L790.637 175.497C788.411 176.676 786.316 177.888 784.372 179.134L785.991 181.66ZM231.786 369.26C231.78 369.26 231.732 369.255 231.66 369.225C231.584 369.194 231.496 369.14 231.414 369.059L233.534 366.935C233.088 366.491 232.538 366.315 232.053 366.272L231.786 369.26ZM767.746 146.716C778.161 157.114 785.269 167.58 789.985 177.468L792.693 176.177C787.824 165.968 780.514 155.223 769.865 144.593L767.746 146.716ZM793.942 187.151C800.264 205.651 798.574 221.128 795.734 228.786L798.546 229.829C801.648 221.466 803.305 205.274 796.781 186.181L793.942 187.151ZM220.868 324.068C219.969 330.777 219.478 340.5 220.679 349.245C221.28 353.617 222.313 357.818 223.978 361.295C225.643 364.772 228 367.644 231.303 369.134L232.536 366.399C230.097 365.299 228.166 363.095 226.684 360C225.202 356.905 224.229 353.038 223.651 348.837C222.498 340.437 222.966 330.999 223.841 324.466L220.868 324.068ZM795.984 188.03C812.967 180.285 838.16 173.703 862.407 168.72L861.803 165.781C837.521 170.772 812.047 177.407 794.739 185.301L795.984 188.03ZM863.555 166.867C862.545 163.044 861.387 158.959 860.063 154.608L857.193 155.481C858.506 159.798 859.654 163.847 860.655 167.634L863.555 166.867ZM858.308 153.579C833.667 158.955 808.003 166.299 790.637 175.497L792.041 178.148C809.027 169.152 834.355 161.875 858.948 156.51L858.308 153.579ZM913.616 144.165C899.571 145.839 879.258 149.008 858.308 153.579L858.948 156.51C879.797 151.961 900.015 148.808 913.971 147.144L913.616 144.165ZM913.417 157.107C900.075 158.816 881.283 161.777 861.803 165.781L862.407 168.72C881.809 164.732 900.526 161.783 913.799 160.082L913.417 157.107ZM848.355 129.43C851.909 139.008 854.82 147.681 857.193 155.481L860.063 154.608C857.672 146.747 854.741 138.017 851.167 128.387L848.355 129.43ZM860.655 167.634C863.769 179.416 865.453 188.648 866.246 195.487C867.043 202.369 866.923 206.724 866.505 208.809L869.447 209.398C869.959 206.841 870.032 202.107 869.226 195.142C868.414 188.134 866.698 178.76 863.555 166.867L860.655 167.634Z" fill="#FAFAFA"/>
<ellipse cx="811.303" cy="148.493" rx="10.1195" ry="10.102" fill="url(#paint3_linear_172_142)"/>
<defs>
<filter id="filter0_bf_172_142" x="0.5" y="0.5" width="1015" height="597" filterUnits="userSpaceOnUse" color-interpolation-filters="sRGB">
<feFlood flood-opacity="0" result="BackgroundImageFix"/>
<feGaussianBlur in="BackgroundImageFix" stdDeviation="50"/>
<feComposite in2="SourceAlpha" operator="in" result="effect1_backgroundBlur_172_142"/>
<feBlend mode="normal" in="SourceGraphic" in2="effect1_backgroundBlur_172_142" result="shape"/>
<feGaussianBlur stdDeviation="50" result="effect2_foregroundBlur_172_142"/>
</filter>
<linearGradient id="paint0_linear_172_142" x1="896.374" y1="121" x2="149.438" y2="419.891" gradientUnits="userSpaceOnUse">
<stop stop-color="#FAFAFA"/>
<stop offset="1" stop-color="#070707"/>
</linearGradient>
<linearGradient id="paint1_linear_172_142" x1="811.303" y1="138.391" x2="811.303" y2="158.595" gradientUnits="userSpaceOnUse">
<stop stop-color="#3A3A3A"/>
<stop offset="1"/>
</linearGradient>
<linearGradient id="paint2_linear_172_142" x1="896.374" y1="121" x2="149.438" y2="419.891" gradientUnits="userSpaceOnUse">
<stop stop-color="#FAFAFA"/>
<stop offset="1" stop-color="#070707"/>
</linearGradient>
<linearGradient id="paint3_linear_172_142" x1="811.303" y1="138.391" x2="811.303" y2="158.595" gradientUnits="userSpaceOnUse">
<stop stop-color="#3A3A3A"/>
<stop offset="1"/>
</linearGradient>
</defs>
</svg>
