<svg width="706" height="628" viewBox="0 0 706 628" fill="none" xmlns="http://www.w3.org/2000/svg">
<g filter="url(#filter0_bf_172_713)">
<path d="M204.276 272.486C188.684 279.97 185.566 281.84 176.761 281.84C175.45 281.84 174.226 282.147 173.092 282.712C165.755 273.69 150.53 255.086 148.329 252.84C146.128 250.595 141.909 251.905 140.074 252.84L167.147 289.324C166.294 291.009 165.577 292.906 165.003 294.937C163.378 300.691 162.901 307.52 163.723 313.646C164.133 316.701 164.866 319.58 165.941 322.066L144.66 350.13C146.189 352.001 149.796 355.182 151.998 352.937C154.199 350.691 165.755 335.971 171.258 328.891C172.84 329.912 174.671 330.485 176.761 330.485C181.041 331.421 196.572 336.66 202.442 342.647C202.621 342.771 202.802 342.895 202.987 343.018C205.437 344.648 208.36 346.123 211.613 347.452C212.531 362.065 216.199 391.291 223.537 391.291C230.874 391.291 224.759 364.164 220.785 350.601C223.159 351.291 225.617 351.924 228.122 352.504C234.543 366.369 248.85 392.601 254.72 386.614C260.59 380.627 245.549 362.621 237.294 354.366C243.044 355.384 248.806 356.146 254.164 356.679C259.241 364.786 271.229 381.001 278.567 381.001C285.904 381.001 271.229 365.253 262.975 357.379C272.528 357.937 279.468 357.63 280.401 356.679C298.438 361.98 324.425 366.969 334.514 356.679C344.694 358.01 359.554 357.068 367.107 349.195C377.643 347.012 388.626 344.517 397.798 333.291C402.715 331.536 409.147 329.485 416.141 327.679C421.167 326.381 426.482 325.197 431.733 324.307C437.125 323.393 442.45 322.788 447.325 322.688C451.378 322.604 455.12 322.869 458.331 323.593C461.792 324.374 464.635 325.689 466.586 327.679C468.161 326.741 469.522 325.873 470.672 325.047C472.124 324.004 473.239 323.028 474.025 322.066C474.456 321.539 474.787 321.016 475.021 320.488C475.333 319.782 475.471 319.068 475.437 318.324C475.41 317.723 475.27 317.103 475.021 316.453C474.47 315.019 473.384 313.437 471.774 311.587C471.063 310.77 470.251 309.901 469.337 308.969C465.995 310.592 462.285 311.502 458.331 311.854C454.825 312.167 451.127 312.042 447.325 311.587C442.246 310.98 436.979 309.786 431.733 308.264C426.492 306.744 421.271 304.897 416.277 302.983C416.232 302.965 416.187 302.947 416.141 302.931C409.827 300.507 403.879 297.979 398.715 295.872C395.964 287.453 380.206 280.281 370.951 278.098C365.008 269.557 349.468 266.605 340.017 266.873C336.63 255.647 300.546 260.619 280.811 265.443C280.677 265.291 280.54 265.144 280.401 265.002C278.451 263.013 275.615 261.711 272.146 260.952C281.318 257.625 298.194 249.473 292.324 243.486C286.454 237.499 265.42 252.308 255.637 260.461C250.955 260.887 245.98 261.665 240.963 262.653C247.077 253.769 257.839 236.002 251.969 236.002C246.099 236.002 234.848 255.407 229.957 265.109C225.498 266.209 221.156 267.395 217.116 268.564C222.314 255.527 230.69 229.453 222.619 229.453C214.548 229.453 209.473 257.369 207.945 271.326C206.654 271.729 205.428 272.118 204.276 272.486Z" fill="url(#paint0_linear_172_713)"/>
<path d="M204.276 272.486C188.684 279.97 185.566 281.84 176.761 281.84C175.45 281.84 174.226 282.147 173.092 282.712M204.276 272.486C224.454 293.066 220.785 324.873 202.442 343.582M204.276 272.486C205.428 272.118 206.654 271.729 207.945 271.326M280.401 356.679C283.126 353.899 294.85 281.365 280.811 265.443M280.401 356.679C298.438 361.98 324.425 366.969 334.514 356.679M280.401 356.679C279.468 357.63 272.528 357.937 262.975 357.379M280.811 265.443C280.677 265.291 280.54 265.144 280.401 265.002C278.451 263.013 275.615 261.711 272.146 260.952M280.811 265.443C300.546 260.619 336.63 255.647 340.017 266.873M340.017 266.873C349.189 297.278 341.117 349.944 334.514 356.679M340.017 266.873C349.468 266.605 365.008 269.557 370.951 278.098M334.514 356.679C344.694 358.01 359.554 357.068 367.107 349.195M370.951 278.098C371.928 279.503 372.646 281.058 373.035 282.776C376.844 299.614 376.99 337.677 370.283 344.517C369.479 346.295 368.4 347.846 367.107 349.195M370.951 278.098C380.206 280.281 395.964 287.453 398.715 295.872M398.715 295.872C401.161 303.356 400.733 330.298 397.798 333.291M398.715 295.872C403.879 297.979 409.827 300.507 416.141 302.931M367.107 349.195C377.643 347.012 388.626 344.517 397.798 333.291M397.798 333.291C402.715 331.536 409.147 329.485 416.141 327.679M469.337 308.969C465.995 310.592 462.285 311.502 458.331 311.854M469.337 308.969C477.592 294.313 497.953 265.002 513.361 265.002M469.337 308.969C470.251 309.901 471.063 310.77 471.774 311.587M466.586 327.679C464.635 325.689 461.792 324.374 458.331 323.593M466.586 327.679C473.006 344.517 488.598 378.194 499.604 378.194M466.586 327.679C468.161 326.741 469.522 325.873 470.672 325.047M416.141 302.931C423.479 305.621 423.136 325.872 416.141 327.679M416.141 302.931C421.177 304.863 426.445 306.73 431.733 308.264M416.141 327.679C421.167 326.381 426.482 325.197 431.733 324.307M431.733 308.264C437.01 313.646 435.845 320.113 431.733 324.307M431.733 308.264C436.979 309.786 442.246 310.98 447.325 311.587M431.733 324.307C437.125 323.393 442.45 322.788 447.325 322.688M447.325 311.587C453.745 314.582 454.662 320.195 447.325 322.688M447.325 311.587C451.127 312.042 454.825 312.167 458.331 311.854M447.325 322.688C451.378 322.604 455.12 322.869 458.331 323.593M458.331 311.854C462.917 316.453 462.734 319.103 458.331 323.593M471.774 311.587C490.528 296.059 531.338 265.002 544.545 265.002M471.774 311.587C473.384 313.437 474.47 315.019 475.021 316.453M470.672 325.047C478.787 343.386 504.923 380.065 544.545 380.065M470.672 325.047C472.124 324.004 473.239 323.028 474.025 322.066M475.021 316.453C507.367 307.722 581.048 290.26 617.001 290.26M475.021 316.453C475.27 317.103 475.41 317.723 475.437 318.324M474.025 322.066C502.729 337.345 570.042 367.904 609.664 367.904M474.025 322.066C474.456 321.539 474.787 321.016 475.021 320.488M475.437 318.324C491.747 315.206 526.201 310.84 533.539 318.324M475.437 318.324C475.471 319.068 475.333 319.782 475.021 320.488M475.021 320.488C490.858 325.749 524.734 334.028 533.539 325.047M140.074 252.84L167.147 289.324M140.074 252.84C141.909 251.905 146.128 250.595 148.329 252.84C150.53 255.086 165.755 273.69 173.092 282.712M140.074 252.84C111.031 221.034 80.7351 214.176 122.558 171.518C164.381 128.86 178.901 120.645 173.092 101M167.147 289.324C168.693 286.269 170.688 283.91 173.092 282.712M167.147 289.324C166.294 291.009 165.577 292.906 165.003 294.937M165.941 322.066L144.66 350.13M165.941 322.066C167.219 325.023 168.981 327.421 171.258 328.891M165.941 322.066C164.866 319.58 164.133 316.701 163.723 313.646M144.66 350.13C146.189 352.001 149.796 355.182 151.998 352.937C154.199 350.691 165.755 335.971 171.258 328.891M144.66 350.13C133.96 363.85 102.278 388.183 102.278 432.338C102.278 487.531 202.442 479.682 202.442 509.618M171.258 328.891C172.84 329.912 174.671 330.485 176.761 330.485C181.041 331.421 196.572 336.66 202.442 342.647C204.998 344.425 208.115 346.023 211.613 347.451M207.945 271.326C209.473 257.369 214.548 229.453 222.619 229.453M207.945 271.326C210.735 270.455 213.826 269.515 217.116 268.564M222.619 229.453C230.69 229.453 222.314 255.527 217.116 268.564M222.619 229.453C231.485 211.991 256.188 169.957 284.07 141.519M217.116 268.564C221.156 267.395 225.498 266.209 229.957 265.109M229.957 265.109C234.848 255.407 246.099 236.002 251.969 236.002M229.957 265.109C233.581 264.215 237.283 263.378 240.963 262.653M251.969 236.002C257.839 236.002 247.077 253.769 240.963 262.653M251.969 236.002C262.363 217.292 290.673 179.873 320.756 179.873M251.969 236.002C259.612 228.83 280.217 214.486 301.496 214.486M240.963 262.653C245.98 261.665 250.955 260.887 255.637 260.461M255.637 260.461C265.42 252.308 286.454 237.499 292.324 243.486M255.637 260.461C261.855 259.894 267.555 259.947 272.146 260.952M292.324 243.486C298.194 249.473 281.318 257.625 272.146 260.952M292.324 243.486C301.19 235.066 324.975 218.228 349.188 218.228M292.324 243.486C338.289 234.24 434.741 220.36 452.828 238.808M211.613 347.451C212.531 362.065 216.199 391.291 223.537 391.291M211.613 347.451C214.451 348.61 217.539 349.658 220.785 350.601M223.537 391.291C230.874 391.291 224.759 364.164 220.785 350.601M223.537 391.291C234.237 421.85 264.075 491.574 297.827 526M220.785 350.601C223.159 351.291 225.617 351.924 228.122 352.504M228.122 352.504C234.543 366.369 248.85 392.601 254.72 386.614M228.122 352.504C231.133 353.201 234.212 353.82 237.294 354.366M254.72 386.614C260.59 380.627 245.549 362.621 237.294 354.366M254.72 386.614C263.586 399.087 287.188 430.02 310.667 453.968M254.72 386.614C263.586 396.904 282.419 417.485 286.821 417.485M237.294 354.366C243.044 355.384 248.806 356.146 254.164 356.679M254.164 356.679C259.241 364.786 271.229 381.001 278.567 381.001M254.164 356.679C257.263 356.987 260.227 357.219 262.975 357.379M278.567 381.001C285.904 381.001 271.229 365.253 262.975 357.379M278.567 381.001C288.044 389.42 309.75 406.259 320.756 406.259M278.567 381.001C318.616 392.226 404.402 408.878 427.147 385.678M165.003 294.937C163.378 300.691 162.901 307.52 163.723 313.646M165.003 294.937C185.933 294.001 189.601 318.324 163.723 313.646" stroke="url(#paint1_linear_172_713)" stroke-width="3"/>
</g>
<path d="M204.276 272.486C188.684 279.97 185.566 281.84 176.761 281.84C175.45 281.84 174.226 282.147 173.092 282.712C165.755 273.69 150.53 255.086 148.329 252.84C146.128 250.595 141.909 251.905 140.074 252.84L167.147 289.324C166.294 291.009 165.577 292.906 165.003 294.937C163.378 300.691 162.901 307.52 163.723 313.646C164.133 316.701 164.866 319.58 165.941 322.066L144.66 350.13C146.189 352.001 149.796 355.182 151.998 352.937C154.199 350.691 165.755 335.971 171.258 328.891C172.84 329.912 174.671 330.485 176.761 330.485C181.041 331.421 196.572 336.66 202.442 342.647C202.621 342.771 202.802 342.895 202.987 343.018C205.437 344.648 208.36 346.123 211.613 347.452C212.531 362.065 216.199 391.291 223.537 391.291C230.874 391.291 224.759 364.164 220.785 350.601C223.159 351.291 225.617 351.924 228.122 352.504C234.543 366.369 248.85 392.601 254.72 386.614C260.59 380.627 245.549 362.621 237.294 354.366C243.044 355.384 248.806 356.146 254.164 356.679C259.241 364.786 271.229 381.001 278.567 381.001C285.904 381.001 271.229 365.253 262.975 357.379C272.528 357.937 279.468 357.63 280.401 356.679C298.438 361.98 324.425 366.969 334.514 356.679C344.694 358.01 359.554 357.068 367.107 349.195C377.643 347.012 388.626 344.517 397.798 333.291C402.715 331.536 409.147 329.485 416.141 327.679C421.167 326.381 426.482 325.197 431.733 324.307C437.125 323.393 442.45 322.788 447.325 322.688C451.378 322.604 455.12 322.869 458.331 323.593C461.792 324.374 464.635 325.689 466.586 327.679C468.161 326.741 469.522 325.873 470.672 325.047C472.124 324.004 473.239 323.028 474.025 322.066C474.456 321.539 474.787 321.016 475.021 320.488C475.333 319.782 475.471 319.068 475.437 318.324C475.41 317.723 475.27 317.103 475.021 316.453C474.47 315.019 473.384 313.437 471.774 311.587C471.063 310.77 470.251 309.901 469.337 308.969C465.995 310.592 462.285 311.502 458.331 311.854C454.825 312.167 451.127 312.042 447.325 311.587C442.246 310.98 436.979 309.786 431.733 308.264C426.492 306.744 421.271 304.897 416.277 302.983C416.232 302.965 416.187 302.947 416.141 302.931C409.827 300.507 403.879 297.979 398.715 295.872C395.964 287.453 380.206 280.281 370.951 278.098C365.008 269.557 349.468 266.605 340.017 266.873C336.63 255.647 300.546 260.619 280.811 265.443C280.677 265.291 280.54 265.144 280.401 265.002C278.451 263.013 275.615 261.711 272.146 260.952C281.318 257.625 298.194 249.473 292.324 243.486C286.454 237.499 265.42 252.308 255.637 260.461C250.955 260.887 245.98 261.665 240.963 262.653C247.077 253.769 257.839 236.002 251.969 236.002C246.099 236.002 234.848 255.407 229.957 265.109C225.498 266.209 221.156 267.395 217.116 268.564C222.314 255.527 230.69 229.453 222.619 229.453C214.548 229.453 209.473 257.369 207.945 271.326C206.654 271.729 205.428 272.118 204.276 272.486Z" fill="url(#paint2_linear_172_713)"/>
<path d="M204.276 272.486C188.684 279.97 185.566 281.84 176.761 281.84C175.45 281.84 174.226 282.147 173.092 282.712M204.276 272.486C224.454 293.066 220.785 324.873 202.442 343.582M204.276 272.486C205.428 272.118 206.654 271.729 207.945 271.326M280.401 356.679C283.126 353.899 294.85 281.365 280.811 265.443M280.401 356.679C298.438 361.98 324.425 366.969 334.514 356.679M280.401 356.679C279.468 357.63 272.528 357.937 262.975 357.379M280.811 265.443C280.677 265.291 280.54 265.144 280.401 265.002C278.451 263.013 275.615 261.711 272.146 260.952M280.811 265.443C300.546 260.619 336.63 255.647 340.017 266.873M340.017 266.873C349.189 297.278 341.117 349.944 334.514 356.679M340.017 266.873C349.468 266.605 365.008 269.557 370.951 278.098M334.514 356.679C344.694 358.01 359.554 357.068 367.107 349.195M370.951 278.098C371.928 279.503 372.646 281.058 373.035 282.776C376.844 299.614 376.99 337.677 370.283 344.517C369.479 346.295 368.4 347.846 367.107 349.195M370.951 278.098C380.206 280.281 395.964 287.453 398.715 295.872M398.715 295.872C401.161 303.356 400.733 330.298 397.798 333.291M398.715 295.872C403.879 297.979 409.827 300.507 416.141 302.931M367.107 349.195C377.643 347.012 388.626 344.517 397.798 333.291M397.798 333.291C402.715 331.536 409.147 329.485 416.141 327.679M469.337 308.969C465.995 310.592 462.285 311.502 458.331 311.854M469.337 308.969C477.592 294.313 497.953 265.002 513.361 265.002M469.337 308.969C470.251 309.901 471.063 310.77 471.774 311.587M466.586 327.679C464.635 325.689 461.792 324.374 458.331 323.593M466.586 327.679C473.006 344.517 488.598 378.194 499.604 378.194M466.586 327.679C468.161 326.741 469.522 325.873 470.672 325.047M416.141 302.931C423.479 305.621 423.136 325.872 416.141 327.679M416.141 302.931C421.177 304.863 426.445 306.73 431.733 308.264M416.141 327.679C421.167 326.381 426.482 325.197 431.733 324.307M431.733 308.264C437.01 313.646 435.845 320.113 431.733 324.307M431.733 308.264C436.979 309.786 442.246 310.98 447.325 311.587M431.733 324.307C437.125 323.393 442.45 322.788 447.325 322.688M447.325 311.587C453.745 314.582 454.662 320.195 447.325 322.688M447.325 311.587C451.127 312.042 454.825 312.167 458.331 311.854M447.325 322.688C451.378 322.604 455.12 322.869 458.331 323.593M458.331 311.854C462.917 316.453 462.734 319.103 458.331 323.593M471.774 311.587C490.528 296.059 531.338 265.002 544.545 265.002M471.774 311.587C473.384 313.437 474.47 315.019 475.021 316.453M470.672 325.047C478.787 343.386 504.923 380.065 544.545 380.065M470.672 325.047C472.124 324.004 473.239 323.028 474.025 322.066M475.021 316.453C507.367 307.722 581.048 290.26 617.001 290.26M475.021 316.453C475.27 317.103 475.41 317.723 475.437 318.324M474.025 322.066C502.729 337.345 570.042 367.904 609.664 367.904M474.025 322.066C474.456 321.539 474.787 321.016 475.021 320.488M475.437 318.324C491.747 315.206 526.201 310.84 533.539 318.324M475.437 318.324C475.471 319.068 475.333 319.782 475.021 320.488M475.021 320.488C490.858 325.749 524.734 334.028 533.539 325.047M140.074 252.84L167.147 289.324M140.074 252.84C141.909 251.905 146.128 250.595 148.329 252.84C150.53 255.086 165.755 273.69 173.092 282.712M140.074 252.84C111.031 221.034 80.7351 214.176 122.558 171.518C164.381 128.86 178.901 120.645 173.092 101M167.147 289.324C168.693 286.269 170.688 283.91 173.092 282.712M167.147 289.324C166.294 291.009 165.577 292.906 165.003 294.937M165.941 322.066L144.66 350.13M165.941 322.066C167.219 325.023 168.981 327.421 171.258 328.891M165.941 322.066C164.866 319.58 164.133 316.701 163.723 313.646M144.66 350.13C146.189 352.001 149.796 355.182 151.998 352.937C154.199 350.691 165.755 335.971 171.258 328.891M144.66 350.13C133.96 363.85 102.278 388.183 102.278 432.338C102.278 487.531 202.442 479.682 202.442 509.618M171.258 328.891C172.84 329.912 174.671 330.485 176.761 330.485C181.041 331.421 196.572 336.66 202.442 342.647C204.998 344.425 208.115 346.023 211.613 347.451M207.945 271.326C209.473 257.369 214.548 229.453 222.619 229.453M207.945 271.326C210.735 270.455 213.826 269.515 217.116 268.564M222.619 229.453C230.69 229.453 222.314 255.527 217.116 268.564M222.619 229.453C231.485 211.991 256.188 169.957 284.07 141.519M217.116 268.564C221.156 267.395 225.498 266.209 229.957 265.109M229.957 265.109C234.848 255.407 246.099 236.002 251.969 236.002M229.957 265.109C233.581 264.215 237.283 263.378 240.963 262.653M251.969 236.002C257.839 236.002 247.077 253.769 240.963 262.653M251.969 236.002C262.363 217.292 290.673 179.873 320.756 179.873M251.969 236.002C259.612 228.83 280.217 214.486 301.496 214.486M240.963 262.653C245.98 261.665 250.955 260.887 255.637 260.461M255.637 260.461C265.42 252.308 286.454 237.499 292.324 243.486M255.637 260.461C261.855 259.894 267.555 259.947 272.146 260.952M292.324 243.486C298.194 249.473 281.318 257.625 272.146 260.952M292.324 243.486C301.19 235.066 324.975 218.228 349.188 218.228M292.324 243.486C338.289 234.24 434.741 220.36 452.828 238.808M211.613 347.451C212.531 362.065 216.199 391.291 223.537 391.291M211.613 347.451C214.451 348.61 217.539 349.658 220.785 350.601M223.537 391.291C230.874 391.291 224.759 364.164 220.785 350.601M223.537 391.291C234.237 421.85 264.075 491.574 297.827 526M220.785 350.601C223.159 351.291 225.617 351.924 228.122 352.504M228.122 352.504C234.543 366.369 248.85 392.601 254.72 386.614M228.122 352.504C231.133 353.201 234.212 353.82 237.294 354.366M254.72 386.614C260.59 380.627 245.549 362.621 237.294 354.366M254.72 386.614C263.586 399.087 287.188 430.02 310.667 453.968M254.72 386.614C263.586 396.904 282.419 417.485 286.821 417.485M237.294 354.366C243.044 355.384 248.806 356.146 254.164 356.679M254.164 356.679C259.241 364.786 271.229 381.001 278.567 381.001M254.164 356.679C257.263 356.987 260.227 357.219 262.975 357.379M278.567 381.001C285.904 381.001 271.229 365.253 262.975 357.379M278.567 381.001C288.044 389.42 309.75 406.259 320.756 406.259M278.567 381.001C318.616 392.226 404.402 408.878 427.147 385.678M165.003 294.937C163.378 300.691 162.901 307.52 163.723 313.646M165.003 294.937C185.933 294.001 189.601 318.324 163.723 313.646" stroke="url(#paint3_linear_172_713)" stroke-width="3"/>
<defs>
<filter id="filter0_bf_172_713" x="0.5" y="0.574677" width="716.5" height="626.475" filterUnits="userSpaceOnUse" color-interpolation-filters="sRGB">
<feFlood flood-opacity="0" result="BackgroundImageFix"/>
<feGaussianBlur in="BackgroundImageFix" stdDeviation="50"/>
<feComposite in2="SourceAlpha" operator="in" result="effect1_backgroundBlur_172_713"/>
<feBlend mode="normal" in="SourceGraphic" in2="effect1_backgroundBlur_172_713" result="shape"/>
<feGaussianBlur stdDeviation="50" result="effect2_foregroundBlur_172_713"/>
</filter>
<linearGradient id="paint0_linear_172_713" x1="165.737" y1="303.86" x2="300.936" y2="307.722" gradientUnits="userSpaceOnUse">
<stop stop-color="#FAFAFA"/>
<stop offset="0.996016" stop-color="#070707"/>
</linearGradient>
<linearGradient id="paint1_linear_172_713" x1="102" y1="313.5" x2="617.001" y2="313.5" gradientUnits="userSpaceOnUse">
<stop stop-color="#FAFAFA"/>
<stop offset="1" stop-color="#F8F8F8"/>
</linearGradient>
<linearGradient id="paint2_linear_172_713" x1="165.737" y1="303.86" x2="359.157" y2="303.86" gradientUnits="userSpaceOnUse">
<stop stop-color="#FAFAFA"/>
<stop offset="0.996016" stop-color="#070707"/>
</linearGradient>
<linearGradient id="paint3_linear_172_713" x1="102" y1="313.5" x2="617.001" y2="313.5" gradientUnits="userSpaceOnUse">
<stop stop-color="#FAFAFA"/>
<stop offset="1" stop-color="#F8F8F8"/>
</linearGradient>
</defs>
</svg>
