<svg width="83" height="82" viewBox="0 0 83 82" fill="none" xmlns="http://www.w3.org/2000/svg">
<path fill-rule="evenodd" clip-rule="evenodd" d="M42.1792 24.3013L41.5 0L40.8208 24.3013C40.7319 27.4834 39.7444 30.4386 38.1027 32.9225C35.1895 32.323 32.4072 30.9432 30.0966 28.7831L12.1535 12.0089L29.1323 29.7357C31.3241 32.0241 32.7222 34.7808 33.3266 37.6665C30.8591 39.2735 27.934 40.238 24.7876 40.3238L0 41L24.7876 41.6762C27.934 41.762 30.8592 42.7265 33.3267 44.3335C32.7223 47.2195 31.3242 49.9763 29.1323 52.2648L12.1535 69.9916L30.0966 53.2174C32.4073 51.0572 35.1897 49.6774 38.103 49.078C39.7445 51.5618 40.7319 54.5168 40.8208 57.6987L41.5 82L42.1792 57.6987C42.2681 54.517 43.2554 51.5622 44.8966 49.0785C47.809 49.6783 50.5904 51.0579 52.9004 53.2174L70.8434 69.9916L53.8646 52.2648C51.6731 49.9767 50.2751 47.2206 49.6706 44.3353C52.1387 42.7272 55.0648 41.7621 58.2124 41.6762L83 41L58.2124 40.3238C55.0649 40.2379 52.1388 39.2728 49.6707 37.6648C50.2753 34.7796 51.6733 32.0236 53.8646 29.7357L70.8434 12.0089L52.9003 28.7831C50.5904 30.9425 47.8091 32.3221 44.8969 32.9219C43.2555 30.4381 42.2681 27.4832 42.1792 24.3013Z" fill="#FAFAFA"/>
</svg>
