<svg width="83" height="82" viewBox="0 0 83 82" fill="none" xmlns="http://www.w3.org/2000/svg">
<path fill-rule="evenodd" clip-rule="evenodd" d="M42.1792 24.3013L41.5 0L40.8208 24.3013C40.7319 27.4833 39.7444 30.4384 38.1029 32.9222C35.1896 32.3228 32.4072 30.943 30.0966 28.7828L12.1535 12.0086L29.1323 29.7355C31.3242 32.0239 32.7223 34.7806 33.3266 37.6665C30.8591 39.2735 27.934 40.238 24.7876 40.3238L0 41L24.7876 41.6762C27.934 41.762 30.8591 42.7265 33.3266 44.3335C32.7223 47.2194 31.3241 49.9761 29.1323 52.2645L12.1535 69.9914L30.0966 53.2172C32.4072 51.057 35.1896 49.6772 38.1029 49.0778C39.7444 51.5616 40.7319 54.5167 40.8208 57.6987L41.5 82L42.1792 57.6987C42.2681 54.5169 43.2554 51.5621 44.8968 49.0783C47.809 49.6781 50.5904 51.0577 52.9004 53.2172L70.8434 69.9914L53.8646 52.2645C51.6732 49.9766 50.2752 47.2205 49.6706 44.3353C52.1387 42.7272 55.0648 41.7621 58.2124 41.6762L83 41L58.2124 40.3238C55.0648 40.2379 52.1387 39.2728 49.6706 37.6647C50.2752 34.7795 51.6732 32.0234 53.8646 29.7355L70.8434 12.0086L52.9003 28.7828C50.5904 30.9423 47.809 32.3219 44.8968 32.9217C43.2554 30.438 42.2681 27.4831 42.1792 24.3013Z" fill="#FAFAFA"/>
</svg>
