<svg width="283" height="248" viewBox="0 0 283 248" fill="none" xmlns="http://www.w3.org/2000/svg">
<path d="M-17.9024 143.241C-83.183 143.994 -52.628 127.136 -29.1904 118.612C-14.5542 115.539 19.3582 110.573 37.6399 109.13C74.115 106.251 125.063 96.1999 124.317 31.5611C123.72 -20.1499 67.7598 4.24574 39.8543 22.9075C6.92595 44.9282 -19.6782 100.621 -54.1522 101.019C-97.2447 101.516 -69.9682 41.5976 -90.7563 28.0827C-111.544 14.5678 -154.389 29.0781 -135.153 74.4442C-123.546 101.82 -91.0788 119.326 -115.548 144.367L-137.341 176.086C-199.313 262.423 4.90512 262.236 -36.4257 219.854C-97.1471 159.168 -94.1397 132.199 -24.0614 165.778C25.7311 189.636 97.483 209.317 157.058 206.786C204.718 204.761 249.593 173.318 265.604 156.933C320.343 100.915 230.433 89.0235 203.698 116.383C189.197 131.222 175.317 120.379 186.103 101.456C195.047 85.7639 259.283 85.9397 258.775 41.9303C258.267 -2.07904 229.19 -18.7077 150.797 61.5161C72.4032 141.74 63.6984 142.299 -17.9024 143.241Z" fill="#D7FF00"/>
</svg>
