<svg width="86" height="98" viewBox="0 0 86 98" fill="none" xmlns="http://www.w3.org/2000/svg">
<path d="M15.3631 22.4097C35.1916 22.4097 27.0799 36.4753 18.067 36.4753C-1.76153 36.4753 4.54742 53.1633 13.7857 53.1633C37.9405 53.1633 34.9662 66.3548 30.4597 72.9506C13.1548 91.2597 44.8805 118.723 44.8805 72.9506C44.8805 50.0641 55.0201 57.2161 55.0201 66.9905C55.0201 78.4338 64.4837 75.3346 77.1019 61.9841C89.7201 48.6337 66.9623 46.4881 59.9773 44.8193C53.8231 43.349 36.9942 31.7073 61.3292 31.7073C85.6643 31.7073 90.1707 20.264 82.735 12.3968C76.7865 6.10305 63.8829 12.1584 58.1747 15.9728C45.932 20.7408 24.1507 27.4161 34.9662 15.9728C45.7818 4.52961 37.52 0.556268 32.0371 0C-4.46548 0 -9.42263 22.4097 15.3631 22.4097Z" fill="#D7FF00"/>
</svg>
