<svg width="170" height="164" viewBox="0 0 170 164" fill="none" xmlns="http://www.w3.org/2000/svg">
<path d="M27.5471 13.5723C19.5791 21.4896 34.8511 34.7792 43.4832 40.4344C59.704 51.0613 35.2308 48.069 19.01 48.069C-14.5695 48.069 3.92787 76.6276 17.018 71.2552C25.5732 67.744 59.7038 62.4897 30.1083 91.8966C0.512793 121.303 57.1426 130.917 57.1426 109.993C57.1426 89.069 75.6398 85.6759 75.6398 109.993C75.6398 134.31 61.6958 164 99.5439 164C137.392 164 96.9827 107.731 96.9827 96.7034C96.9827 85.6759 102.105 60.7931 125.44 83.9793C148.775 107.166 162.15 78.3241 143.653 69.8414C128.855 63.0552 128.381 51.3678 129.993 46.3724C129.993 29.4069 164.142 40.4344 169.833 23.7517C172.391 16.2536 145.075 1.13103 118.895 27.1448C97.9503 47.9559 93.6627 38.8322 94.137 31.669C97.3622 21.1126 101.081 0 90.153 0C76.4935 0 68.5255 25.731 61.6958 18.9448C54.8661 12.1585 37.5071 3.67579 27.5471 13.5723Z" fill="#D7FF00"/>
</svg>
