<svg width="316" height="310" viewBox="0 0 316 310" fill="none" xmlns="http://www.w3.org/2000/svg">
<g filter="url(#filter0_bf_172_251)">
<g filter="url(#filter1_dd_172_251)">
<path d="M132.492 84.1278L113.282 7.00602L156.267 71.6461C176.212 78.0268 195.227 90.5828 218.448 108.725C221.931 111.446 219.007 112.996 217.109 113.43L220.465 168.963L268.137 224.613L207.518 179.552L159.743 192.837L143.679 264.254L146.236 189.186C141.592 185.557 125.508 166.856 118.046 157.96C114.965 158.313 112.892 155.083 112.241 153.424C108.352 123.7 124.121 94.8416 132.492 84.1278Z" fill="url(#paint0_linear_172_251)"/>
<path d="M112.241 153.424C108.352 123.7 124.121 94.8416 132.492 84.1278L113.282 7.00602L156.267 71.6461C176.212 78.0268 195.227 90.5828 218.448 108.725M112.241 153.424C112.892 155.083 114.965 158.313 118.046 157.96M112.241 153.424C138.469 119.854 207.998 100.561 218.448 108.725M218.448 108.725C221.931 111.446 219.007 112.996 217.109 113.43M118.046 157.96C125.508 166.856 141.592 185.557 146.236 189.186L143.679 264.254L159.743 192.837L207.518 179.552L268.137 224.613L220.465 168.963L217.109 113.43M118.046 157.96C144.274 124.389 211.884 109.348 217.109 113.43" stroke="url(#paint1_linear_172_251)"/>
</g>
<path d="M144.643 159.818C146.435 161.218 146.761 163.773 145.395 165.522C144.028 167.271 141.47 167.573 139.678 166.172C137.886 164.772 137.56 162.217 138.926 160.468C140.293 158.719 142.851 158.418 144.643 159.818Z" fill="url(#paint2_linear_172_251)" stroke="url(#paint3_linear_172_251)"/>
<path d="M157.754 165.465C159.947 167.178 160.348 170.307 158.674 172.45C156.999 174.594 153.866 174.961 151.673 173.248C149.481 171.535 149.079 168.406 150.754 166.263C152.429 164.119 155.561 163.752 157.754 165.465Z" fill="url(#paint4_linear_172_251)" stroke="url(#paint5_linear_172_251)"/>
<path d="M159.43 148.367C161.623 150.08 162.024 153.209 160.35 155.352C158.675 157.496 155.542 157.863 153.349 156.15C151.156 154.437 150.755 151.308 152.43 149.165C154.104 147.021 157.237 146.654 159.43 148.367Z" fill="url(#paint6_linear_172_251)" stroke="url(#paint7_linear_172_251)"/>
<path d="M145.594 142.153C147.787 143.866 148.188 146.995 146.514 149.138C144.839 151.281 141.706 151.649 139.513 149.936C137.32 148.223 136.919 145.094 138.594 142.95C140.268 140.807 143.401 140.439 145.594 142.153Z" fill="url(#paint8_linear_172_251)" stroke="url(#paint9_linear_172_251)"/>
<path d="M130.411 155.599C131.802 156.686 132.053 158.667 130.995 160.022C129.937 161.376 127.953 161.612 126.562 160.525C125.171 159.438 124.92 157.456 125.978 156.102C127.036 154.748 129.019 154.512 130.411 155.599Z" fill="url(#paint10_linear_172_251)" stroke="url(#paint11_linear_172_251)"/>
<path d="M170.485 173.107C172.678 174.82 173.079 177.949 171.404 180.092C169.73 182.236 166.597 182.603 164.404 180.89C162.211 179.177 161.81 176.048 163.484 173.905C165.159 171.761 168.292 171.394 170.485 173.107Z" fill="url(#paint12_linear_172_251)" stroke="url(#paint13_linear_172_251)"/>
<path d="M155.698 184.557C157.49 185.958 157.816 188.513 156.45 190.262C155.083 192.01 152.525 192.312 150.733 190.912C148.941 189.512 148.615 186.957 149.981 185.208C151.347 183.459 153.906 183.157 155.698 184.557Z" fill="url(#paint14_linear_172_251)" stroke="url(#paint15_linear_172_251)"/>
<path d="M175.614 142.609C177.807 144.322 178.208 147.451 176.533 149.594C174.859 151.738 171.726 152.105 169.533 150.392C167.34 148.679 166.939 145.55 168.613 143.407C170.288 141.263 173.421 140.896 175.614 142.609Z" fill="url(#paint16_linear_172_251)" stroke="url(#paint17_linear_172_251)"/>
<path d="M186.834 153.675C188.627 155.075 188.953 157.631 187.586 159.379C186.22 161.128 183.662 161.43 181.87 160.03C180.078 158.63 179.751 156.075 181.118 154.326C182.484 152.577 185.042 152.275 186.834 153.675Z" fill="url(#paint18_linear_172_251)" stroke="url(#paint19_linear_172_251)"/>
<path d="M202.067 165.581C203.458 166.668 203.709 168.65 202.651 170.004C201.593 171.359 199.61 171.594 198.218 170.507C196.827 169.42 196.576 167.439 197.634 166.084C198.692 164.73 200.676 164.494 202.067 165.581Z" fill="url(#paint20_linear_172_251)" stroke="url(#paint21_linear_172_251)"/>
<path d="M186.612 171.906C188.404 173.306 188.73 175.862 187.364 177.61C185.997 179.359 183.439 179.661 181.647 178.261C179.855 176.861 179.529 174.306 180.895 172.557C182.262 170.808 184.82 170.506 186.612 171.906Z" fill="url(#paint22_linear_172_251)" stroke="url(#paint23_linear_172_251)"/>
<path d="M204.245 137.372C206.037 138.772 206.363 141.327 204.996 143.076C203.63 144.825 201.072 145.126 199.28 143.726C197.488 142.326 197.162 139.771 198.528 138.022C199.894 136.273 202.452 135.971 204.245 137.372Z" fill="url(#paint24_linear_172_251)" stroke="url(#paint25_linear_172_251)"/>
<path d="M189.68 130.591C191.873 132.305 192.274 135.433 190.6 137.577C188.925 139.72 185.792 140.088 183.599 138.374C181.406 136.661 181.005 133.532 182.68 131.389C184.354 129.246 187.487 128.878 189.68 130.591Z" fill="url(#paint26_linear_172_251)" stroke="url(#paint27_linear_172_251)"/>
<path d="M213.952 151.862C215.744 153.263 216.07 155.818 214.703 157.567C213.337 159.316 210.779 159.617 208.987 158.217C207.195 156.817 206.869 154.262 208.235 152.513C209.601 150.764 212.159 150.462 213.952 151.862Z" fill="url(#paint28_linear_172_251)" stroke="url(#paint29_linear_172_251)"/>
<path d="M131.18 121.699C133.373 123.412 133.774 126.541 132.1 128.684C130.425 130.828 127.292 131.195 125.099 129.482C122.906 127.769 122.505 124.64 124.18 122.497C125.854 120.353 128.987 119.986 131.18 121.699Z" fill="url(#paint30_linear_172_251)" stroke="url(#paint31_linear_172_251)"/>
<path d="M146.696 110.815C148.889 112.529 149.29 115.657 147.615 117.801C145.941 119.944 142.808 120.312 140.615 118.598C138.422 116.885 138.021 113.756 139.695 111.613C141.37 109.47 144.503 109.102 146.696 110.815Z" fill="url(#paint32_linear_172_251)" stroke="url(#paint33_linear_172_251)"/>
<path d="M135.09 101.745C137.283 103.458 137.684 106.587 136.01 108.73C134.335 110.873 131.202 111.241 129.009 109.528C126.816 107.814 126.415 104.686 128.09 102.542C129.764 100.399 132.897 100.031 135.09 101.745Z" fill="url(#paint34_linear_172_251)" stroke="url(#paint35_linear_172_251)"/>
<path d="M147.364 86.0311C149.557 87.7444 149.958 90.8731 148.283 93.0164C146.609 95.1598 143.476 95.5274 141.283 93.8142C139.09 92.1009 138.689 88.9722 140.363 86.8288C142.038 84.6854 145.171 84.3178 147.364 86.0311Z" fill="url(#paint36_linear_172_251)" stroke="url(#paint37_linear_172_251)"/>
<path d="M139.022 74.0665C139.641 75.1532 139.264 76.5124 138.194 77.1068C137.124 77.7013 135.75 77.315 135.131 76.2283C134.511 75.1416 134.888 73.7824 135.958 73.188C137.028 72.5935 138.402 72.9798 139.022 74.0665Z" fill="url(#paint38_linear_172_251)" stroke="url(#paint39_linear_172_251)"/>
<path d="M134.111 56.4245C134.731 57.5112 134.353 58.8704 133.284 59.4648C132.214 60.0593 130.84 59.673 130.22 58.5863C129.601 57.4996 129.978 56.1405 131.048 55.546C132.118 54.9515 133.492 55.3378 134.111 56.4245Z" fill="url(#paint40_linear_172_251)" stroke="url(#paint41_linear_172_251)"/>
<path d="M164.789 99.6372C166.982 101.351 167.383 104.479 165.709 106.623C164.034 108.766 160.901 109.134 158.709 107.42C156.516 105.707 156.115 102.578 157.789 100.435C159.464 98.2916 162.597 97.924 164.789 99.6372Z" fill="url(#paint42_linear_172_251)" stroke="url(#paint43_linear_172_251)"/>
<path d="M165.004 81.4052C167.197 83.1185 167.598 86.2472 165.924 88.3906C164.249 90.534 161.116 90.9016 158.923 89.1883C156.731 87.475 156.329 84.3463 158.004 82.203C159.679 80.0596 162.811 79.692 165.004 81.4052Z" fill="url(#paint44_linear_172_251)" stroke="url(#paint45_linear_172_251)"/>
<path d="M150.604 76.0391C151.223 77.1258 150.846 78.485 149.776 79.0794C148.706 79.6739 147.332 79.2876 146.713 78.2009C146.093 77.1142 146.471 75.755 147.54 75.1606C148.61 74.5661 149.984 74.9524 150.604 76.0391Z" fill="url(#paint46_linear_172_251)" stroke="url(#paint47_linear_172_251)"/>
<path d="M141.471 52.9782C142.091 54.0648 141.713 55.424 140.643 56.0185C139.573 56.6129 138.2 56.2267 137.58 55.14C136.96 54.0533 137.338 52.6941 138.408 52.0996C139.478 51.5052 140.851 51.8915 141.471 52.9782Z" fill="url(#paint48_linear_172_251)" stroke="url(#paint49_linear_172_251)"/>
<path d="M183.535 93.5839C185.728 95.2972 186.13 98.4258 184.455 100.569C182.78 102.713 179.648 103.08 177.455 101.367C175.262 99.6537 174.861 96.525 176.535 94.3816C178.21 92.2382 181.343 91.8706 183.535 93.5839Z" fill="url(#paint50_linear_172_251)" stroke="url(#paint51_linear_172_251)"/>
<path d="M207.75 119.413C209.943 121.126 210.344 124.255 208.67 126.399C206.995 128.542 203.862 128.91 201.67 127.196C199.477 125.483 199.075 122.354 200.75 120.211C202.425 118.068 205.557 117.7 207.75 119.413Z" fill="url(#paint52_linear_172_251)" stroke="url(#paint53_linear_172_251)"/>
<path d="M138.483 62.9912C139.474 63.7652 139.65 65.173 138.9 66.133C138.15 67.0929 136.741 67.2627 135.75 66.4888C134.76 65.7148 134.584 64.307 135.334 63.347C136.084 62.387 137.492 62.2173 138.483 62.9912Z" fill="url(#paint54_linear_172_251)" stroke="url(#paint55_linear_172_251)"/>
<path d="M124.979 29.4309C125.97 30.2049 126.146 31.6127 125.396 32.5727C124.646 33.5326 123.237 33.7024 122.246 32.9285C121.256 32.1545 121.08 30.7467 121.83 29.7867C122.58 28.8267 123.988 28.657 124.979 29.4309Z" fill="url(#paint56_linear_172_251)" stroke="url(#paint57_linear_172_251)"/>
<path d="M232.03 187.093C232.761 187.217 233.255 187.903 233.143 188.62C233.032 189.336 232.355 189.824 231.624 189.7C230.893 189.577 230.4 188.89 230.511 188.174C230.623 187.458 231.299 186.969 232.03 187.093Z" fill="url(#paint58_linear_172_251)" stroke="url(#paint59_linear_172_251)"/>
<path d="M152.065 216.382C152.334 217.072 151.992 217.833 151.312 218.087C150.632 218.341 149.86 217.996 149.591 217.306C149.322 216.617 149.664 215.856 150.344 215.602C151.024 215.348 151.796 215.693 152.065 216.382Z" fill="url(#paint60_linear_172_251)" stroke="url(#paint61_linear_172_251)"/>
<path d="M130.674 43.0813C131.665 43.8553 131.841 45.2631 131.091 46.2231C130.341 47.183 128.932 47.3528 127.942 46.5788C126.951 45.8049 126.775 44.3971 127.525 43.4371C128.275 42.4771 129.684 42.3074 130.674 43.0813Z" fill="url(#paint62_linear_172_251)" stroke="url(#paint63_linear_172_251)"/>
<path d="M225.944 185.911C226.675 186.035 227.169 186.721 227.057 187.438C226.946 188.154 226.269 188.642 225.538 188.518C224.808 188.395 224.314 187.708 224.425 186.992C224.537 186.276 225.213 185.787 225.944 185.911Z" fill="url(#paint64_linear_172_251)" stroke="url(#paint65_linear_172_251)"/>
<path d="M149.952 210.558C150.22 211.248 149.879 212.009 149.199 212.263C148.519 212.517 147.746 212.172 147.478 211.482C147.209 210.793 147.551 210.031 148.231 209.777C148.911 209.523 149.683 209.869 149.952 210.558Z" fill="url(#paint66_linear_172_251)" stroke="url(#paint67_linear_172_251)"/>
<path d="M219.149 176.625C220.54 177.712 220.791 179.694 219.733 181.048C218.675 182.403 216.692 182.638 215.3 181.551C213.909 180.464 213.658 178.483 214.716 177.128C215.774 175.774 217.758 175.538 219.149 176.625Z" fill="url(#paint68_linear_172_251)" stroke="url(#paint69_linear_172_251)"/>
<path d="M154.53 200.171C154.305 201.887 152.721 203.081 150.985 202.829C149.25 202.576 148.033 200.975 148.259 199.259C148.484 197.543 150.068 196.349 151.804 196.602C153.539 196.854 154.756 198.456 154.53 200.171Z" fill="url(#paint70_linear_172_251)" stroke="url(#paint71_linear_172_251)"/>
<path d="M173.938 159.706C176.131 161.419 176.532 164.548 174.857 166.691C173.183 168.835 170.05 169.202 167.857 167.489C165.664 165.776 165.263 162.647 166.938 160.504C168.612 158.36 171.745 157.993 173.938 159.706Z" fill="url(#paint72_linear_172_251)" stroke="url(#paint73_linear_172_251)"/>
</g>
<g filter="url(#filter2_dd_172_251)">
<path d="M132.492 84.1278L113.282 7.00602L156.267 71.6461C176.212 78.0268 195.227 90.5828 218.448 108.725C221.931 111.446 219.007 112.996 217.109 113.43L220.465 168.963L268.137 224.613L207.518 179.552L159.743 192.837L143.679 264.254L146.236 189.186C141.592 185.557 125.508 166.856 118.046 157.96C114.965 158.313 112.892 155.083 112.241 153.424C108.352 123.7 124.121 94.8416 132.492 84.1278Z" fill="url(#paint74_linear_172_251)"/>
<path d="M112.241 153.424C108.352 123.7 124.121 94.8416 132.492 84.1278L113.282 7.00602L156.267 71.6461C176.212 78.0268 195.227 90.5828 218.448 108.725M112.241 153.424C112.892 155.083 114.965 158.313 118.046 157.96M112.241 153.424C138.469 119.854 207.998 100.561 218.448 108.725M218.448 108.725C221.931 111.446 219.007 112.996 217.109 113.43M118.046 157.96C125.508 166.856 141.592 185.557 146.236 189.186L143.679 264.254L159.743 192.837L207.518 179.552L268.137 224.613L220.465 168.963L217.109 113.43M118.046 157.96C144.274 124.389 211.884 109.348 217.109 113.43" stroke="#FAFAFA"/>
</g>
<ellipse cx="142.161" cy="162.995" rx="4.53202" ry="4.60432" transform="rotate(-52 142.161 162.995)" fill="#D7FF00"/>
<ellipse cx="154.714" cy="169.356" rx="5.43842" ry="5.52518" transform="rotate(-52 154.714 169.356)" fill="#D7FF00"/>
<ellipse cx="156.39" cy="152.258" rx="5.43842" ry="5.52518" transform="rotate(-52 156.39 152.258)" fill="#D7FF00"/>
<ellipse cx="142.554" cy="146.044" rx="5.43842" ry="5.52518" transform="rotate(-52 142.554 146.044)" fill="#D7FF00"/>
<ellipse cx="128.486" cy="158.062" rx="3.62562" ry="3.68345" transform="rotate(-52 128.486 158.062)" fill="#D7FF00"/>
<ellipse cx="167.444" cy="176.998" rx="5.43842" ry="5.52518" transform="rotate(-52 167.444 176.998)" fill="#D7FF00"/>
<ellipse cx="153.215" cy="187.735" rx="4.53202" ry="4.60432" transform="rotate(-52 153.215 187.735)" fill="#D7FF00"/>
<ellipse cx="172.573" cy="146.501" rx="5.43842" ry="5.52518" transform="rotate(-52 172.573 146.501)" fill="#D7FF00"/>
<ellipse cx="184.352" cy="156.853" rx="4.53202" ry="4.60432" transform="rotate(-52 184.352 156.853)" fill="#D7FF00"/>
<ellipse cx="200.143" cy="168.044" rx="3.62562" ry="3.68345" transform="rotate(-52 200.143 168.044)" fill="#D7FF00"/>
<ellipse cx="184.129" cy="175.084" rx="4.53202" ry="4.60432" transform="rotate(-52 184.129 175.084)" fill="#D7FF00"/>
<ellipse cx="201.762" cy="140.549" rx="4.53202" ry="4.60432" transform="rotate(-52 201.762 140.549)" fill="#D7FF00"/>
<ellipse cx="186.64" cy="134.483" rx="5.43842" ry="5.52518" transform="rotate(-52 186.64 134.483)" fill="#D7FF00"/>
<ellipse cx="211.469" cy="155.04" rx="4.53202" ry="4.60432" transform="rotate(-52 211.469 155.04)" fill="#D7FF00"/>
<ellipse cx="128.14" cy="125.59" rx="5.43842" ry="5.52518" transform="rotate(-52 128.14 125.59)" fill="#D7FF00"/>
<ellipse cx="143.655" cy="114.707" rx="5.43842" ry="5.52518" transform="rotate(-52 143.655 114.707)" fill="#D7FF00"/>
<ellipse cx="132.05" cy="105.636" rx="5.43842" ry="5.52518" transform="rotate(-52 132.05 105.636)" fill="#D7FF00"/>
<ellipse cx="144.323" cy="89.9226" rx="5.43842" ry="5.52518" transform="rotate(-52 144.323 89.9226)" fill="#D7FF00"/>
<ellipse cx="2.72559" cy="2.75577" rx="2.72559" ry="2.75577" transform="matrix(0.874142 -0.48567 0.495463 0.868629 133.328 74.0774)" fill="#D7FF00"/>
<ellipse cx="2.72559" cy="2.75577" rx="2.72559" ry="2.75577" transform="matrix(0.874142 -0.48567 0.495463 0.868629 128.418 56.4354)" fill="#D7FF00"/>
<ellipse cx="161.749" cy="103.529" rx="5.43842" ry="5.52518" transform="rotate(-52 161.749 103.529)" fill="#D7FF00"/>
<ellipse cx="161.964" cy="85.2968" rx="5.43842" ry="5.52518" transform="rotate(-52 161.964 85.2968)" fill="#D7FF00"/>
<ellipse cx="2.72559" cy="2.75577" rx="2.72559" ry="2.75577" transform="matrix(0.874142 -0.48567 0.495463 0.868629 144.91 76.05)" fill="#D7FF00"/>
<ellipse cx="2.72559" cy="2.75577" rx="2.72559" ry="2.75577" transform="matrix(0.874142 -0.48567 0.495463 0.868629 135.777 52.9891)" fill="#D7FF00"/>
<ellipse cx="180.495" cy="97.4754" rx="5.43842" ry="5.52518" transform="rotate(-52 180.495 97.4754)" fill="#D7FF00"/>
<ellipse cx="204.71" cy="123.305" rx="5.43842" ry="5.52518" transform="rotate(-52 204.71 123.305)" fill="#D7FF00"/>
<ellipse cx="137.117" cy="64.74" rx="2.71921" ry="2.76259" transform="rotate(-52 137.117 64.74)" fill="#D7FF00"/>
<ellipse cx="123.613" cy="31.1797" rx="2.71921" ry="2.76259" transform="rotate(-52 123.613 31.1797)" fill="#D7FF00"/>
<ellipse cx="1.81946" cy="1.8348" rx="1.81946" ry="1.8348" transform="matrix(0.153809 -0.988101 0.985959 0.166989 229.738 189.888)" fill="#D7FF00"/>
<ellipse cx="1.82048" cy="1.83379" rx="1.82048" ry="1.83379" transform="matrix(0.936795 -0.349879 0.362963 0.931804 148.457 215.773)" fill="#D7FF00"/>
<ellipse cx="129.308" cy="44.8301" rx="2.71921" ry="2.76259" transform="rotate(-52 129.308 44.8301)" fill="#D7FF00"/>
<ellipse cx="1.81946" cy="1.8348" rx="1.81946" ry="1.8348" transform="matrix(0.153809 -0.988101 0.985959 0.166989 223.652 188.706)" fill="#D7FF00"/>
<ellipse cx="1.82048" cy="1.83379" rx="1.82048" ry="1.83379" transform="matrix(0.936795 -0.349879 0.362963 0.931804 146.344 209.948)" fill="#D7FF00"/>
<ellipse cx="217.225" cy="179.088" rx="3.62562" ry="3.68345" transform="rotate(-52 217.225 179.088)" fill="#D7FF00"/>
<ellipse cx="3.66898" cy="3.64026" rx="3.66898" ry="3.64026" transform="matrix(0.989582 0.143969 -0.130361 0.991467 148.238 195.578)" fill="#D7FF00"/>
<ellipse cx="170.897" cy="163.597" rx="5.43842" ry="5.52518" transform="rotate(-52 170.897 163.597)" fill="#D7FF00"/>
<defs>
<filter id="filter0_bf_172_251" x="11.5328" y="-92.8709" width="356.583" height="456.835" filterUnits="userSpaceOnUse" color-interpolation-filters="sRGB">
<feFlood flood-opacity="0" result="BackgroundImageFix"/>
<feGaussianBlur in="BackgroundImageFix" stdDeviation="49.8"/>
<feComposite in2="SourceAlpha" operator="in" result="effect1_backgroundBlur_172_251"/>
<feBlend mode="normal" in="SourceGraphic" in2="effect1_backgroundBlur_172_251" result="shape"/>
<feGaussianBlur stdDeviation="3.25" result="effect2_foregroundBlur_172_251"/>
</filter>
<filter id="filter1_dd_172_251" x="107.133" y="6.72913" width="165.383" height="265.635" filterUnits="userSpaceOnUse" color-interpolation-filters="sRGB">
<feFlood flood-opacity="0" result="BackgroundImageFix"/>
<feColorMatrix in="SourceAlpha" type="matrix" values="0 0 0 0 0 0 0 0 0 0 0 0 0 0 0 0 0 0 127 0" result="hardAlpha"/>
<feOffset dy="4"/>
<feGaussianBlur stdDeviation="2"/>
<feComposite in2="hardAlpha" operator="out"/>
<feColorMatrix type="matrix" values="0 0 0 0 0 0 0 0 0 0 0 0 0 0 0 0 0 0 0.25 0"/>
<feBlend mode="normal" in2="BackgroundImageFix" result="effect1_dropShadow_172_251"/>
<feColorMatrix in="SourceAlpha" type="matrix" values="0 0 0 0 0 0 0 0 0 0 0 0 0 0 0 0 0 0 127 0" result="hardAlpha"/>
<feOffset dy="4"/>
<feGaussianBlur stdDeviation="2"/>
<feComposite in2="hardAlpha" operator="out"/>
<feColorMatrix type="matrix" values="0 0 0 0 0 0 0 0 0 0 0 0 0 0 0 0 0 0 0.25 0"/>
<feBlend mode="normal" in2="effect1_dropShadow_172_251" result="effect2_dropShadow_172_251"/>
<feBlend mode="normal" in="SourceGraphic" in2="effect2_dropShadow_172_251" result="shape"/>
</filter>
<filter id="filter2_dd_172_251" x="107.133" y="6.72913" width="165.383" height="265.635" filterUnits="userSpaceOnUse" color-interpolation-filters="sRGB">
<feFlood flood-opacity="0" result="BackgroundImageFix"/>
<feColorMatrix in="SourceAlpha" type="matrix" values="0 0 0 0 0 0 0 0 0 0 0 0 0 0 0 0 0 0 127 0" result="hardAlpha"/>
<feOffset dy="4"/>
<feGaussianBlur stdDeviation="2"/>
<feComposite in2="hardAlpha" operator="out"/>
<feColorMatrix type="matrix" values="0 0 0 0 0 0 0 0 0 0 0 0 0 0 0 0 0 0 0.25 0"/>
<feBlend mode="normal" in2="BackgroundImageFix" result="effect1_dropShadow_172_251"/>
<feColorMatrix in="SourceAlpha" type="matrix" values="0 0 0 0 0 0 0 0 0 0 0 0 0 0 0 0 0 0 127 0" result="hardAlpha"/>
<feOffset dy="4"/>
<feGaussianBlur stdDeviation="2"/>
<feComposite in2="hardAlpha" operator="out"/>
<feColorMatrix type="matrix" values="0 0 0 0 0 0 0 0 0 0 0 0 0 0 0 0 0 0 0.25 0"/>
<feBlend mode="normal" in2="effect1_dropShadow_172_251" result="effect2_dropShadow_172_251"/>
<feBlend mode="normal" in="SourceGraphic" in2="effect2_dropShadow_172_251" result="shape"/>
</filter>
<linearGradient id="paint0_linear_172_251" x1="110.917" y1="7.21894" x2="180.425" y2="180.737" gradientUnits="userSpaceOnUse">
<stop stop-color="#FAFAFA"/>
<stop offset="1" stop-color="#070707"/>
</linearGradient>
<linearGradient id="paint1_linear_172_251" x1="56.6409" y1="79.503" x2="258.372" y2="237.112" gradientUnits="userSpaceOnUse">
<stop stop-color="white"/>
<stop offset="1" stop-color="#F8F8F8"/>
</linearGradient>
<linearGradient id="paint2_linear_172_251" x1="141.224" y1="156.614" x2="144.695" y2="162.875" gradientUnits="userSpaceOnUse">
<stop stop-color="#FAFAFA"/>
<stop offset="1" stop-color="#070707"/>
</linearGradient>
<linearGradient id="paint3_linear_172_251" x1="138.532" y1="160.16" x2="145.789" y2="165.83" gradientUnits="userSpaceOnUse">
<stop stop-color="white"/>
<stop offset="1" stop-color="#F8F8F8"/>
</linearGradient>
<linearGradient id="paint4_linear_172_251" x1="153.59" y1="161.699" x2="157.755" y2="169.213" gradientUnits="userSpaceOnUse">
<stop stop-color="#FAFAFA"/>
<stop offset="1" stop-color="#070707"/>
</linearGradient>
<linearGradient id="paint5_linear_172_251" x1="150.36" y1="165.955" x2="159.068" y2="172.758" gradientUnits="userSpaceOnUse">
<stop stop-color="white"/>
<stop offset="1" stop-color="#F8F8F8"/>
</linearGradient>
<linearGradient id="paint6_linear_172_251" x1="155.266" y1="144.601" x2="159.431" y2="152.115" gradientUnits="userSpaceOnUse">
<stop stop-color="#FAFAFA"/>
<stop offset="1" stop-color="#070707"/>
</linearGradient>
<linearGradient id="paint7_linear_172_251" x1="152.036" y1="148.857" x2="160.744" y2="155.66" gradientUnits="userSpaceOnUse">
<stop stop-color="white"/>
<stop offset="1" stop-color="#F8F8F8"/>
</linearGradient>
<linearGradient id="paint8_linear_172_251" x1="141.43" y1="138.387" x2="145.595" y2="145.9" gradientUnits="userSpaceOnUse">
<stop stop-color="#FAFAFA"/>
<stop offset="1" stop-color="#070707"/>
</linearGradient>
<linearGradient id="paint9_linear_172_251" x1="138.2" y1="142.643" x2="146.908" y2="149.446" gradientUnits="userSpaceOnUse">
<stop stop-color="white"/>
<stop offset="1" stop-color="#F8F8F8"/>
</linearGradient>
<linearGradient id="paint10_linear_172_251" x1="127.737" y1="152.957" x2="130.514" y2="157.966" gradientUnits="userSpaceOnUse">
<stop stop-color="#FAFAFA"/>
<stop offset="1" stop-color="#070707"/>
</linearGradient>
<linearGradient id="paint11_linear_172_251" x1="125.584" y1="155.794" x2="131.389" y2="160.33" gradientUnits="userSpaceOnUse">
<stop stop-color="white"/>
<stop offset="1" stop-color="#F8F8F8"/>
</linearGradient>
<linearGradient id="paint12_linear_172_251" x1="166.321" y1="169.341" x2="170.486" y2="176.855" gradientUnits="userSpaceOnUse">
<stop stop-color="#FAFAFA"/>
<stop offset="1" stop-color="#070707"/>
</linearGradient>
<linearGradient id="paint13_linear_172_251" x1="163.09" y1="173.597" x2="171.798" y2="180.4" gradientUnits="userSpaceOnUse">
<stop stop-color="white"/>
<stop offset="1" stop-color="#F8F8F8"/>
</linearGradient>
<linearGradient id="paint14_linear_172_251" x1="152.279" y1="181.353" x2="155.75" y2="187.615" gradientUnits="userSpaceOnUse">
<stop stop-color="#FAFAFA"/>
<stop offset="1" stop-color="#070707"/>
</linearGradient>
<linearGradient id="paint15_linear_172_251" x1="149.587" y1="184.9" x2="156.844" y2="190.569" gradientUnits="userSpaceOnUse">
<stop stop-color="white"/>
<stop offset="1" stop-color="#F8F8F8"/>
</linearGradient>
<linearGradient id="paint16_linear_172_251" x1="171.45" y1="138.843" x2="175.614" y2="146.357" gradientUnits="userSpaceOnUse">
<stop stop-color="#FAFAFA"/>
<stop offset="1" stop-color="#070707"/>
</linearGradient>
<linearGradient id="paint17_linear_172_251" x1="168.219" y1="143.099" x2="176.927" y2="149.902" gradientUnits="userSpaceOnUse">
<stop stop-color="white"/>
<stop offset="1" stop-color="#F8F8F8"/>
</linearGradient>
<linearGradient id="paint18_linear_172_251" x1="183.416" y1="150.471" x2="186.886" y2="156.733" gradientUnits="userSpaceOnUse">
<stop stop-color="#FAFAFA"/>
<stop offset="1" stop-color="#070707"/>
</linearGradient>
<linearGradient id="paint19_linear_172_251" x1="180.724" y1="154.018" x2="187.98" y2="159.687" gradientUnits="userSpaceOnUse">
<stop stop-color="white"/>
<stop offset="1" stop-color="#F8F8F8"/>
</linearGradient>
<linearGradient id="paint20_linear_172_251" x1="199.393" y1="162.939" x2="202.17" y2="167.948" gradientUnits="userSpaceOnUse">
<stop stop-color="#FAFAFA"/>
<stop offset="1" stop-color="#070707"/>
</linearGradient>
<linearGradient id="paint21_linear_172_251" x1="197.24" y1="165.776" x2="203.045" y2="170.312" gradientUnits="userSpaceOnUse">
<stop stop-color="white"/>
<stop offset="1" stop-color="#F8F8F8"/>
</linearGradient>
<linearGradient id="paint22_linear_172_251" x1="183.193" y1="168.702" x2="186.664" y2="174.964" gradientUnits="userSpaceOnUse">
<stop stop-color="#FAFAFA"/>
<stop offset="1" stop-color="#070707"/>
</linearGradient>
<linearGradient id="paint23_linear_172_251" x1="180.501" y1="172.249" x2="187.758" y2="177.918" gradientUnits="userSpaceOnUse">
<stop stop-color="white"/>
<stop offset="1" stop-color="#F8F8F8"/>
</linearGradient>
<linearGradient id="paint24_linear_172_251" x1="200.826" y1="134.168" x2="204.297" y2="140.429" gradientUnits="userSpaceOnUse">
<stop stop-color="#FAFAFA"/>
<stop offset="1" stop-color="#070707"/>
</linearGradient>
<linearGradient id="paint25_linear_172_251" x1="198.134" y1="137.714" x2="205.39" y2="143.384" gradientUnits="userSpaceOnUse">
<stop stop-color="white"/>
<stop offset="1" stop-color="#F8F8F8"/>
</linearGradient>
<linearGradient id="paint26_linear_172_251" x1="185.516" y1="126.825" x2="189.681" y2="134.339" gradientUnits="userSpaceOnUse">
<stop stop-color="#FAFAFA"/>
<stop offset="1" stop-color="#070707"/>
</linearGradient>
<linearGradient id="paint27_linear_172_251" x1="182.286" y1="131.081" x2="190.994" y2="137.885" gradientUnits="userSpaceOnUse">
<stop stop-color="white"/>
<stop offset="1" stop-color="#F8F8F8"/>
</linearGradient>
<linearGradient id="paint28_linear_172_251" x1="210.533" y1="148.658" x2="214.004" y2="154.92" gradientUnits="userSpaceOnUse">
<stop stop-color="#FAFAFA"/>
<stop offset="1" stop-color="#070707"/>
</linearGradient>
<linearGradient id="paint29_linear_172_251" x1="207.841" y1="152.205" x2="215.097" y2="157.874" gradientUnits="userSpaceOnUse">
<stop stop-color="white"/>
<stop offset="1" stop-color="#F8F8F8"/>
</linearGradient>
<linearGradient id="paint30_linear_172_251" x1="127.016" y1="117.933" x2="131.181" y2="125.447" gradientUnits="userSpaceOnUse">
<stop stop-color="#FAFAFA"/>
<stop offset="1" stop-color="#070707"/>
</linearGradient>
<linearGradient id="paint31_linear_172_251" x1="123.786" y1="122.189" x2="132.494" y2="128.992" gradientUnits="userSpaceOnUse">
<stop stop-color="white"/>
<stop offset="1" stop-color="#F8F8F8"/>
</linearGradient>
<linearGradient id="paint32_linear_172_251" x1="142.532" y1="107.049" x2="146.696" y2="114.563" gradientUnits="userSpaceOnUse">
<stop stop-color="#FAFAFA"/>
<stop offset="1" stop-color="#070707"/>
</linearGradient>
<linearGradient id="paint33_linear_172_251" x1="139.301" y1="111.305" x2="148.009" y2="118.108" gradientUnits="userSpaceOnUse">
<stop stop-color="white"/>
<stop offset="1" stop-color="#F8F8F8"/>
</linearGradient>
<linearGradient id="paint34_linear_172_251" x1="130.926" y1="97.9785" x2="135.091" y2="105.492" gradientUnits="userSpaceOnUse">
<stop stop-color="#FAFAFA"/>
<stop offset="1" stop-color="#070707"/>
</linearGradient>
<linearGradient id="paint35_linear_172_251" x1="127.696" y1="102.234" x2="136.404" y2="109.038" gradientUnits="userSpaceOnUse">
<stop stop-color="white"/>
<stop offset="1" stop-color="#F8F8F8"/>
</linearGradient>
<linearGradient id="paint36_linear_172_251" x1="143.2" y1="82.265" x2="147.364" y2="89.7788" gradientUnits="userSpaceOnUse">
<stop stop-color="#FAFAFA"/>
<stop offset="1" stop-color="#070707"/>
</linearGradient>
<linearGradient id="paint37_linear_172_251" x1="139.969" y1="86.521" x2="148.677" y2="93.3243" gradientUnits="userSpaceOnUse">
<stop stop-color="white"/>
<stop offset="1" stop-color="#F8F8F8"/>
</linearGradient>
<linearGradient id="paint38_linear_172_251" x1="138.033" y1="71.4209" x2="138.498" y2="75.666" gradientUnits="userSpaceOnUse">
<stop stop-color="#FAFAFA"/>
<stop offset="1" stop-color="#070707"/>
</linearGradient>
<linearGradient id="paint39_linear_172_251" x1="135.711" y1="72.7537" x2="138.387" y2="77.5712" gradientUnits="userSpaceOnUse">
<stop stop-color="white"/>
<stop offset="1" stop-color="#F8F8F8"/>
</linearGradient>
<linearGradient id="paint40_linear_172_251" x1="133.123" y1="53.7789" x2="133.588" y2="58.024" gradientUnits="userSpaceOnUse">
<stop stop-color="#FAFAFA"/>
<stop offset="1" stop-color="#070707"/>
</linearGradient>
<linearGradient id="paint41_linear_172_251" x1="130.801" y1="55.1117" x2="133.477" y2="59.9292" gradientUnits="userSpaceOnUse">
<stop stop-color="white"/>
<stop offset="1" stop-color="#F8F8F8"/>
</linearGradient>
<linearGradient id="paint42_linear_172_251" x1="160.625" y1="95.8712" x2="164.79" y2="103.385" gradientUnits="userSpaceOnUse">
<stop stop-color="#FAFAFA"/>
<stop offset="1" stop-color="#070707"/>
</linearGradient>
<linearGradient id="paint43_linear_172_251" x1="157.395" y1="100.127" x2="166.103" y2="106.93" gradientUnits="userSpaceOnUse">
<stop stop-color="white"/>
<stop offset="1" stop-color="#F8F8F8"/>
</linearGradient>
<linearGradient id="paint44_linear_172_251" x1="160.84" y1="77.6392" x2="165.005" y2="85.153" gradientUnits="userSpaceOnUse">
<stop stop-color="#FAFAFA"/>
<stop offset="1" stop-color="#070707"/>
</linearGradient>
<linearGradient id="paint45_linear_172_251" x1="157.61" y1="81.8951" x2="166.318" y2="88.6984" gradientUnits="userSpaceOnUse">
<stop stop-color="white"/>
<stop offset="1" stop-color="#F8F8F8"/>
</linearGradient>
<linearGradient id="paint46_linear_172_251" x1="149.615" y1="73.3935" x2="150.08" y2="77.6386" gradientUnits="userSpaceOnUse">
<stop stop-color="#FAFAFA"/>
<stop offset="1" stop-color="#070707"/>
</linearGradient>
<linearGradient id="paint47_linear_172_251" x1="147.293" y1="74.7262" x2="149.969" y2="79.5438" gradientUnits="userSpaceOnUse">
<stop stop-color="white"/>
<stop offset="1" stop-color="#F8F8F8"/>
</linearGradient>
<linearGradient id="paint48_linear_172_251" x1="140.482" y1="50.3326" x2="140.947" y2="54.5777" gradientUnits="userSpaceOnUse">
<stop stop-color="#FAFAFA"/>
<stop offset="1" stop-color="#070707"/>
</linearGradient>
<linearGradient id="paint49_linear_172_251" x1="138.16" y1="51.6653" x2="140.837" y2="56.4829" gradientUnits="userSpaceOnUse">
<stop stop-color="white"/>
<stop offset="1" stop-color="#F8F8F8"/>
</linearGradient>
<linearGradient id="paint50_linear_172_251" x1="179.371" y1="89.8178" x2="183.536" y2="97.3316" gradientUnits="userSpaceOnUse">
<stop stop-color="#FAFAFA"/>
<stop offset="1" stop-color="#070707"/>
</linearGradient>
<linearGradient id="paint51_linear_172_251" x1="176.141" y1="94.0738" x2="184.849" y2="100.877" gradientUnits="userSpaceOnUse">
<stop stop-color="white"/>
<stop offset="1" stop-color="#F8F8F8"/>
</linearGradient>
<linearGradient id="paint52_linear_172_251" x1="203.586" y1="115.647" x2="207.751" y2="123.161" gradientUnits="userSpaceOnUse">
<stop stop-color="#FAFAFA"/>
<stop offset="1" stop-color="#070707"/>
</linearGradient>
<linearGradient id="paint53_linear_172_251" x1="200.356" y1="119.903" x2="209.064" y2="126.706" gradientUnits="userSpaceOnUse">
<stop stop-color="white"/>
<stop offset="1" stop-color="#F8F8F8"/>
</linearGradient>
<linearGradient id="paint54_linear_172_251" x1="136.555" y1="60.9112" x2="138.637" y2="64.6681" gradientUnits="userSpaceOnUse">
<stop stop-color="#FAFAFA"/>
<stop offset="1" stop-color="#070707"/>
</linearGradient>
<linearGradient id="paint55_linear_172_251" x1="134.94" y1="63.0392" x2="139.294" y2="66.4408" gradientUnits="userSpaceOnUse">
<stop stop-color="white"/>
<stop offset="1" stop-color="#F8F8F8"/>
</linearGradient>
<linearGradient id="paint56_linear_172_251" x1="123.051" y1="27.3509" x2="125.133" y2="31.1078" gradientUnits="userSpaceOnUse">
<stop stop-color="#FAFAFA"/>
<stop offset="1" stop-color="#070707"/>
</linearGradient>
<linearGradient id="paint57_linear_172_251" x1="121.436" y1="29.4789" x2="125.79" y2="32.8805" gradientUnits="userSpaceOnUse">
<stop stop-color="white"/>
<stop offset="1" stop-color="#F8F8F8"/>
</linearGradient>
<linearGradient id="paint58_linear_172_251" x1="230.269" y1="186.32" x2="232.707" y2="187.833" gradientUnits="userSpaceOnUse">
<stop stop-color="#FAFAFA"/>
<stop offset="1" stop-color="#070707"/>
</linearGradient>
<linearGradient id="paint59_linear_172_251" x1="230.018" y1="188.09" x2="233.644" y2="188.655" gradientUnits="userSpaceOnUse">
<stop stop-color="white"/>
<stop offset="1" stop-color="#F8F8F8"/>
</linearGradient>
<linearGradient id="paint60_linear_172_251" x1="151.829" y1="214.487" x2="151.719" y2="217.325" gradientUnits="userSpaceOnUse">
<stop stop-color="#FAFAFA"/>
<stop offset="1" stop-color="#070707"/>
</linearGradient>
<linearGradient id="paint61_linear_172_251" x1="150.162" y1="215.136" x2="151.446" y2="218.571" gradientUnits="userSpaceOnUse">
<stop stop-color="white"/>
<stop offset="1" stop-color="#F8F8F8"/>
</linearGradient>
<linearGradient id="paint62_linear_172_251" x1="128.746" y1="41.0013" x2="130.829" y2="44.7582" gradientUnits="userSpaceOnUse">
<stop stop-color="#FAFAFA"/>
<stop offset="1" stop-color="#070707"/>
</linearGradient>
<linearGradient id="paint63_linear_172_251" x1="127.131" y1="43.1293" x2="131.485" y2="46.5309" gradientUnits="userSpaceOnUse">
<stop stop-color="white"/>
<stop offset="1" stop-color="#F8F8F8"/>
</linearGradient>
<linearGradient id="paint64_linear_172_251" x1="224.183" y1="185.138" x2="226.621" y2="186.651" gradientUnits="userSpaceOnUse">
<stop stop-color="#FAFAFA"/>
<stop offset="1" stop-color="#070707"/>
</linearGradient>
<linearGradient id="paint65_linear_172_251" x1="223.932" y1="186.908" x2="227.558" y2="187.473" gradientUnits="userSpaceOnUse">
<stop stop-color="white"/>
<stop offset="1" stop-color="#F8F8F8"/>
</linearGradient>
<linearGradient id="paint66_linear_172_251" x1="149.715" y1="208.663" x2="149.605" y2="211.501" gradientUnits="userSpaceOnUse">
<stop stop-color="#FAFAFA"/>
<stop offset="1" stop-color="#070707"/>
</linearGradient>
<linearGradient id="paint67_linear_172_251" x1="148.049" y1="209.311" x2="149.332" y2="212.747" gradientUnits="userSpaceOnUse">
<stop stop-color="white"/>
<stop offset="1" stop-color="#F8F8F8"/>
</linearGradient>
<linearGradient id="paint68_linear_172_251" x1="216.475" y1="173.983" x2="219.252" y2="178.993" gradientUnits="userSpaceOnUse">
<stop stop-color="#FAFAFA"/>
<stop offset="1" stop-color="#070707"/>
</linearGradient>
<linearGradient id="paint69_linear_172_251" x1="214.322" y1="176.821" x2="220.127" y2="181.356" gradientUnits="userSpaceOnUse">
<stop stop-color="white"/>
<stop offset="1" stop-color="#F8F8F8"/>
</linearGradient>
<linearGradient id="paint70_linear_172_251" x1="155.442" y1="196.576" x2="152.558" y2="201.437" gradientUnits="userSpaceOnUse">
<stop stop-color="#FAFAFA"/>
<stop offset="1" stop-color="#070707"/>
</linearGradient>
<linearGradient id="paint71_linear_172_251" x1="151.869" y1="196.106" x2="150.821" y2="203.31" gradientUnits="userSpaceOnUse">
<stop stop-color="white"/>
<stop offset="1" stop-color="#F8F8F8"/>
</linearGradient>
<linearGradient id="paint72_linear_172_251" x1="169.774" y1="155.94" x2="173.939" y2="163.454" gradientUnits="userSpaceOnUse">
<stop stop-color="#FAFAFA"/>
<stop offset="1" stop-color="#070707"/>
</linearGradient>
<linearGradient id="paint73_linear_172_251" x1="166.544" y1="160.196" x2="175.251" y2="166.999" gradientUnits="userSpaceOnUse">
<stop stop-color="white"/>
<stop offset="1" stop-color="#F8F8F8"/>
</linearGradient>
<linearGradient id="paint74_linear_172_251" x1="114.175" y1="8.85412" x2="169.686" y2="149.973" gradientUnits="userSpaceOnUse">
<stop stop-color="#FAFAFA"/>
<stop offset="1" stop-color="#070707"/>
</linearGradient>
</defs>
</svg>
