<svg width="83" height="82" viewBox="0 0 83 82" fill="none" xmlns="http://www.w3.org/2000/svg">
<path fill-rule="evenodd" clip-rule="evenodd" d="M42.6288 25.0347L41.9375 0L41.2462 25.0347C41.1633 28.0401 40.2391 30.8334 38.7004 33.1878C35.9463 32.6113 33.3163 31.2894 31.1316 29.2221L12.9406 12.0087L30.154 30.1997C32.2209 32.384 33.5427 35.0133 34.1193 37.7668C31.7662 39.3031 28.9751 40.2258 25.9722 40.3087L0.9375 41L25.9722 41.6913C28.9751 41.7742 31.7662 42.6969 34.1194 44.2332C33.5427 46.9867 32.221 49.6161 30.154 51.8005L12.9406 69.9914L31.1316 52.7781C33.3164 50.7107 35.9464 49.3888 38.7005 48.8123C40.2391 51.1667 41.1633 53.96 41.2462 56.9653L41.9375 82L42.6288 56.9653C42.7117 53.9608 43.6354 51.1683 45.1732 48.8144C47.9238 49.3919 50.5502 50.7131 52.7324 52.7781L70.9234 69.9914L53.71 51.8005C51.6446 49.6178 50.3232 46.9908 49.7459 44.2396C52.1011 42.6994 54.8958 41.7743 57.9028 41.6913L82.9375 41L57.9028 40.3087C54.8958 40.2257 52.1011 39.3006 49.7459 37.7605C50.3233 35.0093 51.6446 32.3823 53.71 30.1997L70.9234 12.0087L52.7324 29.2221C50.5502 31.287 47.9238 32.6082 45.1732 33.1857C43.6354 30.8318 42.7117 28.0392 42.6288 25.0347Z" fill="#FAFAFA"/>
</svg>
