<svg width="315" height="297" viewBox="0 0 315 297" fill="none" xmlns="http://www.w3.org/2000/svg">
<g filter="url(#filter0_bf_172_482)">
<g filter="url(#filter1_dd_172_482)">
<path d="M123.233 81.487L94.767 7.28121L145.309 66.201C165.883 70.1034 186.287 80.2484 211.546 95.4254C215.334 97.7019 212.621 99.5961 210.79 100.259L220.889 154.969L274.988 204.394L209.329 167.057L163.53 186.065L156.288 258.907L149.678 184.087C144.626 181.052 126.383 164.45 117.892 156.529C114.878 157.255 112.427 154.302 111.578 152.735C104.096 123.706 116.23 93.1411 123.233 81.487Z" fill="url(#paint0_linear_172_482)"/>
<path d="M111.578 152.735C104.096 123.706 116.23 93.1411 123.233 81.487L94.767 7.28122L145.309 66.201C165.883 70.1034 186.287 80.2484 211.546 95.4254M111.578 152.735C112.427 154.302 114.878 157.255 117.892 156.529M111.578 152.735C133.519 116.218 200.179 88.5958 211.546 95.4254M211.546 95.4254C215.334 97.7019 212.621 99.5961 210.79 100.259M117.892 156.529C126.383 164.45 144.626 181.052 149.678 184.087L156.288 258.907L163.53 186.065L209.329 167.057L274.988 204.394L220.889 154.969L210.79 100.259M117.892 156.529C139.834 120.013 205.107 96.8438 210.79 100.259" stroke="url(#paint1_linear_172_482)"/>
</g>
<path d="M144.518 155.132C146.467 156.303 147.102 158.799 145.959 160.702C144.816 162.604 142.314 163.215 140.364 162.044C138.415 160.873 137.78 158.376 138.923 156.474C140.066 154.572 142.568 153.96 144.518 155.132Z" fill="url(#paint2_linear_172_482)" stroke="url(#paint3_linear_172_482)"/>
<path d="M158.217 159.139C160.603 160.572 161.382 163.628 159.981 165.96C158.58 168.291 155.516 169.038 153.13 167.605C150.745 166.171 149.965 163.115 151.366 160.784C152.767 158.452 155.832 157.705 158.217 159.139Z" fill="url(#paint4_linear_172_482)" stroke="url(#paint5_linear_172_482)"/>
<path d="M157.803 141.964C160.188 143.398 160.968 146.454 159.567 148.786C158.166 151.117 155.102 151.864 152.716 150.43C150.331 148.997 149.551 145.941 150.952 143.609C152.353 141.278 155.418 140.531 157.803 141.964Z" fill="url(#paint6_linear_172_482)" stroke="url(#paint7_linear_172_482)"/>
<path d="M143.295 137.484C145.681 138.917 146.46 141.974 145.059 144.305C143.658 146.637 140.594 147.383 138.208 145.95C135.823 144.517 135.044 141.46 136.444 139.129C137.845 136.797 140.91 136.051 143.295 137.484Z" fill="url(#paint8_linear_172_482)" stroke="url(#paint9_linear_172_482)"/>
<path d="M129.873 152.68C131.386 153.589 131.877 155.525 130.992 156.998C130.106 158.472 128.167 158.947 126.653 158.038C125.14 157.129 124.649 155.193 125.534 153.719C126.419 152.246 128.359 151.77 129.873 152.68Z" fill="url(#paint10_linear_172_482)" stroke="url(#paint11_linear_172_482)"/>
<path d="M171.788 165.173C174.173 166.607 174.952 169.663 173.551 171.994C172.151 174.326 169.086 175.073 166.701 173.639C164.315 172.206 163.536 169.15 164.937 166.818C166.338 164.487 169.402 163.74 171.788 165.173Z" fill="url(#paint12_linear_172_482)" stroke="url(#paint13_linear_172_482)"/>
<path d="M158.502 178.341C160.451 179.512 161.087 182.008 159.943 183.911C158.8 185.813 156.298 186.424 154.349 185.253C152.399 184.082 151.764 181.585 152.907 179.683C154.05 177.781 156.553 177.169 158.502 178.341Z" fill="url(#paint14_linear_172_482)" stroke="url(#paint15_linear_172_482)"/>
<path d="M173.166 134.277C175.552 135.71 176.331 138.766 174.93 141.098C173.529 143.429 170.465 144.176 168.079 142.743C165.694 141.309 164.915 138.253 166.316 135.921C167.716 133.59 170.781 132.843 173.166 134.277Z" fill="url(#paint16_linear_172_482)" stroke="url(#paint17_linear_172_482)"/>
<path d="M185.65 143.893C187.6 145.064 188.235 147.56 187.092 149.463C185.949 151.365 183.447 151.976 181.497 150.805C179.548 149.633 178.913 147.137 180.056 145.235C181.199 143.332 183.701 142.721 185.65 143.893Z" fill="url(#paint18_linear_172_482)" stroke="url(#paint19_linear_172_482)"/>
<path d="M202.217 153.853C203.73 154.763 204.221 156.699 203.335 158.172C202.45 159.646 200.51 160.121 198.997 159.212C197.483 158.302 196.993 156.366 197.878 154.893C198.763 153.42 200.703 152.944 202.217 153.853Z" fill="url(#paint20_linear_172_482)" stroke="url(#paint21_linear_172_482)"/>
<path d="M187.65 162.015C189.6 163.186 190.235 165.683 189.092 167.585C187.949 169.487 185.447 170.099 183.497 168.927C181.548 167.756 180.913 165.26 182.056 163.357C183.199 161.455 185.701 160.844 187.65 162.015Z" fill="url(#paint22_linear_172_482)" stroke="url(#paint23_linear_172_482)"/>
<path d="M200.936 125.59C202.885 126.761 203.52 129.258 202.377 131.16C201.234 133.062 198.732 133.673 196.782 132.502C194.833 131.331 194.198 128.835 195.341 126.932C196.484 125.03 198.986 124.419 200.936 125.59Z" fill="url(#paint24_linear_172_482)" stroke="url(#paint25_linear_172_482)"/>
<path d="M185.651 120.635C188.036 122.068 188.816 125.125 187.415 127.456C186.014 129.788 182.949 130.535 180.564 129.101C178.178 127.668 177.399 124.612 178.8 122.28C180.201 119.949 183.265 119.202 185.651 120.635Z" fill="url(#paint26_linear_172_482)" stroke="url(#paint27_linear_172_482)"/>
<path d="M212.346 138.789C214.295 139.96 214.93 142.456 213.787 144.359C212.644 146.261 210.142 146.872 208.192 145.701C206.243 144.529 205.608 142.033 206.751 140.131C207.894 138.228 210.396 137.617 212.346 138.789Z" fill="url(#paint28_linear_172_482)" stroke="url(#paint29_linear_172_482)"/>
<path d="M126.518 118.937C128.903 120.37 129.683 123.427 128.282 125.758C126.881 128.09 123.816 128.837 121.431 127.403C119.046 125.97 118.266 122.914 119.667 120.582C121.068 118.251 124.133 117.504 126.518 118.937Z" fill="url(#paint30_linear_172_482)" stroke="url(#paint31_linear_172_482)"/>
<path d="M140.588 106.244C142.974 107.677 143.753 110.734 142.352 113.065C140.951 115.397 137.887 116.143 135.501 114.71C133.116 113.277 132.336 110.22 133.737 107.889C135.138 105.557 138.203 104.811 140.588 106.244Z" fill="url(#paint32_linear_172_482)" stroke="url(#paint33_linear_172_482)"/>
<path d="M127.955 98.6561C130.341 100.089 131.12 103.146 129.719 105.477C128.319 107.809 125.254 108.555 122.869 107.122C120.483 105.689 119.704 102.632 121.105 100.301C122.505 97.9695 125.57 97.2228 127.955 98.6561Z" fill="url(#paint34_linear_172_482)" stroke="url(#paint35_linear_172_482)"/>
<path d="M138.221 81.5628C140.606 82.9961 141.386 86.0525 139.985 88.384C138.584 90.7155 135.519 91.4622 133.134 90.0289C130.749 88.5957 129.969 85.5392 131.37 83.2077C132.771 80.8762 135.836 80.1295 138.221 81.5628Z" fill="url(#paint36_linear_172_482)" stroke="url(#paint37_linear_172_482)"/>
<path d="M128.493 70.7047C129.241 71.7078 129.032 73.1029 128.042 73.8233C127.053 74.5437 125.643 74.3277 124.895 73.3246C124.147 72.3216 124.357 70.9265 125.346 70.2061C126.336 69.4857 127.746 69.7017 128.493 70.7047Z" fill="url(#paint38_linear_172_482)" stroke="url(#paint39_linear_172_482)"/>
<path d="M121.462 53.7925C122.21 54.7956 122.001 56.1907 121.011 56.9111C120.021 57.6315 118.611 57.4154 117.864 56.4124C117.116 55.4094 117.325 54.0143 118.315 53.2938C119.304 52.5734 120.715 52.7895 121.462 53.7925Z" fill="url(#paint40_linear_172_482)" stroke="url(#paint41_linear_172_482)"/>
<path d="M157.17 92.9459C159.556 94.3791 160.335 97.4356 158.934 99.7671C157.533 102.099 154.469 102.845 152.083 101.412C149.698 99.9787 148.919 96.9222 150.319 94.5908C151.72 92.2593 154.785 91.5126 157.17 92.9459Z" fill="url(#paint42_linear_172_482)" stroke="url(#paint43_linear_172_482)"/>
<path d="M155.17 74.8232C157.556 76.2564 158.335 79.3129 156.934 81.6444C155.533 83.9759 152.469 84.7225 150.083 83.2893C147.698 81.856 146.919 78.7996 148.319 76.4681C149.72 74.1366 152.785 73.3899 155.17 74.8232Z" fill="url(#paint44_linear_172_482)" stroke="url(#paint45_linear_172_482)"/>
<path d="M140.228 71.2511C140.975 72.2542 140.766 73.6493 139.777 74.3697C138.787 75.0901 137.377 74.8741 136.629 73.871C135.882 72.868 136.091 71.4729 137.08 70.7525C138.07 70.032 139.48 70.2481 140.228 71.2511Z" fill="url(#paint46_linear_172_482)" stroke="url(#paint47_linear_172_482)"/>
<path d="M128.357 49.4744C129.104 50.4774 128.895 51.8725 127.906 52.593C126.916 53.3134 125.506 53.0973 124.758 52.0943C124.011 51.0912 124.22 49.6961 125.209 48.9757C126.199 48.2553 127.609 48.4714 128.357 49.4744Z" fill="url(#paint48_linear_172_482)" stroke="url(#paint49_linear_172_482)"/>
<path d="M175.045 84.652C177.431 86.0853 178.21 89.1418 176.809 91.4732C175.408 93.8047 172.344 94.5514 169.958 93.1181C167.573 91.6849 166.794 88.6284 168.194 86.2969C169.595 83.9654 172.66 83.2188 175.045 84.652Z" fill="url(#paint50_linear_172_482)" stroke="url(#paint51_linear_172_482)"/>
<path d="M202.248 107.336C204.634 108.769 205.413 111.826 204.012 114.157C202.611 116.489 199.547 117.235 197.161 115.802C194.776 114.369 193.997 111.312 195.398 108.981C196.798 106.649 199.863 105.903 202.248 107.336Z" fill="url(#paint52_linear_172_482)" stroke="url(#paint53_linear_172_482)"/>
<path d="M126.607 59.7772C127.684 60.4246 128.031 61.8005 127.403 62.8447C126.776 63.8889 125.398 64.2291 124.321 63.5817C123.243 62.9342 122.897 61.5583 123.524 60.5141C124.152 59.4699 125.529 59.1297 126.607 59.7772Z" fill="url(#paint54_linear_172_482)" stroke="url(#paint55_linear_172_482)"/>
<path d="M109.103 28.1129C110.18 28.7603 110.527 30.1362 109.899 31.1804C109.272 32.2246 107.894 32.5648 106.817 31.9174C105.739 31.2699 105.393 29.894 106.02 28.8498C106.648 27.8056 108.025 27.4654 109.103 28.1129Z" fill="url(#paint56_linear_172_482)" stroke="url(#paint57_linear_172_482)"/>
<path d="M234.579 171.554C235.319 171.588 235.893 172.209 235.869 172.933C235.846 173.658 235.234 174.225 234.494 174.191C233.753 174.158 233.179 173.536 233.203 172.812C233.226 172.087 233.838 171.52 234.579 171.554Z" fill="url(#paint58_linear_172_482)" stroke="url(#paint59_linear_172_482)"/>
<path d="M158.773 210.37C159.123 211.022 158.877 211.819 158.233 212.154C157.589 212.489 156.78 212.241 156.43 211.589C156.079 210.937 156.325 210.14 156.969 209.805C157.613 209.47 158.422 209.719 158.773 210.37Z" fill="url(#paint60_linear_172_482)" stroke="url(#paint61_linear_172_482)"/>
<path d="M116.419 40.9683C117.497 41.6158 117.843 42.9917 117.216 44.0359C116.588 45.0801 115.211 45.4203 114.133 44.7728C113.056 44.1254 112.709 42.7495 113.337 41.7053C113.964 40.6611 115.342 40.3209 116.419 40.9683Z" fill="url(#paint62_linear_172_482)" stroke="url(#paint63_linear_172_482)"/>
<path d="M228.391 171.122C229.132 171.156 229.705 171.778 229.682 172.502C229.659 173.227 229.046 173.794 228.306 173.76C227.566 173.726 226.992 173.105 227.015 172.38C227.039 171.656 227.651 171.089 228.391 171.122Z" fill="url(#paint64_linear_172_482)" stroke="url(#paint65_linear_172_482)"/>
<path d="M155.972 204.847C156.323 205.498 156.076 206.296 155.432 206.63C154.788 206.965 153.98 206.717 153.629 206.065C153.278 205.413 153.524 204.616 154.168 204.281C154.812 203.946 155.621 204.195 155.972 204.847Z" fill="url(#paint66_linear_172_482)" stroke="url(#paint67_linear_172_482)"/>
<path d="M220.525 162.734C222.039 163.643 222.529 165.579 221.644 167.053C220.759 168.526 218.819 169.002 217.305 168.092C215.792 167.183 215.301 165.247 216.187 163.774C217.072 162.3 219.012 161.825 220.525 162.734Z" fill="url(#paint68_linear_172_482)" stroke="url(#paint69_linear_172_482)"/>
<path d="M159.247 193.98C159.232 195.711 157.805 197.089 156.051 197.05C154.298 197.011 152.895 195.57 152.91 193.839C152.925 192.108 154.352 190.73 156.105 190.77C157.859 190.809 159.261 192.25 159.247 193.98Z" fill="url(#paint70_linear_172_482)" stroke="url(#paint71_linear_172_482)"/>
<path d="M173.584 151.45C175.97 152.883 176.749 155.94 175.348 158.271C173.947 160.603 170.883 161.349 168.497 159.916C166.112 158.483 165.333 155.426 166.733 153.095C168.134 150.763 171.199 150.017 173.584 151.45Z" fill="url(#paint72_linear_172_482)" stroke="url(#paint73_linear_172_482)"/>
</g>
<g filter="url(#filter2_dd_172_482)">
<path d="M123.233 81.487L94.767 7.28121L145.309 66.201C165.883 70.1034 186.287 80.2484 211.546 95.4254C215.334 97.7019 212.621 99.5961 210.79 100.259L220.889 154.969L274.988 204.394L209.329 167.057L163.53 186.065L156.288 258.907L149.678 184.087C144.626 181.052 126.383 164.45 117.892 156.529C114.878 157.255 112.427 154.302 111.578 152.735C104.096 123.706 116.23 93.1411 123.233 81.487Z" fill="url(#paint74_linear_172_482)"/>
<path d="M111.578 152.735C104.096 123.706 116.23 93.1411 123.233 81.487L94.767 7.28122L145.309 66.201C165.883 70.1034 186.287 80.2484 211.546 95.4254M111.578 152.735C112.427 154.302 114.878 157.255 117.892 156.529M111.578 152.735C133.519 116.218 200.179 88.5958 211.546 95.4254M211.546 95.4254C215.334 97.7019 212.621 99.5961 210.79 100.259M117.892 156.529C126.383 164.45 144.626 181.052 149.678 184.087L156.288 258.907L163.53 186.065L209.329 167.057L274.988 204.394L220.889 154.969L210.79 100.259M117.892 156.529C139.834 120.013 205.107 96.8438 210.79 100.259" stroke="#FAFAFA"/>
</g>
<ellipse cx="142.441" cy="158.588" rx="4.53202" ry="4.60432" transform="rotate(-59 142.441 158.588)" fill="#D7FF00"/>
<ellipse cx="155.674" cy="163.372" rx="5.43842" ry="5.52518" transform="rotate(-59 155.674 163.372)" fill="#D7FF00"/>
<ellipse cx="155.26" cy="146.197" rx="5.43842" ry="5.52518" transform="rotate(-59 155.26 146.197)" fill="#D7FF00"/>
<ellipse cx="140.752" cy="141.717" rx="5.43842" ry="5.52518" transform="rotate(-59 140.752 141.717)" fill="#D7FF00"/>
<ellipse cx="128.263" cy="155.359" rx="3.62562" ry="3.68345" transform="rotate(-59 128.263 155.359)" fill="#D7FF00"/>
<ellipse cx="169.244" cy="169.406" rx="5.43842" ry="5.52518" transform="rotate(-59 169.244 169.406)" fill="#D7FF00"/>
<ellipse cx="156.425" cy="181.797" rx="4.53202" ry="4.60432" transform="rotate(-59 156.425 181.797)" fill="#D7FF00"/>
<ellipse cx="170.623" cy="138.51" rx="5.43842" ry="5.52518" transform="rotate(-59 170.623 138.51)" fill="#D7FF00"/>
<ellipse cx="183.574" cy="147.349" rx="4.53202" ry="4.60432" transform="rotate(-59 183.574 147.349)" fill="#D7FF00"/>
<ellipse cx="200.607" cy="156.533" rx="3.62562" ry="3.68345" transform="rotate(-59 200.607 156.533)" fill="#D7FF00"/>
<ellipse cx="185.574" cy="165.471" rx="4.53202" ry="4.60432" transform="rotate(-59 185.574 165.471)" fill="#D7FF00"/>
<ellipse cx="198.859" cy="129.046" rx="4.53202" ry="4.60432" transform="rotate(-59 198.859 129.046)" fill="#D7FF00"/>
<ellipse cx="183.107" cy="124.868" rx="5.43842" ry="5.52518" transform="rotate(-59 183.107 124.868)" fill="#D7FF00"/>
<ellipse cx="210.269" cy="142.245" rx="4.53202" ry="4.60432" transform="rotate(-59 210.269 142.245)" fill="#D7FF00"/>
<ellipse cx="123.975" cy="123.17" rx="5.43842" ry="5.52518" transform="rotate(-59 123.975 123.17)" fill="#D7FF00"/>
<ellipse cx="138.045" cy="110.477" rx="5.43842" ry="5.52518" transform="rotate(-59 138.045 110.477)" fill="#D7FF00"/>
<ellipse cx="125.412" cy="102.889" rx="5.43842" ry="5.52518" transform="rotate(-59 125.412 102.889)" fill="#D7FF00"/>
<ellipse cx="135.678" cy="85.7959" rx="5.43842" ry="5.52518" transform="rotate(-59 135.678 85.7959)" fill="#D7FF00"/>
<ellipse cx="2.72559" cy="2.75577" rx="2.72559" ry="2.75577" transform="matrix(0.808438 -0.588581 0.597629 0.801773 122.844 71.4094)" fill="#D7FF00"/>
<ellipse cx="2.72559" cy="2.75577" rx="2.72559" ry="2.75577" transform="matrix(0.808438 -0.588581 0.597629 0.801773 115.812 54.4972)" fill="#D7FF00"/>
<ellipse cx="154.627" cy="97.1789" rx="5.43842" ry="5.52518" transform="rotate(-59 154.627 97.1789)" fill="#D7FF00"/>
<ellipse cx="152.627" cy="79.0562" rx="5.43842" ry="5.52518" transform="rotate(-59 152.627 79.0562)" fill="#D7FF00"/>
<ellipse cx="2.72559" cy="2.75577" rx="2.72559" ry="2.75577" transform="matrix(0.808438 -0.588581 0.597629 0.801773 134.578 71.9558)" fill="#D7FF00"/>
<ellipse cx="2.72559" cy="2.75577" rx="2.72559" ry="2.75577" transform="matrix(0.808438 -0.588581 0.597629 0.801773 122.707 50.1791)" fill="#D7FF00"/>
<ellipse cx="172.502" cy="88.8851" rx="5.43842" ry="5.52518" transform="rotate(-59 172.502 88.8851)" fill="#D7FF00"/>
<ellipse cx="199.705" cy="111.569" rx="5.43842" ry="5.52518" transform="rotate(-59 199.705 111.569)" fill="#D7FF00"/>
<ellipse cx="125.464" cy="61.6794" rx="2.71921" ry="2.76259" transform="rotate(-59 125.464 61.6794)" fill="#D7FF00"/>
<ellipse cx="107.96" cy="30.0151" rx="2.71921" ry="2.76259" transform="rotate(-59 107.96 30.0151)" fill="#D7FF00"/>
<ellipse cx="1.81946" cy="1.8348" rx="1.81946" ry="1.8348" transform="matrix(0.032243 -0.99948 0.99896 0.045586 232.645 174.607)" fill="#D7FF00"/>
<ellipse cx="1.82048" cy="1.83379" rx="1.82048" ry="1.83379" transform="matrix(0.887173 -0.461437 0.473816 0.880624 155.117 210.205)" fill="#D7FF00"/>
<ellipse cx="115.276" cy="42.8706" rx="2.71921" ry="2.76259" transform="rotate(-59 115.276 42.8706)" fill="#D7FF00"/>
<ellipse cx="1.81946" cy="1.8348" rx="1.81946" ry="1.8348" transform="matrix(0.032243 -0.99948 0.99896 0.045586 226.457 174.176)" fill="#D7FF00"/>
<ellipse cx="1.82048" cy="1.83379" rx="1.82048" ry="1.83379" transform="matrix(0.887173 -0.461437 0.473816 0.880624 152.316 204.681)" fill="#D7FF00"/>
<ellipse cx="218.915" cy="165.413" rx="3.62562" ry="3.68345" transform="rotate(-59 218.915 165.413)" fill="#D7FF00"/>
<ellipse cx="3.66898" cy="3.64026" rx="3.66898" ry="3.64026" transform="matrix(0.999751 0.0222959 -0.00856027 0.999963 152.441 190.188)" fill="#D7FF00"/>
<ellipse cx="171.041" cy="155.683" rx="5.43842" ry="5.52518" transform="rotate(-59 171.041 155.683)" fill="#D7FF00"/>
<defs>
<filter id="filter0_bf_172_482" x="-5.29922" y="-92.6443" width="380.223" height="451.201" filterUnits="userSpaceOnUse" color-interpolation-filters="sRGB">
<feFlood flood-opacity="0" result="BackgroundImageFix"/>
<feGaussianBlur in="BackgroundImageFix" stdDeviation="49.8"/>
<feComposite in2="SourceAlpha" operator="in" result="effect1_backgroundBlur_172_482"/>
<feBlend mode="normal" in="SourceGraphic" in2="effect1_backgroundBlur_172_482" result="shape"/>
<feGaussianBlur stdDeviation="3.25" result="effect2_foregroundBlur_172_482"/>
</filter>
<filter id="filter1_dd_172_482" x="90.3008" y="6.95569" width="189.023" height="260.001" filterUnits="userSpaceOnUse" color-interpolation-filters="sRGB">
<feFlood flood-opacity="0" result="BackgroundImageFix"/>
<feColorMatrix in="SourceAlpha" type="matrix" values="0 0 0 0 0 0 0 0 0 0 0 0 0 0 0 0 0 0 127 0" result="hardAlpha"/>
<feOffset dy="4"/>
<feGaussianBlur stdDeviation="2"/>
<feComposite in2="hardAlpha" operator="out"/>
<feColorMatrix type="matrix" values="0 0 0 0 0 0 0 0 0 0 0 0 0 0 0 0 0 0 0.25 0"/>
<feBlend mode="normal" in2="BackgroundImageFix" result="effect1_dropShadow_172_482"/>
<feColorMatrix in="SourceAlpha" type="matrix" values="0 0 0 0 0 0 0 0 0 0 0 0 0 0 0 0 0 0 127 0" result="hardAlpha"/>
<feOffset dy="4"/>
<feGaussianBlur stdDeviation="2"/>
<feComposite in2="hardAlpha" operator="out"/>
<feColorMatrix type="matrix" values="0 0 0 0 0 0 0 0 0 0 0 0 0 0 0 0 0 0 0.25 0"/>
<feBlend mode="normal" in2="effect1_dropShadow_172_482" result="effect2_dropShadow_172_482"/>
<feBlend mode="normal" in="SourceGraphic" in2="effect2_dropShadow_172_482" result="shape"/>
</filter>
<filter id="filter2_dd_172_482" x="90.3008" y="6.95569" width="189.023" height="260.001" filterUnits="userSpaceOnUse" color-interpolation-filters="sRGB">
<feFlood flood-opacity="0" result="BackgroundImageFix"/>
<feColorMatrix in="SourceAlpha" type="matrix" values="0 0 0 0 0 0 0 0 0 0 0 0 0 0 0 0 0 0 127 0" result="hardAlpha"/>
<feOffset dy="4"/>
<feGaussianBlur stdDeviation="2"/>
<feComposite in2="hardAlpha" operator="out"/>
<feColorMatrix type="matrix" values="0 0 0 0 0 0 0 0 0 0 0 0 0 0 0 0 0 0 0.25 0"/>
<feBlend mode="normal" in2="BackgroundImageFix" result="effect1_dropShadow_172_482"/>
<feColorMatrix in="SourceAlpha" type="matrix" values="0 0 0 0 0 0 0 0 0 0 0 0 0 0 0 0 0 0 127 0" result="hardAlpha"/>
<feOffset dy="4"/>
<feGaussianBlur stdDeviation="2"/>
<feComposite in2="hardAlpha" operator="out"/>
<feColorMatrix type="matrix" values="0 0 0 0 0 0 0 0 0 0 0 0 0 0 0 0 0 0 0.25 0"/>
<feBlend mode="normal" in2="effect1_dropShadow_172_482" result="effect2_dropShadow_172_482"/>
<feBlend mode="normal" in="SourceGraphic" in2="effect2_dropShadow_172_482" result="shape"/>
</filter>
<linearGradient id="paint0_linear_172_482" x1="92.4463" y1="7.78068" x2="182.582" y2="171.535" gradientUnits="userSpaceOnUse">
<stop stop-color="#FAFAFA"/>
<stop offset="1" stop-color="#070707"/>
</linearGradient>
<linearGradient id="paint1_linear_172_482" x1="47.3835" y1="86.1406" x2="266.818" y2="217.99" gradientUnits="userSpaceOnUse">
<stop stop-color="white"/>
<stop offset="1" stop-color="#F8F8F8"/>
</linearGradient>
<linearGradient id="paint2_linear_172_482" x1="140.734" y1="152.368" x2="144.942" y2="158.16" gradientUnits="userSpaceOnUse">
<stop stop-color="#FAFAFA"/>
<stop offset="1" stop-color="#070707"/>
</linearGradient>
<linearGradient id="paint3_linear_172_482" x1="138.494" y1="156.216" x2="146.388" y2="160.959" gradientUnits="userSpaceOnUse">
<stop stop-color="white"/>
<stop offset="1" stop-color="#F8F8F8"/>
</linearGradient>
<linearGradient id="paint4_linear_172_482" x1="153.625" y1="155.908" x2="158.675" y2="162.858" gradientUnits="userSpaceOnUse">
<stop stop-color="#FAFAFA"/>
<stop offset="1" stop-color="#070707"/>
</linearGradient>
<linearGradient id="paint5_linear_172_482" x1="150.938" y1="160.526" x2="160.41" y2="166.217" gradientUnits="userSpaceOnUse">
<stop stop-color="white"/>
<stop offset="1" stop-color="#F8F8F8"/>
</linearGradient>
<linearGradient id="paint6_linear_172_482" x1="153.211" y1="138.734" x2="158.261" y2="145.684" gradientUnits="userSpaceOnUse">
<stop stop-color="#FAFAFA"/>
<stop offset="1" stop-color="#070707"/>
</linearGradient>
<linearGradient id="paint7_linear_172_482" x1="150.524" y1="143.352" x2="159.996" y2="149.043" gradientUnits="userSpaceOnUse">
<stop stop-color="white"/>
<stop offset="1" stop-color="#F8F8F8"/>
</linearGradient>
<linearGradient id="paint8_linear_172_482" x1="138.703" y1="134.254" x2="143.753" y2="141.204" gradientUnits="userSpaceOnUse">
<stop stop-color="#FAFAFA"/>
<stop offset="1" stop-color="#070707"/>
</linearGradient>
<linearGradient id="paint9_linear_172_482" x1="136.016" y1="138.871" x2="145.488" y2="144.563" gradientUnits="userSpaceOnUse">
<stop stop-color="white"/>
<stop offset="1" stop-color="#F8F8F8"/>
</linearGradient>
<linearGradient id="paint10_linear_172_482" x1="126.897" y1="150.383" x2="130.264" y2="155.017" gradientUnits="userSpaceOnUse">
<stop stop-color="#FAFAFA"/>
<stop offset="1" stop-color="#070707"/>
</linearGradient>
<linearGradient id="paint11_linear_172_482" x1="125.106" y1="153.462" x2="131.42" y2="157.256" gradientUnits="userSpaceOnUse">
<stop stop-color="white"/>
<stop offset="1" stop-color="#F8F8F8"/>
</linearGradient>
<linearGradient id="paint12_linear_172_482" x1="167.196" y1="161.943" x2="172.245" y2="168.893" gradientUnits="userSpaceOnUse">
<stop stop-color="#FAFAFA"/>
<stop offset="1" stop-color="#070707"/>
</linearGradient>
<linearGradient id="paint13_linear_172_482" x1="164.508" y1="166.561" x2="173.98" y2="172.252" gradientUnits="userSpaceOnUse">
<stop stop-color="white"/>
<stop offset="1" stop-color="#F8F8F8"/>
</linearGradient>
<linearGradient id="paint14_linear_172_482" x1="154.718" y1="175.577" x2="158.926" y2="181.369" gradientUnits="userSpaceOnUse">
<stop stop-color="#FAFAFA"/>
<stop offset="1" stop-color="#070707"/>
</linearGradient>
<linearGradient id="paint15_linear_172_482" x1="152.479" y1="179.425" x2="160.372" y2="184.168" gradientUnits="userSpaceOnUse">
<stop stop-color="white"/>
<stop offset="1" stop-color="#F8F8F8"/>
</linearGradient>
<linearGradient id="paint16_linear_172_482" x1="168.574" y1="131.046" x2="173.624" y2="137.996" gradientUnits="userSpaceOnUse">
<stop stop-color="#FAFAFA"/>
<stop offset="1" stop-color="#070707"/>
</linearGradient>
<linearGradient id="paint17_linear_172_482" x1="165.887" y1="135.664" x2="175.359" y2="141.355" gradientUnits="userSpaceOnUse">
<stop stop-color="white"/>
<stop offset="1" stop-color="#F8F8F8"/>
</linearGradient>
<linearGradient id="paint18_linear_172_482" x1="181.867" y1="141.129" x2="186.075" y2="146.921" gradientUnits="userSpaceOnUse">
<stop stop-color="#FAFAFA"/>
<stop offset="1" stop-color="#070707"/>
</linearGradient>
<linearGradient id="paint19_linear_172_482" x1="179.627" y1="144.977" x2="187.52" y2="149.72" gradientUnits="userSpaceOnUse">
<stop stop-color="white"/>
<stop offset="1" stop-color="#F8F8F8"/>
</linearGradient>
<linearGradient id="paint20_linear_172_482" x1="199.241" y1="151.557" x2="202.607" y2="156.19" gradientUnits="userSpaceOnUse">
<stop stop-color="#FAFAFA"/>
<stop offset="1" stop-color="#070707"/>
</linearGradient>
<linearGradient id="paint21_linear_172_482" x1="197.449" y1="154.636" x2="203.764" y2="158.43" gradientUnits="userSpaceOnUse">
<stop stop-color="white"/>
<stop offset="1" stop-color="#F8F8F8"/>
</linearGradient>
<linearGradient id="paint22_linear_172_482" x1="183.867" y1="159.252" x2="188.075" y2="165.043" gradientUnits="userSpaceOnUse">
<stop stop-color="#FAFAFA"/>
<stop offset="1" stop-color="#070707"/>
</linearGradient>
<linearGradient id="paint23_linear_172_482" x1="181.627" y1="163.1" x2="189.52" y2="167.843" gradientUnits="userSpaceOnUse">
<stop stop-color="white"/>
<stop offset="1" stop-color="#F8F8F8"/>
</linearGradient>
<linearGradient id="paint24_linear_172_482" x1="197.152" y1="122.826" x2="201.36" y2="128.618" gradientUnits="userSpaceOnUse">
<stop stop-color="#FAFAFA"/>
<stop offset="1" stop-color="#070707"/>
</linearGradient>
<linearGradient id="paint25_linear_172_482" x1="194.912" y1="126.675" x2="202.806" y2="131.417" gradientUnits="userSpaceOnUse">
<stop stop-color="white"/>
<stop offset="1" stop-color="#F8F8F8"/>
</linearGradient>
<linearGradient id="paint26_linear_172_482" x1="181.059" y1="117.405" x2="186.108" y2="124.355" gradientUnits="userSpaceOnUse">
<stop stop-color="#FAFAFA"/>
<stop offset="1" stop-color="#070707"/>
</linearGradient>
<linearGradient id="paint27_linear_172_482" x1="178.371" y1="122.023" x2="187.843" y2="127.714" gradientUnits="userSpaceOnUse">
<stop stop-color="white"/>
<stop offset="1" stop-color="#F8F8F8"/>
</linearGradient>
<linearGradient id="paint28_linear_172_482" x1="208.562" y1="136.025" x2="212.77" y2="141.817" gradientUnits="userSpaceOnUse">
<stop stop-color="#FAFAFA"/>
<stop offset="1" stop-color="#070707"/>
</linearGradient>
<linearGradient id="paint29_linear_172_482" x1="206.322" y1="139.873" x2="214.216" y2="144.616" gradientUnits="userSpaceOnUse">
<stop stop-color="white"/>
<stop offset="1" stop-color="#F8F8F8"/>
</linearGradient>
<linearGradient id="paint30_linear_172_482" x1="121.926" y1="115.707" x2="126.976" y2="122.657" gradientUnits="userSpaceOnUse">
<stop stop-color="#FAFAFA"/>
<stop offset="1" stop-color="#070707"/>
</linearGradient>
<linearGradient id="paint31_linear_172_482" x1="119.238" y1="120.325" x2="128.711" y2="126.016" gradientUnits="userSpaceOnUse">
<stop stop-color="white"/>
<stop offset="1" stop-color="#F8F8F8"/>
</linearGradient>
<linearGradient id="paint32_linear_172_482" x1="135.996" y1="103.014" x2="141.046" y2="109.964" gradientUnits="userSpaceOnUse">
<stop stop-color="#FAFAFA"/>
<stop offset="1" stop-color="#070707"/>
</linearGradient>
<linearGradient id="paint33_linear_172_482" x1="133.309" y1="107.631" x2="142.781" y2="113.323" gradientUnits="userSpaceOnUse">
<stop stop-color="white"/>
<stop offset="1" stop-color="#F8F8F8"/>
</linearGradient>
<linearGradient id="paint34_linear_172_482" x1="123.363" y1="95.4256" x2="128.413" y2="102.376" gradientUnits="userSpaceOnUse">
<stop stop-color="#FAFAFA"/>
<stop offset="1" stop-color="#070707"/>
</linearGradient>
<linearGradient id="paint35_linear_172_482" x1="120.676" y1="100.043" x2="130.148" y2="105.735" gradientUnits="userSpaceOnUse">
<stop stop-color="white"/>
<stop offset="1" stop-color="#F8F8F8"/>
</linearGradient>
<linearGradient id="paint36_linear_172_482" x1="133.629" y1="78.3323" x2="138.679" y2="85.2825" gradientUnits="userSpaceOnUse">
<stop stop-color="#FAFAFA"/>
<stop offset="1" stop-color="#070707"/>
</linearGradient>
<linearGradient id="paint37_linear_172_482" x1="130.942" y1="82.9502" x2="140.414" y2="88.6415" gradientUnits="userSpaceOnUse">
<stop stop-color="white"/>
<stop offset="1" stop-color="#F8F8F8"/>
</linearGradient>
<linearGradient id="paint38_linear_172_482" x1="127.19" y1="68.1994" x2="128.169" y2="72.3562" gradientUnits="userSpaceOnUse">
<stop stop-color="#FAFAFA"/>
<stop offset="1" stop-color="#070707"/>
</linearGradient>
<linearGradient id="paint39_linear_172_482" x1="125.047" y1="69.8052" x2="128.291" y2="74.2606" gradientUnits="userSpaceOnUse">
<stop stop-color="white"/>
<stop offset="1" stop-color="#F8F8F8"/>
</linearGradient>
<linearGradient id="paint40_linear_172_482" x1="120.158" y1="51.2871" x2="121.137" y2="55.4439" gradientUnits="userSpaceOnUse">
<stop stop-color="#FAFAFA"/>
<stop offset="1" stop-color="#070707"/>
</linearGradient>
<linearGradient id="paint41_linear_172_482" x1="118.016" y1="52.893" x2="121.26" y2="57.3484" gradientUnits="userSpaceOnUse">
<stop stop-color="white"/>
<stop offset="1" stop-color="#F8F8F8"/>
</linearGradient>
<linearGradient id="paint42_linear_172_482" x1="152.578" y1="89.7153" x2="157.628" y2="96.6656" gradientUnits="userSpaceOnUse">
<stop stop-color="#FAFAFA"/>
<stop offset="1" stop-color="#070707"/>
</linearGradient>
<linearGradient id="paint43_linear_172_482" x1="149.891" y1="94.3332" x2="159.363" y2="100.025" gradientUnits="userSpaceOnUse">
<stop stop-color="white"/>
<stop offset="1" stop-color="#F8F8F8"/>
</linearGradient>
<linearGradient id="paint44_linear_172_482" x1="150.578" y1="71.5927" x2="155.628" y2="78.5429" gradientUnits="userSpaceOnUse">
<stop stop-color="#FAFAFA"/>
<stop offset="1" stop-color="#070707"/>
</linearGradient>
<linearGradient id="paint45_linear_172_482" x1="147.891" y1="76.2106" x2="157.363" y2="81.9019" gradientUnits="userSpaceOnUse">
<stop stop-color="white"/>
<stop offset="1" stop-color="#F8F8F8"/>
</linearGradient>
<linearGradient id="paint46_linear_172_482" x1="138.924" y1="68.7458" x2="139.903" y2="72.9025" gradientUnits="userSpaceOnUse">
<stop stop-color="#FAFAFA"/>
<stop offset="1" stop-color="#070707"/>
</linearGradient>
<linearGradient id="paint47_linear_172_482" x1="136.782" y1="70.3516" x2="140.025" y2="74.807" gradientUnits="userSpaceOnUse">
<stop stop-color="white"/>
<stop offset="1" stop-color="#F8F8F8"/>
</linearGradient>
<linearGradient id="paint48_linear_172_482" x1="127.053" y1="46.969" x2="128.032" y2="51.1258" gradientUnits="userSpaceOnUse">
<stop stop-color="#FAFAFA"/>
<stop offset="1" stop-color="#070707"/>
</linearGradient>
<linearGradient id="paint49_linear_172_482" x1="124.911" y1="48.5748" x2="128.154" y2="53.0303" gradientUnits="userSpaceOnUse">
<stop stop-color="white"/>
<stop offset="1" stop-color="#F8F8F8"/>
</linearGradient>
<linearGradient id="paint50_linear_172_482" x1="170.453" y1="81.4215" x2="175.503" y2="88.3717" gradientUnits="userSpaceOnUse">
<stop stop-color="#FAFAFA"/>
<stop offset="1" stop-color="#070707"/>
</linearGradient>
<linearGradient id="paint51_linear_172_482" x1="167.766" y1="86.0394" x2="177.238" y2="91.7308" gradientUnits="userSpaceOnUse">
<stop stop-color="white"/>
<stop offset="1" stop-color="#F8F8F8"/>
</linearGradient>
<linearGradient id="paint52_linear_172_482" x1="197.656" y1="104.105" x2="202.706" y2="111.056" gradientUnits="userSpaceOnUse">
<stop stop-color="#FAFAFA"/>
<stop offset="1" stop-color="#070707"/>
</linearGradient>
<linearGradient id="paint53_linear_172_482" x1="194.969" y1="108.723" x2="204.441" y2="114.415" gradientUnits="userSpaceOnUse">
<stop stop-color="white"/>
<stop offset="1" stop-color="#F8F8F8"/>
</linearGradient>
<linearGradient id="paint54_linear_172_482" x1="124.44" y1="57.9476" x2="126.964" y2="61.4227" gradientUnits="userSpaceOnUse">
<stop stop-color="#FAFAFA"/>
<stop offset="1" stop-color="#070707"/>
</linearGradient>
<linearGradient id="paint55_linear_172_482" x1="123.096" y1="60.2566" x2="127.832" y2="63.1023" gradientUnits="userSpaceOnUse">
<stop stop-color="white"/>
<stop offset="1" stop-color="#F8F8F8"/>
</linearGradient>
<linearGradient id="paint56_linear_172_482" x1="106.936" y1="26.2833" x2="109.46" y2="29.7584" gradientUnits="userSpaceOnUse">
<stop stop-color="#FAFAFA"/>
<stop offset="1" stop-color="#070707"/>
</linearGradient>
<linearGradient id="paint57_linear_172_482" x1="105.592" y1="28.5923" x2="110.328" y2="31.438" gradientUnits="userSpaceOnUse">
<stop stop-color="white"/>
<stop offset="1" stop-color="#F8F8F8"/>
</linearGradient>
<linearGradient id="paint58_linear_172_482" x1="232.736" y1="171.001" x2="235.341" y2="172.205" gradientUnits="userSpaceOnUse">
<stop stop-color="#FAFAFA"/>
<stop offset="1" stop-color="#070707"/>
</linearGradient>
<linearGradient id="paint59_linear_172_482" x1="232.703" y1="172.789" x2="236.371" y2="172.907" gradientUnits="userSpaceOnUse">
<stop stop-color="white"/>
<stop offset="1" stop-color="#F8F8F8"/>
</linearGradient>
<linearGradient id="paint60_linear_172_482" x1="158.307" y1="208.518" x2="158.544" y2="211.348" gradientUnits="userSpaceOnUse">
<stop stop-color="#FAFAFA"/>
<stop offset="1" stop-color="#070707"/>
</linearGradient>
<linearGradient id="paint61_linear_172_482" x1="156.732" y1="209.365" x2="158.424" y2="212.618" gradientUnits="userSpaceOnUse">
<stop stop-color="white"/>
<stop offset="1" stop-color="#F8F8F8"/>
</linearGradient>
<linearGradient id="paint62_linear_172_482" x1="114.252" y1="39.1388" x2="116.777" y2="42.6139" gradientUnits="userSpaceOnUse">
<stop stop-color="#FAFAFA"/>
<stop offset="1" stop-color="#070707"/>
</linearGradient>
<linearGradient id="paint63_linear_172_482" x1="112.908" y1="41.4477" x2="117.644" y2="44.2934" gradientUnits="userSpaceOnUse">
<stop stop-color="white"/>
<stop offset="1" stop-color="#F8F8F8"/>
</linearGradient>
<linearGradient id="paint64_linear_172_482" x1="226.549" y1="170.57" x2="229.153" y2="171.774" gradientUnits="userSpaceOnUse">
<stop stop-color="#FAFAFA"/>
<stop offset="1" stop-color="#070707"/>
</linearGradient>
<linearGradient id="paint65_linear_172_482" x1="226.516" y1="172.358" x2="230.183" y2="172.476" gradientUnits="userSpaceOnUse">
<stop stop-color="white"/>
<stop offset="1" stop-color="#F8F8F8"/>
</linearGradient>
<linearGradient id="paint66_linear_172_482" x1="155.506" y1="202.994" x2="155.743" y2="205.825" gradientUnits="userSpaceOnUse">
<stop stop-color="#FAFAFA"/>
<stop offset="1" stop-color="#070707"/>
</linearGradient>
<linearGradient id="paint67_linear_172_482" x1="153.931" y1="203.841" x2="155.624" y2="207.094" gradientUnits="userSpaceOnUse">
<stop stop-color="white"/>
<stop offset="1" stop-color="#F8F8F8"/>
</linearGradient>
<linearGradient id="paint68_linear_172_482" x1="217.55" y1="160.437" x2="220.916" y2="165.071" gradientUnits="userSpaceOnUse">
<stop stop-color="#FAFAFA"/>
<stop offset="1" stop-color="#070707"/>
</linearGradient>
<linearGradient id="paint69_linear_172_482" x1="215.758" y1="163.516" x2="222.073" y2="167.31" gradientUnits="userSpaceOnUse">
<stop stop-color="white"/>
<stop offset="1" stop-color="#F8F8F8"/>
</linearGradient>
<linearGradient id="paint70_linear_172_482" x1="159.713" y1="190.301" x2="157.443" y2="195.477" gradientUnits="userSpaceOnUse">
<stop stop-color="#FAFAFA"/>
<stop offset="1" stop-color="#070707"/>
</linearGradient>
<linearGradient id="paint71_linear_172_482" x1="156.109" y1="190.27" x2="155.947" y2="197.548" gradientUnits="userSpaceOnUse">
<stop stop-color="white"/>
<stop offset="1" stop-color="#F8F8F8"/>
</linearGradient>
<linearGradient id="paint72_linear_172_482" x1="168.992" y1="148.219" x2="174.042" y2="155.17" gradientUnits="userSpaceOnUse">
<stop stop-color="#FAFAFA"/>
<stop offset="1" stop-color="#070707"/>
</linearGradient>
<linearGradient id="paint73_linear_172_482" x1="166.305" y1="152.837" x2="175.777" y2="158.529" gradientUnits="userSpaceOnUse">
<stop stop-color="white"/>
<stop offset="1" stop-color="#F8F8F8"/>
</linearGradient>
<linearGradient id="paint74_linear_172_482" x1="95.8789" y1="9.00668" x2="168.175" y2="142.308" gradientUnits="userSpaceOnUse">
<stop stop-color="#FAFAFA"/>
<stop offset="1" stop-color="#070707"/>
</linearGradient>
</defs>
</svg>
