<svg width="198" height="272" viewBox="0 0 198 272" fill="none" xmlns="http://www.w3.org/2000/svg">
<g filter="url(#filter0_bf_172_174)">
<g filter="url(#filter1_dd_172_174)">
<path d="M142.054 69.6187L191 7L166.527 80.6691C173.778 100.314 175.591 123.029 175.591 152.496C175.591 156.917 172.57 155.566 171.059 154.338L129.365 191.173L114.862 263L113.049 187.489L73.1675 158.022L7 189.331L67.7291 145.13C67.7291 139.236 72.5632 115.048 74.9803 103.691C72.8049 101.481 74.0739 97.8585 74.9803 96.3237C96.0089 74.9597 128.458 69.6187 142.054 69.6187Z" fill="url(#paint0_linear_172_174)"/>
<path d="M74.9803 96.3237C96.0089 74.9597 128.458 69.6187 142.054 69.6187L191 7L166.527 80.6691C173.778 100.314 175.591 123.029 175.591 152.496M74.9803 96.3237C74.0739 97.8585 72.8049 101.481 74.9803 103.691M74.9803 96.3237C117.581 96.3237 175.591 139.236 175.591 152.496M175.591 152.496C175.591 156.917 172.57 155.566 171.059 154.338M74.9803 103.691C72.5632 115.048 67.7291 139.236 67.7291 145.129L7 189.331L73.1675 158.022L113.049 187.489L114.862 263L129.365 191.173L171.059 154.338M74.9803 103.691C117.581 103.691 171.059 147.708 171.059 154.338" stroke="url(#paint1_linear_172_174)"/>
</g>
<path d="M89.8883 125.791C89.8883 128.065 88.0756 129.896 85.8562 129.896C83.6368 129.896 81.8242 128.065 81.8242 125.791C81.8242 123.517 83.6368 121.687 85.8562 121.687C88.0756 121.687 89.8883 123.517 89.8883 125.791Z" fill="url(#paint2_linear_172_174)" stroke="url(#paint3_linear_172_174)"/>
<path d="M93.5097 139.604C93.5097 142.387 91.2912 144.629 88.5712 144.629C85.8513 144.629 83.6328 142.387 83.6328 139.604C83.6328 136.821 85.8513 134.579 88.5712 134.579C91.2912 134.579 93.5097 136.821 93.5097 139.604Z" fill="url(#paint4_linear_172_174)" stroke="url(#paint5_linear_172_174)"/>
<path d="M108.017 130.395C108.017 133.178 105.799 135.421 103.079 135.421C100.359 135.421 98.1406 133.178 98.1406 130.395C98.1406 127.613 100.359 125.37 103.079 125.37C105.799 125.37 108.017 127.613 108.017 130.395Z" fill="url(#paint6_linear_172_174)" stroke="url(#paint7_linear_172_174)"/>
<path d="M104.385 115.662C104.385 118.445 102.166 120.687 99.4462 120.687C96.7263 120.687 94.5078 118.445 94.5078 115.662C94.5078 112.879 96.7263 110.637 99.4462 110.637C102.166 110.637 104.385 112.879 104.385 115.662Z" fill="url(#paint8_linear_172_174)" stroke="url(#paint9_linear_172_174)"/>
<path d="M84.4465 111.978C84.4465 113.744 83.0397 115.162 81.3209 115.162C79.6021 115.162 78.1953 113.744 78.1953 111.978C78.1953 110.213 79.6021 108.795 81.3209 108.795C83.0397 108.795 84.4465 110.213 84.4465 111.978Z" fill="url(#paint10_linear_172_174)" stroke="url(#paint11_linear_172_174)"/>
<path d="M95.33 154.338C95.33 157.121 93.1115 159.364 90.3915 159.364C87.6716 159.364 85.4531 157.121 85.4531 154.338C85.4531 151.556 87.6716 149.313 90.3915 149.313C93.1115 149.313 95.33 151.556 95.33 154.338Z" fill="url(#paint12_linear_172_174)" stroke="url(#paint13_linear_172_174)"/>
<path d="M77.2008 149.734C77.2008 152.009 75.3881 153.839 73.1687 153.839C70.9493 153.839 69.1367 152.009 69.1367 149.734C69.1367 147.46 70.9493 145.63 73.1687 145.63C75.3881 145.63 77.2008 147.46 77.2008 149.734Z" fill="url(#paint14_linear_172_174)" stroke="url(#paint15_linear_172_174)"/>
<path d="M122.514 139.604C122.514 142.387 120.295 144.629 117.575 144.629C114.855 144.629 112.637 142.387 112.637 139.604C112.637 136.821 114.855 134.579 117.575 134.579C120.295 134.579 122.514 136.821 122.514 139.604Z" fill="url(#paint16_linear_172_174)" stroke="url(#paint17_linear_172_174)"/>
<path d="M120.701 155.259C120.701 157.533 118.888 159.363 116.669 159.363C114.449 159.363 112.637 157.533 112.637 155.259C112.637 152.984 114.449 151.154 116.669 151.154C118.888 151.154 120.701 152.984 120.701 155.259Z" fill="url(#paint18_linear_172_174)" stroke="url(#paint19_linear_172_174)"/>
<path d="M120.708 174.598C120.708 176.363 119.301 177.781 117.583 177.781C115.864 177.781 114.457 176.363 114.457 174.598C114.457 172.832 115.864 171.414 117.583 171.414C119.301 171.414 120.708 172.832 120.708 174.598Z" fill="url(#paint20_linear_172_174)" stroke="url(#paint21_linear_172_174)"/>
<path d="M106.205 166.31C106.205 168.584 104.392 170.414 102.173 170.414C99.9533 170.414 98.1406 168.584 98.1406 166.31C98.1406 164.035 99.9533 162.205 102.173 162.205C104.392 162.205 106.205 164.035 106.205 166.31Z" fill="url(#paint22_linear_172_174)" stroke="url(#paint23_linear_172_174)"/>
<path d="M144.275 158.942C144.275 161.216 142.462 163.046 140.243 163.046C138.024 163.046 136.211 161.216 136.211 158.942C136.211 156.668 138.024 154.838 140.243 154.838C142.462 154.838 144.275 156.668 144.275 158.942Z" fill="url(#paint24_linear_172_174)" stroke="url(#paint25_linear_172_174)"/>
<path d="M140.639 143.288C140.639 146.07 138.42 148.313 135.7 148.313C132.98 148.313 130.762 146.07 130.762 143.288C130.762 140.505 132.98 138.262 135.7 138.262C138.42 138.262 140.639 140.505 140.639 143.288Z" fill="url(#paint26_linear_172_174)" stroke="url(#paint27_linear_172_174)"/>
<path d="M138.826 175.519C138.826 177.793 137.013 179.623 134.794 179.623C132.574 179.623 130.762 177.793 130.762 175.519C130.762 173.244 132.574 171.414 134.794 171.414C137.013 171.414 138.826 173.244 138.826 175.519Z" fill="url(#paint28_linear_172_174)" stroke="url(#paint29_linear_172_174)"/>
<path d="M111.646 91.719C111.646 94.5018 109.428 96.7442 106.708 96.7442C103.988 96.7442 101.77 94.5018 101.77 91.719C101.77 88.9362 103.988 86.6938 106.708 86.6938C109.428 86.6938 111.646 88.9362 111.646 91.719Z" fill="url(#paint30_linear_172_174)" stroke="url(#paint31_linear_172_174)"/>
<path d="M129.767 97.2445C129.767 100.027 127.549 102.27 124.829 102.27C122.109 102.27 119.891 100.027 119.891 97.2445C119.891 94.4617 122.109 92.2193 124.829 92.2193C127.549 92.2193 129.767 94.4617 129.767 97.2445Z" fill="url(#paint32_linear_172_174)" stroke="url(#paint33_linear_172_174)"/>
<path d="M129.767 82.5112C129.767 85.294 127.549 87.5364 124.829 87.5364C122.109 87.5364 119.891 85.294 119.891 82.5112C119.891 79.7284 122.109 77.486 124.829 77.486C127.549 77.486 129.767 79.7284 129.767 82.5112Z" fill="url(#paint34_linear_172_174)" stroke="url(#paint35_linear_172_174)"/>
<path d="M149.713 82.5112C149.713 85.294 147.494 87.5364 144.774 87.5364C142.054 87.5364 139.836 85.294 139.836 82.5112C139.836 79.7284 142.054 77.486 144.774 77.486C147.494 77.486 149.713 79.7284 149.713 82.5112Z" fill="url(#paint36_linear_172_174)" stroke="url(#paint37_linear_172_174)"/>
<path d="M154.006 68.5737C153.531 69.7312 152.228 70.2703 151.101 69.7932C149.973 69.316 149.432 67.996 149.907 66.8385C150.382 65.681 151.685 65.1419 152.812 65.619C153.94 66.0962 154.481 67.4162 154.006 68.5737Z" fill="url(#paint38_linear_172_174)" stroke="url(#paint39_linear_172_174)"/>
<path d="M164.885 53.8395C164.41 54.9969 163.107 55.5361 161.979 55.0589C160.852 54.5818 160.311 53.2618 160.786 52.1043C161.261 50.9468 162.564 50.4077 163.691 50.8848C164.818 51.362 165.36 52.682 164.885 53.8395Z" fill="url(#paint40_linear_172_174)" stroke="url(#paint41_linear_172_174)"/>
<path d="M149.713 104.611C149.713 107.394 147.494 109.636 144.774 109.636C142.054 109.636 139.836 107.394 139.836 104.611C139.836 101.828 142.054 99.586 144.774 99.586C147.494 99.586 149.713 101.828 149.713 104.611Z" fill="url(#paint42_linear_172_174)" stroke="url(#paint43_linear_172_174)"/>
<path d="M164.217 93.5612C164.217 96.344 161.998 98.5864 159.278 98.5864C156.558 98.5864 154.34 96.344 154.34 93.5612C154.34 90.7784 156.558 88.536 159.278 88.536C161.998 88.536 164.217 90.7784 164.217 93.5612Z" fill="url(#paint44_linear_172_174)" stroke="url(#paint45_linear_172_174)"/>
<path d="M159.58 78.9155C159.106 80.073 157.802 80.6121 156.675 80.135C155.548 79.6578 155.006 78.3378 155.481 77.1803C155.956 76.0228 157.259 75.4837 158.387 75.9608C159.514 76.438 160.055 77.758 159.58 78.9155Z" fill="url(#paint46_linear_172_174)" stroke="url(#paint47_linear_172_174)"/>
<path d="M172.131 57.5227C171.656 58.6802 170.353 59.2193 169.226 58.7422C168.098 58.2651 167.557 56.945 168.032 55.7875C168.507 54.6301 169.81 54.0909 170.937 54.5681C172.065 55.0452 172.606 56.3653 172.131 57.5227Z" fill="url(#paint48_linear_172_174)" stroke="url(#paint49_linear_172_174)"/>
<path d="M166.029 115.662C166.029 118.445 163.811 120.687 161.091 120.687C158.371 120.687 156.152 118.445 156.152 115.662C156.152 112.879 158.371 110.637 161.091 110.637C163.811 110.637 166.029 112.879 166.029 115.662Z" fill="url(#paint50_linear_172_174)" stroke="url(#paint51_linear_172_174)"/>
<path d="M160.588 150.655C160.588 153.438 158.369 155.68 155.649 155.68C152.929 155.68 150.711 153.438 150.711 150.655C150.711 147.872 152.929 145.63 155.649 145.63C158.369 145.63 160.588 147.872 160.588 150.655Z" fill="url(#paint52_linear_172_174)" stroke="url(#paint53_linear_172_174)"/>
<path d="M162.399 61.331C162.399 62.5881 161.398 63.5936 160.18 63.5936C158.962 63.5936 157.961 62.5881 157.961 61.331C157.961 60.074 158.962 59.0685 160.18 59.0685C161.398 59.0685 162.399 60.074 162.399 61.331Z" fill="url(#paint54_linear_172_174)" stroke="url(#paint55_linear_172_174)"/>
<path d="M180.528 30.0213C180.528 31.2784 179.527 32.2839 178.309 32.2839C177.091 32.2839 176.09 31.2784 176.09 30.0213C176.09 28.7643 177.091 27.7588 178.309 27.7588C179.527 27.7588 180.528 28.7643 180.528 30.0213Z" fill="url(#paint56_linear_172_174)" stroke="url(#paint57_linear_172_174)"/>
<path d="M122.2 211.448C122.552 212.1 122.315 212.912 121.682 213.265C121.049 213.618 120.247 213.386 119.895 212.734C119.543 212.082 119.78 211.27 120.413 210.917C121.046 210.564 121.847 210.796 122.2 211.448Z" fill="url(#paint58_linear_172_174)" stroke="url(#paint59_linear_172_174)"/>
<path d="M49.8814 166.466C49.5034 167.103 48.6932 167.302 48.0745 166.923C47.4557 166.543 47.2521 165.722 47.6301 165.086C48.0082 164.449 48.8183 164.25 49.4371 164.629C50.0559 165.009 50.2595 165.83 49.8814 166.466Z" fill="url(#paint60_linear_172_174)" stroke="url(#paint61_linear_172_174)"/>
<path d="M173.282 42.9135C173.282 44.1706 172.281 45.1761 171.063 45.1761C169.845 45.1761 168.844 44.1706 168.844 42.9135C168.844 41.6564 169.845 40.6509 171.063 40.6509C172.281 40.6509 173.282 41.6564 173.282 42.9135Z" fill="url(#paint62_linear_172_174)" stroke="url(#paint63_linear_172_174)"/>
<path d="M119.383 205.923C119.736 206.575 119.498 207.387 118.865 207.74C118.232 208.093 117.431 207.86 117.079 207.208C116.726 206.556 116.963 205.744 117.596 205.391C118.229 205.038 119.031 205.271 119.383 205.923Z" fill="url(#paint64_linear_172_174)" stroke="url(#paint65_linear_172_174)"/>
<path d="M53.1822 161.219C52.8042 161.855 51.994 162.055 51.3753 161.676C50.7565 161.296 50.5529 160.475 50.9309 159.839C51.309 159.202 52.1191 159.003 52.7379 159.382C53.3566 159.762 53.5603 160.583 53.1822 161.219Z" fill="url(#paint66_linear_172_174)" stroke="url(#paint67_linear_172_174)"/>
<path d="M122.521 194.856C122.521 196.622 121.114 198.04 119.395 198.04C117.676 198.04 116.27 196.622 116.27 194.856C116.27 193.09 117.676 191.673 119.395 191.673C121.114 191.673 122.521 193.09 122.521 194.856Z" fill="url(#paint68_linear_172_174)" stroke="url(#paint69_linear_172_174)"/>
<path d="M64.1759 158.429C62.6849 159.308 60.7688 158.794 59.8992 157.271C59.0296 155.748 59.5425 153.804 61.0335 152.925C62.5245 152.046 64.4406 152.56 65.3102 154.083C66.1798 155.606 65.6669 157.551 64.1759 158.429Z" fill="url(#paint70_linear_172_174)" stroke="url(#paint71_linear_172_174)"/>
<path d="M108.017 148.813C108.017 151.596 105.799 153.838 103.079 153.838C100.359 153.838 98.1406 151.596 98.1406 148.813C98.1406 146.03 100.359 143.788 103.079 143.788C105.799 143.788 108.017 146.03 108.017 148.813Z" fill="url(#paint72_linear_172_174)" stroke="url(#paint73_linear_172_174)"/>
</g>
<g filter="url(#filter2_dd_172_174)">
<path d="M142.054 69.6187L191 7L166.527 80.6691C173.778 100.314 175.591 123.029 175.591 152.496C175.591 156.917 172.57 155.566 171.059 154.338L129.365 191.173L114.862 263L113.049 187.489L73.1675 158.022L7 189.331L67.7291 145.13C67.7291 139.236 72.5632 115.048 74.9803 103.691C72.8049 101.481 74.0739 97.8585 74.9803 96.3237C96.0089 74.9597 128.458 69.6187 142.054 69.6187Z" fill="url(#paint74_linear_172_174)"/>
<path d="M74.9803 96.3237C96.0089 74.9597 128.458 69.6187 142.054 69.6187L191 7L166.527 80.6691C173.778 100.314 175.591 123.029 175.591 152.496M74.9803 96.3237C74.0739 97.8585 72.8049 101.481 74.9803 103.691M74.9803 96.3237C117.581 96.3237 175.591 139.236 175.591 152.496M175.591 152.496C175.591 156.917 172.57 155.566 171.059 154.338M74.9803 103.691C72.5632 115.048 67.7291 139.236 67.7291 145.129L7 189.331L73.1675 158.022L113.049 187.489L114.862 263L129.365 191.173L171.059 154.338M74.9803 103.691C117.581 103.691 171.059 147.708 171.059 154.338" stroke="#FAFAFA"/>
</g>
<ellipse cx="85.8562" cy="125.791" rx="4.53202" ry="4.60432" fill="#D7FF00"/>
<ellipse cx="88.5712" cy="139.604" rx="5.43842" ry="5.52518" fill="#D7FF00"/>
<ellipse cx="103.079" cy="130.395" rx="5.43842" ry="5.52518" fill="#D7FF00"/>
<ellipse cx="99.4462" cy="115.662" rx="5.43842" ry="5.52518" fill="#D7FF00"/>
<ellipse cx="81.3209" cy="111.978" rx="3.62562" ry="3.68345" fill="#D7FF00"/>
<ellipse cx="90.3915" cy="154.338" rx="5.43842" ry="5.52518" fill="#D7FF00"/>
<ellipse cx="73.1687" cy="149.734" rx="4.53202" ry="4.60432" fill="#D7FF00"/>
<ellipse cx="117.575" cy="139.604" rx="5.43842" ry="5.52518" fill="#D7FF00"/>
<ellipse cx="116.669" cy="155.259" rx="4.53202" ry="4.60432" fill="#D7FF00"/>
<ellipse cx="117.583" cy="174.598" rx="3.62562" ry="3.68345" fill="#D7FF00"/>
<ellipse cx="102.173" cy="166.31" rx="4.53202" ry="4.60432" fill="#D7FF00"/>
<ellipse cx="140.243" cy="158.942" rx="4.53202" ry="4.60432" fill="#D7FF00"/>
<ellipse cx="135.7" cy="143.288" rx="5.43842" ry="5.52518" fill="#D7FF00"/>
<ellipse cx="134.794" cy="175.518" rx="4.53202" ry="4.60432" fill="#D7FF00"/>
<ellipse cx="106.708" cy="91.719" rx="5.43842" ry="5.52518" fill="#D7FF00"/>
<ellipse cx="124.829" cy="97.2445" rx="5.43842" ry="5.52518" fill="#D7FF00"/>
<ellipse cx="124.829" cy="82.5112" rx="5.43842" ry="5.52518" fill="#D7FF00"/>
<ellipse cx="144.774" cy="82.5112" rx="5.43842" ry="5.52518" fill="#D7FF00"/>
<ellipse cx="2.72559" cy="2.75577" rx="2.72559" ry="2.75577" transform="matrix(0.920889 0.389825 -0.379452 0.925212 150.492 64.0939)" fill="#D7FF00"/>
<ellipse cx="2.72559" cy="2.75577" rx="2.72559" ry="2.75577" transform="matrix(0.920889 0.389825 -0.379452 0.925212 161.371 49.3597)" fill="#D7FF00"/>
<ellipse cx="144.774" cy="104.611" rx="5.43842" ry="5.52518" fill="#D7FF00"/>
<ellipse cx="159.278" cy="93.5612" rx="5.43842" ry="5.52518" fill="#D7FF00"/>
<ellipse cx="2.72559" cy="2.75577" rx="2.72559" ry="2.75577" transform="matrix(0.920889 0.389825 -0.379452 0.925212 156.066 74.4357)" fill="#D7FF00"/>
<ellipse cx="2.72559" cy="2.75577" rx="2.72559" ry="2.75577" transform="matrix(0.920889 0.389825 -0.379452 0.925212 168.617 53.043)" fill="#D7FF00"/>
<ellipse cx="161.091" cy="115.662" rx="5.43842" ry="5.52518" fill="#D7FF00"/>
<ellipse cx="155.649" cy="150.655" rx="5.43842" ry="5.52518" fill="#D7FF00"/>
<ellipse cx="160.18" cy="61.331" rx="2.71921" ry="2.76259" fill="#D7FF00"/>
<ellipse cx="178.309" cy="30.0213" rx="2.71921" ry="2.76259" fill="#D7FF00"/>
<ellipse cx="1.81946" cy="1.8348" rx="1.81946" ry="1.8348" transform="matrix(0.873328 -0.487133 0.475428 0.879755 118.586 211.363)" fill="#D7FF00"/>
<ellipse cx="1.82048" cy="1.83379" rx="1.82048" ry="1.83379" transform="matrix(0.852457 0.522798 -0.510809 0.859694 48.1406 163.248)" fill="#D7FF00"/>
<ellipse cx="171.063" cy="42.9135" rx="2.71921" ry="2.76259" fill="#D7FF00"/>
<ellipse cx="1.81946" cy="1.8348" rx="1.81946" ry="1.8348" transform="matrix(0.873328 -0.487133 0.475428 0.879755 115.77 205.838)" fill="#D7FF00"/>
<ellipse cx="1.82048" cy="1.83379" rx="1.82048" ry="1.83379" transform="matrix(0.852457 0.522798 -0.510809 0.859694 51.4414 158.001)" fill="#D7FF00"/>
<ellipse cx="119.395" cy="194.856" rx="3.62562" ry="3.68345" fill="#D7FF00"/>
<ellipse cx="3.66898" cy="3.64026" rx="3.66898" ry="3.64026" transform="matrix(0.495799 0.868437 -0.861545 0.507682 63.9219 150.643)" fill="#D7FF00"/>
<ellipse cx="103.079" cy="148.813" rx="5.43842" ry="5.52518" fill="#D7FF00"/>
<defs>
<filter id="filter0_bf_172_174" x="-92.893" y="-92.9079" width="383.966" height="455.607" filterUnits="userSpaceOnUse" color-interpolation-filters="sRGB">
<feFlood flood-opacity="0" result="BackgroundImageFix"/>
<feGaussianBlur in="BackgroundImageFix" stdDeviation="49.8"/>
<feComposite in2="SourceAlpha" operator="in" result="effect1_backgroundBlur_172_174"/>
<feBlend mode="normal" in="SourceGraphic" in2="effect1_backgroundBlur_172_174" result="shape"/>
<feGaussianBlur stdDeviation="3.25" result="effect2_foregroundBlur_172_174"/>
</filter>
<filter id="filter1_dd_172_174" x="2.70703" y="6.69208" width="192.766" height="264.407" filterUnits="userSpaceOnUse" color-interpolation-filters="sRGB">
<feFlood flood-opacity="0" result="BackgroundImageFix"/>
<feColorMatrix in="SourceAlpha" type="matrix" values="0 0 0 0 0 0 0 0 0 0 0 0 0 0 0 0 0 0 127 0" result="hardAlpha"/>
<feOffset dy="4"/>
<feGaussianBlur stdDeviation="2"/>
<feComposite in2="hardAlpha" operator="out"/>
<feColorMatrix type="matrix" values="0 0 0 0 0 0 0 0 0 0 0 0 0 0 0 0 0 0 0.25 0"/>
<feBlend mode="normal" in2="BackgroundImageFix" result="effect1_dropShadow_172_174"/>
<feColorMatrix in="SourceAlpha" type="matrix" values="0 0 0 0 0 0 0 0 0 0 0 0 0 0 0 0 0 0 127 0" result="hardAlpha"/>
<feOffset dy="4"/>
<feGaussianBlur stdDeviation="2"/>
<feComposite in2="hardAlpha" operator="out"/>
<feColorMatrix type="matrix" values="0 0 0 0 0 0 0 0 0 0 0 0 0 0 0 0 0 0 0.25 0"/>
<feBlend mode="normal" in2="effect1_dropShadow_172_174" result="effect2_dropShadow_172_174"/>
<feBlend mode="normal" in="SourceGraphic" in2="effect2_dropShadow_172_174" result="shape"/>
</filter>
<filter id="filter2_dd_172_174" x="2.70703" y="6.69208" width="192.766" height="264.407" filterUnits="userSpaceOnUse" color-interpolation-filters="sRGB">
<feFlood flood-opacity="0" result="BackgroundImageFix"/>
<feColorMatrix in="SourceAlpha" type="matrix" values="0 0 0 0 0 0 0 0 0 0 0 0 0 0 0 0 0 0 127 0" result="hardAlpha"/>
<feOffset dy="4"/>
<feGaussianBlur stdDeviation="2"/>
<feComposite in2="hardAlpha" operator="out"/>
<feColorMatrix type="matrix" values="0 0 0 0 0 0 0 0 0 0 0 0 0 0 0 0 0 0 0.25 0"/>
<feBlend mode="normal" in2="BackgroundImageFix" result="effect1_dropShadow_172_174"/>
<feColorMatrix in="SourceAlpha" type="matrix" values="0 0 0 0 0 0 0 0 0 0 0 0 0 0 0 0 0 0 127 0" result="hardAlpha"/>
<feOffset dy="4"/>
<feGaussianBlur stdDeviation="2"/>
<feComposite in2="hardAlpha" operator="out"/>
<feColorMatrix type="matrix" values="0 0 0 0 0 0 0 0 0 0 0 0 0 0 0 0 0 0 0.25 0"/>
<feBlend mode="normal" in2="effect1_dropShadow_172_174" result="effect2_dropShadow_172_174"/>
<feBlend mode="normal" in="SourceGraphic" in2="effect2_dropShadow_172_174" result="shape"/>
</filter>
<linearGradient id="paint0_linear_172_174" x1="189.377" y1="5.26803" x2="95.4354" y2="166.869" gradientUnits="userSpaceOnUse">
<stop stop-color="#FAFAFA"/>
<stop offset="1" stop-color="#070707"/>
</linearGradient>
<linearGradient id="paint1_linear_172_174" x1="99" y1="7" x2="99" y2="263" gradientUnits="userSpaceOnUse">
<stop stop-color="white"/>
<stop offset="1" stop-color="#F8F8F8"/>
</linearGradient>
<linearGradient id="paint2_linear_172_174" x1="90.3083" y1="121.125" x2="87.511" y2="127.715" gradientUnits="userSpaceOnUse">
<stop stop-color="#FAFAFA"/>
<stop offset="1" stop-color="#070707"/>
</linearGradient>
<linearGradient id="paint3_linear_172_174" x1="85.8562" y1="121.187" x2="85.8562" y2="130.396" gradientUnits="userSpaceOnUse">
<stop stop-color="white"/>
<stop offset="1" stop-color="#F8F8F8"/>
</linearGradient>
<linearGradient id="paint4_linear_172_174" x1="93.9137" y1="134.004" x2="90.5569" y2="141.912" gradientUnits="userSpaceOnUse">
<stop stop-color="#FAFAFA"/>
<stop offset="1" stop-color="#070707"/>
</linearGradient>
<linearGradient id="paint5_linear_172_174" x1="88.5712" y1="134.079" x2="88.5712" y2="145.129" gradientUnits="userSpaceOnUse">
<stop stop-color="white"/>
<stop offset="1" stop-color="#F8F8F8"/>
</linearGradient>
<linearGradient id="paint6_linear_172_174" x1="108.422" y1="124.795" x2="105.065" y2="132.703" gradientUnits="userSpaceOnUse">
<stop stop-color="#FAFAFA"/>
<stop offset="1" stop-color="#070707"/>
</linearGradient>
<linearGradient id="paint7_linear_172_174" x1="103.079" y1="124.87" x2="103.079" y2="135.921" gradientUnits="userSpaceOnUse">
<stop stop-color="white"/>
<stop offset="1" stop-color="#F8F8F8"/>
</linearGradient>
<linearGradient id="paint8_linear_172_174" x1="104.789" y1="110.062" x2="101.432" y2="117.97" gradientUnits="userSpaceOnUse">
<stop stop-color="#FAFAFA"/>
<stop offset="1" stop-color="#070707"/>
</linearGradient>
<linearGradient id="paint9_linear_172_174" x1="99.4462" y1="110.137" x2="99.4462" y2="121.187" gradientUnits="userSpaceOnUse">
<stop stop-color="white"/>
<stop offset="1" stop-color="#F8F8F8"/>
</linearGradient>
<linearGradient id="paint10_linear_172_174" x1="84.8826" y1="108.245" x2="82.6447" y2="113.517" gradientUnits="userSpaceOnUse">
<stop stop-color="#FAFAFA"/>
<stop offset="1" stop-color="#070707"/>
</linearGradient>
<linearGradient id="paint11_linear_172_174" x1="81.3209" y1="108.295" x2="81.3209" y2="115.662" gradientUnits="userSpaceOnUse">
<stop stop-color="white"/>
<stop offset="1" stop-color="#F8F8F8"/>
</linearGradient>
<linearGradient id="paint12_linear_172_174" x1="95.734" y1="148.739" x2="92.3772" y2="156.646" gradientUnits="userSpaceOnUse">
<stop stop-color="#FAFAFA"/>
<stop offset="1" stop-color="#070707"/>
</linearGradient>
<linearGradient id="paint13_linear_172_174" x1="90.3915" y1="148.813" x2="90.3915" y2="159.864" gradientUnits="userSpaceOnUse">
<stop stop-color="white"/>
<stop offset="1" stop-color="#F8F8F8"/>
</linearGradient>
<linearGradient id="paint14_linear_172_174" x1="77.6208" y1="145.068" x2="74.8235" y2="151.658" gradientUnits="userSpaceOnUse">
<stop stop-color="#FAFAFA"/>
<stop offset="1" stop-color="#070707"/>
</linearGradient>
<linearGradient id="paint15_linear_172_174" x1="73.1687" y1="145.13" x2="73.1687" y2="154.339" gradientUnits="userSpaceOnUse">
<stop stop-color="white"/>
<stop offset="1" stop-color="#F8F8F8"/>
</linearGradient>
<linearGradient id="paint16_linear_172_174" x1="122.918" y1="134.004" x2="119.561" y2="141.912" gradientUnits="userSpaceOnUse">
<stop stop-color="#FAFAFA"/>
<stop offset="1" stop-color="#070707"/>
</linearGradient>
<linearGradient id="paint17_linear_172_174" x1="117.575" y1="134.079" x2="117.575" y2="145.129" gradientUnits="userSpaceOnUse">
<stop stop-color="white"/>
<stop offset="1" stop-color="#F8F8F8"/>
</linearGradient>
<linearGradient id="paint18_linear_172_174" x1="121.121" y1="150.592" x2="118.323" y2="157.182" gradientUnits="userSpaceOnUse">
<stop stop-color="#FAFAFA"/>
<stop offset="1" stop-color="#070707"/>
</linearGradient>
<linearGradient id="paint19_linear_172_174" x1="116.669" y1="150.654" x2="116.669" y2="159.863" gradientUnits="userSpaceOnUse">
<stop stop-color="white"/>
<stop offset="1" stop-color="#F8F8F8"/>
</linearGradient>
<linearGradient id="paint20_linear_172_174" x1="121.144" y1="170.864" x2="118.906" y2="176.136" gradientUnits="userSpaceOnUse">
<stop stop-color="#FAFAFA"/>
<stop offset="1" stop-color="#070707"/>
</linearGradient>
<linearGradient id="paint21_linear_172_174" x1="117.583" y1="170.914" x2="117.583" y2="178.281" gradientUnits="userSpaceOnUse">
<stop stop-color="white"/>
<stop offset="1" stop-color="#F8F8F8"/>
</linearGradient>
<linearGradient id="paint22_linear_172_174" x1="106.625" y1="161.643" x2="103.827" y2="168.233" gradientUnits="userSpaceOnUse">
<stop stop-color="#FAFAFA"/>
<stop offset="1" stop-color="#070707"/>
</linearGradient>
<linearGradient id="paint23_linear_172_174" x1="102.173" y1="161.705" x2="102.173" y2="170.914" gradientUnits="userSpaceOnUse">
<stop stop-color="white"/>
<stop offset="1" stop-color="#F8F8F8"/>
</linearGradient>
<linearGradient id="paint24_linear_172_174" x1="144.695" y1="154.275" x2="141.898" y2="160.865" gradientUnits="userSpaceOnUse">
<stop stop-color="#FAFAFA"/>
<stop offset="1" stop-color="#070707"/>
</linearGradient>
<linearGradient id="paint25_linear_172_174" x1="140.243" y1="154.338" x2="140.243" y2="163.546" gradientUnits="userSpaceOnUse">
<stop stop-color="white"/>
<stop offset="1" stop-color="#F8F8F8"/>
</linearGradient>
<linearGradient id="paint26_linear_172_174" x1="141.043" y1="137.688" x2="137.686" y2="145.595" gradientUnits="userSpaceOnUse">
<stop stop-color="#FAFAFA"/>
<stop offset="1" stop-color="#070707"/>
</linearGradient>
<linearGradient id="paint27_linear_172_174" x1="135.7" y1="137.762" x2="135.7" y2="148.813" gradientUnits="userSpaceOnUse">
<stop stop-color="white"/>
<stop offset="1" stop-color="#F8F8F8"/>
</linearGradient>
<linearGradient id="paint28_linear_172_174" x1="139.246" y1="170.852" x2="136.448" y2="177.442" gradientUnits="userSpaceOnUse">
<stop stop-color="#FAFAFA"/>
<stop offset="1" stop-color="#070707"/>
</linearGradient>
<linearGradient id="paint29_linear_172_174" x1="134.794" y1="170.914" x2="134.794" y2="180.123" gradientUnits="userSpaceOnUse">
<stop stop-color="white"/>
<stop offset="1" stop-color="#F8F8F8"/>
</linearGradient>
<linearGradient id="paint30_linear_172_174" x1="112.05" y1="86.1191" x2="108.694" y2="94.027" gradientUnits="userSpaceOnUse">
<stop stop-color="#FAFAFA"/>
<stop offset="1" stop-color="#070707"/>
</linearGradient>
<linearGradient id="paint31_linear_172_174" x1="106.708" y1="86.1938" x2="106.708" y2="97.2442" gradientUnits="userSpaceOnUse">
<stop stop-color="white"/>
<stop offset="1" stop-color="#F8F8F8"/>
</linearGradient>
<linearGradient id="paint32_linear_172_174" x1="130.172" y1="91.6446" x2="126.815" y2="99.5525" gradientUnits="userSpaceOnUse">
<stop stop-color="#FAFAFA"/>
<stop offset="1" stop-color="#070707"/>
</linearGradient>
<linearGradient id="paint33_linear_172_174" x1="124.829" y1="91.7193" x2="124.829" y2="102.77" gradientUnits="userSpaceOnUse">
<stop stop-color="white"/>
<stop offset="1" stop-color="#F8F8F8"/>
</linearGradient>
<linearGradient id="paint34_linear_172_174" x1="130.172" y1="76.9113" x2="126.815" y2="84.8192" gradientUnits="userSpaceOnUse">
<stop stop-color="#FAFAFA"/>
<stop offset="1" stop-color="#070707"/>
</linearGradient>
<linearGradient id="paint35_linear_172_174" x1="124.829" y1="76.986" x2="124.829" y2="88.0364" gradientUnits="userSpaceOnUse">
<stop stop-color="white"/>
<stop offset="1" stop-color="#F8F8F8"/>
</linearGradient>
<linearGradient id="paint36_linear_172_174" x1="150.117" y1="76.9113" x2="146.76" y2="84.8192" gradientUnits="userSpaceOnUse">
<stop stop-color="#FAFAFA"/>
<stop offset="1" stop-color="#070707"/>
</linearGradient>
<linearGradient id="paint37_linear_172_174" x1="144.774" y1="76.986" x2="144.774" y2="88.0364" gradientUnits="userSpaceOnUse">
<stop stop-color="white"/>
<stop offset="1" stop-color="#F8F8F8"/>
</linearGradient>
<linearGradient id="paint38_linear_172_174" x1="155.482" y1="66.1657" x2="152.423" y2="69.1458" gradientUnits="userSpaceOnUse">
<stop stop-color="#FAFAFA"/>
<stop offset="1" stop-color="#070707"/>
</linearGradient>
<linearGradient id="paint39_linear_172_174" x1="153.002" y1="65.1564" x2="150.854" y2="70.2316" gradientUnits="userSpaceOnUse">
<stop stop-color="white"/>
<stop offset="1" stop-color="#F8F8F8"/>
</linearGradient>
<linearGradient id="paint40_linear_172_174" x1="166.361" y1="51.4315" x2="163.302" y2="54.4116" gradientUnits="userSpaceOnUse">
<stop stop-color="#FAFAFA"/>
<stop offset="1" stop-color="#070707"/>
</linearGradient>
<linearGradient id="paint41_linear_172_174" x1="163.881" y1="50.4222" x2="161.733" y2="55.4974" gradientUnits="userSpaceOnUse">
<stop stop-color="white"/>
<stop offset="1" stop-color="#F8F8F8"/>
</linearGradient>
<linearGradient id="paint42_linear_172_174" x1="150.117" y1="99.0112" x2="146.76" y2="106.919" gradientUnits="userSpaceOnUse">
<stop stop-color="#FAFAFA"/>
<stop offset="1" stop-color="#070707"/>
</linearGradient>
<linearGradient id="paint43_linear_172_174" x1="144.774" y1="99.086" x2="144.774" y2="110.136" gradientUnits="userSpaceOnUse">
<stop stop-color="white"/>
<stop offset="1" stop-color="#F8F8F8"/>
</linearGradient>
<linearGradient id="paint44_linear_172_174" x1="164.621" y1="87.9612" x2="161.264" y2="95.8692" gradientUnits="userSpaceOnUse">
<stop stop-color="#FAFAFA"/>
<stop offset="1" stop-color="#070707"/>
</linearGradient>
<linearGradient id="paint45_linear_172_174" x1="159.278" y1="88.036" x2="159.278" y2="99.0864" gradientUnits="userSpaceOnUse">
<stop stop-color="white"/>
<stop offset="1" stop-color="#F8F8F8"/>
</linearGradient>
<linearGradient id="paint46_linear_172_174" x1="161.056" y1="76.5075" x2="157.997" y2="79.4876" gradientUnits="userSpaceOnUse">
<stop stop-color="#FAFAFA"/>
<stop offset="1" stop-color="#070707"/>
</linearGradient>
<linearGradient id="paint47_linear_172_174" x1="158.576" y1="75.4982" x2="156.428" y2="80.5734" gradientUnits="userSpaceOnUse">
<stop stop-color="white"/>
<stop offset="1" stop-color="#F8F8F8"/>
</linearGradient>
<linearGradient id="paint48_linear_172_174" x1="173.607" y1="55.1147" x2="170.548" y2="58.0948" gradientUnits="userSpaceOnUse">
<stop stop-color="#FAFAFA"/>
<stop offset="1" stop-color="#070707"/>
</linearGradient>
<linearGradient id="paint49_linear_172_174" x1="171.127" y1="54.1055" x2="168.979" y2="59.1807" gradientUnits="userSpaceOnUse">
<stop stop-color="white"/>
<stop offset="1" stop-color="#F8F8F8"/>
</linearGradient>
<linearGradient id="paint50_linear_172_174" x1="166.433" y1="110.062" x2="163.076" y2="117.97" gradientUnits="userSpaceOnUse">
<stop stop-color="#FAFAFA"/>
<stop offset="1" stop-color="#070707"/>
</linearGradient>
<linearGradient id="paint51_linear_172_174" x1="161.091" y1="110.137" x2="161.091" y2="121.187" gradientUnits="userSpaceOnUse">
<stop stop-color="white"/>
<stop offset="1" stop-color="#F8F8F8"/>
</linearGradient>
<linearGradient id="paint52_linear_172_174" x1="160.992" y1="145.055" x2="157.635" y2="152.963" gradientUnits="userSpaceOnUse">
<stop stop-color="#FAFAFA"/>
<stop offset="1" stop-color="#070707"/>
</linearGradient>
<linearGradient id="paint53_linear_172_174" x1="155.649" y1="145.13" x2="155.649" y2="156.18" gradientUnits="userSpaceOnUse">
<stop stop-color="white"/>
<stop offset="1" stop-color="#F8F8F8"/>
</linearGradient>
<linearGradient id="paint54_linear_172_174" x1="162.851" y1="58.5311" x2="161.173" y2="62.485" gradientUnits="userSpaceOnUse">
<stop stop-color="#FAFAFA"/>
<stop offset="1" stop-color="#070707"/>
</linearGradient>
<linearGradient id="paint55_linear_172_174" x1="160.18" y1="58.5685" x2="160.18" y2="64.0936" gradientUnits="userSpaceOnUse">
<stop stop-color="white"/>
<stop offset="1" stop-color="#F8F8F8"/>
</linearGradient>
<linearGradient id="paint56_linear_172_174" x1="180.98" y1="27.2214" x2="179.302" y2="31.1753" gradientUnits="userSpaceOnUse">
<stop stop-color="#FAFAFA"/>
<stop offset="1" stop-color="#070707"/>
</linearGradient>
<linearGradient id="paint57_linear_172_174" x1="178.309" y1="27.2588" x2="178.309" y2="32.7839" gradientUnits="userSpaceOnUse">
<stop stop-color="white"/>
<stop offset="1" stop-color="#F8F8F8"/>
</linearGradient>
<linearGradient id="paint58_linear_172_174" x1="121.724" y1="209.584" x2="122.034" y2="212.437" gradientUnits="userSpaceOnUse">
<stop stop-color="#FAFAFA"/>
<stop offset="1" stop-color="#070707"/>
</linearGradient>
<linearGradient id="paint59_linear_172_174" x1="120.175" y1="210.477" x2="121.962" y2="213.681" gradientUnits="userSpaceOnUse">
<stop stop-color="white"/>
<stop offset="1" stop-color="#F8F8F8"/>
</linearGradient>
<linearGradient id="paint60_linear_172_174" x1="51.2297" y1="165.113" x2="48.9252" y2="166.774" gradientUnits="userSpaceOnUse">
<stop stop-color="#FAFAFA"/>
<stop offset="1" stop-color="#070707"/>
</linearGradient>
<linearGradient id="paint61_linear_172_174" x1="49.6925" y1="164.2" x2="47.7753" y2="167.326" gradientUnits="userSpaceOnUse">
<stop stop-color="white"/>
<stop offset="1" stop-color="#F8F8F8"/>
</linearGradient>
<linearGradient id="paint62_linear_172_174" x1="173.734" y1="40.1135" x2="172.056" y2="44.0675" gradientUnits="userSpaceOnUse">
<stop stop-color="#FAFAFA"/>
<stop offset="1" stop-color="#070707"/>
</linearGradient>
<linearGradient id="paint63_linear_172_174" x1="171.063" y1="40.1509" x2="171.063" y2="45.6761" gradientUnits="userSpaceOnUse">
<stop stop-color="white"/>
<stop offset="1" stop-color="#F8F8F8"/>
</linearGradient>
<linearGradient id="paint64_linear_172_174" x1="118.908" y1="204.059" x2="119.217" y2="206.912" gradientUnits="userSpaceOnUse">
<stop stop-color="#FAFAFA"/>
<stop offset="1" stop-color="#070707"/>
</linearGradient>
<linearGradient id="paint65_linear_172_174" x1="117.359" y1="204.951" x2="119.146" y2="208.156" gradientUnits="userSpaceOnUse">
<stop stop-color="white"/>
<stop offset="1" stop-color="#F8F8F8"/>
</linearGradient>
<linearGradient id="paint66_linear_172_174" x1="54.5305" y1="159.866" x2="52.226" y2="161.527" gradientUnits="userSpaceOnUse">
<stop stop-color="#FAFAFA"/>
<stop offset="1" stop-color="#070707"/>
</linearGradient>
<linearGradient id="paint67_linear_172_174" x1="52.9933" y1="158.952" x2="51.0761" y2="162.078" gradientUnits="userSpaceOnUse">
<stop stop-color="white"/>
<stop offset="1" stop-color="#F8F8F8"/>
</linearGradient>
<linearGradient id="paint68_linear_172_174" x1="122.957" y1="191.123" x2="120.719" y2="196.395" gradientUnits="userSpaceOnUse">
<stop stop-color="#FAFAFA"/>
<stop offset="1" stop-color="#070707"/>
</linearGradient>
<linearGradient id="paint69_linear_172_174" x1="119.395" y1="191.173" x2="119.395" y2="198.54" gradientUnits="userSpaceOnUse">
<stop stop-color="white"/>
<stop offset="1" stop-color="#F8F8F8"/>
</linearGradient>
<linearGradient id="paint70_linear_172_174" x1="67.5704" y1="156.934" x2="61.9642" y2="157.654" gradientUnits="userSpaceOnUse">
<stop stop-color="#FAFAFA"/>
<stop offset="1" stop-color="#070707"/>
</linearGradient>
<linearGradient id="paint71_linear_172_174" x1="65.741" y1="153.829" x2="59.4189" y2="157.438" gradientUnits="userSpaceOnUse">
<stop stop-color="white"/>
<stop offset="1" stop-color="#F8F8F8"/>
</linearGradient>
<linearGradient id="paint72_linear_172_174" x1="108.422" y1="143.213" x2="105.065" y2="151.121" gradientUnits="userSpaceOnUse">
<stop stop-color="#FAFAFA"/>
<stop offset="1" stop-color="#070707"/>
</linearGradient>
<linearGradient id="paint73_linear_172_174" x1="103.079" y1="143.288" x2="103.079" y2="154.338" gradientUnits="userSpaceOnUse">
<stop stop-color="white"/>
<stop offset="1" stop-color="#F8F8F8"/>
</linearGradient>
<linearGradient id="paint74_linear_172_174" x1="190.094" y1="8.84172" x2="113.067" y2="139.467" gradientUnits="userSpaceOnUse">
<stop stop-color="#FAFAFA"/>
<stop offset="1" stop-color="#070707"/>
</linearGradient>
</defs>
</svg>
