<svg width="315" height="301" viewBox="0 0 315 301" fill="none" xmlns="http://www.w3.org/2000/svg">
<g filter="url(#filter0_bf_172_636)">
<g filter="url(#filter1_dd_172_636)">
<path d="M190.329 217.35L217.495 292.041L167.989 232.248C147.486 227.987 127.262 217.488 102.272 201.872C98.5239 199.53 101.27 197.683 103.112 197.053L93.9694 142.174L40.7415 91.8129L105.739 130.29L151.863 112.084L160.375 39.3794L165.678 114.304C170.676 117.427 188.627 134.344 196.978 142.412C200.005 141.739 202.404 144.734 203.225 146.316C210.199 175.471 197.533 205.82 190.329 217.35Z" fill="url(#paint0_linear_172_636)"/>
<path d="M203.225 146.316C210.199 175.471 197.533 205.819 190.329 217.35L217.495 292.041L167.989 232.248C147.486 227.987 127.262 217.488 102.272 201.872M203.225 146.316C202.404 144.734 200.005 141.739 196.978 142.412M203.225 146.316C180.65 182.444 113.518 208.899 102.272 201.872M102.272 201.872C98.5239 199.53 101.27 197.683 103.112 197.053M196.978 142.412C188.627 134.344 170.676 117.427 165.678 114.304L160.375 39.3794L151.863 112.084L105.739 130.29L40.7415 91.8129L93.9694 142.174L103.112 197.053M196.978 142.412C174.403 178.54 108.735 200.566 103.112 197.053" stroke="url(#paint1_linear_172_636)"/>
</g>
<path d="M170.334 143.344C168.406 142.138 167.814 139.631 168.99 137.749C170.166 135.867 172.679 135.3 174.608 136.505C176.536 137.71 177.128 140.217 175.952 142.099C174.776 143.981 172.263 144.549 170.334 143.344Z" fill="url(#paint2_linear_172_636)" stroke="url(#paint3_linear_172_636)"/>
<path d="M156.702 139.099C154.342 137.624 153.616 134.555 155.058 132.248C156.499 129.941 159.576 129.248 161.936 130.723C164.296 132.198 165.022 135.267 163.581 137.574C162.139 139.881 159.062 140.574 156.702 139.099Z" fill="url(#paint4_linear_172_636)" stroke="url(#paint5_linear_172_636)"/>
<path d="M156.823 156.277C154.463 154.803 153.737 151.733 155.179 149.426C156.62 147.12 159.697 146.427 162.057 147.901C164.417 149.376 165.143 152.445 163.702 154.752C162.26 157.059 159.183 157.752 156.823 156.277Z" fill="url(#paint6_linear_172_636)" stroke="url(#paint7_linear_172_636)"/>
<path d="M171.245 161.011C168.885 159.536 168.159 156.467 169.601 154.16C171.042 151.853 174.119 151.16 176.479 152.635C178.839 154.11 179.565 157.179 178.124 159.486C176.682 161.793 173.605 162.486 171.245 161.011Z" fill="url(#paint8_linear_172_636)" stroke="url(#paint9_linear_172_636)"/>
<path d="M184.931 146.052C183.434 145.116 182.977 143.172 183.888 141.715C184.799 140.257 186.747 139.815 188.244 140.751C189.741 141.686 190.198 143.631 189.288 145.088C188.377 146.546 186.429 146.988 184.931 146.052Z" fill="url(#paint10_linear_172_636)" stroke="url(#paint11_linear_172_636)"/>
<path d="M143.245 132.828C140.885 131.354 140.159 128.284 141.601 125.978C143.042 123.671 146.119 122.978 148.479 124.452C150.839 125.927 151.565 128.997 150.124 131.303C148.682 133.61 145.605 134.303 143.245 132.828Z" fill="url(#paint12_linear_172_636)" stroke="url(#paint13_linear_172_636)"/>
<path d="M156.752 119.895C154.824 118.69 154.232 116.183 155.408 114.301C156.584 112.418 159.097 111.851 161.026 113.056C162.954 114.261 163.546 116.768 162.37 118.65C161.194 120.533 158.681 121.1 156.752 119.895Z" fill="url(#paint14_linear_172_636)" stroke="url(#paint15_linear_172_636)"/>
<path d="M141.335 163.697C138.975 162.222 138.249 159.153 139.69 156.846C141.132 154.539 144.209 153.846 146.569 155.321C148.929 156.796 149.655 159.865 148.214 162.172C146.772 164.479 143.695 165.172 141.335 163.697Z" fill="url(#paint16_linear_172_636)" stroke="url(#paint17_linear_172_636)"/>
<path d="M129.018 153.864C127.089 152.659 126.498 150.152 127.674 148.27C128.85 146.388 131.363 145.82 133.291 147.025C135.22 148.231 135.811 150.738 134.635 152.62C133.459 154.502 130.947 155.069 129.018 153.864Z" fill="url(#paint18_linear_172_636)" stroke="url(#paint19_linear_172_636)"/>
<path d="M112.615 143.617C111.118 142.681 110.661 140.737 111.572 139.279C112.482 137.821 114.43 137.38 115.928 138.315C117.425 139.251 117.882 141.195 116.971 142.653C116.06 144.11 114.112 144.552 112.615 143.617Z" fill="url(#paint20_linear_172_636)" stroke="url(#paint21_linear_172_636)"/>
<path d="M127.323 135.709C125.394 134.504 124.803 131.997 125.979 130.115C127.155 128.233 129.667 127.665 131.596 128.87C133.525 130.076 134.116 132.583 132.94 134.465C131.764 136.347 129.251 136.914 127.323 135.709Z" fill="url(#paint22_linear_172_636)" stroke="url(#paint23_linear_172_636)"/>
<path d="M113.397 171.897C111.468 170.692 110.877 168.185 112.053 166.303C113.229 164.421 115.742 163.853 117.67 165.059C119.599 166.264 120.19 168.771 119.014 170.653C117.838 172.535 115.326 173.102 113.397 171.897Z" fill="url(#paint24_linear_172_636)" stroke="url(#paint25_linear_172_636)"/>
<path d="M128.597 177.118C126.237 175.644 125.511 172.574 126.952 170.267C128.393 167.961 131.471 167.267 133.831 168.742C136.191 170.217 136.917 173.286 135.475 175.593C134.034 177.9 130.957 178.593 128.597 177.118Z" fill="url(#paint26_linear_172_636)" stroke="url(#paint27_linear_172_636)"/>
<path d="M102.221 158.502C100.292 157.297 99.701 154.79 100.877 152.908C102.053 151.025 104.566 150.458 106.494 151.663C108.423 152.868 109.015 155.375 107.838 157.257C106.662 159.14 104.15 159.707 102.221 158.502Z" fill="url(#paint28_linear_172_636)" stroke="url(#paint29_linear_172_636)"/>
<path d="M187.706 179.848C185.346 178.373 184.62 175.304 186.061 172.997C187.503 170.69 190.58 169.997 192.94 171.472C195.3 172.946 196.026 176.016 194.585 178.323C193.143 180.629 190.066 181.323 187.706 179.848Z" fill="url(#paint30_linear_172_636)" stroke="url(#paint31_linear_172_636)"/>
<path d="M173.409 192.293C171.049 190.819 170.323 187.749 171.765 185.442C173.206 183.136 176.283 182.442 178.643 183.917C181.003 185.392 181.729 188.461 180.288 190.768C178.846 193.075 175.769 193.768 173.409 192.293Z" fill="url(#paint32_linear_172_636)" stroke="url(#paint33_linear_172_636)"/>
<path d="M185.905 200.101C183.545 198.626 182.819 195.557 184.261 193.25C185.702 190.943 188.779 190.25 191.139 191.725C193.499 193.2 194.225 196.269 192.784 198.576C191.343 200.883 188.265 201.576 185.905 200.101Z" fill="url(#paint34_linear_172_636)" stroke="url(#paint35_linear_172_636)"/>
<path d="M175.335 217.012C172.975 215.537 172.249 212.467 173.69 210.161C175.132 207.854 178.209 207.161 180.569 208.636C182.929 210.11 183.655 213.18 182.214 215.487C180.772 217.793 177.695 218.486 175.335 217.012Z" fill="url(#paint36_linear_172_636)" stroke="url(#paint37_linear_172_636)"/>
<path d="M184.886 228.039C184.156 227.023 184.389 225.632 185.391 224.929C186.393 224.226 187.799 224.466 188.529 225.482C189.259 226.498 189.026 227.889 188.024 228.592C187.022 229.295 185.616 229.055 184.886 228.039Z" fill="url(#paint38_linear_172_636)" stroke="url(#paint39_linear_172_636)"/>
<path d="M191.616 245.07C190.886 244.054 191.12 242.663 192.122 241.96C193.124 241.257 194.53 241.498 195.26 242.514C195.99 243.53 195.756 244.921 194.754 245.624C193.752 246.327 192.346 246.086 191.616 245.07Z" fill="url(#paint40_linear_172_636)" stroke="url(#paint41_linear_172_636)"/>
<path d="M156.597 205.3C154.237 203.825 153.511 200.755 154.952 198.449C156.393 196.142 159.471 195.449 161.831 196.924C164.191 198.398 164.917 201.468 163.475 203.775C162.034 206.081 158.957 206.774 156.597 205.3Z" fill="url(#paint42_linear_172_636)" stroke="url(#paint43_linear_172_636)"/>
<path d="M158.284 223.455C155.924 221.98 155.198 218.91 156.64 216.604C158.081 214.297 161.158 213.604 163.518 215.079C165.878 216.553 166.604 219.623 165.163 221.93C163.721 224.236 160.644 224.929 158.284 223.455Z" fill="url(#paint44_linear_172_636)" stroke="url(#paint45_linear_172_636)"/>
<path d="M173.151 227.287C172.421 226.272 172.655 224.88 173.657 224.177C174.659 223.474 176.065 223.715 176.795 224.731C177.525 225.747 177.292 227.138 176.29 227.841C175.288 228.544 173.881 228.303 173.151 227.287Z" fill="url(#paint46_linear_172_636)" stroke="url(#paint47_linear_172_636)"/>
<path d="M184.644 249.269C183.914 248.253 184.147 246.861 185.149 246.158C186.151 245.455 187.557 245.696 188.287 246.712C189.017 247.728 188.784 249.119 187.782 249.822C186.78 250.525 185.374 250.284 184.644 249.269Z" fill="url(#paint48_linear_172_636)" stroke="url(#paint49_linear_172_636)"/>
<path d="M138.577 213.28C136.217 211.806 135.491 208.736 136.933 206.43C138.374 204.123 141.451 203.43 143.811 204.904C146.171 206.379 146.897 209.449 145.456 211.755C144.014 214.062 140.937 214.755 138.577 213.28Z" fill="url(#paint50_linear_172_636)" stroke="url(#paint51_linear_172_636)"/>
<path d="M111.784 190.126C109.424 188.651 108.698 185.581 110.14 183.275C111.581 180.968 114.658 180.275 117.018 181.75C119.378 183.224 120.104 186.294 118.663 188.601C117.221 190.907 114.144 191.6 111.784 190.126Z" fill="url(#paint52_linear_172_636)" stroke="url(#paint53_linear_172_636)"/>
<path d="M186.579 238.997C185.513 238.331 185.191 236.949 185.837 235.916C186.482 234.883 187.865 234.567 188.931 235.233C189.997 235.899 190.32 237.281 189.674 238.314C189.029 239.347 187.645 239.663 186.579 238.997Z" fill="url(#paint54_linear_172_636)" stroke="url(#paint55_linear_172_636)"/>
<path d="M203.521 270.962C202.455 270.296 202.132 268.914 202.778 267.881C203.423 266.848 204.807 266.532 205.873 267.198C206.939 267.864 207.261 269.246 206.615 270.279C205.97 271.312 204.587 271.628 203.521 270.962Z" fill="url(#paint56_linear_172_636)" stroke="url(#paint57_linear_172_636)"/>
<path d="M80.5715 125.353C79.8318 125.306 79.2689 124.675 79.3049 123.951C79.3409 123.227 79.9629 122.67 80.7026 122.717C81.4423 122.764 82.0052 123.395 81.9692 124.119C81.9332 124.843 81.3112 125.399 80.5715 125.353Z" fill="url(#paint58_linear_172_636)" stroke="url(#paint59_linear_172_636)"/>
<path d="M157.039 87.8661C156.7 87.2083 156.96 86.4155 157.61 86.0919C158.26 85.7682 159.064 86.0308 159.403 86.6885C159.743 87.3463 159.482 88.1391 158.833 88.4627C158.183 88.7864 157.379 88.5238 157.039 87.8661Z" fill="url(#paint60_linear_172_636)" stroke="url(#paint61_linear_172_636)"/>
<path d="M196.423 257.98C195.357 257.314 195.035 255.932 195.68 254.899C196.326 253.866 197.709 253.55 198.775 254.216C199.841 254.882 200.163 256.264 199.518 257.297C198.872 258.33 197.489 258.646 196.423 257.98Z" fill="url(#paint62_linear_172_636)" stroke="url(#paint63_linear_172_636)"/>
<path d="M86.7551 125.892C86.0154 125.845 85.4525 125.214 85.4885 124.49C85.5245 123.766 86.1465 123.21 86.8862 123.256C87.6259 123.303 88.1888 123.935 88.1528 124.658C88.1168 125.382 87.4948 125.939 86.7551 125.892Z" fill="url(#paint64_linear_172_636)" stroke="url(#paint65_linear_172_636)"/>
<path d="M159.743 93.4378C159.403 92.78 159.663 91.9872 160.313 91.6636C160.963 91.3399 161.767 91.6025 162.106 92.2602C162.446 92.918 162.186 93.7108 161.536 94.0344C160.886 94.3581 160.082 94.0955 159.743 93.4378Z" fill="url(#paint66_linear_172_636)" stroke="url(#paint67_linear_172_636)"/>
<path d="M94.4744 134.417C92.9771 133.482 92.5202 131.537 93.431 130.08C94.3419 128.622 96.2897 128.18 97.7871 129.116C99.2844 130.052 99.7413 131.996 98.8305 133.454C97.9196 134.911 95.9718 135.353 94.4744 134.417Z" fill="url(#paint68_linear_172_636)" stroke="url(#paint69_linear_172_636)"/>
<path d="M156.278 104.245C156.323 102.515 157.773 101.162 159.526 101.232C161.278 101.302 162.656 102.767 162.611 104.497C162.566 106.227 161.115 107.58 159.363 107.511C157.61 107.441 156.233 105.975 156.278 104.245Z" fill="url(#paint70_linear_172_636)" stroke="url(#paint71_linear_172_636)"/>
<path d="M141.198 146.518C138.838 145.043 138.112 141.974 139.554 139.667C140.995 137.36 144.072 136.667 146.432 138.142C148.792 139.617 149.518 142.686 148.077 144.993C146.635 147.299 143.558 147.993 141.198 146.518Z" fill="url(#paint72_linear_172_636)" stroke="url(#paint73_linear_172_636)"/>
</g>
<g filter="url(#filter2_dd_172_636)">
<path d="M190.329 217.35L217.495 292.041L167.989 232.248C147.486 227.987 127.262 217.488 102.272 201.872C98.5239 199.53 101.27 197.683 103.112 197.053L93.9694 142.174L40.7415 91.8129L105.739 130.29L151.863 112.084L160.375 39.3794L165.678 114.304C170.676 117.427 188.627 134.344 196.978 142.412C200.005 141.739 202.404 144.734 203.225 146.316C210.199 175.471 197.533 205.82 190.329 217.35Z" fill="url(#paint74_linear_172_636)"/>
<path d="M203.225 146.316C210.199 175.471 197.533 205.819 190.329 217.35L217.495 292.041L167.989 232.248C147.486 227.987 127.262 217.488 102.272 201.872M203.225 146.316C202.404 144.734 200.005 141.739 196.978 142.412M203.225 146.316C180.65 182.444 113.518 208.899 102.272 201.872M102.272 201.872C98.5239 199.53 101.27 197.683 103.112 197.053M196.978 142.412C188.627 134.344 170.676 117.427 165.678 114.304L160.375 39.3794L151.863 112.084L105.739 130.29L40.7415 91.8129L93.9694 142.174L103.112 197.053M196.978 142.412C174.403 178.54 108.735 200.566 103.112 197.053" stroke="#FAFAFA"/>
</g>
<ellipse cx="172.471" cy="139.924" rx="4.53202" ry="4.60432" transform="rotate(122 172.471 139.924)" fill="#D7FF00"/>
<ellipse cx="159.319" cy="134.911" rx="5.43842" ry="5.52518" transform="rotate(122 159.319 134.911)" fill="#D7FF00"/>
<ellipse cx="159.44" cy="152.089" rx="5.43842" ry="5.52518" transform="rotate(122 159.44 152.089)" fill="#D7FF00"/>
<ellipse cx="173.862" cy="156.823" rx="5.43842" ry="5.52518" transform="rotate(122 173.862 156.823)" fill="#D7FF00"/>
<ellipse cx="186.588" cy="143.401" rx="3.62562" ry="3.68345" transform="rotate(122 186.588 143.401)" fill="#D7FF00"/>
<ellipse cx="145.862" cy="128.64" rx="5.43842" ry="5.52518" transform="rotate(122 145.862 128.64)" fill="#D7FF00"/>
<ellipse cx="158.889" cy="116.476" rx="4.53202" ry="4.60432" transform="rotate(122 158.889 116.476)" fill="#D7FF00"/>
<ellipse cx="143.952" cy="159.509" rx="5.43842" ry="5.52518" transform="rotate(122 143.952 159.509)" fill="#D7FF00"/>
<ellipse cx="131.155" cy="150.445" rx="4.53202" ry="4.60432" transform="rotate(122 131.155 150.445)" fill="#D7FF00"/>
<ellipse cx="114.271" cy="140.966" rx="3.62562" ry="3.68345" transform="rotate(122 114.271 140.966)" fill="#D7FF00"/>
<ellipse cx="129.459" cy="132.29" rx="4.53202" ry="4.60432" transform="rotate(122 129.459 132.29)" fill="#D7FF00"/>
<ellipse cx="115.534" cy="168.478" rx="4.53202" ry="4.60432" transform="rotate(122 115.534 168.478)" fill="#D7FF00"/>
<ellipse cx="131.214" cy="172.93" rx="5.43842" ry="5.52518" transform="rotate(122 131.214 172.93)" fill="#D7FF00"/>
<ellipse cx="104.358" cy="155.082" rx="4.53202" ry="4.60432" transform="rotate(122 104.358 155.082)" fill="#D7FF00"/>
<ellipse cx="190.323" cy="175.66" rx="5.43842" ry="5.52518" transform="rotate(122 190.323 175.66)" fill="#D7FF00"/>
<ellipse cx="176.026" cy="188.105" rx="5.43842" ry="5.52518" transform="rotate(122 176.026 188.105)" fill="#D7FF00"/>
<ellipse cx="188.522" cy="195.913" rx="5.43842" ry="5.52518" transform="rotate(122 188.522 195.913)" fill="#D7FF00"/>
<ellipse cx="177.952" cy="212.824" rx="5.43842" ry="5.52518" transform="rotate(122 177.952 212.824)" fill="#D7FF00"/>
<ellipse cx="2.72559" cy="2.75577" rx="2.72559" ry="2.75577" transform="matrix(-0.818587 0.574383 -0.583545 -0.812081 190.547 227.433)" fill="#D7FF00"/>
<ellipse cx="2.72559" cy="2.75577" rx="2.72559" ry="2.75577" transform="matrix(-0.818587 0.574383 -0.583545 -0.812081 197.277 244.464)" fill="#D7FF00"/>
<ellipse cx="159.214" cy="201.112" rx="5.43842" ry="5.52518" transform="rotate(122 159.214 201.112)" fill="#D7FF00"/>
<ellipse cx="160.901" cy="219.267" rx="5.43842" ry="5.52518" transform="rotate(122 160.901 219.267)" fill="#D7FF00"/>
<ellipse cx="2.72559" cy="2.75577" rx="2.72559" ry="2.75577" transform="matrix(-0.818587 0.574383 -0.583545 -0.812081 178.812 226.681)" fill="#D7FF00"/>
<ellipse cx="2.72559" cy="2.75577" rx="2.72559" ry="2.75577" transform="matrix(-0.818587 0.574383 -0.583545 -0.812081 190.305 248.663)" fill="#D7FF00"/>
<ellipse cx="141.194" cy="209.092" rx="5.43842" ry="5.52518" transform="rotate(122 141.194 209.092)" fill="#D7FF00"/>
<ellipse cx="114.401" cy="185.938" rx="5.43842" ry="5.52518" transform="rotate(122 114.401 185.938)" fill="#D7FF00"/>
<ellipse cx="187.755" cy="237.115" rx="2.71921" ry="2.76259" transform="rotate(122 187.755 237.115)" fill="#D7FF00"/>
<ellipse cx="204.697" cy="269.08" rx="2.71921" ry="2.76259" transform="rotate(122 204.697 269.08)" fill="#D7FF00"/>
<ellipse cx="1.81946" cy="1.8348" rx="1.81946" ry="1.8348" transform="matrix(-0.0496814 0.998765 -0.998013 -0.0630132 82.5586 122.333)" fill="#D7FF00"/>
<ellipse cx="1.82048" cy="1.83379" rx="1.82048" ry="1.83379" transform="matrix(-0.895091 0.445884 -0.458375 -0.888759 160.691 88.0954)" fill="#D7FF00"/>
<ellipse cx="197.599" cy="256.098" rx="2.71921" ry="2.76259" transform="rotate(122 197.599 256.098)" fill="#D7FF00"/>
<ellipse cx="1.81946" cy="1.8348" rx="1.81946" ry="1.8348" transform="matrix(-0.0496814 0.998765 -0.998013 -0.0630132 88.7422 122.873)" fill="#D7FF00"/>
<ellipse cx="1.82048" cy="1.83379" rx="1.82048" ry="1.83379" transform="matrix(-0.895091 0.445884 -0.458375 -0.888759 163.395 93.6671)" fill="#D7FF00"/>
<ellipse cx="96.1308" cy="131.767" rx="3.62562" ry="3.68345" transform="rotate(122 96.1308 131.767)" fill="#D7FF00"/>
<ellipse cx="3.66898" cy="3.64026" rx="3.66898" ry="3.64026" transform="matrix(-0.99921 -0.0397405 0.0260107 -0.999662 163.016 108.156)" fill="#D7FF00"/>
<ellipse cx="143.815" cy="142.33" rx="5.43842" ry="5.52518" transform="rotate(122 143.815 142.33)" fill="#D7FF00"/>
<defs>
<filter id="filter0_bf_172_636" x="-59.2016" y="-60.2788" width="376.766" height="452.239" filterUnits="userSpaceOnUse" color-interpolation-filters="sRGB">
<feFlood flood-opacity="0" result="BackgroundImageFix"/>
<feGaussianBlur in="BackgroundImageFix" stdDeviation="49.8"/>
<feComposite in2="SourceAlpha" operator="in" result="effect1_backgroundBlur_172_636"/>
<feBlend mode="normal" in="SourceGraphic" in2="effect1_backgroundBlur_172_636" result="shape"/>
<feGaussianBlur stdDeviation="3.25" result="effect2_foregroundBlur_172_636"/>
</filter>
<filter id="filter1_dd_172_636" x="36.3984" y="39.3212" width="185.566" height="261.039" filterUnits="userSpaceOnUse" color-interpolation-filters="sRGB">
<feFlood flood-opacity="0" result="BackgroundImageFix"/>
<feColorMatrix in="SourceAlpha" type="matrix" values="0 0 0 0 0 0 0 0 0 0 0 0 0 0 0 0 0 0 127 0" result="hardAlpha"/>
<feOffset dy="4"/>
<feGaussianBlur stdDeviation="2"/>
<feComposite in2="hardAlpha" operator="out"/>
<feColorMatrix type="matrix" values="0 0 0 0 0 0 0 0 0 0 0 0 0 0 0 0 0 0 0.25 0"/>
<feBlend mode="normal" in2="BackgroundImageFix" result="effect1_dropShadow_172_636"/>
<feColorMatrix in="SourceAlpha" type="matrix" values="0 0 0 0 0 0 0 0 0 0 0 0 0 0 0 0 0 0 127 0" result="hardAlpha"/>
<feOffset dy="4"/>
<feGaussianBlur stdDeviation="2"/>
<feComposite in2="hardAlpha" operator="out"/>
<feColorMatrix type="matrix" values="0 0 0 0 0 0 0 0 0 0 0 0 0 0 0 0 0 0 0.25 0"/>
<feBlend mode="normal" in2="effect1_dropShadow_172_636" result="effect2_dropShadow_172_636"/>
<feBlend mode="normal" in="SourceGraphic" in2="effect2_dropShadow_172_636" result="shape"/>
</filter>
<filter id="filter2_dd_172_636" x="36.3984" y="39.3212" width="185.566" height="261.039" filterUnits="userSpaceOnUse" color-interpolation-filters="sRGB">
<feFlood flood-opacity="0" result="BackgroundImageFix"/>
<feColorMatrix in="SourceAlpha" type="matrix" values="0 0 0 0 0 0 0 0 0 0 0 0 0 0 0 0 0 0 127 0" result="hardAlpha"/>
<feOffset dy="4"/>
<feGaussianBlur stdDeviation="2"/>
<feComposite in2="hardAlpha" operator="out"/>
<feColorMatrix type="matrix" values="0 0 0 0 0 0 0 0 0 0 0 0 0 0 0 0 0 0 0.25 0"/>
<feBlend mode="normal" in2="BackgroundImageFix" result="effect1_dropShadow_172_636"/>
<feColorMatrix in="SourceAlpha" type="matrix" values="0 0 0 0 0 0 0 0 0 0 0 0 0 0 0 0 0 0 127 0" result="hardAlpha"/>
<feOffset dy="4"/>
<feGaussianBlur stdDeviation="2"/>
<feComposite in2="hardAlpha" operator="out"/>
<feColorMatrix type="matrix" values="0 0 0 0 0 0 0 0 0 0 0 0 0 0 0 0 0 0 0.25 0"/>
<feBlend mode="normal" in2="effect1_dropShadow_172_636" result="effect2_dropShadow_172_636"/>
<feBlend mode="normal" in="SourceGraphic" in2="effect2_dropShadow_172_636" result="shape"/>
</filter>
<linearGradient id="paint0_linear_172_636" x1="219.824" y1="291.582" x2="132.56" y2="126.28" gradientUnits="userSpaceOnUse">
<stop stop-color="#FAFAFA"/>
<stop offset="1" stop-color="#070707"/>
</linearGradient>
<linearGradient id="paint1_linear_172_636" x1="266.247" y1="214.02" x2="49.1471" y2="78.3611" gradientUnits="userSpaceOnUse">
<stop stop-color="white"/>
<stop offset="1" stop-color="#F8F8F8"/>
</linearGradient>
<linearGradient id="paint2_linear_172_636" x1="174.069" y1="146.173" x2="169.963" y2="140.308" gradientUnits="userSpaceOnUse">
<stop stop-color="#FAFAFA"/>
<stop offset="1" stop-color="#070707"/>
</linearGradient>
<linearGradient id="paint3_linear_172_636" x1="176.376" y1="142.364" x2="168.566" y2="137.484" gradientUnits="userSpaceOnUse">
<stop stop-color="white"/>
<stop offset="1" stop-color="#F8F8F8"/>
</linearGradient>
<linearGradient id="paint4_linear_172_636" x1="161.237" y1="142.409" x2="156.31" y2="135.372" gradientUnits="userSpaceOnUse">
<stop stop-color="#FAFAFA"/>
<stop offset="1" stop-color="#070707"/>
</linearGradient>
<linearGradient id="paint5_linear_172_636" x1="164.005" y1="137.839" x2="154.634" y2="131.983" gradientUnits="userSpaceOnUse">
<stop stop-color="white"/>
<stop offset="1" stop-color="#F8F8F8"/>
</linearGradient>
<linearGradient id="paint6_linear_172_636" x1="161.358" y1="159.587" x2="156.431" y2="152.55" gradientUnits="userSpaceOnUse">
<stop stop-color="#FAFAFA"/>
<stop offset="1" stop-color="#070707"/>
</linearGradient>
<linearGradient id="paint7_linear_172_636" x1="164.126" y1="155.017" x2="154.755" y2="149.161" gradientUnits="userSpaceOnUse">
<stop stop-color="white"/>
<stop offset="1" stop-color="#F8F8F8"/>
</linearGradient>
<linearGradient id="paint8_linear_172_636" x1="175.78" y1="164.321" x2="170.853" y2="157.284" gradientUnits="userSpaceOnUse">
<stop stop-color="#FAFAFA"/>
<stop offset="1" stop-color="#070707"/>
</linearGradient>
<linearGradient id="paint9_linear_172_636" x1="178.548" y1="159.751" x2="169.177" y2="153.895" gradientUnits="userSpaceOnUse">
<stop stop-color="white"/>
<stop offset="1" stop-color="#F8F8F8"/>
</linearGradient>
<linearGradient id="paint10_linear_172_636" x1="187.866" y1="148.4" x2="184.581" y2="143.709" gradientUnits="userSpaceOnUse">
<stop stop-color="#FAFAFA"/>
<stop offset="1" stop-color="#070707"/>
</linearGradient>
<linearGradient id="paint11_linear_172_636" x1="189.712" y1="145.353" x2="183.464" y2="141.45" gradientUnits="userSpaceOnUse">
<stop stop-color="white"/>
<stop offset="1" stop-color="#F8F8F8"/>
</linearGradient>
<linearGradient id="paint12_linear_172_636" x1="147.78" y1="136.139" x2="142.853" y2="129.101" gradientUnits="userSpaceOnUse">
<stop stop-color="#FAFAFA"/>
<stop offset="1" stop-color="#070707"/>
</linearGradient>
<linearGradient id="paint13_linear_172_636" x1="150.548" y1="131.568" x2="141.177" y2="125.713" gradientUnits="userSpaceOnUse">
<stop stop-color="white"/>
<stop offset="1" stop-color="#F8F8F8"/>
</linearGradient>
<linearGradient id="paint14_linear_172_636" x1="160.487" y1="122.724" x2="156.381" y2="116.86" gradientUnits="userSpaceOnUse">
<stop stop-color="#FAFAFA"/>
<stop offset="1" stop-color="#070707"/>
</linearGradient>
<linearGradient id="paint15_linear_172_636" x1="162.794" y1="118.915" x2="154.984" y2="114.036" gradientUnits="userSpaceOnUse">
<stop stop-color="white"/>
<stop offset="1" stop-color="#F8F8F8"/>
</linearGradient>
<linearGradient id="paint16_linear_172_636" x1="145.87" y1="167.007" x2="140.942" y2="159.97" gradientUnits="userSpaceOnUse">
<stop stop-color="#FAFAFA"/>
<stop offset="1" stop-color="#070707"/>
</linearGradient>
<linearGradient id="paint17_linear_172_636" x1="148.638" y1="162.437" x2="139.266" y2="156.581" gradientUnits="userSpaceOnUse">
<stop stop-color="white"/>
<stop offset="1" stop-color="#F8F8F8"/>
</linearGradient>
<linearGradient id="paint18_linear_172_636" x1="132.753" y1="156.693" x2="128.647" y2="150.829" gradientUnits="userSpaceOnUse">
<stop stop-color="#FAFAFA"/>
<stop offset="1" stop-color="#070707"/>
</linearGradient>
<linearGradient id="paint19_linear_172_636" x1="135.059" y1="152.885" x2="127.25" y2="148.005" gradientUnits="userSpaceOnUse">
<stop stop-color="white"/>
<stop offset="1" stop-color="#F8F8F8"/>
</linearGradient>
<linearGradient id="paint20_linear_172_636" x1="115.55" y1="145.965" x2="112.265" y2="141.273" gradientUnits="userSpaceOnUse">
<stop stop-color="#FAFAFA"/>
<stop offset="1" stop-color="#070707"/>
</linearGradient>
<linearGradient id="paint21_linear_172_636" x1="117.395" y1="142.918" x2="111.148" y2="139.014" gradientUnits="userSpaceOnUse">
<stop stop-color="white"/>
<stop offset="1" stop-color="#F8F8F8"/>
</linearGradient>
<linearGradient id="paint22_linear_172_636" x1="131.058" y1="138.538" x2="126.951" y2="132.674" gradientUnits="userSpaceOnUse">
<stop stop-color="#FAFAFA"/>
<stop offset="1" stop-color="#070707"/>
</linearGradient>
<linearGradient id="paint23_linear_172_636" x1="133.364" y1="134.73" x2="125.555" y2="129.85" gradientUnits="userSpaceOnUse">
<stop stop-color="white"/>
<stop offset="1" stop-color="#F8F8F8"/>
</linearGradient>
<linearGradient id="paint24_linear_172_636" x1="117.132" y1="174.726" x2="113.026" y2="168.862" gradientUnits="userSpaceOnUse">
<stop stop-color="#FAFAFA"/>
<stop offset="1" stop-color="#070707"/>
</linearGradient>
<linearGradient id="paint25_linear_172_636" x1="119.438" y1="170.918" x2="111.629" y2="166.038" gradientUnits="userSpaceOnUse">
<stop stop-color="white"/>
<stop offset="1" stop-color="#F8F8F8"/>
</linearGradient>
<linearGradient id="paint26_linear_172_636" x1="133.132" y1="180.428" x2="128.204" y2="173.391" gradientUnits="userSpaceOnUse">
<stop stop-color="#FAFAFA"/>
<stop offset="1" stop-color="#070707"/>
</linearGradient>
<linearGradient id="paint27_linear_172_636" x1="135.899" y1="175.858" x2="126.528" y2="170.002" gradientUnits="userSpaceOnUse">
<stop stop-color="white"/>
<stop offset="1" stop-color="#F8F8F8"/>
</linearGradient>
<linearGradient id="paint28_linear_172_636" x1="105.956" y1="161.331" x2="101.85" y2="155.467" gradientUnits="userSpaceOnUse">
<stop stop-color="#FAFAFA"/>
<stop offset="1" stop-color="#070707"/>
</linearGradient>
<linearGradient id="paint29_linear_172_636" x1="108.262" y1="157.522" x2="100.453" y2="152.643" gradientUnits="userSpaceOnUse">
<stop stop-color="white"/>
<stop offset="1" stop-color="#F8F8F8"/>
</linearGradient>
<linearGradient id="paint30_linear_172_636" x1="192.241" y1="183.158" x2="187.314" y2="176.121" gradientUnits="userSpaceOnUse">
<stop stop-color="#FAFAFA"/>
<stop offset="1" stop-color="#070707"/>
</linearGradient>
<linearGradient id="paint31_linear_172_636" x1="195.009" y1="178.588" x2="185.637" y2="172.732" gradientUnits="userSpaceOnUse">
<stop stop-color="white"/>
<stop offset="1" stop-color="#F8F8F8"/>
</linearGradient>
<linearGradient id="paint32_linear_172_636" x1="177.944" y1="195.603" x2="173.017" y2="188.566" gradientUnits="userSpaceOnUse">
<stop stop-color="#FAFAFA"/>
<stop offset="1" stop-color="#070707"/>
</linearGradient>
<linearGradient id="paint33_linear_172_636" x1="180.712" y1="191.033" x2="171.341" y2="185.177" gradientUnits="userSpaceOnUse">
<stop stop-color="white"/>
<stop offset="1" stop-color="#F8F8F8"/>
</linearGradient>
<linearGradient id="paint34_linear_172_636" x1="190.44" y1="203.411" x2="185.513" y2="196.374" gradientUnits="userSpaceOnUse">
<stop stop-color="#FAFAFA"/>
<stop offset="1" stop-color="#070707"/>
</linearGradient>
<linearGradient id="paint35_linear_172_636" x1="193.208" y1="198.841" x2="183.837" y2="192.985" gradientUnits="userSpaceOnUse">
<stop stop-color="white"/>
<stop offset="1" stop-color="#F8F8F8"/>
</linearGradient>
<linearGradient id="paint36_linear_172_636" x1="179.87" y1="220.322" x2="174.942" y2="213.285" gradientUnits="userSpaceOnUse">
<stop stop-color="#FAFAFA"/>
<stop offset="1" stop-color="#070707"/>
</linearGradient>
<linearGradient id="paint37_linear_172_636" x1="182.638" y1="215.752" x2="173.266" y2="209.896" gradientUnits="userSpaceOnUse">
<stop stop-color="white"/>
<stop offset="1" stop-color="#F8F8F8"/>
</linearGradient>
<linearGradient id="paint38_linear_172_636" x1="186.146" y1="230.567" x2="185.239" y2="226.393" gradientUnits="userSpaceOnUse">
<stop stop-color="#FAFAFA"/>
<stop offset="1" stop-color="#070707"/>
</linearGradient>
<linearGradient id="paint39_linear_172_636" x1="188.316" y1="228.998" x2="185.15" y2="224.487" gradientUnits="userSpaceOnUse">
<stop stop-color="white"/>
<stop offset="1" stop-color="#F8F8F8"/>
</linearGradient>
<linearGradient id="paint40_linear_172_636" x1="192.876" y1="247.598" x2="191.97" y2="243.425" gradientUnits="userSpaceOnUse">
<stop stop-color="#FAFAFA"/>
<stop offset="1" stop-color="#070707"/>
</linearGradient>
<linearGradient id="paint41_linear_172_636" x1="195.046" y1="246.03" x2="191.881" y2="241.518" gradientUnits="userSpaceOnUse">
<stop stop-color="white"/>
<stop offset="1" stop-color="#F8F8F8"/>
</linearGradient>
<linearGradient id="paint42_linear_172_636" x1="161.132" y1="208.61" x2="156.204" y2="201.573" gradientUnits="userSpaceOnUse">
<stop stop-color="#FAFAFA"/>
<stop offset="1" stop-color="#070707"/>
</linearGradient>
<linearGradient id="paint43_linear_172_636" x1="163.899" y1="204.04" x2="154.528" y2="198.184" gradientUnits="userSpaceOnUse">
<stop stop-color="white"/>
<stop offset="1" stop-color="#F8F8F8"/>
</linearGradient>
<linearGradient id="paint44_linear_172_636" x1="162.819" y1="226.765" x2="157.892" y2="219.727" gradientUnits="userSpaceOnUse">
<stop stop-color="#FAFAFA"/>
<stop offset="1" stop-color="#070707"/>
</linearGradient>
<linearGradient id="paint45_linear_172_636" x1="165.587" y1="222.194" x2="156.216" y2="216.339" gradientUnits="userSpaceOnUse">
<stop stop-color="white"/>
<stop offset="1" stop-color="#F8F8F8"/>
</linearGradient>
<linearGradient id="paint46_linear_172_636" x1="174.411" y1="229.815" x2="173.505" y2="225.642" gradientUnits="userSpaceOnUse">
<stop stop-color="#FAFAFA"/>
<stop offset="1" stop-color="#070707"/>
</linearGradient>
<linearGradient id="paint47_linear_172_636" x1="176.581" y1="228.247" x2="173.416" y2="223.736" gradientUnits="userSpaceOnUse">
<stop stop-color="white"/>
<stop offset="1" stop-color="#F8F8F8"/>
</linearGradient>
<linearGradient id="paint48_linear_172_636" x1="185.904" y1="251.796" x2="184.997" y2="247.623" gradientUnits="userSpaceOnUse">
<stop stop-color="#FAFAFA"/>
<stop offset="1" stop-color="#070707"/>
</linearGradient>
<linearGradient id="paint49_linear_172_636" x1="188.074" y1="250.228" x2="184.908" y2="245.717" gradientUnits="userSpaceOnUse">
<stop stop-color="white"/>
<stop offset="1" stop-color="#F8F8F8"/>
</linearGradient>
<linearGradient id="paint50_linear_172_636" x1="143.112" y1="216.591" x2="138.185" y2="209.553" gradientUnits="userSpaceOnUse">
<stop stop-color="#FAFAFA"/>
<stop offset="1" stop-color="#070707"/>
</linearGradient>
<linearGradient id="paint51_linear_172_636" x1="145.88" y1="212.02" x2="136.509" y2="206.165" gradientUnits="userSpaceOnUse">
<stop stop-color="white"/>
<stop offset="1" stop-color="#F8F8F8"/>
</linearGradient>
<linearGradient id="paint52_linear_172_636" x1="116.319" y1="193.436" x2="111.392" y2="186.399" gradientUnits="userSpaceOnUse">
<stop stop-color="#FAFAFA"/>
<stop offset="1" stop-color="#070707"/>
</linearGradient>
<linearGradient id="paint53_linear_172_636" x1="119.087" y1="188.866" x2="109.716" y2="183.01" gradientUnits="userSpaceOnUse">
<stop stop-color="white"/>
<stop offset="1" stop-color="#F8F8F8"/>
</linearGradient>
<linearGradient id="paint54_linear_172_636" x1="188.714" y1="240.864" x2="186.251" y2="237.345" gradientUnits="userSpaceOnUse">
<stop stop-color="#FAFAFA"/>
<stop offset="1" stop-color="#070707"/>
</linearGradient>
<linearGradient id="paint55_linear_172_636" x1="190.098" y1="238.579" x2="185.412" y2="235.651" gradientUnits="userSpaceOnUse">
<stop stop-color="white"/>
<stop offset="1" stop-color="#F8F8F8"/>
</linearGradient>
<linearGradient id="paint56_linear_172_636" x1="205.656" y1="272.829" x2="203.192" y2="269.31" gradientUnits="userSpaceOnUse">
<stop stop-color="#FAFAFA"/>
<stop offset="1" stop-color="#070707"/>
</linearGradient>
<linearGradient id="paint57_linear_172_636" x1="207.04" y1="270.544" x2="202.354" y2="267.616" gradientUnits="userSpaceOnUse">
<stop stop-color="white"/>
<stop offset="1" stop-color="#F8F8F8"/>
</linearGradient>
<linearGradient id="paint58_linear_172_636" x1="82.4042" y1="125.937" x2="79.8209" y2="124.688" gradientUnits="userSpaceOnUse">
<stop stop-color="#FAFAFA"/>
<stop offset="1" stop-color="#070707"/>
</linearGradient>
<linearGradient id="paint59_linear_172_636" x1="82.4682" y1="124.151" x2="78.8035" y2="123.968" gradientUnits="userSpaceOnUse">
<stop stop-color="white"/>
<stop offset="1" stop-color="#F8F8F8"/>
</linearGradient>
<linearGradient id="paint60_linear_172_636" x1="157.473" y1="89.7266" x2="157.285" y2="86.8922" gradientUnits="userSpaceOnUse">
<stop stop-color="#FAFAFA"/>
<stop offset="1" stop-color="#070707"/>
</linearGradient>
<linearGradient id="paint61_linear_172_636" x1="159.062" y1="88.9071" x2="157.427" y2="85.6246" gradientUnits="userSpaceOnUse">
<stop stop-color="white"/>
<stop offset="1" stop-color="#F8F8F8"/>
</linearGradient>
<linearGradient id="paint62_linear_172_636" x1="198.558" y1="259.847" x2="196.094" y2="256.329" gradientUnits="userSpaceOnUse">
<stop stop-color="#FAFAFA"/>
<stop offset="1" stop-color="#070707"/>
</linearGradient>
<linearGradient id="paint63_linear_172_636" x1="199.942" y1="257.562" x2="195.256" y2="254.634" gradientUnits="userSpaceOnUse">
<stop stop-color="white"/>
<stop offset="1" stop-color="#F8F8F8"/>
</linearGradient>
<linearGradient id="paint64_linear_172_636" x1="88.5878" y1="126.477" x2="86.0045" y2="125.227" gradientUnits="userSpaceOnUse">
<stop stop-color="#FAFAFA"/>
<stop offset="1" stop-color="#070707"/>
</linearGradient>
<linearGradient id="paint65_linear_172_636" x1="88.6518" y1="124.69" x2="84.9871" y2="124.508" gradientUnits="userSpaceOnUse">
<stop stop-color="white"/>
<stop offset="1" stop-color="#F8F8F8"/>
</linearGradient>
<linearGradient id="paint66_linear_172_636" x1="160.176" y1="95.2983" x2="159.989" y2="92.4639" gradientUnits="userSpaceOnUse">
<stop stop-color="#FAFAFA"/>
<stop offset="1" stop-color="#070707"/>
</linearGradient>
<linearGradient id="paint67_linear_172_636" x1="161.765" y1="94.4788" x2="160.13" y2="91.1963" gradientUnits="userSpaceOnUse">
<stop stop-color="white"/>
<stop offset="1" stop-color="#F8F8F8"/>
</linearGradient>
<linearGradient id="paint68_linear_172_636" x1="97.4094" y1="136.766" x2="94.1244" y2="132.074" gradientUnits="userSpaceOnUse">
<stop stop-color="#FAFAFA"/>
<stop offset="1" stop-color="#070707"/>
</linearGradient>
<linearGradient id="paint69_linear_172_636" x1="99.2545" y1="133.719" x2="93.007" y2="129.815" gradientUnits="userSpaceOnUse">
<stop stop-color="white"/>
<stop offset="1" stop-color="#F8F8F8"/>
</linearGradient>
<linearGradient id="paint70_linear_172_636" x1="155.747" y1="107.916" x2="158.107" y2="102.78" gradientUnits="userSpaceOnUse">
<stop stop-color="#FAFAFA"/>
<stop offset="1" stop-color="#070707"/>
</linearGradient>
<linearGradient id="paint71_linear_172_636" x1="159.35" y1="108.01" x2="159.639" y2="100.736" gradientUnits="userSpaceOnUse">
<stop stop-color="white"/>
<stop offset="1" stop-color="#F8F8F8"/>
</linearGradient>
<linearGradient id="paint72_linear_172_636" x1="145.733" y1="149.828" x2="140.806" y2="142.791" gradientUnits="userSpaceOnUse">
<stop stop-color="#FAFAFA"/>
<stop offset="1" stop-color="#070707"/>
</linearGradient>
<linearGradient id="paint73_linear_172_636" x1="148.501" y1="145.258" x2="139.13" y2="139.402" gradientUnits="userSpaceOnUse">
<stop stop-color="white"/>
<stop offset="1" stop-color="#F8F8F8"/>
</linearGradient>
<linearGradient id="paint74_linear_172_636" x1="216.413" y1="290.296" x2="146.455" y2="155.753" gradientUnits="userSpaceOnUse">
<stop stop-color="#FAFAFA"/>
<stop offset="1" stop-color="#070707"/>
</linearGradient>
</defs>
</svg>
