<svg width="315" height="314" viewBox="0 0 315 314" fill="none" xmlns="http://www.w3.org/2000/svg">
<g filter="url(#filter0_bf_172_328)">
<g filter="url(#filter1_dd_172_328)">
<path d="M181.344 227.55L199.205 304.995L157.355 239.614C137.524 232.887 118.731 220.001 95.8302 201.456C92.3951 198.674 95.3461 197.176 97.251 196.775L94.8645 141.191L48.1708 84.7186L107.995 130.83L155.994 118.381L173.302 47.2554L169.435 122.268C174.015 125.977 189.771 144.955 197.076 153.981C200.162 153.681 202.179 156.947 202.801 158.617C206.17 188.404 189.9 216.983 181.344 227.55Z" fill="url(#paint0_linear_172_328)"/>
<path d="M202.801 158.617C206.17 188.404 189.9 216.983 181.344 227.55L199.205 304.995L157.355 239.614C137.524 232.887 118.731 220.001 95.8302 201.456M202.801 158.617C202.179 156.947 200.162 153.681 197.076 153.981M202.801 158.617C175.991 191.725 106.136 209.801 95.8302 201.456M95.8302 201.456C92.3951 198.674 95.3461 197.176 97.251 196.775M197.076 153.981C189.771 144.955 174.015 125.977 169.435 122.268L173.302 47.2554L155.994 118.381L107.995 130.83L48.1708 84.7186L94.8645 141.191L97.251 196.775M197.076 153.981C170.266 187.088 102.404 200.948 97.251 196.775" stroke="url(#paint1_linear_172_328)"/>
</g>
<path d="M170.517 151.659C168.749 150.228 168.468 147.667 169.864 145.943C171.261 144.218 173.824 143.961 175.591 145.392C177.359 146.823 177.64 149.384 176.244 151.108C174.847 152.833 172.284 153.09 170.517 151.659Z" fill="url(#paint2_linear_172_328)" stroke="url(#paint3_linear_172_328)"/>
<path d="M157.504 145.784C155.341 144.033 154.995 140.897 156.706 138.784C158.418 136.67 161.557 136.357 163.72 138.108C165.882 139.859 166.229 142.995 164.517 145.108C162.805 147.222 159.667 147.535 157.504 145.784Z" fill="url(#paint4_linear_172_328)" stroke="url(#paint5_linear_172_328)"/>
<path d="M155.539 162.85C153.376 161.099 153.03 157.964 154.742 155.85C156.453 153.736 159.592 153.423 161.755 155.174C163.917 156.926 164.264 160.061 162.552 162.175C160.84 164.289 157.702 164.601 155.539 162.85Z" fill="url(#paint6_linear_172_328)" stroke="url(#paint7_linear_172_328)"/>
<path d="M169.254 169.304C167.091 167.553 166.745 164.418 168.456 162.304C170.168 160.19 173.307 159.877 175.47 161.628C177.632 163.38 177.979 166.515 176.267 168.629C174.555 170.743 171.417 171.055 169.254 169.304Z" fill="url(#paint8_linear_172_328)" stroke="url(#paint9_linear_172_328)"/>
<path d="M184.674 156.126C183.302 155.015 183.085 153.029 184.167 151.693C185.249 150.358 187.236 150.157 188.608 151.268C189.98 152.379 190.197 154.365 189.115 155.7C188.033 157.036 186.046 157.237 184.674 156.126Z" fill="url(#paint10_linear_172_328)" stroke="url(#paint11_linear_172_328)"/>
<path d="M144.918 137.92C142.755 136.169 142.409 133.034 144.121 130.92C145.832 128.806 148.971 128.493 151.134 130.245C153.296 131.996 153.643 135.131 151.931 137.245C150.219 139.359 147.081 139.672 144.918 137.92Z" fill="url(#paint12_linear_172_328)" stroke="url(#paint13_linear_172_328)"/>
<path d="M159.899 126.73C158.132 125.299 157.851 122.739 159.247 121.014C160.644 119.289 163.207 119.032 164.974 120.463C166.742 121.895 167.023 124.455 165.627 126.18C164.23 127.904 161.667 128.161 159.899 126.73Z" fill="url(#paint14_linear_172_328)" stroke="url(#paint15_linear_172_328)"/>
<path d="M139.254 168.325C137.091 166.574 136.745 163.439 138.456 161.325C140.168 159.211 143.307 158.898 145.47 160.65C147.632 162.401 147.979 165.536 146.267 167.65C144.555 169.764 141.417 170.077 139.254 168.325Z" fill="url(#paint16_linear_172_328)" stroke="url(#paint17_linear_172_328)"/>
<path d="M128.224 157.064C126.456 155.633 126.175 153.073 127.571 151.348C128.968 149.623 131.531 149.366 133.299 150.797C135.066 152.229 135.347 154.789 133.951 156.514C132.554 158.239 129.991 158.496 128.224 157.064Z" fill="url(#paint18_linear_172_328)" stroke="url(#paint19_linear_172_328)"/>
<path d="M113.19 144.894C111.817 143.783 111.601 141.797 112.683 140.462C113.764 139.126 115.751 138.925 117.124 140.036C118.496 141.147 118.712 143.133 117.631 144.468C116.549 145.804 114.562 146.005 113.19 144.894Z" fill="url(#paint20_linear_172_328)" stroke="url(#paint21_linear_172_328)"/>
<path d="M128.763 138.84C126.995 137.409 126.714 134.848 128.11 133.123C129.507 131.399 132.07 131.142 133.838 132.573C135.605 134.004 135.887 136.565 134.49 138.289C133.093 140.014 130.53 140.271 128.763 138.84Z" fill="url(#paint22_linear_172_328)" stroke="url(#paint23_linear_172_328)"/>
<path d="M110.528 173.061C108.761 171.63 108.479 169.069 109.876 167.345C111.273 165.62 113.836 165.363 115.603 166.794C117.371 168.225 117.652 170.786 116.255 172.51C114.859 174.235 112.296 174.492 110.528 173.061Z" fill="url(#paint24_linear_172_328)" stroke="url(#paint25_linear_172_328)"/>
<path d="M124.98 180.095C122.818 178.344 122.471 175.209 124.183 173.095C125.895 170.981 129.033 170.668 131.196 172.42C133.359 174.171 133.705 177.306 131.994 179.42C130.282 181.534 127.143 181.847 124.98 180.095Z" fill="url(#paint26_linear_172_328)" stroke="url(#paint27_linear_172_328)"/>
<path d="M101.071 158.403C99.3039 156.972 99.0224 154.412 100.419 152.687C101.816 150.962 104.379 150.705 106.146 152.136C107.914 153.568 108.195 156.128 106.798 157.853C105.402 159.578 102.839 159.835 101.071 158.403Z" fill="url(#paint28_linear_172_328)" stroke="url(#paint29_linear_172_328)"/>
<path d="M183.305 190.007C181.142 188.255 180.795 185.12 182.507 183.006C184.219 180.892 187.358 180.58 189.52 182.331C191.683 184.082 192.03 187.217 190.318 189.331C188.606 191.445 185.467 191.758 183.305 190.007Z" fill="url(#paint30_linear_172_328)" stroke="url(#paint31_linear_172_328)"/>
<path d="M167.609 200.619C165.447 198.867 165.1 195.732 166.812 193.618C168.524 191.504 171.662 191.191 173.825 192.943C175.988 194.694 176.334 197.829 174.623 199.943C172.911 202.057 169.772 202.37 167.609 200.619Z" fill="url(#paint32_linear_172_328)" stroke="url(#paint33_linear_172_328)"/>
<path d="M179.059 209.891C176.896 208.139 176.549 205.004 178.261 202.89C179.973 200.776 183.112 200.464 185.274 202.215C187.437 203.966 187.783 207.101 186.072 209.215C184.36 211.329 181.221 211.642 179.059 209.891Z" fill="url(#paint34_linear_172_328)" stroke="url(#paint35_linear_172_328)"/>
<path d="M166.508 225.388C164.345 223.636 163.999 220.501 165.71 218.387C167.422 216.274 170.561 215.961 172.723 217.712C174.886 219.463 175.233 222.599 173.521 224.712C171.809 226.826 168.67 227.139 166.508 225.388Z" fill="url(#paint36_linear_172_328)" stroke="url(#paint37_linear_172_328)"/>
<path d="M174.639 237.495C174.039 236.397 174.44 235.045 175.52 234.469C176.6 233.894 177.967 234.304 178.567 235.401C179.168 236.498 178.767 237.851 177.687 238.427C176.606 239.002 175.24 238.592 174.639 237.495Z" fill="url(#paint38_linear_172_328)" stroke="url(#paint39_linear_172_328)"/>
<path d="M179.245 255.221C178.644 254.123 179.045 252.771 180.126 252.195C181.206 251.619 182.572 252.03 183.173 253.127C183.774 254.224 183.372 255.577 182.292 256.152C181.212 256.728 179.846 256.318 179.245 255.221Z" fill="url(#paint40_linear_172_328)" stroke="url(#paint41_linear_172_328)"/>
<path d="M149.328 211.479C147.165 209.727 146.819 206.592 148.531 204.478C150.242 202.364 153.381 202.052 155.544 203.803C157.706 205.554 158.053 208.689 156.341 210.803C154.63 212.917 151.491 213.23 149.328 211.479Z" fill="url(#paint42_linear_172_328)" stroke="url(#paint43_linear_172_328)"/>
<path d="M148.793 229.704C146.63 227.953 146.284 224.817 147.996 222.704C149.707 220.59 152.846 220.277 155.009 222.028C157.171 223.779 157.518 226.915 155.806 229.028C154.094 231.142 150.956 231.455 148.793 229.704Z" fill="url(#paint44_linear_172_328)" stroke="url(#paint45_linear_172_328)"/>
<path d="M163.085 235.32C162.484 234.223 162.885 232.871 163.965 232.295C165.046 231.719 166.412 232.129 167.013 233.227C167.613 234.324 167.212 235.676 166.132 236.252C165.052 236.828 163.685 236.418 163.085 235.32Z" fill="url(#paint46_linear_172_328)" stroke="url(#paint47_linear_172_328)"/>
<path d="M171.811 258.537C171.21 257.44 171.612 256.088 172.692 255.512C173.772 254.936 175.138 255.346 175.739 256.444C176.34 257.541 175.939 258.894 174.858 259.469C173.778 260.045 172.412 259.635 171.811 258.537Z" fill="url(#paint48_linear_172_328)" stroke="url(#paint49_linear_172_328)"/>
<path d="M130.477 217.204C128.314 215.453 127.967 212.318 129.679 210.204C131.391 208.09 134.53 207.777 136.692 209.528C138.855 211.28 139.201 214.415 137.49 216.529C135.778 218.642 132.639 218.955 130.477 217.204Z" fill="url(#paint50_linear_172_328)" stroke="url(#paint51_linear_172_328)"/>
<path d="M106.703 190.957C104.54 189.205 104.194 186.07 105.906 183.956C107.617 181.842 110.756 181.53 112.919 183.281C115.081 185.032 115.428 188.167 113.716 190.281C112.005 192.395 108.866 192.708 106.703 190.957Z" fill="url(#paint52_linear_172_328)" stroke="url(#paint53_linear_172_328)"/>
<path d="M174.976 248.578C173.999 247.787 173.847 246.376 174.614 245.429C175.381 244.483 176.792 244.338 177.769 245.129C178.746 245.92 178.897 247.331 178.131 248.277C177.364 249.224 175.953 249.369 174.976 248.578Z" fill="url(#paint54_linear_172_328)" stroke="url(#paint55_linear_172_328)"/>
<path d="M187.901 282.37C186.925 281.579 186.773 280.168 187.54 279.221C188.306 278.275 189.718 278.129 190.695 278.921C191.672 279.712 191.823 281.122 191.056 282.069C190.29 283.016 188.878 283.161 187.901 282.37Z" fill="url(#paint56_linear_172_328)" stroke="url(#paint57_linear_172_328)"/>
<path d="M83.6129 122.863C82.8844 122.726 82.4026 122.031 82.5266 121.317C82.6505 120.603 83.3357 120.126 84.0642 120.263C84.7927 120.399 85.2745 121.094 85.1505 121.809C85.0265 122.523 84.3413 122.999 83.6129 122.863Z" fill="url(#paint58_linear_172_328)" stroke="url(#paint59_linear_172_328)"/>
<path d="M164.087 94.9738C163.83 94.2796 164.185 93.5244 164.869 93.2824C165.554 93.0403 166.32 93.3989 166.577 94.0931C166.833 94.7873 166.478 95.5425 165.794 95.7845C165.11 96.0266 164.343 95.668 164.087 94.9738Z" fill="url(#paint60_linear_172_328)" stroke="url(#paint61_linear_172_328)"/>
<path d="M182.448 268.621C181.471 267.83 181.32 266.42 182.087 265.473C182.853 264.526 184.265 264.381 185.242 265.172C186.218 265.963 186.37 267.374 185.603 268.321C184.837 269.267 183.425 269.412 182.448 268.621Z" fill="url(#paint62_linear_172_328)" stroke="url(#paint63_linear_172_328)"/>
<path d="M89.6832 124.151C88.9547 124.014 88.4729 123.319 88.5969 122.605C88.7208 121.891 89.406 121.414 90.1345 121.551C90.863 121.687 91.3448 122.383 91.2208 123.097C91.0968 123.811 90.4116 124.287 89.6832 124.151Z" fill="url(#paint64_linear_172_328)" stroke="url(#paint65_linear_172_328)"/>
<path d="M166.087 100.834C165.83 100.14 166.185 99.3847 166.869 99.1427C167.554 98.9006 168.32 99.2592 168.577 99.9534C168.833 100.648 168.478 101.403 167.794 101.645C167.11 101.887 166.343 101.528 166.087 100.834Z" fill="url(#paint66_linear_172_328)" stroke="url(#paint67_linear_172_328)"/>
<path d="M96.3145 133.554C94.9423 132.443 94.7258 130.458 95.8075 129.122C96.8892 127.786 98.8764 127.585 100.249 128.696C101.621 129.807 101.837 131.793 100.756 133.129C99.6739 134.464 97.6867 134.665 96.3145 133.554Z" fill="url(#paint68_linear_172_328)" stroke="url(#paint69_linear_172_328)"/>
<path d="M161.332 111.139C161.587 109.427 163.192 108.261 164.923 108.544C166.654 108.827 167.842 110.449 167.587 112.161C167.331 113.872 165.727 115.038 163.996 114.756C162.265 114.473 161.076 112.851 161.332 111.139Z" fill="url(#paint70_linear_172_328)" stroke="url(#paint71_linear_172_328)"/>
<path d="M141.215 151.259C139.052 149.508 138.706 146.373 140.417 144.259C142.129 142.145 145.268 141.832 147.431 143.583C149.593 145.335 149.94 148.47 148.228 150.584C146.516 152.698 143.377 153.01 141.215 151.259Z" fill="url(#paint72_linear_172_328)" stroke="url(#paint73_linear_172_328)"/>
</g>
<g filter="url(#filter2_dd_172_328)">
<path d="M181.344 227.55L199.205 304.995L157.355 239.614C137.524 232.887 118.731 220.001 95.8302 201.456C92.3951 198.674 95.3461 197.176 97.251 196.775L94.8645 141.191L48.1708 84.7186L107.995 130.83L155.994 118.381L173.302 47.2554L169.435 122.268C174.015 125.977 189.771 144.955 197.076 153.981C200.162 153.681 202.179 156.947 202.801 158.617C206.17 188.404 189.9 216.983 181.344 227.55Z" fill="url(#paint74_linear_172_328)"/>
<path d="M202.801 158.617C206.17 188.404 189.9 216.983 181.344 227.55L199.205 304.995L157.355 239.614C137.524 232.887 118.731 220.001 95.8302 201.456M202.801 158.617C202.179 156.947 200.162 153.681 197.076 153.981M202.801 158.617C175.991 191.725 106.136 209.801 95.8302 201.456M95.8302 201.456C92.3951 198.674 95.3461 197.176 97.251 196.775M197.076 153.981C189.771 144.955 174.015 125.977 169.435 122.268L173.302 47.2554L155.994 118.381L107.995 130.83L48.1708 84.7186L94.8645 141.191L97.251 196.775M197.076 153.981C170.266 187.088 102.404 200.948 97.251 196.775" stroke="#FAFAFA"/>
</g>
<ellipse cx="173.054" cy="148.526" rx="4.53202" ry="4.60432" transform="rotate(129 173.054 148.526)" fill="#D7FF00"/>
<ellipse cx="160.612" cy="141.946" rx="5.43842" ry="5.52518" transform="rotate(129 160.612 141.946)" fill="#D7FF00"/>
<ellipse cx="158.647" cy="159.012" rx="5.43842" ry="5.52518" transform="rotate(129 158.647 159.012)" fill="#D7FF00"/>
<ellipse cx="172.362" cy="165.466" rx="5.43842" ry="5.52518" transform="rotate(129 172.362 165.466)" fill="#D7FF00"/>
<ellipse cx="186.641" cy="153.697" rx="3.62562" ry="3.68345" transform="rotate(129 186.641 153.697)" fill="#D7FF00"/>
<ellipse cx="148.026" cy="134.082" rx="5.43842" ry="5.52518" transform="rotate(129 148.026 134.082)" fill="#D7FF00"/>
<ellipse cx="162.437" cy="123.597" rx="4.53202" ry="4.60432" transform="rotate(129 162.437 123.597)" fill="#D7FF00"/>
<ellipse cx="142.362" cy="164.488" rx="5.43842" ry="5.52518" transform="rotate(129 142.362 164.488)" fill="#D7FF00"/>
<ellipse cx="130.761" cy="153.931" rx="4.53202" ry="4.60432" transform="rotate(129 130.761 153.931)" fill="#D7FF00"/>
<ellipse cx="115.157" cy="142.465" rx="3.62562" ry="3.68345" transform="rotate(129 115.157 142.465)" fill="#D7FF00"/>
<ellipse cx="131.3" cy="135.706" rx="4.53202" ry="4.60432" transform="rotate(129 131.3 135.706)" fill="#D7FF00"/>
<ellipse cx="113.066" cy="169.927" rx="4.53202" ry="4.60432" transform="rotate(129 113.066 169.927)" fill="#D7FF00"/>
<ellipse cx="128.088" cy="176.258" rx="5.43842" ry="5.52518" transform="rotate(129 128.088 176.258)" fill="#D7FF00"/>
<ellipse cx="103.609" cy="155.27" rx="4.53202" ry="4.60432" transform="rotate(129 103.609 155.27)" fill="#D7FF00"/>
<ellipse cx="186.413" cy="186.169" rx="5.43842" ry="5.52518" transform="rotate(129 186.413 186.169)" fill="#D7FF00"/>
<ellipse cx="170.717" cy="196.781" rx="5.43842" ry="5.52518" transform="rotate(129 170.717 196.781)" fill="#D7FF00"/>
<ellipse cx="182.166" cy="206.053" rx="5.43842" ry="5.52518" transform="rotate(129 182.166 206.053)" fill="#D7FF00"/>
<ellipse cx="169.616" cy="221.55" rx="5.43842" ry="5.52518" transform="rotate(129 169.616 221.55)" fill="#D7FF00"/>
<ellipse cx="2.72559" cy="2.75576" rx="2.72559" ry="2.75576" transform="matrix(-0.882485 0.470341 -0.480228 -0.877144 180.332 237.583)" fill="#D7FF00"/>
<ellipse cx="2.72559" cy="2.75576" rx="2.72559" ry="2.75576" transform="matrix(-0.882485 0.470341 -0.480228 -0.877144 184.938 255.309)" fill="#D7FF00"/>
<ellipse cx="152.436" cy="207.641" rx="5.43842" ry="5.52518" transform="rotate(129 152.436 207.641)" fill="#D7FF00"/>
<ellipse cx="151.901" cy="225.866" rx="5.43842" ry="5.52518" transform="rotate(129 151.901 225.866)" fill="#D7FF00"/>
<ellipse cx="2.72559" cy="2.75576" rx="2.72559" ry="2.75576" transform="matrix(-0.882485 0.470341 -0.480228 -0.877144 168.777 235.409)" fill="#D7FF00"/>
<ellipse cx="2.72559" cy="2.75576" rx="2.72559" ry="2.75576" transform="matrix(-0.882485 0.470341 -0.480228 -0.877144 177.504 258.626)" fill="#D7FF00"/>
<ellipse cx="133.584" cy="213.366" rx="5.43842" ry="5.52518" transform="rotate(129 133.584 213.366)" fill="#D7FF00"/>
<ellipse cx="109.811" cy="187.119" rx="5.43842" ry="5.52518" transform="rotate(129 109.811 187.119)" fill="#D7FF00"/>
<ellipse cx="176.372" cy="246.853" rx="2.71921" ry="2.76259" transform="rotate(129 176.372 246.853)" fill="#D7FF00"/>
<ellipse cx="189.298" cy="280.645" rx="2.71921" ry="2.76259" transform="rotate(129 189.298 280.645)" fill="#D7FF00"/>
<ellipse cx="1.81946" cy="1.8348" rx="1.81946" ry="1.8348" transform="matrix(-0.17103 0.985266 -0.982894 -0.184171 85.9531 120.108)" fill="#D7FF00"/>
<ellipse cx="1.82048" cy="1.83379" rx="1.82048" ry="1.83379" transform="matrix(-0.942759 0.333476 -0.346645 -0.937996 167.684 95.6465)" fill="#D7FF00"/>
<ellipse cx="183.845" cy="266.897" rx="2.71921" ry="2.76259" transform="rotate(129 183.845 266.897)" fill="#D7FF00"/>
<ellipse cx="1.81946" cy="1.8348" rx="1.81946" ry="1.8348" transform="matrix(-0.17103 0.985266 -0.982894 -0.184171 92.0234 121.396)" fill="#D7FF00"/>
<ellipse cx="1.82048" cy="1.83379" rx="1.82048" ry="1.83379" transform="matrix(-0.942759 0.333476 -0.346645 -0.937996 169.684 101.507)" fill="#D7FF00"/>
<ellipse cx="98.2815" cy="131.125" rx="3.62562" ry="3.68345" transform="rotate(129 98.2815 131.125)" fill="#D7FF00"/>
<ellipse cx="3.66898" cy="3.64026" rx="3.66898" ry="3.64026" transform="matrix(-0.986919 -0.161217 0.147645 -0.98904 167.543 115.842)" fill="#D7FF00"/>
<ellipse cx="144.323" cy="147.421" rx="5.43842" ry="5.52518" transform="rotate(129 144.323 147.421)" fill="#D7FF00"/>
<defs>
<filter id="filter0_bf_172_328" x="-51.8148" y="-52.4628" width="355.169" height="457.327" filterUnits="userSpaceOnUse" color-interpolation-filters="sRGB">
<feFlood flood-opacity="0" result="BackgroundImageFix"/>
<feGaussianBlur in="BackgroundImageFix" stdDeviation="49.8"/>
<feComposite in2="SourceAlpha" operator="in" result="effect1_backgroundBlur_172_328"/>
<feBlend mode="normal" in="SourceGraphic" in2="effect1_backgroundBlur_172_328" result="shape"/>
<feGaussianBlur stdDeviation="3.25" result="effect2_foregroundBlur_172_328"/>
</filter>
<filter id="filter1_dd_172_328" x="43.7852" y="47.1372" width="163.969" height="266.127" filterUnits="userSpaceOnUse" color-interpolation-filters="sRGB">
<feFlood flood-opacity="0" result="BackgroundImageFix"/>
<feColorMatrix in="SourceAlpha" type="matrix" values="0 0 0 0 0 0 0 0 0 0 0 0 0 0 0 0 0 0 127 0" result="hardAlpha"/>
<feOffset dy="4"/>
<feGaussianBlur stdDeviation="2"/>
<feComposite in2="hardAlpha" operator="out"/>
<feColorMatrix type="matrix" values="0 0 0 0 0 0 0 0 0 0 0 0 0 0 0 0 0 0 0.25 0"/>
<feBlend mode="normal" in2="BackgroundImageFix" result="effect1_dropShadow_172_328"/>
<feColorMatrix in="SourceAlpha" type="matrix" values="0 0 0 0 0 0 0 0 0 0 0 0 0 0 0 0 0 0 127 0" result="hardAlpha"/>
<feOffset dy="4"/>
<feGaussianBlur stdDeviation="2"/>
<feComposite in2="hardAlpha" operator="out"/>
<feColorMatrix type="matrix" values="0 0 0 0 0 0 0 0 0 0 0 0 0 0 0 0 0 0 0.25 0"/>
<feBlend mode="normal" in2="effect1_dropShadow_172_328" result="effect2_dropShadow_172_328"/>
<feBlend mode="normal" in="SourceGraphic" in2="effect2_dropShadow_172_328" result="shape"/>
</filter>
<filter id="filter2_dd_172_328" x="43.7852" y="47.1372" width="163.969" height="266.127" filterUnits="userSpaceOnUse" color-interpolation-filters="sRGB">
<feFlood flood-opacity="0" result="BackgroundImageFix"/>
<feColorMatrix in="SourceAlpha" type="matrix" values="0 0 0 0 0 0 0 0 0 0 0 0 0 0 0 0 0 0 127 0" result="hardAlpha"/>
<feOffset dy="4"/>
<feGaussianBlur stdDeviation="2"/>
<feComposite in2="hardAlpha" operator="out"/>
<feColorMatrix type="matrix" values="0 0 0 0 0 0 0 0 0 0 0 0 0 0 0 0 0 0 0.25 0"/>
<feBlend mode="normal" in2="BackgroundImageFix" result="effect1_dropShadow_172_328"/>
<feColorMatrix in="SourceAlpha" type="matrix" values="0 0 0 0 0 0 0 0 0 0 0 0 0 0 0 0 0 0 127 0" result="hardAlpha"/>
<feOffset dy="4"/>
<feGaussianBlur stdDeviation="2"/>
<feComposite in2="hardAlpha" operator="out"/>
<feColorMatrix type="matrix" values="0 0 0 0 0 0 0 0 0 0 0 0 0 0 0 0 0 0 0.25 0"/>
<feBlend mode="normal" in2="effect1_dropShadow_172_328" result="effect2_dropShadow_172_328"/>
<feBlend mode="normal" in="SourceGraphic" in2="effect2_dropShadow_172_328" result="shape"/>
</filter>
<linearGradient id="paint0_linear_172_328" x1="201.573" y1="304.823" x2="135.104" y2="130.118" gradientUnits="userSpaceOnUse">
<stop stop-color="#FAFAFA"/>
<stop offset="1" stop-color="#070707"/>
</linearGradient>
<linearGradient id="paint1_linear_172_328" x1="257.103" y1="233.497" x2="58.1532" y2="72.3914" gradientUnits="userSpaceOnUse">
<stop stop-color="white"/>
<stop offset="1" stop-color="#F8F8F8"/>
</linearGradient>
<linearGradient id="paint2_linear_172_328" x1="173.879" y1="154.922" x2="170.518" y2="148.601" gradientUnits="userSpaceOnUse">
<stop stop-color="#FAFAFA"/>
<stop offset="1" stop-color="#070707"/>
</linearGradient>
<linearGradient id="paint3_linear_172_328" x1="176.632" y1="151.423" x2="169.476" y2="145.628" gradientUnits="userSpaceOnUse">
<stop stop-color="white"/>
<stop offset="1" stop-color="#F8F8F8"/>
</linearGradient>
<linearGradient id="paint4_linear_172_328" x1="161.602" y1="149.622" x2="157.568" y2="142.037" gradientUnits="userSpaceOnUse">
<stop stop-color="#FAFAFA"/>
<stop offset="1" stop-color="#070707"/>
</linearGradient>
<linearGradient id="paint5_linear_172_328" x1="164.906" y1="145.423" x2="156.318" y2="138.469" gradientUnits="userSpaceOnUse">
<stop stop-color="white"/>
<stop offset="1" stop-color="#F8F8F8"/>
</linearGradient>
<linearGradient id="paint6_linear_172_328" x1="159.637" y1="166.688" x2="155.604" y2="159.103" gradientUnits="userSpaceOnUse">
<stop stop-color="#FAFAFA"/>
<stop offset="1" stop-color="#070707"/>
</linearGradient>
<linearGradient id="paint7_linear_172_328" x1="162.941" y1="162.489" x2="154.353" y2="155.535" gradientUnits="userSpaceOnUse">
<stop stop-color="white"/>
<stop offset="1" stop-color="#F8F8F8"/>
</linearGradient>
<linearGradient id="paint8_linear_172_328" x1="173.352" y1="173.142" x2="169.318" y2="165.557" gradientUnits="userSpaceOnUse">
<stop stop-color="#FAFAFA"/>
<stop offset="1" stop-color="#070707"/>
</linearGradient>
<linearGradient id="paint9_linear_172_328" x1="176.656" y1="168.943" x2="168.068" y2="161.989" gradientUnits="userSpaceOnUse">
<stop stop-color="white"/>
<stop offset="1" stop-color="#F8F8F8"/>
</linearGradient>
<linearGradient id="paint10_linear_172_328" x1="187.301" y1="158.814" x2="184.612" y2="153.757" gradientUnits="userSpaceOnUse">
<stop stop-color="#FAFAFA"/>
<stop offset="1" stop-color="#070707"/>
</linearGradient>
<linearGradient id="paint11_linear_172_328" x1="189.503" y1="156.015" x2="183.778" y2="151.379" gradientUnits="userSpaceOnUse">
<stop stop-color="white"/>
<stop offset="1" stop-color="#F8F8F8"/>
</linearGradient>
<linearGradient id="paint12_linear_172_328" x1="149.016" y1="141.759" x2="144.983" y2="134.173" gradientUnits="userSpaceOnUse">
<stop stop-color="#FAFAFA"/>
<stop offset="1" stop-color="#070707"/>
</linearGradient>
<linearGradient id="paint13_linear_172_328" x1="152.32" y1="137.56" x2="143.732" y2="130.605" gradientUnits="userSpaceOnUse">
<stop stop-color="white"/>
<stop offset="1" stop-color="#F8F8F8"/>
</linearGradient>
<linearGradient id="paint14_linear_172_328" x1="163.262" y1="129.993" x2="159.901" y2="123.672" gradientUnits="userSpaceOnUse">
<stop stop-color="#FAFAFA"/>
<stop offset="1" stop-color="#070707"/>
</linearGradient>
<linearGradient id="paint15_linear_172_328" x1="166.015" y1="126.494" x2="158.859" y2="120.699" gradientUnits="userSpaceOnUse">
<stop stop-color="white"/>
<stop offset="1" stop-color="#F8F8F8"/>
</linearGradient>
<linearGradient id="paint16_linear_172_328" x1="143.352" y1="172.164" x2="139.318" y2="164.578" gradientUnits="userSpaceOnUse">
<stop stop-color="#FAFAFA"/>
<stop offset="1" stop-color="#070707"/>
</linearGradient>
<linearGradient id="paint17_linear_172_328" x1="146.656" y1="167.965" x2="138.068" y2="161.01" gradientUnits="userSpaceOnUse">
<stop stop-color="white"/>
<stop offset="1" stop-color="#F8F8F8"/>
</linearGradient>
<linearGradient id="paint18_linear_172_328" x1="131.586" y1="160.328" x2="128.225" y2="154.007" gradientUnits="userSpaceOnUse">
<stop stop-color="#FAFAFA"/>
<stop offset="1" stop-color="#070707"/>
</linearGradient>
<linearGradient id="paint19_linear_172_328" x1="134.339" y1="156.829" x2="127.183" y2="151.033" gradientUnits="userSpaceOnUse">
<stop stop-color="white"/>
<stop offset="1" stop-color="#F8F8F8"/>
</linearGradient>
<linearGradient id="paint20_linear_172_328" x1="115.816" y1="147.582" x2="113.128" y2="142.525" gradientUnits="userSpaceOnUse">
<stop stop-color="#FAFAFA"/>
<stop offset="1" stop-color="#070707"/>
</linearGradient>
<linearGradient id="paint21_linear_172_328" x1="118.019" y1="144.783" x2="112.294" y2="140.147" gradientUnits="userSpaceOnUse">
<stop stop-color="white"/>
<stop offset="1" stop-color="#F8F8F8"/>
</linearGradient>
<linearGradient id="paint22_linear_172_328" x1="132.125" y1="142.103" x2="128.764" y2="135.782" gradientUnits="userSpaceOnUse">
<stop stop-color="#FAFAFA"/>
<stop offset="1" stop-color="#070707"/>
</linearGradient>
<linearGradient id="paint23_linear_172_328" x1="134.878" y1="138.604" x2="127.722" y2="132.809" gradientUnits="userSpaceOnUse">
<stop stop-color="white"/>
<stop offset="1" stop-color="#F8F8F8"/>
</linearGradient>
<linearGradient id="paint24_linear_172_328" x1="113.891" y1="176.324" x2="110.53" y2="170.003" gradientUnits="userSpaceOnUse">
<stop stop-color="#FAFAFA"/>
<stop offset="1" stop-color="#070707"/>
</linearGradient>
<linearGradient id="paint25_linear_172_328" x1="116.644" y1="172.825" x2="109.488" y2="167.03" gradientUnits="userSpaceOnUse">
<stop stop-color="white"/>
<stop offset="1" stop-color="#F8F8F8"/>
</linearGradient>
<linearGradient id="paint26_linear_172_328" x1="129.078" y1="183.934" x2="125.045" y2="176.348" gradientUnits="userSpaceOnUse">
<stop stop-color="#FAFAFA"/>
<stop offset="1" stop-color="#070707"/>
</linearGradient>
<linearGradient id="paint27_linear_172_328" x1="132.382" y1="179.735" x2="123.794" y2="172.78" gradientUnits="userSpaceOnUse">
<stop stop-color="white"/>
<stop offset="1" stop-color="#F8F8F8"/>
</linearGradient>
<linearGradient id="paint28_linear_172_328" x1="104.434" y1="161.667" x2="101.073" y2="155.345" gradientUnits="userSpaceOnUse">
<stop stop-color="#FAFAFA"/>
<stop offset="1" stop-color="#070707"/>
</linearGradient>
<linearGradient id="paint29_linear_172_328" x1="107.187" y1="158.167" x2="100.031" y2="152.372" gradientUnits="userSpaceOnUse">
<stop stop-color="white"/>
<stop offset="1" stop-color="#F8F8F8"/>
</linearGradient>
<linearGradient id="paint30_linear_172_328" x1="187.402" y1="193.845" x2="183.369" y2="186.259" gradientUnits="userSpaceOnUse">
<stop stop-color="#FAFAFA"/>
<stop offset="1" stop-color="#070707"/>
</linearGradient>
<linearGradient id="paint31_linear_172_328" x1="190.706" y1="189.646" x2="182.119" y2="182.692" gradientUnits="userSpaceOnUse">
<stop stop-color="white"/>
<stop offset="1" stop-color="#F8F8F8"/>
</linearGradient>
<linearGradient id="paint32_linear_172_328" x1="171.707" y1="204.457" x2="167.674" y2="196.871" gradientUnits="userSpaceOnUse">
<stop stop-color="#FAFAFA"/>
<stop offset="1" stop-color="#070707"/>
</linearGradient>
<linearGradient id="paint33_linear_172_328" x1="175.011" y1="200.258" x2="166.423" y2="193.304" gradientUnits="userSpaceOnUse">
<stop stop-color="white"/>
<stop offset="1" stop-color="#F8F8F8"/>
</linearGradient>
<linearGradient id="paint34_linear_172_328" x1="183.156" y1="213.729" x2="179.123" y2="206.143" gradientUnits="userSpaceOnUse">
<stop stop-color="#FAFAFA"/>
<stop offset="1" stop-color="#070707"/>
</linearGradient>
<linearGradient id="paint35_linear_172_328" x1="186.46" y1="209.53" x2="177.873" y2="202.576" gradientUnits="userSpaceOnUse">
<stop stop-color="white"/>
<stop offset="1" stop-color="#F8F8F8"/>
</linearGradient>
<linearGradient id="paint36_linear_172_328" x1="170.606" y1="229.226" x2="166.572" y2="221.641" gradientUnits="userSpaceOnUse">
<stop stop-color="#FAFAFA"/>
<stop offset="1" stop-color="#070707"/>
</linearGradient>
<linearGradient id="paint37_linear_172_328" x1="173.91" y1="225.027" x2="165.322" y2="218.073" gradientUnits="userSpaceOnUse">
<stop stop-color="white"/>
<stop offset="1" stop-color="#F8F8F8"/>
</linearGradient>
<linearGradient id="paint38_linear_172_328" x1="175.582" y1="240.157" x2="175.191" y2="235.905" gradientUnits="userSpaceOnUse">
<stop stop-color="#FAFAFA"/>
<stop offset="1" stop-color="#070707"/>
</linearGradient>
<linearGradient id="paint39_linear_172_328" x1="177.927" y1="238.865" x2="175.335" y2="234.002" gradientUnits="userSpaceOnUse">
<stop stop-color="white"/>
<stop offset="1" stop-color="#F8F8F8"/>
</linearGradient>
<linearGradient id="paint40_linear_172_328" x1="180.187" y1="257.883" x2="179.796" y2="253.63" gradientUnits="userSpaceOnUse">
<stop stop-color="#FAFAFA"/>
<stop offset="1" stop-color="#070707"/>
</linearGradient>
<linearGradient id="paint41_linear_172_328" x1="182.532" y1="256.591" x2="179.94" y2="251.727" gradientUnits="userSpaceOnUse">
<stop stop-color="white"/>
<stop offset="1" stop-color="#F8F8F8"/>
</linearGradient>
<linearGradient id="paint42_linear_172_328" x1="153.426" y1="215.317" x2="149.393" y2="207.731" gradientUnits="userSpaceOnUse">
<stop stop-color="#FAFAFA"/>
<stop offset="1" stop-color="#070707"/>
</linearGradient>
<linearGradient id="paint43_linear_172_328" x1="156.73" y1="211.118" x2="148.142" y2="204.164" gradientUnits="userSpaceOnUse">
<stop stop-color="white"/>
<stop offset="1" stop-color="#F8F8F8"/>
</linearGradient>
<linearGradient id="paint44_linear_172_328" x1="152.891" y1="233.542" x2="148.858" y2="225.957" gradientUnits="userSpaceOnUse">
<stop stop-color="#FAFAFA"/>
<stop offset="1" stop-color="#070707"/>
</linearGradient>
<linearGradient id="paint45_linear_172_328" x1="156.195" y1="229.343" x2="147.607" y2="222.389" gradientUnits="userSpaceOnUse">
<stop stop-color="white"/>
<stop offset="1" stop-color="#F8F8F8"/>
</linearGradient>
<linearGradient id="paint46_linear_172_328" x1="164.027" y1="237.983" x2="163.636" y2="233.73" gradientUnits="userSpaceOnUse">
<stop stop-color="#FAFAFA"/>
<stop offset="1" stop-color="#070707"/>
</linearGradient>
<linearGradient id="paint47_linear_172_328" x1="166.372" y1="236.691" x2="163.78" y2="231.827" gradientUnits="userSpaceOnUse">
<stop stop-color="white"/>
<stop offset="1" stop-color="#F8F8F8"/>
</linearGradient>
<linearGradient id="paint48_linear_172_328" x1="172.754" y1="261.2" x2="172.363" y2="256.947" gradientUnits="userSpaceOnUse">
<stop stop-color="#FAFAFA"/>
<stop offset="1" stop-color="#070707"/>
</linearGradient>
<linearGradient id="paint49_linear_172_328" x1="175.099" y1="259.908" x2="172.506" y2="255.044" gradientUnits="userSpaceOnUse">
<stop stop-color="white"/>
<stop offset="1" stop-color="#F8F8F8"/>
</linearGradient>
<linearGradient id="paint50_linear_172_328" x1="134.574" y1="221.042" x2="130.541" y2="213.457" gradientUnits="userSpaceOnUse">
<stop stop-color="#FAFAFA"/>
<stop offset="1" stop-color="#070707"/>
</linearGradient>
<linearGradient id="paint51_linear_172_328" x1="137.878" y1="216.843" x2="129.291" y2="209.889" gradientUnits="userSpaceOnUse">
<stop stop-color="white"/>
<stop offset="1" stop-color="#F8F8F8"/>
</linearGradient>
<linearGradient id="paint52_linear_172_328" x1="110.801" y1="194.795" x2="106.768" y2="187.209" gradientUnits="userSpaceOnUse">
<stop stop-color="#FAFAFA"/>
<stop offset="1" stop-color="#070707"/>
</linearGradient>
<linearGradient id="paint53_linear_172_328" x1="114.105" y1="190.596" x2="105.517" y2="183.642" gradientUnits="userSpaceOnUse">
<stop stop-color="white"/>
<stop offset="1" stop-color="#F8F8F8"/>
</linearGradient>
<linearGradient id="paint54_linear_172_328" x1="176.867" y1="250.691" x2="174.851" y2="246.899" gradientUnits="userSpaceOnUse">
<stop stop-color="#FAFAFA"/>
<stop offset="1" stop-color="#070707"/>
</linearGradient>
<linearGradient id="paint55_linear_172_328" x1="178.519" y1="248.592" x2="174.225" y2="245.115" gradientUnits="userSpaceOnUse">
<stop stop-color="white"/>
<stop offset="1" stop-color="#F8F8F8"/>
</linearGradient>
<linearGradient id="paint56_linear_172_328" x1="189.793" y1="284.483" x2="187.776" y2="280.691" gradientUnits="userSpaceOnUse">
<stop stop-color="#FAFAFA"/>
<stop offset="1" stop-color="#070707"/>
</linearGradient>
<linearGradient id="paint57_linear_172_328" x1="191.445" y1="282.384" x2="187.151" y2="278.907" gradientUnits="userSpaceOnUse">
<stop stop-color="white"/>
<stop offset="1" stop-color="#F8F8F8"/>
</linearGradient>
<linearGradient id="paint58_linear_172_328" x1="85.3607" y1="123.666" x2="82.9488" y2="122.111" gradientUnits="userSpaceOnUse">
<stop stop-color="#FAFAFA"/>
<stop offset="1" stop-color="#070707"/>
</linearGradient>
<linearGradient id="paint59_linear_172_328" x1="85.6419" y1="121.901" x2="82.0267" y2="121.273" gradientUnits="userSpaceOnUse">
<stop stop-color="white"/>
<stop offset="1" stop-color="#F8F8F8"/>
</linearGradient>
<linearGradient id="paint60_linear_172_328" x1="164.29" y1="96.8732" x2="164.45" y2="94.0372" gradientUnits="userSpaceOnUse">
<stop stop-color="#FAFAFA"/>
<stop offset="1" stop-color="#070707"/>
</linearGradient>
<linearGradient id="paint61_linear_172_328" x1="165.967" y1="96.2535" x2="164.744" y2="92.7962" gradientUnits="userSpaceOnUse">
<stop stop-color="white"/>
<stop offset="1" stop-color="#F8F8F8"/>
</linearGradient>
<linearGradient id="paint62_linear_172_328" x1="184.34" y1="270.735" x2="182.323" y2="266.942" gradientUnits="userSpaceOnUse">
<stop stop-color="#FAFAFA"/>
<stop offset="1" stop-color="#070707"/>
</linearGradient>
<linearGradient id="paint63_linear_172_328" x1="185.992" y1="268.635" x2="181.698" y2="265.158" gradientUnits="userSpaceOnUse">
<stop stop-color="white"/>
<stop offset="1" stop-color="#F8F8F8"/>
</linearGradient>
<linearGradient id="paint64_linear_172_328" x1="91.431" y1="124.954" x2="89.0192" y2="123.4" gradientUnits="userSpaceOnUse">
<stop stop-color="#FAFAFA"/>
<stop offset="1" stop-color="#070707"/>
</linearGradient>
<linearGradient id="paint65_linear_172_328" x1="91.7123" y1="123.189" x2="88.0971" y2="122.561" gradientUnits="userSpaceOnUse">
<stop stop-color="white"/>
<stop offset="1" stop-color="#F8F8F8"/>
</linearGradient>
<linearGradient id="paint66_linear_172_328" x1="166.29" y1="102.733" x2="166.45" y2="99.8975" gradientUnits="userSpaceOnUse">
<stop stop-color="#FAFAFA"/>
<stop offset="1" stop-color="#070707"/>
</linearGradient>
<linearGradient id="paint67_linear_172_328" x1="167.967" y1="102.114" x2="166.744" y2="98.6565" gradientUnits="userSpaceOnUse">
<stop stop-color="white"/>
<stop offset="1" stop-color="#F8F8F8"/>
</linearGradient>
<linearGradient id="paint68_linear_172_328" x1="98.9414" y1="136.243" x2="96.2527" y2="131.186" gradientUnits="userSpaceOnUse">
<stop stop-color="#FAFAFA"/>
<stop offset="1" stop-color="#070707"/>
</linearGradient>
<linearGradient id="paint69_linear_172_328" x1="101.144" y1="133.443" x2="95.4189" y2="128.807" gradientUnits="userSpaceOnUse">
<stop stop-color="white"/>
<stop offset="1" stop-color="#F8F8F8"/>
</linearGradient>
<linearGradient id="paint70_linear_172_328" x1="160.358" y1="114.718" x2="163.326" y2="109.908" gradientUnits="userSpaceOnUse">
<stop stop-color="#FAFAFA"/>
<stop offset="1" stop-color="#070707"/>
</linearGradient>
<linearGradient id="paint71_linear_172_328" x1="163.922" y1="115.25" x2="165.096" y2="108.066" gradientUnits="userSpaceOnUse">
<stop stop-color="white"/>
<stop offset="1" stop-color="#F8F8F8"/>
</linearGradient>
<linearGradient id="paint72_linear_172_328" x1="145.313" y1="155.097" x2="141.279" y2="147.512" gradientUnits="userSpaceOnUse">
<stop stop-color="#FAFAFA"/>
<stop offset="1" stop-color="#070707"/>
</linearGradient>
<linearGradient id="paint73_linear_172_328" x1="148.617" y1="150.898" x2="140.029" y2="143.944" gradientUnits="userSpaceOnUse">
<stop stop-color="white"/>
<stop offset="1" stop-color="#F8F8F8"/>
</linearGradient>
<linearGradient id="paint74_linear_172_328" x1="198.344" y1="303.131" x2="145.304" y2="161.066" gradientUnits="userSpaceOnUse">
<stop stop-color="#FAFAFA"/>
<stop offset="1" stop-color="#070707"/>
</linearGradient>
</defs>
</svg>
