<svg width="82" height="83" viewBox="0 0 82 83" fill="none" xmlns="http://www.w3.org/2000/svg">
<path fill-rule="evenodd" clip-rule="evenodd" d="M41.6913 25.3539L41 0.319214L40.3087 25.3539C40.2258 28.3593 39.3016 31.1526 37.7629 33.507C35.0088 32.9306 32.3788 31.6087 30.1941 29.5413L12.0031 12.3279L29.2165 30.5189C31.2834 32.7032 32.6052 35.3325 33.1818 38.086C30.8287 39.6223 28.0376 40.545 25.0347 40.628L0 41.3192L25.0347 42.0105C28.0376 42.0934 30.8287 43.0161 33.1819 44.5524C32.6052 47.3059 31.2835 49.9353 29.2165 52.1197L12.0031 70.3107L30.1941 53.0973C32.3789 51.0299 35.0089 49.708 37.763 49.1315C39.3016 51.4859 40.2258 54.2792 40.3087 57.2846L41 82.3192L41.6913 57.2846C41.7742 54.28 42.6979 51.4875 44.2357 49.1336C46.9863 49.7111 49.6127 51.0323 51.7949 53.0973L69.9859 70.3107L52.7725 52.1197C50.7071 49.937 49.3857 47.31 48.8084 44.5588C51.1636 43.0186 53.9583 42.0935 56.9653 42.0105L82 41.3192L56.9653 40.628C53.9583 40.5449 51.1636 39.6198 48.8084 38.0797C49.3858 35.3285 50.7071 32.7015 52.7725 30.5189L69.9859 12.3279L51.7949 29.5413C49.6127 31.6062 46.9863 32.9274 44.2357 33.505C42.6979 31.151 41.7742 28.3584 41.6913 25.3539Z" fill="#FAFAFA"/>
</svg>
