<svg width="82" height="83" viewBox="0 0 82 83" fill="none" xmlns="http://www.w3.org/2000/svg">
<path fill-rule="evenodd" clip-rule="evenodd" d="M41.6913 25.1411L41 0.106445L40.3087 25.1411C40.2258 28.1465 39.3016 30.9398 37.7629 33.2942C35.0088 32.7178 32.3788 31.3959 30.1941 29.3285L12.0031 12.1151L29.2165 30.3061C31.2834 32.4904 32.6052 35.1198 33.1818 37.8733C30.8287 39.4096 28.0376 40.3323 25.0347 40.4152L0 41.1064L25.0347 41.7977C28.0376 41.8806 30.8287 42.8033 33.1819 44.3396C32.6052 47.0932 31.2835 49.7226 29.2165 51.9069L12.0031 70.0979L30.1941 52.8845C32.3789 50.8171 35.0089 49.4952 37.763 48.9188C39.3016 51.2732 40.2258 54.0664 40.3087 57.0718L41 82.1064L41.6913 57.0718C41.7742 54.0673 42.6979 51.2748 44.2357 48.9208C46.9863 49.4983 49.6127 50.8195 51.7949 52.8845L69.9859 70.0979L52.7725 51.9069C50.7071 49.7242 49.3857 47.0972 48.8084 44.346C51.1636 42.8059 53.9583 41.8807 56.9653 41.7977L82 41.1064L56.9653 40.4152C53.9583 40.3322 51.1636 39.407 48.8084 37.8669C49.3858 35.1157 50.7071 32.4888 52.7725 30.3061L69.9859 12.1151L51.7949 29.3285C49.6127 31.3934 46.9863 32.7147 44.2357 33.2922C42.6979 30.9382 41.7742 28.1457 41.6913 25.1411Z" fill="#FAFAFA"/>
</svg>
