<svg width="758" height="480" viewBox="0 0 758 480" fill="none" xmlns="http://www.w3.org/2000/svg">
<path d="M207.768 275.398V444.26C212.208 445.778 216.746 447.234 221.372 448.629V269.962C216.855 271.68 212.307 273.493 207.768 275.398Z" fill="url(#paint0_linear_279_999)"/>
<path d="M346.007 171.5C330.48 195.732 317.035 227.248 309.797 247.577C325.252 245.242 339.895 243.722 356.05 242.734C383.621 241.049 415.595 240.917 463.521 240.94C457.173 223.351 442.868 189.561 429.511 172.889C425.857 168.327 368.854 166.868 346.007 171.5Z" fill="url(#paint1_linear_279_999)"/>
<path d="M407.745 136.766H458.079C460.598 136.766 463.183 136.779 465.766 136.972C465.766 127.134 459.44 122.873 452.638 122.873H448.557H434.953H415.907H407.745H397.064C387.431 122.873 383.846 132.272 383.258 136.972L407.745 136.766Z" fill="url(#paint2_linear_279_999)"/>
<path d="M407.745 85.3604V122.873H415.907V85.3604L411.57 85.3604L407.745 85.3604Z" fill="url(#paint3_linear_279_999)"/>
<path d="M468.963 18.6721C427.607 18.6721 429.058 88.1391 434.953 122.873H448.557C444.476 93.6965 441.755 35.3442 463.521 35.3442H483.927V43.6802H494.81V11.7254H483.927V18.6721H468.963Z" fill="url(#paint4_linear_279_999)"/>
<path d="M494.81 2V11.7254V43.6802V52.0163H500.251V2H494.81Z" fill="url(#paint5_linear_279_999)"/>
<path d="M659.503 452.49C581.915 452.49 585.998 269.069 659.503 269.069C623.833 256.368 578.392 245.099 523.378 241.688C518.465 241.383 513.475 241.141 508.41 240.967C491.988 240.967 477.113 240.947 463.521 240.94C415.595 240.917 383.621 241.049 356.05 242.734V282.647H309.797V303.487H263.54V256.25C250.748 259.701 236.225 264.315 221.372 269.962V448.629C313.234 476.329 439.645 480.122 508.41 477.155V450.757H453.998V424.36H508.41H554.667V388.237H596.839V468.262C620.364 464.134 641.244 458.788 659.503 452.49Z" fill="url(#paint6_linear_279_999)"/>
<path d="M659.503 269.069C786.671 314.35 789.651 407.599 659.503 452.49C581.915 452.49 585.998 269.069 659.503 269.069Z" fill="url(#paint7_linear_279_999)"/>
<path d="M554.667 424.36H508.41H453.998V450.757H508.41V477.155C541.187 475.944 570.652 472.858 596.839 468.262V388.237H554.667V424.36Z" fill="url(#paint8_linear_279_999)"/>
<path d="M309.797 247.577C295.652 249.714 280.827 252.533 263.54 256.25V303.487H309.797V282.647H356.05V242.734C339.895 243.722 325.252 245.242 309.797 247.577Z" fill="url(#paint9_linear_279_999)"/>
<path d="M207.768 444.26V275.398C189.809 282.935 171.988 291.911 156.743 302.098C135.654 316.189 119.495 332.599 114.721 350.724C112.951 357.445 112.746 364.402 114.436 371.565C116.754 381.393 122.64 391.608 132.943 402.13C135.074 404.307 137.342 406.424 139.739 408.484C144.845 412.873 150.538 417.001 156.743 420.882C171.263 429.966 188.588 437.699 207.768 444.26Z" fill="url(#paint10_linear_279_999)"/>
<path d="M114.721 350.724C119.495 332.599 135.654 316.189 156.743 302.098C157.422 293.761 143.826 275.7 70.3541 277.089C64.2789 277.204 59.8791 281.315 59.1522 285.425C58.415 289.594 61.4547 293.761 70.3541 293.761C81.893 293.761 97.5603 293.347 111.177 295.552V350.724H114.721Z" fill="url(#paint11_linear_279_999)"/>
<path d="M75.811 350.724C60.8306 350.724 59.4762 371.565 75.811 371.565H111.177H114.436C112.746 364.402 112.951 357.445 114.721 350.724H111.177H75.811Z" fill="url(#paint12_linear_279_999)"/>
<path d="M156.743 420.882C150.538 417.001 144.845 412.873 139.739 408.484C140.068 412.941 133.922 420.592 111.177 424.569C102.188 426.141 90.6081 427.138 75.811 427.138C65.2432 427.138 60.3681 431.728 60.8423 436.155C61.284 440.278 66.366 444.26 75.811 444.26C100.293 444.26 138.781 445.888 156.743 420.882Z" fill="url(#paint13_linear_279_999)"/>
<path d="M75.811 371.565C59.4762 371.565 60.8306 350.724 75.811 350.724H111.177V295.552C97.5603 293.347 81.893 293.761 70.3541 293.761C61.4547 293.761 58.415 289.594 59.1522 285.425H51.3196V350.724V371.565V436.155H60.8423C60.3681 431.728 65.2432 427.138 75.811 427.138C90.6081 427.138 102.188 426.141 111.177 424.569V371.565H75.811Z" fill="url(#paint14_linear_279_999)"/>
<path d="M51.3196 350.724H36.356L36.3548 343.778C33.3936 343.778 30.6712 343.994 28.1874 344.393C25.0985 344.888 22.3789 345.665 20.0284 346.655C5.0639 352.961 5.06438 367.937 20.0284 374.244C22.3789 375.234 25.0986 376.011 28.1874 376.507C30.6715 376.905 33.3944 377.122 36.356 377.122V371.565H51.3196V350.724Z" fill="url(#paint15_linear_279_999)"/>
<path d="M20.0284 293.761C-12.6228 293.761 6.42374 329.024 20.0284 346.655C22.3789 345.665 25.0985 344.888 28.1874 344.393C39.0724 327.516 52.6795 293.761 20.0284 293.761Z" fill="url(#paint16_linear_279_999)"/>
<path d="M20.0284 374.244C6.9871 391.875 -11.2707 427.138 20.0284 427.138C51.3274 427.138 38.509 393.384 28.1874 376.507C25.0986 376.011 22.3789 375.234 20.0284 374.244Z" fill="url(#paint17_linear_279_999)"/>
<path d="M508.41 240.967C513.475 241.141 518.465 241.383 523.378 241.688L513.185 214.569C445.836 214.569 443.429 195.118 505.873 195.118L500.251 180.162C440.394 180.162 429.511 164.553 494.384 164.553L490.729 154.827C484.738 140.843 475.27 137.684 465.766 136.972C463.183 136.779 460.598 136.766 458.079 136.766H407.745L383.258 136.972C370.849 138.831 357.825 153.055 346.007 171.5C368.854 166.868 425.857 168.327 429.511 172.889C442.868 189.561 457.173 223.351 463.521 240.94C477.113 240.947 491.988 240.967 508.41 240.967Z" fill="url(#paint18_linear_279_999)"/>
<path d="M494.384 164.553L500.251 180.162C440.394 180.162 429.511 164.553 494.384 164.553Z" fill="#070707"/>
<path d="M505.873 195.118L513.185 214.569C445.836 214.569 443.429 195.118 505.873 195.118Z" fill="#070707"/>
<path d="M508.41 477.155C439.645 480.122 313.234 476.329 221.372 448.629M508.41 477.155C541.187 475.944 570.652 472.858 596.839 468.262M508.41 477.155V450.757H453.998V424.36H508.41H554.667V388.237H596.839V468.262M659.503 269.069C786.671 314.35 789.651 407.599 659.503 452.49M659.503 269.069C585.998 269.069 581.915 452.49 659.503 452.49M659.503 269.069C623.833 256.368 578.392 245.099 523.378 241.688M659.503 452.49C641.244 458.788 620.364 464.134 596.839 468.262M263.54 256.25C250.748 259.701 236.225 264.315 221.372 269.962M263.54 256.25C280.827 252.533 295.652 249.714 309.797 247.577M263.54 256.25V303.487H309.797V282.647H356.05V242.734M207.768 275.398V444.26M207.768 275.398C212.307 273.493 216.855 271.68 221.372 269.962M207.768 275.398C189.809 282.935 171.988 291.911 156.743 302.098M207.768 444.26C212.208 445.778 216.746 447.234 221.372 448.629M207.768 444.26C188.588 437.699 171.263 429.966 156.743 420.882M221.372 269.962V448.629M309.797 247.577C317.035 227.248 330.48 195.732 346.007 171.5M309.797 247.577C325.252 245.242 339.895 243.722 356.05 242.734M458.079 136.766C449.205 136.766 429.487 136.766 407.745 136.766M458.079 136.766C460.598 136.766 463.183 136.779 465.766 136.972M458.079 136.766H407.745M490.729 154.827C491.845 157.796 493.075 161.069 494.384 164.553M490.729 154.827C484.738 140.843 475.27 137.684 465.766 136.972M490.729 154.827L494.384 164.553M523.378 241.688C518.465 241.383 513.475 241.141 508.41 240.967C491.988 240.967 477.113 240.947 463.521 240.94M523.378 241.688C523.378 241.688 518.998 230.034 513.185 214.569M523.378 241.688L513.185 214.569M346.007 171.5C368.854 166.868 425.857 168.327 429.511 172.889C442.868 189.561 457.173 223.351 463.521 240.94M346.007 171.5C357.825 153.055 370.849 138.831 383.258 136.972M463.521 240.94C415.595 240.917 383.621 241.049 356.05 242.734M494.384 164.553C496.217 169.429 498.205 174.717 500.251 180.162M494.384 164.553C429.511 164.553 440.394 180.162 500.251 180.162M494.384 164.553L500.251 180.162M500.251 180.162C502.101 185.083 503.999 190.132 505.873 195.118M500.251 180.162L505.873 195.118M505.873 195.118C508.412 201.873 510.908 208.513 513.185 214.569M505.873 195.118C443.429 195.118 445.836 214.569 513.185 214.569M505.873 195.118L513.185 214.569M407.745 136.766L383.258 136.972M383.258 136.972C383.846 132.272 387.431 122.873 397.064 122.873M397.064 122.873C399.468 122.873 403.229 122.873 407.745 122.873M397.064 122.873H407.745M452.638 122.873C459.44 122.873 465.766 127.134 465.766 136.972M452.638 122.873C451.394 122.873 450.025 122.873 448.557 122.873M452.638 122.873H448.557M407.745 122.873V85.3604L411.57 85.3604M407.745 122.873C410.265 122.873 413.021 122.873 415.907 122.873M407.745 122.873H415.907M415.907 122.873V85.3604L411.57 85.3604M415.907 122.873C422.001 122.873 428.677 122.873 434.953 122.873M415.907 122.873H434.953M434.953 122.873C429.058 88.1391 427.607 18.6721 468.963 18.6721H483.927V11.7254H494.81M434.953 122.873C439.896 122.873 444.591 122.873 448.557 122.873M434.953 122.873H448.557M448.557 122.873C444.476 93.6965 441.755 35.3442 463.521 35.3442M463.521 35.3442C485.287 35.3442 486.194 35.3442 483.927 35.3442M463.521 35.3442H483.927M483.927 35.3442V43.6802H494.81M494.81 11.7254V43.6802M494.81 11.7254V2M494.81 43.6802V52.0163M494.81 2V52.0163M494.81 2H500.251V52.0163H494.81M114.721 350.724C112.951 357.445 112.746 364.402 114.436 371.565M114.721 350.724C119.495 332.599 135.654 316.189 156.743 302.098M114.721 350.724H111.177M114.436 371.565C116.754 381.393 122.64 391.608 132.943 402.13C135.074 404.307 137.342 406.424 139.739 408.484M114.436 371.565H111.177M156.743 302.098C157.422 293.761 143.826 275.7 70.3541 277.089C64.2789 277.204 59.8791 281.315 59.1522 285.425M139.739 313.212C136.467 302.629 124.857 297.768 111.177 295.552M139.739 408.484C144.845 412.873 150.538 417.001 156.743 420.882M139.739 408.484C140.068 412.941 133.922 420.592 111.177 424.569M156.743 420.882C138.781 445.888 100.293 444.26 75.811 444.26C66.366 444.26 61.284 440.278 60.8423 436.155M111.177 295.552C97.5603 293.347 81.893 293.761 70.3541 293.761C61.4547 293.761 58.415 289.594 59.1522 285.425M111.177 295.552V350.724M111.177 350.724H75.811C60.8306 350.724 59.4762 371.565 75.811 371.565H111.177M111.177 371.565V424.569M111.177 424.569C102.188 426.141 90.6081 427.138 75.811 427.138C65.2432 427.138 60.3681 431.728 60.8423 436.155M60.8423 436.155H51.3196V371.565M59.1522 285.425H51.3196V350.724M51.3196 350.724H36.356L36.3548 343.778C33.3936 343.778 30.6712 343.994 28.1874 344.393M51.3196 350.724V371.565M51.3196 371.565H36.356V377.122C33.3944 377.122 30.6715 376.905 28.1874 376.507M20.0284 346.655C6.42374 329.024 -12.6228 293.761 20.0284 293.761C52.6795 293.761 39.0724 327.516 28.1874 344.393M20.0284 346.655C22.3789 345.665 25.0985 344.888 28.1874 344.393M20.0284 346.655C5.0639 352.961 5.06438 367.937 20.0284 374.244M20.0284 374.244C6.9871 391.875 -11.2707 427.138 20.0284 427.138C51.3274 427.138 38.509 393.384 28.1874 376.507M20.0284 374.244C22.3789 375.234 25.0986 376.011 28.1874 376.507M411.57 85.3604V65.8412" stroke="white" stroke-width="2.72031"/>
<path d="M410.457 231.27C408.23 231.27 406.376 229.418 406.376 227.073C406.376 224.728 408.23 222.876 410.457 222.876C412.684 222.876 414.538 224.728 414.538 227.073C414.538 229.418 412.684 231.27 410.457 231.27Z" fill="#D9D9D9" stroke="white" stroke-width="2.72031"/>
<path d="M196.875 320.159C196.875 323.047 194.043 325.746 190.072 325.746C186.102 325.746 183.27 323.047 183.27 320.159C183.27 317.271 186.102 314.572 190.072 314.572C194.043 314.572 196.875 317.271 196.875 320.159Z" fill="#D9D9D9" stroke="white" stroke-width="2.72031"/>
<path d="M391.41 231.27C389.183 231.27 387.329 229.418 387.329 227.073C387.329 224.728 389.183 222.876 391.41 222.876C393.637 222.876 395.491 224.728 395.491 227.073C395.491 229.418 393.637 231.27 391.41 231.27Z" fill="#D9D9D9" stroke="white" stroke-width="2.72031"/>
<path d="M188.718 350.724C188.718 353.612 185.887 356.311 181.916 356.311C177.946 356.311 175.114 353.612 175.114 350.724C175.114 347.836 177.946 345.138 181.916 345.138C185.887 345.138 188.718 347.836 188.718 350.724Z" fill="#D9D9D9" stroke="white" stroke-width="2.72031"/>
<path d="M372.363 231.27C370.136 231.27 368.282 229.418 368.282 227.073C368.282 224.728 370.136 222.876 372.363 222.876C374.59 222.876 376.445 224.728 376.445 227.073C376.445 229.418 374.59 231.27 372.363 231.27Z" fill="#D9D9D9" stroke="white" stroke-width="2.72031"/>
<path d="M188.718 379.901C188.718 383.78 185.646 386.877 181.916 386.877C178.186 386.877 175.114 383.78 175.114 379.901C175.114 376.021 178.186 372.925 181.916 372.925C185.646 372.925 188.718 376.021 188.718 379.901Z" fill="#D9D9D9" stroke="white" stroke-width="2.72031"/>
<path d="M353.324 231.27C351.097 231.27 349.243 229.418 349.243 227.073C349.243 224.728 351.097 222.876 353.324 222.876C355.551 222.876 357.405 224.728 357.405 227.073C357.405 229.418 355.551 231.27 353.324 231.27Z" fill="#D9D9D9" stroke="white" stroke-width="2.72031"/>
<path d="M196.875 410.466C196.875 414.346 193.802 417.442 190.072 417.442C186.343 417.442 183.27 414.346 183.27 410.466C183.27 406.586 186.343 403.49 190.072 403.49C193.802 403.49 196.875 406.586 196.875 410.466Z" fill="#D9D9D9" stroke="white" stroke-width="2.72031"/>
<path d="M330.196 343.778C330.196 361.469 316.161 375.762 298.907 375.762C281.653 375.762 267.618 361.469 267.618 343.778C267.618 326.086 281.653 311.794 298.907 311.794C316.161 311.794 330.196 326.086 330.196 343.778Z" fill="#070707" stroke="white" stroke-width="2.72031"/>
<path d="M433.583 343.778C433.583 361.469 419.547 375.762 402.294 375.762C385.04 375.762 371.005 361.469 371.005 343.778C371.005 326.086 385.04 311.794 402.294 311.794C419.547 311.794 433.583 326.086 433.583 343.778Z" fill="#070707" stroke="white" stroke-width="2.72031"/>
<path d="M536.977 343.778C536.977 361.469 522.942 375.762 505.688 375.762C488.435 375.762 474.399 361.469 474.399 343.778C474.399 326.086 488.435 311.794 505.688 311.794C522.942 311.794 536.977 326.086 536.977 343.778Z" fill="#070707" stroke="white" stroke-width="2.72031"/>
<path d="M415.5 61C415.5 62.8017 413.847 64.5 411.5 64.5C409.153 64.5 407.5 62.8017 407.5 61C407.5 59.1983 409.153 57.5 411.5 57.5C413.847 57.5 415.5 59.1983 415.5 61Z" fill="#FAFAFA" stroke="#FAFAFA" stroke-width="3"/>
<defs>
<linearGradient id="paint0_linear_279_999" x1="623.587" y1="259.796" x2="167.254" y2="420.149" gradientUnits="userSpaceOnUse">
<stop stop-color="white"/>
<stop offset="0.646"/>
</linearGradient>
<linearGradient id="paint1_linear_279_999" x1="623.587" y1="259.796" x2="167.254" y2="420.149" gradientUnits="userSpaceOnUse">
<stop stop-color="white"/>
<stop offset="0.646"/>
</linearGradient>
<linearGradient id="paint2_linear_279_999" x1="623.587" y1="259.796" x2="167.254" y2="420.149" gradientUnits="userSpaceOnUse">
<stop stop-color="white"/>
<stop offset="0.646"/>
</linearGradient>
<linearGradient id="paint3_linear_279_999" x1="623.587" y1="259.796" x2="167.254" y2="420.149" gradientUnits="userSpaceOnUse">
<stop stop-color="white"/>
<stop offset="0.646"/>
</linearGradient>
<linearGradient id="paint4_linear_279_999" x1="623.587" y1="259.796" x2="167.254" y2="420.149" gradientUnits="userSpaceOnUse">
<stop stop-color="white"/>
<stop offset="0.646"/>
</linearGradient>
<linearGradient id="paint5_linear_279_999" x1="623.587" y1="259.796" x2="167.254" y2="420.149" gradientUnits="userSpaceOnUse">
<stop stop-color="white"/>
<stop offset="0.646"/>
</linearGradient>
<linearGradient id="paint6_linear_279_999" x1="623.587" y1="259.796" x2="167.254" y2="420.149" gradientUnits="userSpaceOnUse">
<stop stop-color="white"/>
<stop offset="0.646"/>
</linearGradient>
<linearGradient id="paint7_linear_279_999" x1="623.587" y1="259.796" x2="167.254" y2="420.149" gradientUnits="userSpaceOnUse">
<stop stop-color="white"/>
<stop offset="0.646"/>
</linearGradient>
<linearGradient id="paint8_linear_279_999" x1="623.587" y1="259.796" x2="167.254" y2="420.149" gradientUnits="userSpaceOnUse">
<stop stop-color="white"/>
<stop offset="0.646"/>
</linearGradient>
<linearGradient id="paint9_linear_279_999" x1="623.587" y1="259.796" x2="167.254" y2="420.149" gradientUnits="userSpaceOnUse">
<stop stop-color="white"/>
<stop offset="0.646"/>
</linearGradient>
<linearGradient id="paint10_linear_279_999" x1="623.587" y1="259.796" x2="167.254" y2="420.149" gradientUnits="userSpaceOnUse">
<stop stop-color="white"/>
<stop offset="0.646"/>
</linearGradient>
<linearGradient id="paint11_linear_279_999" x1="623.587" y1="259.796" x2="167.254" y2="420.149" gradientUnits="userSpaceOnUse">
<stop stop-color="white"/>
<stop offset="0.646"/>
</linearGradient>
<linearGradient id="paint12_linear_279_999" x1="623.587" y1="259.796" x2="167.254" y2="420.149" gradientUnits="userSpaceOnUse">
<stop stop-color="white"/>
<stop offset="0.646"/>
</linearGradient>
<linearGradient id="paint13_linear_279_999" x1="623.587" y1="259.796" x2="167.254" y2="420.149" gradientUnits="userSpaceOnUse">
<stop stop-color="white"/>
<stop offset="0.646"/>
</linearGradient>
<linearGradient id="paint14_linear_279_999" x1="623.587" y1="259.796" x2="167.254" y2="420.149" gradientUnits="userSpaceOnUse">
<stop stop-color="white"/>
<stop offset="0.646"/>
</linearGradient>
<linearGradient id="paint15_linear_279_999" x1="623.587" y1="259.796" x2="167.254" y2="420.149" gradientUnits="userSpaceOnUse">
<stop stop-color="white"/>
<stop offset="0.646"/>
</linearGradient>
<linearGradient id="paint16_linear_279_999" x1="623.587" y1="259.796" x2="167.254" y2="420.149" gradientUnits="userSpaceOnUse">
<stop stop-color="white"/>
<stop offset="0.646"/>
</linearGradient>
<linearGradient id="paint17_linear_279_999" x1="623.587" y1="259.796" x2="167.254" y2="420.149" gradientUnits="userSpaceOnUse">
<stop stop-color="white"/>
<stop offset="0.646"/>
</linearGradient>
<linearGradient id="paint18_linear_279_999" x1="623.587" y1="259.796" x2="167.254" y2="420.149" gradientUnits="userSpaceOnUse">
<stop stop-color="white"/>
<stop offset="0.646"/>
</linearGradient>
</defs>
</svg>
