<svg width="758" height="470" viewBox="0 0 758 470" fill="none" xmlns="http://www.w3.org/2000/svg">
<path d="M207.733 269.654V434.969C212.172 436.455 216.709 437.88 221.335 439.246V264.333C216.818 266.014 212.271 267.789 207.733 269.654Z" fill="url(#paint0_linear_279_998)"/>
<path d="M345.948 167.939C330.424 191.662 316.981 222.516 309.745 242.418C325.197 240.132 339.837 238.643 355.99 237.677C383.556 236.027 415.524 235.897 463.442 235.921C457.095 218.701 442.792 185.621 429.438 169.299C425.784 164.833 368.791 163.405 345.948 167.939Z" fill="url(#paint1_linear_279_998)"/>
<path d="M407.676 133.935H458.001C460.52 133.935 463.104 133.947 465.686 134.137C465.686 124.505 459.362 120.333 452.561 120.333H448.48H434.879H415.837H407.676H396.996C387.365 120.333 383.781 129.536 383.193 134.137L407.676 133.935Z" fill="url(#paint2_linear_279_998)"/>
<path d="M407.676 83.6092V120.333H415.837V83.6092L411.5 83.6092L407.676 83.6092Z" fill="url(#paint3_linear_279_998)"/>
<path d="M468.883 18.3218C427.534 18.3218 428.985 86.3295 434.879 120.333H448.48C444.4 91.7701 441.68 34.6437 463.442 34.6437H483.844V42.8046H494.725V11.5211H483.844V18.3218H468.883Z" fill="url(#paint4_linear_279_998)"/>
<path d="M494.725 2V11.5211V42.8046V50.9655H500.166V2H494.725Z" fill="url(#paint5_linear_279_998)"/>
<path d="M659.391 443.026C581.815 443.026 585.898 263.458 659.391 263.458C623.727 251.024 578.294 239.992 523.289 236.652C518.376 236.354 513.388 236.117 508.323 235.946C491.904 235.946 477.032 235.927 463.442 235.921C415.524 235.897 383.556 236.027 355.99 237.677V276.751H309.745V297.153H263.495V250.908C250.705 254.287 236.185 258.804 221.335 264.333V439.246C313.181 466.364 439.57 470.078 508.323 467.172V441.329H453.921V415.486H508.323H554.572V380.122H596.737V458.467C620.258 454.425 641.134 449.191 659.391 443.026Z" fill="url(#paint6_linear_279_998)"/>
<path d="M659.391 263.458C786.537 307.788 789.516 399.078 659.391 443.026C581.815 443.026 585.898 263.458 659.391 263.458Z" fill="url(#paint7_linear_279_998)"/>
<path d="M554.572 415.486H508.323H453.921V441.329H508.323V467.172C541.094 465.988 570.554 462.966 596.737 458.467V380.122H554.572V415.486Z" fill="url(#paint8_linear_279_998)"/>
<path d="M309.745 242.418C295.602 244.51 280.779 247.27 263.495 250.908V297.153H309.745V276.751H355.99V237.677C339.837 238.643 325.197 240.132 309.745 242.418Z" fill="url(#paint9_linear_279_998)"/>
<path d="M207.733 434.969V269.654C189.777 277.033 171.959 285.82 156.716 295.793C135.631 309.589 119.475 325.653 114.702 343.398C112.932 349.978 112.727 356.789 114.417 363.801C116.735 373.422 122.619 383.423 132.921 393.724C135.051 395.855 137.319 397.928 139.716 399.945C144.821 404.241 150.513 408.282 156.716 412.082C171.234 420.975 188.556 428.546 207.733 434.969Z" fill="url(#paint10_linear_279_998)"/>
<path d="M114.702 343.398C119.475 325.653 135.631 309.589 156.716 295.793C157.395 287.632 143.802 269.95 70.3424 271.31C64.2682 271.423 59.8692 275.447 59.1424 279.471C58.4054 283.552 61.4445 287.632 70.3424 287.632C81.8793 287.632 97.5439 287.226 111.158 289.385V343.398H114.702Z" fill="url(#paint11_linear_279_998)"/>
<path d="M75.7983 343.398C60.8205 343.398 59.4664 363.801 75.7983 363.801H111.158H114.417C112.727 356.789 112.932 349.978 114.702 343.398H111.158H75.7983Z" fill="url(#paint12_linear_279_998)"/>
<path d="M156.716 412.082C150.513 408.282 144.821 404.241 139.716 399.945C140.044 404.308 133.899 411.798 111.158 415.692C102.171 417.23 90.593 418.207 75.7983 418.207C65.2324 418.207 60.3581 422.7 60.8322 427.034C61.2738 431.071 66.3549 434.969 75.7983 434.969C100.277 434.969 138.757 436.562 156.716 412.082Z" fill="url(#paint13_linear_279_998)"/>
<path d="M75.7983 363.801C59.4664 363.801 60.8205 343.398 75.7983 343.398H111.158V289.385C97.5439 287.226 81.8793 287.632 70.3424 287.632C61.4445 287.632 58.4054 283.552 59.1424 279.471H51.3112V343.398V363.801V427.034H60.8322C60.3581 422.7 65.2324 418.207 75.7983 418.207C90.593 418.207 102.171 417.23 111.158 415.692V363.801H75.7983Z" fill="url(#paint14_linear_279_998)"/>
<path d="M51.3112 343.398H36.3501L36.3489 336.598C33.3883 336.598 30.6663 336.81 28.1829 337.2C25.0946 337.685 22.3754 338.445 20.0253 339.415C5.06338 345.588 5.06385 360.25 20.0253 366.424C22.3754 367.393 25.0946 368.154 28.1829 368.639C30.6666 369.029 33.389 369.241 36.3501 369.241V363.801H51.3112V343.398Z" fill="url(#paint15_linear_279_998)"/>
<path d="M20.0253 287.632C-12.6202 287.632 6.42298 322.154 20.0253 339.415C22.3754 338.445 25.0946 337.685 28.1829 337.2C39.066 320.677 52.6708 287.632 20.0253 287.632Z" fill="url(#paint16_linear_279_998)"/>
<path d="M20.0253 366.424C6.98625 383.685 -11.2684 418.207 20.0253 418.207C51.319 418.207 38.5028 385.162 28.1829 368.639C25.0946 368.154 22.3754 367.393 20.0253 366.424Z" fill="url(#paint17_linear_279_998)"/>
<path d="M508.323 235.946C513.388 236.117 518.376 236.354 523.289 236.652L513.097 210.103C445.76 210.103 443.354 191.061 505.787 191.061L500.166 176.419C440.319 176.419 429.438 161.138 494.3 161.138L490.645 151.617C484.655 137.926 475.189 134.833 465.686 134.137C463.104 133.947 460.52 133.935 458.001 133.935H407.676L383.193 134.137C370.786 135.956 357.764 149.882 345.948 167.939C368.791 163.405 425.784 164.833 429.438 169.299C442.792 185.621 457.095 218.701 463.442 235.921C477.032 235.927 491.904 235.946 508.323 235.946Z" fill="url(#paint18_linear_279_998)"/>
<path d="M494.3 161.138L500.166 176.419C440.319 176.419 429.438 161.138 494.3 161.138Z" fill="#070707"/>
<path d="M505.787 191.061L513.097 210.103C445.76 210.103 443.354 191.061 505.787 191.061Z" fill="#070707"/>
<path d="M508.323 467.172C439.57 470.078 313.181 466.364 221.335 439.246M508.323 467.172C541.094 465.988 570.554 462.966 596.737 458.467M508.323 467.172V441.329H453.921V415.486H508.323H554.572V380.122H596.737V458.467M659.391 263.458C786.537 307.788 789.516 399.078 659.391 443.026M659.391 263.458C585.898 263.458 581.815 443.026 659.391 443.026M659.391 263.458C623.727 251.024 578.294 239.992 523.289 236.652M659.391 443.026C641.134 449.192 620.258 454.425 596.737 458.467M263.495 250.908C250.705 254.287 236.185 258.804 221.335 264.333M263.495 250.908C280.779 247.27 295.602 244.51 309.745 242.418M263.495 250.908V297.153H309.745V276.751H355.99V237.677M207.733 269.654V434.969M207.733 269.654C212.271 267.789 216.818 266.014 221.335 264.333M207.733 269.654C189.777 277.033 171.959 285.82 156.716 295.793M207.733 434.969C212.172 436.455 216.709 437.88 221.335 439.246M207.733 434.969C188.556 428.546 171.234 420.975 156.716 412.082M221.335 264.333V439.246M309.745 242.418C316.981 222.516 330.424 191.662 345.948 167.939M309.745 242.418C325.197 240.132 339.837 238.643 355.99 237.677M458.001 133.935C449.128 133.935 429.413 133.935 407.676 133.935M458.001 133.935C460.52 133.935 463.104 133.947 465.686 134.137M458.001 133.935H407.676M490.645 151.617C491.761 154.523 492.991 157.727 494.3 161.138M490.645 151.617C484.655 137.926 475.189 134.833 465.686 134.137M490.645 151.617L494.3 161.138M523.289 236.652C518.376 236.354 513.388 236.117 508.323 235.946C491.904 235.946 477.032 235.927 463.442 235.921M523.289 236.652C523.289 236.652 518.909 225.244 513.097 210.103M523.289 236.652L513.097 210.103M345.948 167.939C368.791 163.405 425.784 164.833 429.438 169.299C442.792 185.621 457.095 218.701 463.442 235.921M345.948 167.939C357.764 149.882 370.786 135.956 383.193 134.137M463.442 235.921C415.524 235.897 383.556 236.027 355.99 237.677M494.3 161.138C496.132 165.911 498.12 171.089 500.166 176.419M494.3 161.138C429.438 161.138 440.319 176.419 500.166 176.419M494.3 161.138L500.166 176.419M500.166 176.419C502.016 181.237 503.913 186.179 505.787 191.061M500.166 176.419L505.787 191.061M505.787 191.061C508.325 197.674 510.821 204.175 513.097 210.103M505.787 191.061C443.354 191.061 445.76 210.103 513.097 210.103M505.787 191.061L513.097 210.103M407.676 133.935L383.193 134.137M383.193 134.137C383.781 129.536 387.365 120.333 396.996 120.333M396.996 120.333C399.4 120.333 403.16 120.333 407.676 120.333M396.996 120.333H407.676M452.561 120.333C459.362 120.333 465.686 124.505 465.686 134.137M452.561 120.333C451.317 120.333 449.949 120.333 448.48 120.333M452.561 120.333H448.48M407.676 120.333V83.6092L411.5 83.6092M407.676 120.333C410.196 120.333 412.951 120.333 415.837 120.333M407.676 120.333H415.837M415.837 120.333V83.6092L411.5 83.6092M415.837 120.333C421.929 120.333 428.604 120.333 434.879 120.333M415.837 120.333H434.879M434.879 120.333C428.985 86.3295 427.534 18.3218 468.883 18.3218H483.844V11.5211H494.725M434.879 120.333C439.821 120.333 444.515 120.333 448.48 120.333M434.879 120.333H448.48M448.48 120.333C444.4 91.7701 441.68 34.6437 463.442 34.6437M463.442 34.6437C485.204 34.6437 486.111 34.6437 483.844 34.6437M463.442 34.6437H483.844M483.844 34.6437V42.8046H494.725M494.725 11.5211V42.8046M494.725 11.5211V2M494.725 42.8046V50.9655M494.725 2V50.9655M494.725 2H500.166V50.9655H494.725M114.702 343.398C112.932 349.978 112.727 356.789 114.417 363.801M114.702 343.398C119.475 325.653 135.631 309.589 156.716 295.793M114.702 343.398H111.158M114.417 363.801C116.735 373.422 122.619 383.423 132.921 393.724C135.051 395.855 137.319 397.928 139.716 399.945M114.417 363.801H111.158M156.716 295.793C157.395 287.632 143.802 269.95 70.3424 271.31C64.2682 271.423 59.8692 275.447 59.1424 279.471M139.716 306.674C136.444 296.313 124.836 291.554 111.158 289.385M139.716 399.945C144.821 404.241 150.513 408.282 156.716 412.082M139.716 399.945C140.044 404.308 133.899 411.798 111.158 415.692M156.716 412.082C138.757 436.562 100.277 434.969 75.7983 434.969C66.3549 434.969 61.2738 431.071 60.8322 427.034M111.158 289.385C97.5439 287.226 81.8793 287.632 70.3424 287.632C61.4445 287.632 58.4054 283.552 59.1424 279.471M111.158 289.385V343.398M111.158 343.398H75.7983C60.8205 343.398 59.4664 363.801 75.7983 363.801H111.158M111.158 363.801V415.692M111.158 415.692C102.171 417.23 90.593 418.207 75.7983 418.207C65.2324 418.207 60.3581 422.7 60.8322 427.034M60.8322 427.034H51.3112V363.801M59.1424 279.471H51.3112V343.398M51.3112 343.398H36.3501L36.3489 336.598C33.3882 336.598 30.6663 336.81 28.1829 337.2M51.3112 343.398V363.801M51.3112 363.801H36.3501V369.241C33.389 369.241 30.6666 369.029 28.1829 368.639M20.0253 339.415C6.42298 322.154 -12.6202 287.632 20.0253 287.632C52.6708 287.632 39.066 320.677 28.1829 337.2M20.0253 339.415C22.3754 338.445 25.0946 337.685 28.1829 337.2M20.0253 339.415C5.06338 345.588 5.06385 360.25 20.0253 366.424M20.0253 366.424C6.98625 383.685 -11.2684 418.207 20.0253 418.207C51.319 418.207 38.5028 385.162 28.1829 368.639M20.0253 366.424C22.3754 367.393 25.0946 368.154 28.1829 368.639M411.5 83.6092V64.5" stroke="white" stroke-width="2.72031"/>
<circle cx="410.388" cy="222.345" r="4.08046" transform="rotate(90 410.388 222.345)" fill="#D9D9D9" stroke="white" stroke-width="2.72031"/>
<path d="M196.841 313.475C196.841 316.258 194.039 318.916 190.04 318.916C186.041 318.916 183.239 316.258 183.239 313.475C183.239 310.692 186.041 308.034 190.04 308.034C194.039 308.034 196.841 310.692 196.841 313.475Z" fill="#D9D9D9" stroke="white" stroke-width="2.72031"/>
<circle cx="391.345" cy="222.345" r="4.08046" transform="rotate(90 391.345 222.345)" fill="#D9D9D9" stroke="white" stroke-width="2.72031"/>
<path d="M188.684 343.398C188.684 346.181 185.882 348.839 181.884 348.839C177.885 348.839 175.083 346.181 175.083 343.398C175.083 340.615 177.885 337.958 181.884 337.958C185.882 337.958 188.684 340.615 188.684 343.398Z" fill="#D9D9D9" stroke="white" stroke-width="2.72031"/>
<circle cx="372.302" cy="222.345" r="4.08046" transform="rotate(90 372.302 222.345)" fill="#D9D9D9" stroke="white" stroke-width="2.72031"/>
<circle cx="181.884" cy="371.962" r="6.80076" fill="#D9D9D9" stroke="white" stroke-width="2.72031"/>
<circle cx="353.263" cy="222.345" r="4.08046" transform="rotate(90 353.263 222.345)" fill="#D9D9D9" stroke="white" stroke-width="2.72031"/>
<circle cx="190.04" cy="401.885" r="6.80076" fill="#D9D9D9" stroke="white" stroke-width="2.72031"/>
<circle cx="298.855" cy="336.598" r="31.2835" fill="#070707" stroke="white" stroke-width="2.72031"/>
<circle cx="402.226" cy="336.598" r="31.2835" fill="#070707" stroke="white" stroke-width="2.72031"/>
<circle cx="505.601" cy="336.598" r="31.2835" fill="#070707" stroke="white" stroke-width="2.72031"/>
<defs>
<linearGradient id="paint0_linear_279_998" x1="623.48" y1="254.38" x2="169.372" y2="417.348" gradientUnits="userSpaceOnUse">
<stop stop-color="white"/>
<stop offset="0.646"/>
</linearGradient>
<linearGradient id="paint1_linear_279_998" x1="623.48" y1="254.38" x2="169.372" y2="417.348" gradientUnits="userSpaceOnUse">
<stop stop-color="white"/>
<stop offset="0.646"/>
</linearGradient>
<linearGradient id="paint2_linear_279_998" x1="623.48" y1="254.38" x2="169.372" y2="417.348" gradientUnits="userSpaceOnUse">
<stop stop-color="white"/>
<stop offset="0.646"/>
</linearGradient>
<linearGradient id="paint3_linear_279_998" x1="623.48" y1="254.38" x2="169.372" y2="417.348" gradientUnits="userSpaceOnUse">
<stop stop-color="white"/>
<stop offset="0.646"/>
</linearGradient>
<linearGradient id="paint4_linear_279_998" x1="623.48" y1="254.38" x2="169.372" y2="417.348" gradientUnits="userSpaceOnUse">
<stop stop-color="white"/>
<stop offset="0.646"/>
</linearGradient>
<linearGradient id="paint5_linear_279_998" x1="623.48" y1="254.38" x2="169.372" y2="417.348" gradientUnits="userSpaceOnUse">
<stop stop-color="white"/>
<stop offset="0.646"/>
</linearGradient>
<linearGradient id="paint6_linear_279_998" x1="623.48" y1="254.38" x2="169.372" y2="417.348" gradientUnits="userSpaceOnUse">
<stop stop-color="white"/>
<stop offset="0.646"/>
</linearGradient>
<linearGradient id="paint7_linear_279_998" x1="623.48" y1="254.38" x2="169.372" y2="417.348" gradientUnits="userSpaceOnUse">
<stop stop-color="white"/>
<stop offset="0.646"/>
</linearGradient>
<linearGradient id="paint8_linear_279_998" x1="623.48" y1="254.38" x2="169.372" y2="417.348" gradientUnits="userSpaceOnUse">
<stop stop-color="white"/>
<stop offset="0.646"/>
</linearGradient>
<linearGradient id="paint9_linear_279_998" x1="623.48" y1="254.38" x2="169.372" y2="417.348" gradientUnits="userSpaceOnUse">
<stop stop-color="white"/>
<stop offset="0.646"/>
</linearGradient>
<linearGradient id="paint10_linear_279_998" x1="623.48" y1="254.38" x2="169.372" y2="417.348" gradientUnits="userSpaceOnUse">
<stop stop-color="white"/>
<stop offset="0.646"/>
</linearGradient>
<linearGradient id="paint11_linear_279_998" x1="623.48" y1="254.38" x2="169.372" y2="417.348" gradientUnits="userSpaceOnUse">
<stop stop-color="white"/>
<stop offset="0.646"/>
</linearGradient>
<linearGradient id="paint12_linear_279_998" x1="623.48" y1="254.38" x2="169.372" y2="417.348" gradientUnits="userSpaceOnUse">
<stop stop-color="white"/>
<stop offset="0.646"/>
</linearGradient>
<linearGradient id="paint13_linear_279_998" x1="623.48" y1="254.38" x2="169.372" y2="417.348" gradientUnits="userSpaceOnUse">
<stop stop-color="white"/>
<stop offset="0.646"/>
</linearGradient>
<linearGradient id="paint14_linear_279_998" x1="623.48" y1="254.38" x2="169.372" y2="417.348" gradientUnits="userSpaceOnUse">
<stop stop-color="white"/>
<stop offset="0.646"/>
</linearGradient>
<linearGradient id="paint15_linear_279_998" x1="623.48" y1="254.38" x2="169.372" y2="417.348" gradientUnits="userSpaceOnUse">
<stop stop-color="white"/>
<stop offset="0.646"/>
</linearGradient>
<linearGradient id="paint16_linear_279_998" x1="623.48" y1="254.38" x2="169.372" y2="417.348" gradientUnits="userSpaceOnUse">
<stop stop-color="white"/>
<stop offset="0.646"/>
</linearGradient>
<linearGradient id="paint17_linear_279_998" x1="623.48" y1="254.38" x2="169.372" y2="417.348" gradientUnits="userSpaceOnUse">
<stop stop-color="white"/>
<stop offset="0.646"/>
</linearGradient>
<linearGradient id="paint18_linear_279_998" x1="623.48" y1="254.38" x2="169.372" y2="417.348" gradientUnits="userSpaceOnUse">
<stop stop-color="white"/>
<stop offset="0.646"/>
</linearGradient>
</defs>
</svg>
