<svg width="826" height="512" viewBox="0 0 826 512" fill="none" xmlns="http://www.w3.org/2000/svg">
<path d="M226.326 293.778V473.992C231.165 475.612 236.113 477.166 241.156 478.654V287.977C236.232 289.81 231.274 291.745 226.326 293.778Z" fill="url(#paint0_linear_310_3)"/>
<path d="M377.031 182.894C360.105 208.756 345.446 242.391 337.556 264.086C354.405 261.594 370.369 259.972 387.981 258.918C418.038 257.119 452.896 256.978 505.144 257.004C498.223 238.232 482.628 202.17 468.067 184.377C464.082 179.508 401.939 177.952 377.031 182.894Z" fill="url(#paint1_linear_310_3)"/>
<path d="M444.338 145.826H499.211C501.957 145.826 504.775 145.84 507.591 146.046C507.591 135.546 500.694 130.999 493.279 130.999H488.83H473.999H453.236H444.338H432.693C422.191 130.999 418.283 141.03 417.642 146.046L444.338 145.826Z" fill="url(#paint2_linear_310_3)"/>
<path d="M444.338 90.9645V130.999H453.236V90.9645H444.338Z" fill="url(#paint3_linear_310_3)"/>
<path d="M511.076 19.7929C465.991 19.7929 467.572 93.93 473.999 130.999H488.83C484.381 99.8609 481.414 37.5858 505.144 37.5858H527.39V46.4822H539.254V12.3792H527.39V19.7929H511.076Z" fill="url(#paint4_linear_310_3)"/>
<path d="M539.254 2V12.3792V46.4822V55.3787H545.187V2H539.254Z" fill="url(#paint5_linear_310_3)"/>
<path d="M718.801 482.775C634.215 482.775 638.667 287.023 718.801 287.023C679.914 273.468 630.375 261.442 570.399 257.801C565.043 257.476 559.603 257.218 554.081 257.032C536.178 257.032 519.962 257.011 505.144 257.004C452.896 256.978 418.038 257.119 387.981 258.918V301.514H337.556V323.755H287.127V273.342C273.181 277.025 257.349 281.95 241.156 287.977V478.654C341.303 508.217 479.114 512.265 554.081 509.098V480.926H494.762V452.753H554.081H604.51V414.202H650.485V499.608C676.131 495.202 698.894 489.496 718.801 482.775Z" fill="url(#paint6_linear_310_3)"/>
<path d="M718.801 287.023C857.437 335.348 860.686 434.866 718.801 482.775C634.215 482.775 638.667 287.023 718.801 287.023Z" fill="url(#paint7_linear_310_3)"/>
<path d="M604.51 452.753H554.081H494.762V480.926H554.081V509.098C589.813 507.806 621.936 504.512 650.485 499.608V414.202H604.51V452.753Z" fill="url(#paint8_linear_310_3)"/>
<path d="M337.556 264.086C322.135 266.367 305.973 269.375 287.127 273.342V323.755H337.556V301.514H387.981V258.918C370.369 259.972 354.405 261.594 337.556 264.086Z" fill="url(#paint9_linear_310_3)"/>
<path d="M226.326 473.992V293.778C206.747 301.822 187.318 311.401 170.699 322.272C147.708 337.311 130.091 354.824 124.887 374.168C122.957 381.341 122.734 388.765 124.576 396.409C127.104 406.898 133.52 417.8 144.752 429.03C147.076 431.352 149.548 433.612 152.161 435.811C157.728 440.494 163.934 444.9 170.699 449.043C186.528 458.736 205.415 466.99 226.326 473.992Z" fill="url(#paint10_linear_310_3)"/>
<path d="M124.887 374.168C130.091 354.824 147.708 337.311 170.699 322.272C171.438 313.376 156.616 294.1 76.5186 295.583C69.8955 295.705 65.099 300.093 64.3065 304.479C63.5029 308.928 66.8167 313.376 76.5186 313.376C89.0982 313.376 106.178 312.933 121.023 315.287V374.168H124.887Z" fill="url(#paint11_linear_310_3)"/>
<path d="M82.4677 374.168C66.1362 374.168 64.6597 396.409 82.4677 396.409H121.023H124.576C122.734 388.765 122.957 381.341 124.887 374.168H121.023H82.4677Z" fill="url(#paint12_linear_310_3)"/>
<path d="M170.699 449.043C163.934 444.9 157.728 440.494 152.161 435.811C152.519 440.567 145.819 448.733 121.023 452.977C111.224 454.654 98.5993 455.719 82.4677 455.719C70.9469 455.719 65.632 460.618 66.149 465.342C66.6305 469.742 72.1709 473.992 82.4677 473.992C109.158 473.992 151.116 475.729 170.699 449.043Z" fill="url(#paint13_linear_310_3)"/>
<path d="M82.4677 396.409C64.6597 396.409 66.1362 374.168 82.4677 374.168H121.023V315.287C106.178 312.933 89.0982 313.376 76.5186 313.376C66.8167 313.376 63.5029 308.928 64.3065 304.479H55.7675V374.168V396.409V465.342H66.149C65.632 460.618 70.9469 455.719 82.4677 455.719C98.5993 455.719 111.224 454.654 121.023 452.977V396.409H82.4677Z" fill="url(#paint14_linear_310_3)"/>
<path d="M55.7675 374.168H39.4544L39.4531 366.754C36.2249 366.754 33.2569 366.986 30.5492 367.411C27.1817 367.94 24.2167 368.768 21.6543 369.826C5.34022 376.555 5.34074 392.538 21.6543 399.269C24.2168 400.326 27.1817 401.155 30.5492 401.684C33.2573 402.109 36.2257 402.34 39.4544 402.34V396.409H55.7675V374.168Z" fill="url(#paint15_linear_310_3)"/>
<path d="M21.6543 313.376C-13.9415 313.376 6.8227 351.009 21.6543 369.826C24.2167 368.768 27.1817 367.94 30.5492 367.411C42.4158 349.399 57.2501 313.376 21.6543 313.376Z" fill="url(#paint16_linear_310_3)"/>
<path d="M21.6543 399.269C7.43687 418.085 -12.4675 455.719 21.6543 455.719C55.7761 455.719 41.8016 419.695 30.5492 401.684C27.1817 401.155 24.2168 400.326 21.6543 399.269Z" fill="url(#paint17_linear_310_3)"/>
<path d="M551.315 208.101L559.286 228.859C485.864 228.859 483.24 208.101 551.315 208.101Z" fill="url(#paint18_linear_310_3)"/>
<path d="M538.79 175.481L545.187 192.139C479.931 192.139 468.067 175.481 538.79 175.481Z" fill="url(#paint19_linear_310_3)"/>
<path d="M554.081 257.032C559.603 257.218 565.043 257.476 570.399 257.801L559.286 228.859C485.864 228.859 483.24 208.101 551.315 208.101L545.187 192.139C479.931 192.139 468.067 175.481 538.79 175.481L534.805 165.102C528.274 150.177 517.953 146.806 507.591 146.046C504.775 145.84 501.957 145.826 499.211 145.826H444.338L417.642 146.046C404.114 148.029 389.915 163.21 377.031 182.894C401.939 177.952 464.082 179.508 468.067 184.377C482.628 202.17 498.223 238.232 505.144 257.004C519.962 257.011 536.178 257.032 554.081 257.032Z" fill="url(#paint20_linear_310_3)"/>
<path d="M554.081 509.098C479.114 512.265 341.303 508.217 241.156 478.654M554.081 509.098C589.813 507.806 621.936 504.512 650.485 499.608M554.081 509.098V480.926H494.762V452.753H554.081H604.51V414.202H650.485V499.608M718.801 287.023C857.437 335.348 860.686 434.866 718.801 482.775M718.801 287.023C638.667 287.023 634.215 482.775 718.801 482.775M718.801 287.023C679.914 273.468 630.375 261.442 570.399 257.801M718.801 482.775C698.894 489.496 676.131 495.202 650.485 499.608M287.127 273.342C273.181 277.025 257.349 281.95 241.156 287.977M287.127 273.342C305.973 269.375 322.135 266.367 337.556 264.086M287.127 273.342V323.755H337.556V301.514H387.981V258.918M226.326 293.778V473.992M226.326 293.778C231.274 291.745 236.232 289.81 241.156 287.977M226.326 293.778C206.747 301.822 187.318 311.401 170.699 322.272M226.326 473.992C231.165 475.612 236.113 477.166 241.156 478.654M226.326 473.992C205.415 466.99 186.528 458.736 170.699 449.043M241.156 287.977V478.654M337.556 264.086C345.446 242.391 360.105 208.756 377.031 182.894M337.556 264.086C354.405 261.594 370.369 259.972 387.981 258.918M499.211 145.826C489.536 145.826 468.04 145.826 444.338 145.826M499.211 145.826C501.957 145.826 504.775 145.84 507.591 146.046M499.211 145.826H444.338M534.805 165.102C536.022 168.27 537.363 171.763 538.79 175.481M534.805 165.102C528.274 150.177 517.953 146.806 507.591 146.046M534.805 165.102L538.79 175.481M570.399 257.801C565.043 257.476 559.603 257.218 554.081 257.032C536.178 257.032 519.962 257.011 505.144 257.004M570.399 257.801C570.399 257.801 565.623 245.364 559.286 228.859M570.399 257.801L559.286 228.859M377.031 182.894C401.939 177.952 464.082 179.508 468.067 184.377C482.628 202.17 498.223 238.232 505.144 257.004M377.031 182.894C389.915 163.21 404.114 148.029 417.642 146.046M505.144 257.004C452.896 256.978 418.038 257.119 387.981 258.918M538.79 175.481C540.788 180.684 542.955 186.328 545.187 192.139M538.79 175.481C468.067 175.481 479.931 192.139 545.187 192.139M538.79 175.481L545.187 192.139M545.187 192.139C547.203 197.391 549.272 202.779 551.315 208.101M545.187 192.139L551.315 208.101M551.315 208.101C554.083 215.309 556.804 222.396 559.286 228.859M551.315 208.101C483.24 208.101 485.864 228.859 559.286 228.859M551.315 208.101L559.286 228.859M444.338 145.826L417.642 146.046M417.642 146.046C418.283 141.03 422.191 130.999 432.693 130.999M432.693 130.999C435.313 130.999 439.414 130.999 444.338 130.999M432.693 130.999H444.338M493.279 130.999C500.694 130.999 507.591 135.546 507.591 146.046M493.279 130.999C491.923 130.999 490.431 130.999 488.83 130.999M493.279 130.999H488.83M444.338 130.999V90.9645H453.236V130.999M444.338 130.999C447.085 130.999 450.089 130.999 453.236 130.999M444.338 130.999H453.236M453.236 130.999C459.879 130.999 467.157 130.999 473.999 130.999M453.236 130.999H473.999M473.999 130.999C467.572 93.93 465.991 19.7929 511.076 19.7929H527.39V12.3792H539.254M473.999 130.999C479.388 130.999 484.506 130.999 488.83 130.999M473.999 130.999H488.83M488.83 130.999C484.381 99.8609 481.414 37.5858 505.144 37.5858M505.144 37.5858C528.873 37.5858 529.861 37.5858 527.39 37.5858M505.144 37.5858H527.39M527.39 37.5858V46.4822H539.254M539.254 12.3792V46.4822M539.254 12.3792V2M539.254 46.4822V55.3787M539.254 2V55.3787M539.254 2H545.187V55.3787H539.254M124.887 374.168C122.957 381.341 122.734 388.765 124.576 396.409M124.887 374.168C130.091 354.824 147.708 337.311 170.699 322.272M124.887 374.168H121.023M124.576 396.409C127.104 406.898 133.52 417.8 144.752 429.03C147.076 431.352 149.548 433.612 152.161 435.811M124.576 396.409H121.023M170.699 322.272C171.438 313.376 156.616 294.1 76.5186 295.583C69.8955 295.705 65.099 300.093 64.3065 304.479M152.161 334.134C148.594 322.839 135.937 317.651 121.023 315.287M152.161 435.811C157.728 440.494 163.934 444.9 170.699 449.043M152.161 435.811C152.519 440.567 145.819 448.733 121.023 452.977M170.699 449.043C151.116 475.729 109.158 473.992 82.4677 473.992C72.1709 473.992 66.6305 469.742 66.149 465.342M121.023 315.287C106.178 312.933 89.0982 313.376 76.5186 313.376C66.8167 313.376 63.5029 308.928 64.3065 304.479M121.023 315.287V374.168M121.023 374.168H82.4677C66.1362 374.168 64.6597 396.409 82.4677 396.409H121.023M121.023 396.409V452.977M121.023 452.977C111.224 454.654 98.5993 455.719 82.4677 455.719C70.9469 455.719 65.632 460.618 66.149 465.342M66.149 465.342H55.7675V396.409M64.3065 304.479H55.7675V374.168M55.7675 374.168H39.4544L39.4531 366.754C36.2249 366.754 33.2569 366.986 30.5492 367.411M55.7675 374.168V396.409M55.7675 396.409H39.4544V402.34C36.2257 402.34 33.2573 402.109 30.5492 401.684M21.6543 369.826C6.8227 351.009 -13.9415 313.376 21.6543 313.376C57.2501 313.376 42.4158 349.399 30.5492 367.411M21.6543 369.826C24.2167 368.768 27.1817 367.94 30.5492 367.411M21.6543 369.826C5.34022 376.555 5.34074 392.538 21.6543 399.269M21.6543 399.269C7.43687 418.085 -12.4675 455.719 21.6543 455.719C55.7761 455.719 41.8016 419.695 30.5492 401.684M21.6543 399.269C24.2168 400.326 27.1817 401.155 30.5492 401.684" stroke="white" stroke-width="2.96548"/>
<path d="M447.294 246.652C444.837 246.652 442.845 244.66 442.845 242.204C442.845 239.748 444.837 237.756 447.294 237.756C449.752 237.756 451.744 239.748 451.744 242.204C451.744 244.66 449.752 246.652 447.294 246.652Z" fill="#D9D9D9" stroke="white" stroke-width="2.96548"/>
<path d="M214.447 341.548C214.447 344.582 211.392 347.479 207.031 347.479C202.671 347.479 199.616 344.582 199.616 341.548C199.616 338.514 202.671 335.617 207.031 335.617C211.392 335.617 214.447 338.514 214.447 341.548Z" fill="#D9D9D9" stroke="white" stroke-width="2.96548"/>
<path d="M426.533 246.652C424.075 246.652 422.083 244.66 422.083 242.204C422.083 239.748 424.075 237.756 426.533 237.756C428.99 237.756 430.982 239.748 430.982 242.204C430.982 244.66 428.99 246.652 426.533 246.652Z" fill="#D9D9D9" stroke="white" stroke-width="2.96548"/>
<path d="M205.556 374.168C205.556 377.202 202.501 380.099 198.141 380.099C193.78 380.099 190.725 377.202 190.725 374.168C190.725 371.134 193.78 368.237 198.141 368.237C202.501 368.237 205.556 371.134 205.556 374.168Z" fill="#D9D9D9" stroke="white" stroke-width="2.96548"/>
<path d="M405.763 246.652C403.305 246.652 401.313 244.66 401.313 242.204C401.313 239.748 403.305 237.756 405.763 237.756C408.221 237.756 410.213 239.748 410.213 242.204C410.213 244.66 408.221 246.652 405.763 246.652Z" fill="#D9D9D9" stroke="white" stroke-width="2.96548"/>
<path d="M205.556 405.306C205.556 409.4 202.237 412.719 198.141 412.719C194.045 412.719 190.725 409.4 190.725 405.306C190.725 401.212 194.045 397.892 198.141 397.892C202.237 397.892 205.556 401.212 205.556 405.306Z" fill="#D9D9D9" stroke="white" stroke-width="2.96548"/>
<path d="M385.005 246.652C382.547 246.652 380.556 244.66 380.556 242.204C380.556 239.748 382.547 237.756 385.005 237.756C387.463 237.756 389.455 239.748 389.455 242.204C389.455 244.66 387.463 246.652 385.005 246.652Z" fill="#D9D9D9" stroke="white" stroke-width="2.96548"/>
<path d="M214.447 437.926C214.447 442.02 211.127 445.34 207.031 445.34C202.935 445.34 199.616 442.02 199.616 437.926C199.616 433.832 202.935 430.512 207.031 430.512C211.127 430.512 214.447 433.832 214.447 437.926Z" fill="#D9D9D9" stroke="white" stroke-width="2.96548"/>
<path d="M359.791 366.754C359.791 385.589 344.519 400.857 325.68 400.857C306.84 400.857 291.569 385.589 291.569 366.754C291.569 347.92 306.84 332.651 325.68 332.651C344.519 332.651 359.791 347.92 359.791 366.754Z" fill="#070707" stroke="white" stroke-width="2.96548"/>
<path d="M472.506 366.754C472.506 385.589 457.234 400.857 438.395 400.857C419.555 400.857 404.284 385.589 404.284 366.754C404.284 347.92 419.555 332.651 438.395 332.651C457.234 332.651 472.506 347.92 472.506 366.754Z" fill="#070707" stroke="white" stroke-width="2.96548"/>
<path d="M585.22 366.754C585.22 385.589 569.949 400.857 551.109 400.857C532.27 400.857 516.998 385.589 516.998 366.754C516.998 347.92 532.27 332.651 551.109 332.651C569.949 332.651 585.22 347.92 585.22 366.754Z" fill="#070707" stroke="white" stroke-width="2.96548"/>
<defs>
<linearGradient id="paint0_linear_310_3" x1="679.645" y1="277.127" x2="184.524" y2="454.853" gradientUnits="userSpaceOnUse">
<stop stop-color="white"/>
<stop offset="0.646"/>
</linearGradient>
<linearGradient id="paint1_linear_310_3" x1="679.645" y1="277.127" x2="184.524" y2="454.853" gradientUnits="userSpaceOnUse">
<stop stop-color="white"/>
<stop offset="0.646"/>
</linearGradient>
<linearGradient id="paint2_linear_310_3" x1="679.645" y1="277.127" x2="184.524" y2="454.853" gradientUnits="userSpaceOnUse">
<stop stop-color="white"/>
<stop offset="0.646"/>
</linearGradient>
<linearGradient id="paint3_linear_310_3" x1="679.645" y1="277.127" x2="184.524" y2="454.853" gradientUnits="userSpaceOnUse">
<stop stop-color="white"/>
<stop offset="0.646"/>
</linearGradient>
<linearGradient id="paint4_linear_310_3" x1="679.645" y1="277.127" x2="184.524" y2="454.853" gradientUnits="userSpaceOnUse">
<stop stop-color="white"/>
<stop offset="0.646"/>
</linearGradient>
<linearGradient id="paint5_linear_310_3" x1="679.645" y1="277.127" x2="184.524" y2="454.853" gradientUnits="userSpaceOnUse">
<stop stop-color="white"/>
<stop offset="0.646"/>
</linearGradient>
<linearGradient id="paint6_linear_310_3" x1="679.645" y1="277.127" x2="184.524" y2="454.853" gradientUnits="userSpaceOnUse">
<stop stop-color="white"/>
<stop offset="0.646"/>
</linearGradient>
<linearGradient id="paint7_linear_310_3" x1="679.645" y1="277.127" x2="184.524" y2="454.853" gradientUnits="userSpaceOnUse">
<stop stop-color="white"/>
<stop offset="0.646"/>
</linearGradient>
<linearGradient id="paint8_linear_310_3" x1="679.645" y1="277.127" x2="184.524" y2="454.853" gradientUnits="userSpaceOnUse">
<stop stop-color="white"/>
<stop offset="0.646"/>
</linearGradient>
<linearGradient id="paint9_linear_310_3" x1="679.645" y1="277.127" x2="184.524" y2="454.853" gradientUnits="userSpaceOnUse">
<stop stop-color="white"/>
<stop offset="0.646"/>
</linearGradient>
<linearGradient id="paint10_linear_310_3" x1="679.645" y1="277.127" x2="184.524" y2="454.853" gradientUnits="userSpaceOnUse">
<stop stop-color="white"/>
<stop offset="0.646"/>
</linearGradient>
<linearGradient id="paint11_linear_310_3" x1="679.645" y1="277.127" x2="184.524" y2="454.853" gradientUnits="userSpaceOnUse">
<stop stop-color="white"/>
<stop offset="0.646"/>
</linearGradient>
<linearGradient id="paint12_linear_310_3" x1="679.645" y1="277.127" x2="184.524" y2="454.853" gradientUnits="userSpaceOnUse">
<stop stop-color="white"/>
<stop offset="0.646"/>
</linearGradient>
<linearGradient id="paint13_linear_310_3" x1="679.645" y1="277.127" x2="184.524" y2="454.853" gradientUnits="userSpaceOnUse">
<stop stop-color="white"/>
<stop offset="0.646"/>
</linearGradient>
<linearGradient id="paint14_linear_310_3" x1="679.645" y1="277.127" x2="184.524" y2="454.853" gradientUnits="userSpaceOnUse">
<stop stop-color="white"/>
<stop offset="0.646"/>
</linearGradient>
<linearGradient id="paint15_linear_310_3" x1="679.645" y1="277.127" x2="184.524" y2="454.853" gradientUnits="userSpaceOnUse">
<stop stop-color="white"/>
<stop offset="0.646"/>
</linearGradient>
<linearGradient id="paint16_linear_310_3" x1="679.645" y1="277.127" x2="184.524" y2="454.853" gradientUnits="userSpaceOnUse">
<stop stop-color="white"/>
<stop offset="0.646"/>
</linearGradient>
<linearGradient id="paint17_linear_310_3" x1="679.645" y1="277.127" x2="184.524" y2="454.853" gradientUnits="userSpaceOnUse">
<stop stop-color="white"/>
<stop offset="0.646"/>
</linearGradient>
<linearGradient id="paint18_linear_310_3" x1="679.645" y1="277.127" x2="184.524" y2="454.853" gradientUnits="userSpaceOnUse">
<stop stop-color="white"/>
<stop offset="0.646"/>
</linearGradient>
<linearGradient id="paint19_linear_310_3" x1="679.645" y1="277.127" x2="184.524" y2="454.853" gradientUnits="userSpaceOnUse">
<stop stop-color="white"/>
<stop offset="0.646"/>
</linearGradient>
<linearGradient id="paint20_linear_310_3" x1="679.645" y1="277.127" x2="184.524" y2="454.853" gradientUnits="userSpaceOnUse">
<stop stop-color="white"/>
<stop offset="0.646"/>
</linearGradient>
</defs>
</svg>
