<svg width="804" height="550" viewBox="0 0 804 550" fill="none" xmlns="http://www.w3.org/2000/svg">
<path d="M313.913 246.114C322.095 216.142 373.407 126.224 386.115 126.224C391.069 126.224 405.717 125.803 423.66 125.354V77.112H432.324H439.545V124.975C445.246 124.848 451.078 124.727 456.874 124.624C450.855 89.0586 452.253 17.8891 497.308 17.8891V10.6668H514.636H516.08V42.4449H497.308V33.7782C464.961 33.7782 467.464 94.1874 472.759 124.392C498.368 124.11 520.026 124.394 521.855 126.224C531.058 135.43 560.844 207.417 568.065 236.003C645.497 239.876 707.152 247.565 747.685 273.559C782.742 296.041 802 332.216 802 391.458C802 434.159 782.043 468.854 747.685 494.629C681.649 544.17 562.415 560.758 429.436 537.896C331.664 521.086 231.064 491.344 157.984 457.006C146.431 468.561 103.082 470.006 64.0926 470.006C32.9013 470.006 54.947 423.444 69.8688 400.163C59.5645 389.519 52.8867 378.857 50.5659 368.379L36.6571 368.893V377.56C34.1964 377.765 31.2115 377.804 28.0374 377.56C35.2423 404.042 45.0315 452.382 26.5488 433.894C8.06604 415.406 15.9595 388.124 22.2166 376.794C12.0559 374.86 2 369.535 2 357.338C2 345.14 12.0559 339.816 22.2166 337.881C16.4405 318.367 9.81946 285.551 14.9964 279.337C22.2166 270.67 58.3853 309.455 30.8809 336.967C32.9845 336.91 34.9473 336.973 36.6571 337.115V348.671H50.5659C53.2153 332.437 61.5998 318.603 75.381 306.782C63.4353 291.374 42.432 257.67 53.9843 246.114C65.5367 234.558 124.744 228.781 144.961 244.67L172.396 265.944C211.189 257.095 258.627 250.787 313.913 246.114Z" fill="url(#paint0_linear_171_69)"/>
<path d="M313.913 246.114L314.039 247.609L315.083 247.521L315.36 246.509L313.913 246.114ZM521.855 126.224L522.916 125.164L521.855 126.224ZM568.065 236.003L566.61 236.37L566.882 237.446L567.99 237.501L568.065 236.003ZM423.66 77.112V75.612H422.16V77.112H423.66ZM439.545 77.112H441.045V75.612H439.545V77.112ZM75.381 306.782L76.3576 307.92L75.381 306.782ZM144.961 244.67L144.034 245.849L144.041 245.855L144.961 244.67ZM429.436 537.896L429.69 536.417L429.436 537.896ZM50.5659 348.671L52.0464 348.913L50.5659 348.671ZM50.5659 368.379L52.0304 368.055L50.5659 368.379ZM36.6571 337.115H38.1571V335.735L36.7817 335.62L36.6571 337.115ZM36.6571 377.56L36.7817 379.055L38.1571 378.94V377.56H36.6571ZM22.2166 337.881L22.4972 339.355H22.4972L22.2166 337.881ZM14.9964 279.337L13.8439 278.377L14.9964 279.337ZM22.2166 376.794L22.4972 375.321H22.4972L22.2166 376.794ZM28.0374 377.56L28.1524 376.065H28.1524L28.0374 377.56ZM747.685 273.559L748.495 272.296L747.685 273.559ZM497.308 17.8891V19.3891H498.808V17.8891H497.308ZM497.308 33.7782H498.808V32.2782H497.308V33.7782ZM497.308 42.4449H495.808V43.9449H497.308V42.4449ZM497.308 10.6668V9.16677H495.808V10.6668H497.308ZM517.58 2C517.58 1.17157 516.909 0.5 516.08 0.5C515.252 0.5 514.58 1.17157 514.58 2H517.58ZM514.58 51.1117C514.58 51.9401 515.252 52.6117 516.08 52.6117C516.909 52.6117 517.58 51.9401 517.58 51.1117H514.58ZM315.36 246.509C319.393 231.735 334.171 201.915 349.61 175.691C357.314 162.603 365.143 150.481 371.82 141.647C375.162 137.225 378.185 133.668 380.736 131.231C382.012 130.012 383.135 129.108 384.089 128.517C385.071 127.909 385.73 127.724 386.115 127.724V124.724C384.911 124.724 383.68 125.242 382.51 125.966C381.313 126.707 380.022 127.764 378.663 129.062C375.944 131.66 372.809 135.362 369.426 139.838C362.652 148.8 354.759 161.031 347.024 174.169C331.584 200.396 316.615 230.521 312.466 245.719L315.36 246.509ZM520.794 127.285C521.798 128.289 523.189 130.274 524.894 133.172C526.578 136.035 528.507 139.678 530.598 143.906C534.779 152.358 539.577 163.082 544.319 174.424C553.814 197.132 563.029 222.191 566.61 236.37L569.519 235.636C565.88 221.229 556.592 196.001 547.087 173.267C542.33 161.889 537.505 151.103 533.287 142.576C531.178 138.313 529.214 134.599 527.48 131.651C525.766 128.739 524.213 126.461 522.916 125.164L520.794 127.285ZM386.115 127.724C391.094 127.724 405.778 127.302 423.697 126.854L423.622 123.854C405.655 124.304 391.044 124.724 386.115 124.724V127.724ZM425.16 125.354V77.112H422.16V125.354H425.16ZM423.697 126.854C428.776 126.727 434.118 126.597 439.578 126.475L439.511 123.476C434.047 123.598 428.702 123.727 423.622 123.854L423.697 126.854ZM438.045 77.112V124.975H441.045V77.112H438.045ZM423.66 78.612H432.324V75.612H423.66V78.612ZM432.324 78.612H439.545V75.612H432.324V78.612ZM430.824 42.4449V77.112H433.824V42.4449H430.824ZM172.73 267.407C211.426 258.58 258.785 252.279 314.039 247.609L313.786 244.619C258.469 249.295 210.953 255.611 172.062 264.482L172.73 267.407ZM76.3576 307.92C96.7035 290.468 129.13 277.352 172.73 267.407L172.062 264.482C128.32 274.46 95.3124 287.709 74.4044 305.643L76.3576 307.92ZM76.5664 305.862C70.6379 298.216 62.4745 286.041 57.2391 274.389C54.6183 268.555 52.773 262.943 52.2657 258.144C51.757 253.331 52.6147 249.606 55.0451 247.175L52.9235 245.054C49.5778 248.4 48.7287 253.221 49.2824 258.459C49.8374 263.711 51.8235 269.655 54.5026 275.618C59.8672 287.558 68.1784 299.94 74.1956 307.701L76.5664 305.862ZM55.0451 247.175C57.6247 244.594 63.1384 242.144 70.6022 240.232C77.9796 238.343 86.993 237.046 96.2954 236.598C105.598 236.151 115.141 236.556 123.581 238.044C132.052 239.538 139.261 242.098 144.034 245.849L145.887 243.49C140.551 239.296 132.778 236.62 124.102 235.09C115.393 233.554 105.621 233.146 96.1513 233.602C86.6808 234.057 77.4627 235.378 69.8579 237.326C62.3395 239.251 56.1201 241.856 52.9235 245.054L55.0451 247.175ZM144.041 245.855L171.477 267.13L173.315 264.759L145.88 243.484L144.041 245.855ZM68.606 399.354C61.1121 411.046 51.7651 428.673 48.2294 443.466C46.4707 450.824 46.0742 457.779 48.3656 462.972C49.5307 465.613 51.3841 467.78 54.0402 469.268C56.6764 470.745 60.0143 471.506 64.0926 471.506V468.506C60.3731 468.506 57.5769 467.811 55.5068 466.651C53.4565 465.502 52.0315 463.849 51.1103 461.761C49.229 457.497 49.4281 451.356 51.1472 444.164C54.567 429.855 63.7038 412.562 71.1317 400.973L68.606 399.354ZM429.69 536.417C332.018 519.625 231.553 489.916 158.622 455.648L157.346 458.363C230.575 492.771 331.31 522.547 429.182 539.374L429.69 536.417ZM158.622 455.648C120.203 437.596 89.5481 418.336 70.9466 399.12L68.7911 401.207C87.769 420.811 118.811 440.257 157.346 458.363L158.622 455.648ZM64.0926 471.506C83.5921 471.506 104.245 471.145 121.484 469.331C130.102 468.424 137.915 467.149 144.326 465.357C150.693 463.577 155.877 461.235 159.044 458.066L156.923 455.945C154.314 458.554 149.747 460.726 143.519 462.467C137.334 464.196 129.707 465.449 121.17 466.347C104.099 468.144 83.5824 468.506 64.0926 468.506V471.506ZM51.1522 360.227C51.1522 356.323 51.4522 352.553 52.0464 348.913L49.0855 348.429C48.4641 352.237 48.1522 356.169 48.1522 360.227H51.1522ZM52.0464 348.913C54.6303 333.08 62.8022 319.548 76.3576 307.92L74.4044 305.643C60.3975 317.658 51.8003 331.795 49.0855 348.429L52.0464 348.913ZM50.5659 347.171H36.6571V350.171H50.5659V347.171ZM35.1571 348.671V368.893H38.1571V348.671H35.1571ZM70.9466 399.12C60.7468 388.583 54.2687 378.16 52.0304 368.055L49.1014 368.703C51.5047 379.554 58.3823 390.454 68.7911 401.207L70.9466 399.12ZM52.0304 368.055C51.4479 365.424 51.1522 362.814 51.1522 360.227H48.1522C48.1522 363.045 48.4743 365.872 49.1014 368.703L52.0304 368.055ZM36.7125 370.392L50.6214 369.878L50.5105 366.88L36.6016 367.394L36.7125 370.392ZM38.1571 348.671V337.115H35.1571V348.671H38.1571ZM35.1571 368.893V377.56H38.1571V368.893H35.1571ZM3.5 357.338C3.5 351.719 5.78821 347.754 9.24819 344.922C12.7644 342.043 17.547 340.297 22.4972 339.355L21.9361 336.408C16.7256 337.4 11.3998 339.283 7.34793 342.6C3.23976 345.963 0.5 350.759 0.5 357.338H3.5ZM23.655 337.456C20.7831 327.753 17.7004 314.738 15.9822 303.397C15.1224 297.721 14.6117 292.513 14.6283 288.368C14.6366 286.294 14.777 284.53 15.0548 283.128C15.3384 281.696 15.7369 280.791 16.1489 280.297L13.8439 278.377C12.9617 279.436 12.4346 280.916 12.112 282.545C11.7835 284.202 11.637 286.174 11.6283 288.356C11.6108 292.721 12.1457 298.101 13.016 303.846C14.7581 315.345 17.874 328.495 20.7783 338.307L23.655 337.456ZM22.4972 339.355C25.3685 338.808 28.2575 338.539 30.9216 338.467L30.8402 335.468C28.0388 335.544 24.9874 335.827 21.9361 336.408L22.4972 339.355ZM30.9216 338.467C32.9718 338.411 34.8794 338.472 36.5325 338.61L36.7817 335.62C35.0152 335.473 32.9972 335.409 30.8402 335.468L30.9216 338.467ZM16.1489 280.297C16.6031 279.752 17.3409 279.45 18.6213 279.674C19.9402 279.905 21.6265 280.681 23.5189 282.036C27.2834 284.731 31.479 289.442 34.6405 295.298C40.9527 306.989 42.9459 322.777 29.8201 335.907L31.9417 338.028C46.3203 323.645 43.9814 306.284 37.2803 293.872C33.9352 287.676 29.4538 282.596 25.2655 279.597C23.1815 278.105 21.0724 277.057 19.1388 276.719C17.1667 276.373 15.1948 276.755 13.8439 278.377L16.1489 280.297ZM22.4972 375.321C17.547 374.378 12.7644 372.632 9.24819 369.754C5.78821 366.922 3.5 362.957 3.5 357.338H0.5C0.5 363.916 3.23976 368.712 7.34793 372.075C11.3998 375.392 16.7256 377.276 21.9361 378.268L22.4972 375.321ZM20.9036 376.069C17.6812 381.904 14.0631 391.781 13.6066 402.597C13.1489 413.442 15.8735 425.337 25.488 434.955L27.6096 432.834C18.7413 423.963 16.1713 412.973 16.6039 402.723C17.0378 392.443 20.495 383.014 23.5297 377.519L20.9036 376.069ZM36.5325 376.065C34.1511 376.264 31.2464 376.303 28.1524 376.065L27.9223 379.056C31.1765 379.306 34.2416 379.267 36.7817 379.055L36.5325 376.065ZM28.1524 376.065C26.3052 375.923 24.3968 375.682 22.4972 375.321L21.9361 378.268C23.9568 378.652 25.9765 378.906 27.9223 379.056L28.1524 376.065ZM25.488 434.955C27.8414 437.309 29.9437 438.816 31.829 439.317C32.811 439.579 33.7914 439.582 34.7063 439.23C35.6181 438.878 36.3166 438.23 36.8388 437.45C37.8426 435.949 38.3291 433.759 38.5365 431.303C38.7483 428.795 38.684 425.785 38.4212 422.472C37.3722 409.243 33.0927 390.427 29.4847 377.166L26.59 377.954C30.1869 391.174 34.4045 409.77 35.4306 422.709C35.6867 425.938 35.7398 428.768 35.5471 431.051C35.35 433.385 34.9101 434.937 34.3451 435.782C34.083 436.174 33.8363 436.35 33.6276 436.43C33.4217 436.51 33.1057 436.553 32.6006 436.418C31.5117 436.129 29.8768 435.102 27.6096 432.834L25.488 434.955ZM567.99 237.501C645.478 241.377 706.728 249.075 746.875 274.822L748.495 272.296C707.575 246.055 645.516 238.375 568.14 234.505L567.99 237.501ZM746.875 274.822C781.403 296.964 800.5 332.596 800.5 391.458H803.5C803.5 331.837 784.082 295.118 748.495 272.296L746.875 274.822ZM800.5 391.458C800.5 433.62 780.821 467.895 746.785 493.429L748.585 495.829C783.264 469.813 803.5 434.697 803.5 391.458H800.5ZM746.785 493.429C681.233 542.606 562.504 559.251 429.69 536.417L429.182 539.374C562.327 562.265 682.064 545.733 748.585 495.829L746.785 493.429ZM747.685 272.059C741.317 272.059 736.073 275.965 731.865 282.221C727.658 288.476 724.319 297.305 721.75 307.743C716.606 328.639 714.448 356.414 714.901 384.119C715.353 411.827 718.419 439.586 723.784 460.461C726.464 470.886 729.74 479.69 733.612 485.922C737.449 492.098 742.122 496.129 747.685 496.129V493.129C743.722 493.129 739.834 490.252 736.161 484.339C732.521 478.481 729.337 470.014 726.69 459.714C721.401 439.138 718.35 411.629 717.9 384.07C717.45 356.507 719.604 329.014 724.663 308.46C727.195 298.172 730.43 289.73 734.354 283.895C738.278 278.062 742.722 275.059 747.685 275.059V272.059ZM439.578 126.475C445.278 126.347 451.108 126.227 456.901 126.124L456.848 123.125C451.049 123.228 445.215 123.348 439.511 123.476L439.578 126.475ZM458.353 124.374C455.365 106.717 454.229 80.2468 459.398 58.2629C461.983 47.2722 466.114 37.529 472.261 30.5571C478.365 23.6341 486.498 19.3891 497.308 19.3891V16.3891C485.59 16.3891 476.653 21.0402 470.011 28.573C463.413 36.0568 459.123 46.3288 456.478 57.5762C451.189 80.0685 452.364 106.966 455.395 124.875L458.353 124.374ZM456.9 126.124C461.533 126.046 468.303 125.941 472.775 125.892L472.742 122.892C468.261 122.941 461.484 123.046 456.849 123.125L456.9 126.124ZM472.775 125.892C485.575 125.751 497.367 125.752 506.18 126.015C510.59 126.147 514.226 126.344 516.858 126.618C518.178 126.756 519.209 126.909 519.944 127.073C520.313 127.155 520.573 127.232 520.743 127.298C520.945 127.376 520.903 127.393 520.794 127.285L522.916 125.164C522.579 124.826 522.153 124.627 521.824 124.5C521.464 124.361 521.046 124.245 520.597 124.145C519.698 123.944 518.536 123.777 517.169 123.634C514.426 123.349 510.703 123.149 506.269 123.017C497.393 122.751 485.552 122.751 472.742 122.892L472.775 125.892ZM474.236 124.133C471.604 109.114 469.678 86.6349 472.402 67.975C473.765 58.6357 476.273 50.4025 480.316 44.5407C484.31 38.7494 489.785 35.2782 497.308 35.2782V32.2782C488.657 32.2782 482.315 36.3581 477.846 42.8374C473.426 49.2462 470.826 58.0032 469.433 67.5417C466.646 86.6376 468.619 109.465 471.281 124.651L474.236 124.133ZM495.808 33.7782V42.4449H498.808V33.7782H495.808ZM497.308 43.9449H516.08V40.9449H497.308V43.9449ZM498.808 17.8891V10.6668H495.808V17.8891H498.808ZM497.308 12.1668H514.636V9.16677H497.308V12.1668ZM514.58 2V10.6668H517.58V2H514.58ZM514.58 10.6668V42.4449H517.58V10.6668H514.58ZM514.58 42.4449V51.1117H517.58V42.4449H514.58ZM514.636 12.1668H516.08V9.16677H514.636V12.1668Z" fill="#FAFAFA"/>
<path d="M436.603 37.6675C436.603 40.0305 434.688 41.9453 432.327 41.9453C429.966 41.9453 428.051 40.0305 428.051 37.6675C428.051 35.3045 429.966 33.3896 432.327 33.3896C434.688 33.3896 436.603 35.3045 436.603 37.6675Z" fill="#FAFAFA" stroke="#FAFAFA" stroke-width="3"/>
<path d="M410.607 192.669C410.607 199.819 404.813 205.614 397.667 205.614C390.521 205.614 384.727 199.819 384.727 192.669C384.727 185.52 390.521 179.725 397.667 179.725C404.813 179.725 410.607 185.52 410.607 192.669Z" fill="#FAFAFA" stroke="#FAFAFA" stroke-width="3"/>
<path d="M459.705 192.669C459.705 199.819 453.911 205.614 446.765 205.614C439.618 205.614 433.824 199.819 433.824 192.669C433.824 185.52 439.618 179.725 446.765 179.725C453.911 179.725 459.705 185.52 459.705 192.669Z" fill="#FAFAFA" stroke="#FAFAFA" stroke-width="3"/>
<path d="M316.806 410.839C341.56 410.839 361.627 390.765 361.627 366.005C361.627 341.244 341.56 321.171 316.806 321.171C292.051 321.171 271.984 341.244 271.984 366.005C271.984 390.765 292.051 410.839 316.806 410.839Z" fill="#070707" stroke="#FAFAFA" stroke-width="3"/>
<path d="M461.204 410.839C485.959 410.839 506.026 390.765 506.026 366.005C506.026 341.244 485.959 321.171 461.204 321.171C436.45 321.171 416.383 341.244 416.383 366.005C416.383 390.765 436.45 410.839 461.204 410.839Z" fill="#070707" stroke="#FAFAFA" stroke-width="3"/>
<path d="M605.614 410.839C630.369 410.839 650.436 390.765 650.436 366.005C650.436 341.244 630.369 321.171 605.614 321.171C580.86 321.171 560.793 341.244 560.793 366.005C560.793 390.765 580.86 410.839 605.614 410.839Z" fill="#070707" stroke="#FAFAFA" stroke-width="3"/>
<path d="M508.807 192.669C508.807 199.819 503.013 205.614 495.866 205.614C488.72 205.614 482.926 199.819 482.926 192.669C482.926 185.52 488.72 179.725 495.866 179.725C503.013 179.725 508.807 185.52 508.807 192.669Z" fill="#FAFAFA" stroke="#FAFAFA" stroke-width="3"/>
<defs>
<linearGradient id="paint0_linear_171_69" x1="2" y1="362" x2="733.795" y2="275.049" gradientUnits="userSpaceOnUse">
<stop offset="0.550684" stop-color="#070707"/>
<stop offset="1" stop-color="#FAFAFA"/>
</linearGradient>
</defs>
</svg>
