<svg width="156" height="160" viewBox="0 0 156 160" fill="none" xmlns="http://www.w3.org/2000/svg">
<path d="M78 0L78.8545 76.2563L112.711 7.92249L80.3942 76.9978L140.547 30.1208L81.4597 78.3339L155.994 62.1983L81.84 80L155.994 97.8017L81.4597 81.6661L140.547 129.879L80.3942 83.0022L112.711 152.078L78.8545 83.7437L78 160L77.1455 83.7437L43.2893 152.078L75.6058 83.0022L15.4535 129.879L74.5403 81.6661L0.00576782 97.8017L74.16 80L0.00576782 62.1983L74.5403 78.3339L15.4535 30.1208L75.6058 76.9978L43.2893 7.92249L77.1455 76.2563L78 0Z" fill="#FAFAFA"/>
</svg>
