<svg width="187" height="191" viewBox="0 0 187 191" fill="none" xmlns="http://www.w3.org/2000/svg">
<path d="M93.5 0L94.775 89.9137L134.936 9.45747L97.0726 91.0201L168.165 35.9567L98.6626 93.0138L186.606 74.2493L99.23 95.5L186.606 116.751L98.6626 97.9862L168.165 155.043L97.0726 99.9799L134.936 181.543L94.775 101.086L93.5 191L92.225 101.086L52.0641 181.543L89.9274 99.9799L18.8351 155.043L88.3374 97.9862L0.394386 116.751L87.77 95.5L0.394386 74.2493L88.3374 93.0138L18.8351 35.9567L89.9274 91.0201L52.0641 9.45747L92.225 89.9137L93.5 0Z" fill="#FAFAFA"/>
</svg>
