<svg width="1904" height="304" viewBox="0 0 1904 304" fill="none" xmlns="http://www.w3.org/2000/svg">
<g clip-path="url(#clip0_275_10)">
<path d="M679.018 86.1051L-16 219.142V322.171H1904V219.142C1750.21 200.458 1559 142.672 1383.59 104.031C1318.35 89.659 985.264 22.0864 679.018 86.1051Z" fill="#070707" stroke="#FAFAFA" stroke-width="3"/>
<path d="M679.742 87.0875L-16 220.038V323H1906V220.038C1752.05 201.365 1560.64 143.618 1385.05 105.002C1319.74 90.6391 986.307 23.1104 679.742 87.0875Z" fill="#070707" stroke="#FAFAFA" stroke-width="3"/>
<g opacity="0.5" filter="url(#filter0_f_275_10)">
<path d="M679.742 77.0875L-16 210.038V313H1906V210.038C1752.05 191.365 1560.64 133.618 1385.05 95.0017C1319.74 80.6391 986.307 13.1104 679.742 77.0875Z" fill="#070707"/>
<path d="M679.742 77.0875L-16 210.038V313H1906V210.038C1752.05 191.365 1560.64 133.618 1385.05 95.0017C1319.74 80.6391 986.307 13.1104 679.742 77.0875Z" stroke="#FAFAFA" stroke-width="3"/>
</g>
<rect x="19" y="221" width="2216" height="204" fill="#070707"/>
</g>
<defs>
<filter id="filter0_f_275_10" x="-21.5" y="44.5005" width="1933" height="274" filterUnits="userSpaceOnUse" color-interpolation-filters="sRGB">
<feFlood flood-opacity="0" result="BackgroundImageFix"/>
<feBlend mode="normal" in="SourceGraphic" in2="BackgroundImageFix" result="shape"/>
<feGaussianBlur stdDeviation="2" result="effect1_foregroundBlur_275_10"/>
</filter>
<clipPath id="clip0_275_10">
<rect width="1904" height="304" fill="white"/>
</clipPath>
</defs>
</svg>
